<svg width="163" height="163" viewBox="0 0 163 163" fill="none" xmlns="http://www.w3.org/2000/svg">
<circle cx="81.5" cy="81.5" r="81.5" fill="white"/>
<path d="M75.9819 51.7639L76.2824 51.8506C76.3547 51.8708 76.3518 51.8881 76.2767 51.8997C70.1995 52.8329 65.732 55.9878 62.8683 61.3615C62.7671 61.5551 62.7989 61.5811 62.9636 61.4395C63.6803 60.8386 64.4663 60.1712 65.1396 59.7176C72.5691 54.7224 82.2902 56.0022 88.1419 62.8494C88.1968 62.9129 88.1853 62.9303 88.1073 62.8985C86.6133 62.2976 85.3938 62.4767 84.446 63.4359C83.2669 64.6291 83.2525 66.5301 84.4488 67.6944C85.0123 68.2462 85.9371 68.6622 87.2201 68.9483C94.7999 70.6326 100.776 63.3319 97.7099 56.2131C96.1754 52.648 91.2889 54.2168 91.9593 58.1402C91.9853 58.2962 91.9477 58.3135 91.8466 58.1922C88.8441 54.5721 84.9921 52.4775 80.2847 51.9055C80.12 51.8853 80.12 51.8679 80.2847 51.8506L81.1112 51.7639H75.9819Z" fill="#01B040"/>
<path d="M50.752 88.0047L50.8242 86.3753C50.8386 86.0719 50.8589 86.0719 50.8907 86.3724C51.0034 87.4298 51.0351 88.5363 51.3068 89.5157C52.6736 94.4474 55.6501 98.1743 60.239 100.694C60.2881 100.72 60.3459 100.699 60.3719 100.653C60.3921 100.616 60.3863 100.572 60.3575 100.541C53.6012 93.0982 54.1994 82.0416 61.7474 75.4111C61.8457 75.3245 61.8717 75.3418 61.8283 75.466C60.3314 79.6812 65.5416 81.8683 67.3188 78.0113C70.8761 70.2888 63.2299 62.6991 55.4565 65.6402C51.7374 67.0472 52.821 72.0598 57.1181 71.586C57.2539 71.5715 57.2683 71.6062 57.1643 71.6929C53.5406 74.6831 51.457 78.5343 50.9138 83.2435C50.8849 83.4948 50.8589 83.4948 50.8386 83.2435L50.752 82.2987V88.0047Z" fill="#01B040"/>
<path d="M105.512 91.8934C105.44 91.902 105.406 91.8934 105.406 91.8702C105.406 91.8645 105.408 91.8558 105.414 91.85C105.42 91.8385 105.429 91.8298 105.44 91.8182C105.449 91.8096 105.458 91.8009 105.469 91.7922C115.291 83.4976 113.422 68.6477 102.247 62.7337C102.23 62.7221 102.207 62.725 102.192 62.7337L102.186 62.7395L102.175 62.751C102.175 62.751 102.172 62.7568 102.172 62.7597C102.166 62.777 102.169 62.7973 102.183 62.8117C108.934 70.3869 108.535 81.3453 100.898 88.0046C100.782 88.1029 100.75 88.0826 100.802 87.9382C102.371 83.671 96.8577 81.4637 95.0661 85.9534C91.9625 93.7366 99.811 100.734 107.301 97.7438C110.931 96.2934 109.645 91.382 105.512 91.8905V91.8934Z" fill="#01B040"/>
<path d="M74.4048 82.5759C73.9048 82.1165 73.5032 81.819 73.1997 81.6832C72.3791 81.3105 71.8965 82.2639 71.9803 82.911C72.0121 83.1537 72.1739 83.4629 72.46 83.8355C75.5115 87.7849 76.4449 92.2688 75.2601 97.2901C74.3036 101.358 71.7953 104.657 67.5821 105.495C63.6058 106.284 64.4843 111.915 69.1599 111.184C72.5553 110.652 75.1474 108.907 76.9304 105.952C81.2506 98.7953 80.768 88.4003 74.4048 82.5759Z" fill="#01B040"/>
<path d="M96.4362 106.125C96.3784 106.076 96.3206 106.033 96.2686 105.992C96.2165 105.952 96.1674 105.914 96.1183 105.882C96.0865 105.859 96.0547 105.839 96.0258 105.819C95.9478 105.77 95.8784 105.729 95.8149 105.697C95.7946 105.689 95.7744 105.68 95.7542 105.671C95.6993 105.648 95.653 105.634 95.6126 105.631C92.2518 105.273 89.7926 103.614 88.2322 100.659C85.4089 95.3141 86.0071 88.516 89.7984 83.8415C90.5729 82.8881 90.1076 80.8686 88.8419 81.7786C82.6954 86.2076 81.3373 94.872 83.3716 101.728C84.9379 106.998 88.7321 111.161 94.3873 111.273C97.2713 111.331 98.7277 108.012 96.4362 106.125Z" fill="#01B040"/>
</svg>
