<svg width="36" height="38" viewBox="0 0 36 38" fill="none" xmlns="http://www.w3.org/2000/svg">
<path d="M18.6145 0C19.7265 0.140445 20.8019 0.413371 21.7788 0.995422C24.4285 2.57507 25.8614 4.9286 25.9374 8.09513C25.9944 10.4762 25.1189 12.4815 23.4714 14.1379C23.0632 14.5484 23.066 14.4984 23.5988 14.7228C26.3815 15.8978 28.6266 17.7619 30.3375 20.3059C30.7661 20.9429 30.7591 21.6647 30.3396 22.1773C29.728 22.9244 28.6808 22.9222 28.0847 22.1454C27.6934 21.6358 27.3351 21.1 26.9058 20.6201C25.0063 18.4975 22.6726 17.1734 19.9095 16.726C16.2674 16.1367 12.9906 17.0554 10.1262 19.4531C9.25069 20.1857 8.50679 21.0501 7.86424 22.0093C7.37018 22.7463 6.67414 22.9526 5.97669 22.6051C5.1793 22.2084 4.92382 21.2123 5.43336 20.4239C6.44822 18.8522 7.71292 17.5267 9.20776 16.4342C10.2437 15.6777 11.3536 15.0602 12.5458 14.6077C12.8456 14.4941 12.7752 14.4072 12.5972 14.2371C11.191 12.892 10.3268 11.2457 10.0882 9.2824C9.78205 6.7609 10.4535 4.53261 12.1235 2.65542C13.4875 1.11922 15.1963 0.24976 17.2168 0.0405408C17.2626 0.0361971 17.3062 0.0137549 17.3506 0C17.7721 0 18.1937 0 18.6145 0ZM17.9896 2.97758C15.4567 2.9298 12.8942 5.00462 12.8956 8.20155C12.897 11.3949 15.444 13.4205 17.9565 13.4328C20.5042 13.4451 23.0554 11.4072 23.0681 8.21748C23.0801 5.04226 20.5493 2.9421 17.9896 2.97758Z" fill="#01B040"/>
<path d="M0.000703785 29.5515C0.240694 29.0447 0.643963 28.8681 1.17673 28.8833C1.91289 28.9043 2.65045 28.8912 3.38732 28.8869C3.99679 28.8833 4.17274 28.7501 4.35924 28.1658C4.58516 27.4578 4.80755 26.7476 5.03206 26.0389C5.2066 25.4887 5.52049 25.2121 5.96739 25.21C6.41289 25.2078 6.72959 25.4807 6.90694 26.0331C7.14201 26.7636 7.36792 27.4976 7.60228 28.2288C7.76134 28.7262 7.96121 28.8804 8.47779 28.8854C9.26181 28.8927 10.0451 28.8869 10.8291 28.8898C11.4351 28.8919 11.7785 29.1156 11.9235 29.5956C12.0706 30.0814 11.9137 30.4767 11.4379 30.8299C10.8214 31.2875 10.2035 31.7436 9.59118 32.2069C9.15413 32.5377 9.06404 32.836 9.23929 33.3688C9.47928 34.0978 9.72982 34.8232 9.97052 35.5522C10.1577 36.1183 10.069 36.5064 9.70167 36.7873C9.30614 37.0892 8.92188 37.074 8.44331 36.7221C7.84368 36.282 7.24969 35.8331 6.65217 35.3893C6.15319 35.0187 5.80341 35.0172 5.31146 35.3806C4.70339 35.8302 4.09884 36.2841 3.48866 36.7294C3.01501 37.0754 2.60893 37.0884 2.22748 36.7858C1.8784 36.5086 1.78691 36.1147 1.96286 35.5776C2.20637 34.837 2.46184 34.1007 2.70464 33.3601C2.87566 32.8396 2.77995 32.524 2.34642 32.1967C1.75242 31.7479 1.15561 31.3034 0.552471 30.8683C0.32726 30.7061 0.138646 30.5172 0 30.2747V29.5522L0.000703785 29.5515Z" fill="#01B040"/>
<path d="M26.2772 28.886C26.6868 28.886 27.0964 28.8925 27.506 28.8846C28.0014 28.8752 28.2048 28.721 28.3583 28.2432C28.5926 27.512 28.8214 26.7786 29.0536 26.0467C29.2296 25.4922 29.5371 25.2163 29.984 25.2098C30.4288 25.2033 30.7525 25.4777 30.9292 26.0264C31.1678 26.7692 31.3965 27.5149 31.6344 28.2576C31.7808 28.7144 31.9898 28.8773 32.4613 28.8831C33.2453 28.8925 34.0294 28.8867 34.8134 28.8882C35.4538 28.8896 35.7966 29.1039 35.9458 29.5904C36.0971 30.0849 35.9366 30.4751 35.4348 30.8479C34.8275 31.2982 34.2194 31.7478 33.6155 32.2038C33.1778 32.5354 33.087 32.8337 33.2622 33.3658C33.5022 34.0955 33.7535 34.8209 33.9942 35.5499C34.1814 36.116 34.0927 36.5048 33.7253 36.785C33.3291 37.0868 32.9462 37.0716 32.4663 36.7191C31.8666 36.2782 31.2719 35.8293 30.6744 35.3856C30.1761 35.0156 29.8278 35.0142 29.333 35.3798C28.7059 35.8431 28.0838 36.3137 27.4511 36.7698C27.0344 37.0702 26.6396 37.0702 26.2765 36.8023C25.9337 36.5497 25.8092 36.1464 25.9591 35.6759C26.1998 34.9215 26.4595 34.1737 26.7072 33.4215C26.9071 32.8156 26.8156 32.5253 26.3088 32.1488C25.7022 31.6971 25.0927 31.249 24.486 30.7972C24.0391 30.4642 23.8928 30.053 24.0462 29.5774C24.1933 29.1206 24.5283 28.8954 25.0836 28.8904C25.4812 28.886 25.8795 28.8896 26.2772 28.8896V28.8867V28.886Z" fill="#01B040"/>
<path d="M14.2711 23.8278C14.6927 23.8278 15.1135 23.8358 15.5351 23.8257C15.9862 23.8148 16.1974 23.6527 16.3381 23.2161C16.5774 22.4741 16.8082 21.7284 17.0433 20.9849C17.2186 20.4326 17.5303 20.1567 17.9772 20.1531C18.4234 20.1495 18.7451 20.4282 18.9189 20.9741C19.1518 21.706 19.3799 22.4393 19.6142 23.1705C19.774 23.6686 19.9732 23.8228 20.4897 23.8278C21.2738 23.8351 22.0578 23.8293 22.8418 23.8322C23.447 23.8344 23.7919 24.0588 23.9362 24.5388C24.0826 25.0245 23.9263 25.4169 23.4463 25.7738C22.8587 26.2111 22.2696 26.6476 21.6841 27.087C21.1464 27.4903 21.0661 27.7473 21.2766 28.3836C21.5109 29.0895 21.7523 29.7931 21.9846 30.4997C22.1697 31.0622 22.0782 31.4539 21.708 31.7326C21.3111 32.0316 20.931 32.0142 20.4489 31.6595C19.8394 31.2113 19.237 30.7545 18.6282 30.305C18.1701 29.9662 17.7971 29.9654 17.3417 30.3021C16.7048 30.7726 16.0756 31.2541 15.4338 31.7167C15.0101 32.0222 14.5892 32.012 14.231 31.721C13.9108 31.4604 13.8017 31.0738 13.9488 30.6126C14.1866 29.8699 14.4407 29.1329 14.6856 28.3923C14.8996 27.7444 14.8109 27.4707 14.2641 27.066C13.656 26.6165 13.0472 26.1676 12.4413 25.7152C12.0345 25.4118 11.8937 25.0071 12.0253 24.5496C12.1555 24.0964 12.4926 23.8445 13.0071 23.8344C13.428 23.8257 13.8495 23.8329 14.2711 23.8329C14.2711 23.8315 14.2711 23.83 14.2711 23.8286V23.8278Z" fill="#01B040"/>
</svg>
