<svg width="37" height="37" viewBox="0 0 37 37" fill="none" xmlns="http://www.w3.org/2000/svg">
<g clip-path="url(#clip0_2337_43809)">
<path d="M0 19.9934C0 18.9831 0 17.9721 0 16.9618C0.0867798 16.3565 0.136678 15.7432 0.265401 15.1466C1.87444 7.72225 6.32263 2.88843 13.5666 0.624116C14.6701 0.279153 15.8163 0.136683 16.9611 0C17.9714 0 18.9823 0 19.9926 0C20.0512 0.0137407 20.1083 0.0354365 20.1676 0.0404988C22.8708 0.27409 25.3824 1.10359 27.7363 2.44512C35.127 6.65771 38.6944 15.6665 36.2204 23.7988C33.5483 32.5827 24.6896 38.4941 15.2082 36.6695C7.73714 35.2318 2.92159 30.6656 0.633492 23.4264C0.281311 22.3119 0.135232 21.1519 0 19.9934ZM18.4812 26.1188C21.0788 26.1188 23.6764 26.121 26.274 26.1174C27.05 26.1159 27.4195 25.7956 27.5504 25.0333C28.0863 21.9077 28.6164 18.7813 29.1616 15.6571C29.2498 15.1523 29.1876 14.7177 28.7675 14.3952C28.3444 14.0704 27.9026 14.1269 27.4463 14.3525C26.1525 14.9911 24.8479 15.6072 23.5593 16.2552C23.2295 16.4208 23.0675 16.3789 22.8874 16.0491C21.7904 14.0451 20.6688 12.0549 19.5652 10.0546C19.3251 9.61991 19.0098 9.33931 18.492 9.33425C17.9576 9.32919 17.6336 9.61413 17.387 10.0625C16.2915 12.0535 15.1836 14.0372 14.0786 16.0231C13.8378 16.4555 13.8341 16.4555 13.3937 16.2415C12.0523 15.5906 10.713 14.9361 9.37005 14.2896C8.95784 14.0914 8.54925 14.116 8.18116 14.4009C7.81379 14.6859 7.6923 15.0735 7.76968 15.5248C8.30844 18.662 8.8472 21.7992 9.39174 24.9357C9.55156 25.8578 9.86975 26.1188 10.799 26.1196C13.3605 26.121 15.9219 26.1196 18.4834 26.1196L18.4812 26.1188Z" fill="#01B040"/>
</g>
<defs>
<clipPath id="clip0_2337_43809">
<rect width="37" height="37" fill="white"/>
</clipPath>
</defs>
</svg>
