<svg width="48" height="48" viewBox="0 0 48 48" fill="none" xmlns="http://www.w3.org/2000/svg">
<path fill-rule="evenodd" clip-rule="evenodd" d="M48 25.9906C47.8191 27.4601 47.5894 28.9193 47.1863 30.3476C46.3641 33.2613 45.0638 35.9395 43.261 38.3718C42.7257 39.0935 41.8117 39.2661 41.163 38.7894C40.4973 38.3005 40.3624 37.4025 40.8958 36.6696C42.8157 34.0327 44.1629 31.134 44.747 27.9228C45.7838 22.2276 44.7066 16.9379 41.4517 12.1455C38.7696 8.1967 35.1228 5.4744 30.5919 3.96452C28.7207 3.34142 26.7951 3.02237 24.817 2.95199C19.9852 2.7812 15.6241 4.11936 11.7045 6.93455C11.568 7.0322 11.4357 7.13551 11.3035 7.23881C11.1777 7.33704 11.0519 7.43525 10.9226 7.52856C10.4257 7.88703 9.88951 7.96304 9.33921 7.67307C8.80859 7.39343 8.56954 6.93737 8.57329 6.33116C8.57926 5.40052 8.57831 4.46987 8.57737 3.53923C8.57669 2.8624 8.576 2.18557 8.57797 1.50873C8.58079 0.615379 9.16671 0.0138657 10.0179 0.0166809C10.8636 0.0185577 11.441 0.623824 11.4476 1.52093C11.4483 1.62108 11.4493 1.72126 11.4502 1.82146L11.4502 1.82171V1.82172C11.4542 2.25192 11.4583 2.6825 11.4439 3.11246C11.4317 3.47562 11.4982 3.55444 11.8442 3.34612C14.0247 2.03424 16.3563 1.07426 18.8509 0.568459C26.7586 -1.03526 33.8262 0.743001 39.9217 6.04683C44.1516 9.72628 46.7063 14.4108 47.7113 19.9323C47.7947 20.3894 47.8543 20.8503 47.914 21.3113C47.9421 21.529 47.9703 21.7467 48.001 21.9639V25.9915L48 25.9906ZM21.9886 47.9998L21.6923 47.9604L21.6922 47.9604C20.3722 47.7852 19.0515 47.61 17.7746 47.2162C8.52539 44.3635 2.63894 38.2667 0.55867 28.7898C-0.960988 21.8663 0.675855 15.4937 4.7839 9.74597C5.35764 8.94364 6.30449 8.75784 6.97292 9.28991C7.60759 9.79477 7.7154 10.6525 7.19885 11.3825C6.44043 12.4542 5.73919 13.5568 5.16264 14.7392C3.86985 17.393 3.13581 20.1819 2.998 23.1416C2.55176 32.7527 8.77101 41.3268 17.7277 44.1552C19.5014 44.7154 21.3201 45.0213 23.1867 45.0926C28.3475 45.2906 32.9487 43.7892 37.0248 40.6315C37.8592 39.9849 38.8089 40.0928 39.3039 40.8698C39.4698 41.1298 39.5213 41.4113 39.5204 41.7163C39.5192 42.0501 39.5173 42.384 39.5154 42.7179V42.7181C39.5084 43.9291 39.5015 45.1403 39.5279 46.351C39.5448 47.1346 39.2448 47.6685 38.5501 47.9988H37.6145C36.8945 47.6629 36.5833 47.1027 36.6405 46.3069C36.6572 46.0707 36.6527 45.8329 36.6482 45.595V45.595C36.6442 45.3803 36.6402 45.1655 36.6517 44.9519C36.6742 44.5333 36.5692 44.5108 36.227 44.7163C34.3211 45.8612 32.2849 46.701 30.1362 47.2734C28.7816 47.6347 27.3997 47.8337 26.0122 47.9988H21.9886V47.9998ZM22.6068 38.5873C22.609 38.7692 22.6111 38.951 22.6111 39.1327L22.6121 39.1318C22.6124 39.3599 22.6121 39.588 22.6118 39.8162C22.6112 40.1811 22.6107 40.546 22.613 40.911C22.6186 41.8062 23.1989 42.4115 24.0455 42.4115C24.8939 42.4124 25.4789 41.809 25.4826 40.9147C25.4831 40.8041 25.4837 40.6934 25.4842 40.5827C25.4896 39.4763 25.4949 38.3699 25.477 37.2634C25.4704 36.8881 25.6036 36.7877 25.9636 36.7802C27.3192 36.7511 28.6682 36.6206 29.99 36.31C32.4856 35.7245 34.5275 34.4952 35.6937 32.1069C36.6902 30.0669 36.8674 27.8785 36.6584 25.6658C36.4821 23.804 35.8427 22.052 35.0562 20.3629C32.5812 15.0469 29.0938 10.4327 25.1583 6.13395C24.4983 5.41232 23.6142 5.42639 22.9392 6.12925C21.8471 7.26565 20.8309 8.46962 19.8512 9.70361C17.1878 13.0584 14.756 16.5624 12.9766 20.4839C11.6745 23.3545 10.9985 26.3142 11.5695 29.4822C12.1207 32.5423 13.7041 34.7542 16.6731 35.8737C18.4178 36.5324 20.2421 36.707 22.0815 36.7783C22.4771 36.7942 22.6421 36.8834 22.6196 37.3075C22.5966 37.7333 22.6017 38.1604 22.6068 38.5873ZM25.6599 25.9567C25.6089 26.0045 25.5515 26.0584 25.4845 26.1218V26.119C25.4845 25.733 25.4848 25.3554 25.4851 24.984C25.4858 23.9849 25.4865 23.0304 25.4817 22.0755C25.4808 21.8427 25.6148 21.7048 25.7592 21.5603C25.8875 21.4322 26.0158 21.3042 26.1442 21.1762C26.6893 20.6327 27.2345 20.0891 27.7748 19.5399C28.4348 18.8689 28.4732 17.9681 27.8779 17.3741C27.2826 16.781 26.3854 16.8242 25.7142 17.4848C25.237 17.9549 24.7589 18.426 24.2948 18.9102C24.1111 19.1026 23.9817 19.0979 23.7989 18.9084C23.3236 18.4138 22.8361 17.9305 22.3449 17.451C21.6961 16.8185 20.7999 16.7913 20.2149 17.376C19.6299 17.9615 19.6543 18.8605 20.289 19.5071C20.8208 20.0497 21.3589 20.5859 21.8971 21.1222C22.0439 21.2685 22.1907 21.4148 22.3374 21.5612C22.4827 21.7057 22.6139 21.8446 22.613 22.0773C22.6082 23.0377 22.6089 23.9976 22.6097 24.96C22.6099 25.3103 22.6102 25.6609 22.6102 26.012C22.4586 26.0294 22.3887 25.9415 22.3234 25.8595C22.304 25.835 22.2849 25.8111 22.2643 25.7906C21.829 25.3585 21.3954 24.9244 20.9618 24.4903C20.5027 24.0306 20.0435 23.5708 19.5821 23.1133C18.909 22.4452 18.0175 22.3983 17.4184 22.9866C16.8081 23.5863 16.8522 24.4965 17.5384 25.1853C19.1115 26.7665 20.6865 28.3468 22.2708 29.9158C22.5099 30.1522 22.628 30.3906 22.6196 30.7341C22.5992 31.5719 22.6064 32.4106 22.6136 33.2494L22.6149 33.4019C22.6168 33.675 22.5661 33.8467 22.2343 33.842C20.6996 33.8214 19.1874 33.6525 17.7325 33.1429C15.7113 32.4354 14.7813 30.8879 14.4335 28.8657C13.9713 26.1763 14.65 23.7045 15.7844 21.3097C17.5197 17.6472 19.8784 14.3928 22.3993 11.2463C22.6551 10.9272 22.9194 10.6152 23.1836 10.3033C23.3125 10.1512 23.4414 9.99914 23.5692 9.84625C23.898 9.45337 24.2217 9.44649 24.5405 9.8256C26.5495 12.2157 28.4376 14.6959 30.0932 17.3478C31.401 19.4423 32.5766 21.6006 33.3275 23.971C33.9031 25.7878 33.9359 27.6195 33.5384 29.4625C33.0575 31.695 31.5978 32.943 29.4247 33.431C28.2979 33.6844 27.157 33.8167 26.0011 33.8467C25.5754 33.858 25.4648 33.7088 25.4761 33.3081C25.5004 32.4354 25.4948 31.5608 25.477 30.6871C25.4704 30.3775 25.5801 30.1626 25.7939 29.9505C27.4092 28.3458 29.0216 26.7374 30.6219 25.1177C31.431 24.2995 31.19 23.0401 30.1625 22.6723C29.5663 22.4583 29.0291 22.5972 28.5773 23.0495C27.6848 23.9438 26.7914 24.8372 25.8979 25.7296C25.8273 25.7997 25.7546 25.8679 25.6599 25.9567Z" fill="#F8F6F1"/>
</svg>
