<svg width="409" height="370" viewBox="0 0 409 370" fill="none" xmlns="http://www.w3.org/2000/svg">
<g clip-path="url(#clip0_2727_9111)">
<path d="M116.88 144.7L63.94 110.76C57.55 106.66 55.69 98.16 59.79 91.77L77.06 64.83C93.93 38.52 125.82 32.07 151.86 45.86C174.74 57.98 181.84 69.06 181.84 69.06C181.84 69.06 151.3 118.02 135.62 140.89C131.43 147.01 123.13 148.69 116.88 144.68V144.7Z" fill="#01B040"/>
<path d="M132.21 32.98C132.21 32.98 183.62 39.11 215.26 108.8C216.58 111.71 215.29 115.26 212.41 116.66L206.87 119.35C201.57 121.93 202.77 129.81 208.6 130.68L277.87 141.05C280.67 141.47 283.39 139.87 284.38 137.21L308.74 71.84C310.69 66.6 305.04 61.77 300.17 64.52L295.49 67.16C292.38 68.91 288.63 67.7 287.11 64.47C277.14 43.33 235.92 -23.53 132.22 32.97L132.21 32.98Z" fill="#8BC73C"/>
<path d="M256.96 70.8999C252.61 58.6799 238.8 52.5499 226.7 57.8299C216.52 62.2699 211.07 73.7199 214.04 84.4199C215.2 88.5799 217.42 92.1199 220.31 94.8399C224.96 99.2099 229.18 104.03 233.2 108.99L240.97 118.56L258.74 112.24L257.99 94.8799C257.78 90.0699 257.74 85.2399 258.17 80.4399C258.45 77.3099 258.08 74.0599 256.95 70.9099L256.96 70.8999Z" fill="#EBE7DF"/>
<path d="M256.42 111.13C255.01 107.17 250.66 105.11 246.71 106.51C242.75 107.92 240.69 112.27 242.09 116.22C243.5 120.18 247.85 122.24 251.8 120.84C255.76 119.43 257.82 115.08 256.42 111.13Z" fill="#EBE7DF"/>
<path d="M258.75 112.24L240.98 118.56L220.32 94.8399L258.18 80.4399L258.75 112.24Z" fill="#01B040"/>
<path d="M223.95 99.0299L254.37 91.6599L226.97 102.36L223.95 99.0299Z" fill="white"/>
<path d="M258.54 96.7L239.76 106.06L258.58 100.31L258.54 96.7Z" fill="white"/>
<path d="M235.53 112.65L248.83 109.38L237.67 114.96L235.53 112.65Z" fill="white"/>
<path d="M237.7 82.39C237.7 82.39 227.37 68.12 240.87 60.54C240.87 60.54 251.71 72.98 237.7 82.39Z" fill="white"/>
<path d="M233.56 83.6299C233.56 83.6299 223.52 85.5399 222.86 76.5799C222.86 76.5799 232.07 73.9499 233.56 83.6299Z" fill="white"/>
<path d="M238.94 87.72L238.04 85.26L241.89 60.72L236.65 84.89L222.87 76.58L236.65 86.03L237.76 88.15" fill="white"/>
<path d="M230.44 20.0899C232.02 10.5199 225.19 1.49992 215.36 0.569921C207.09 -0.210079 199.37 5.30992 197.44 13.3999C196.69 16.5499 196.86 19.6599 197.77 22.4899C199.23 27.0399 200.25 31.7199 201.09 36.4299L202.71 45.5099L216.64 47.8099L222.43 36.1699C224.04 32.9399 225.76 29.7599 227.78 26.7799C229.1 24.8299 230.03 22.5699 230.44 20.0999V20.0899Z" fill="white"/>
<path d="M215.51 46.2298C216.02 43.1298 213.92 40.1998 210.82 39.6898C207.72 39.1798 204.79 41.2798 204.28 44.3798C203.77 47.4798 205.87 50.4098 208.97 50.9198C212.07 51.4298 215 49.3298 215.51 46.2298Z" fill="white"/>
<path d="M216.64 47.8L202.71 45.51L197.78 22.49L227.78 26.77L216.64 47.8Z" fill="#01B040"/>
<path d="M198.63 26.5498L221.22 32.7398L199.41 29.8298L198.63 26.5498Z" fill="white"/>
<path d="M222.13 37.5599L206.44 36.8799L220.85 39.9299L222.13 37.5599Z" fill="white"/>
<path d="M201.29 39.6599L211.18 42.3399L201.85 41.9499L201.29 39.6599Z" fill="white"/>
<path d="M213.67 20.63C213.67 20.63 212.08 7.53997 223.66 7.46997C223.66 7.46997 226.25 19.54 213.67 20.63Z" fill="#8BC73C"/>
<path d="M210.51 19.95C210.51 19.95 203.24 17.56 206.06 11.46C206.06 11.46 213.04 13.07 210.51 19.95Z" fill="#8BC73C"/>
<path d="M212.55 24.57L212.85 22.64L224.26 7.96997L212.08 21.89L206.06 11.46L211.66 22.64L211.62 24.43" fill="#EBE7DF"/>
<path d="M285.38 82.3699L266.55 106.54L278.63 104.12L270.58 125.87L292.33 95.2599L279.44 97.6799L285.38 82.3699Z" fill="white"/>
<path d="M180.95 20.2998L171.05 32.9998L177.4 31.7298L173.17 43.1698L184.6 27.0698L177.82 28.3398L180.95 20.2998Z" fill="white"/>
<path d="M260.14 1.78003L239.76 27.93L252.84 25.31L244.12 48.85L267.66 15.73L253.71 18.34L260.14 1.78003Z" fill="#FCCF5C"/>
<path d="M97.59 106.43C97.59 106.43 90.58 70.9299 136.8 77.1199C136.8 77.1199 133.23 122.68 97.59 106.43Z" fill="#8BC73C"/>
<path d="M136.81 77.1199L87.54 113.75L89.68 115.89L136.81 77.1199Z" fill="white"/>
<path d="M118.67 80.26L115.35 93.07L108.22 99.39L118.76 103.27L103.82 101.51L111.96 95.18L118.67 80.26Z" fill="white"/>
<path d="M87.92 95.6198C87.92 95.6198 79.84 106.68 67.38 96.1098C67.38 96.1098 77.39 84.2398 87.92 95.6198Z" fill="white"/>
<path d="M141.72 53.99C141.72 53.99 147.99 59.6 140.76 66.58C140.76 66.58 134.12 59.74 141.72 53.99Z" fill="#8BC73C"/>
<path d="M87.26 86.1999C87.26 86.1999 78.75 87.7499 77.64 77.4899C77.64 77.4899 87.39 76.4099 87.26 86.1999Z" fill="#8BC73C"/>
<path d="M167.44 62.3C167.44 62.3 161.72 74.74 147.4 66.85C147.4 66.85 154.86 53.24 167.44 62.3Z" fill="white"/>
<path d="M104.9 67.8599C104.9 67.8599 109.64 49.6499 125.05 55.6199C125.05 55.6199 122.17 72.9999 104.9 67.8599Z" fill="#EBE7DF"/>
<path d="M101.05 65.3C101.05 65.3 92.65 58.33 99.59 51.7C99.59 51.7 108.01 57.5 101.05 65.3Z" fill="white"/>
<path d="M101.34 72.4999L102.76 70.0899L125.58 56.5899L102.12 68.6999L99.59 51.6899L101.18 69.4699L100.19 71.8199" fill="#8BC73C"/>
<path d="M123.49 133.05C123.49 133.05 117.71 115.15 102.66 122C102.66 122 106.54 139.19 123.49 133.05Z" fill="#EBE7DF"/>
<path d="M127.18 130.27C127.18 130.27 135.16 122.82 127.85 116.61C127.85 116.61 119.78 122.88 127.18 130.27Z" fill="white"/>
<path d="M127.31 137.47L125.75 135.15L102.19 122.99L126.31 133.72L127.86 116.6L127.3 134.44L128.43 136.72" fill="#8BC73C"/>
<path d="M140.93 95.2C140.93 95.2 153.1 103.44 144.68 113.24C144.68 113.24 132.63 106.58 140.93 95.2Z" fill="white"/>
<path d="M146.18 91.53C146.18 91.53 151.18 84.81 156.54 89.85C156.54 89.85 152.45 96.54 146.18 91.53Z" fill="#8BC73C"/>
<path d="M282.75 159.69L339.39 132.38C346.23 129.08 354.44 131.95 357.74 138.79L371.64 167.61C385.22 195.76 374 226.3 348.61 241.26C326.3 254.4 313.14 254.64 313.14 254.64C313.14 254.64 287.44 202.97 276.17 177.64C273.15 170.86 276.07 162.91 282.75 159.69Z" fill="#01B040"/>
<path d="M369.88 231.28C369.88 231.28 337.73 271.86 261.79 262.3C258.62 261.9 256.28 258.94 256.59 255.75L257.2 249.62C257.78 243.75 250.44 240.65 246.64 245.16L201.52 298.72C199.69 300.89 199.63 304.04 201.38 306.28L244.3 361.27C247.74 365.68 254.81 363.4 255.02 357.8L255.22 352.43C255.35 348.87 258.36 346.3 261.9 346.7C285.13 349.28 363.67 349.2 369.88 231.27V231.28Z" fill="#8BC73C"/>
<path d="M282.75 159.69L339.39 132.38C346.23 129.08 354.44 131.95 357.74 138.79L371.64 167.61C385.22 195.76 374 226.3 348.61 241.26C326.3 254.4 313.14 254.64 313.14 254.64C313.14 254.64 287.44 202.97 276.17 177.64C273.15 170.86 276.07 162.91 282.75 159.69Z" fill="#01B040"/>
<path d="M369.88 231.28C369.88 231.28 337.73 271.86 261.79 262.3C258.62 261.9 256.28 258.94 256.59 255.75L257.2 249.62C257.78 243.75 250.44 240.65 246.64 245.16L201.52 298.72C199.69 300.89 199.63 304.04 201.38 306.28L244.3 361.27C247.74 365.68 254.81 363.4 255.02 357.8L255.22 352.43C255.35 348.87 258.36 346.3 261.9 346.7C285.13 349.28 363.67 349.2 369.88 231.27V231.28Z" fill="#8BC73C"/>
<path fill-rule="evenodd" clip-rule="evenodd" d="M369.71 176.7C368.25 172.61 364.03 169.68 359.69 169.74C355.35 169.8 351.21 172.85 349.86 176.97C348.22 175.95 346 175.92 344.34 176.91C342.68 177.9 341.64 179.86 341.75 181.79C339.82 181.94 337.83 182.1 336.13 183.02C334.43 183.94 333.09 185.83 333.45 187.73C333.98 190.56 337.47 191.74 340.35 191.85C352.16 192.27 364.53 192.27 376.86 192C378.33 191.97 380.59 191.39 381.87 190.66C383.15 189.93 383.54 188.72 383.33 187.26C382.98 184.87 380.01 184.04 377.61 183.74C378.36 181.89 377.63 178.72 376.31 177.6C374.78 176.31 371.37 175.83 369.7 176.92" fill="white"/>
<path fill-rule="evenodd" clip-rule="evenodd" d="M314.19 143.1C313.02 139.81 309.62 137.45 306.13 137.5C302.64 137.55 299.31 140 298.22 143.32C296.9 142.5 295.12 142.48 293.78 143.27C292.44 144.07 291.61 145.64 291.7 147.19C290.15 147.31 288.55 147.44 287.18 148.18C285.81 148.92 284.74 150.44 285.02 151.96C285.44 154.24 288.25 155.19 290.57 155.27C300.07 155.61 310.01 155.61 319.92 155.39C321.1 155.36 322.92 154.9 323.95 154.31C324.97 153.72 325.3 152.75 325.13 151.58C324.85 149.66 322.46 148.99 320.53 148.75C321.13 147.26 320.54 144.71 319.49 143.82C318.26 142.78 315.52 142.39 314.18 143.28" fill="white"/>
<path fill-rule="evenodd" clip-rule="evenodd" d="M326.38 205.37C324.15 199.12 317.7 194.64 311.07 194.73C304.44 194.82 298.11 199.47 296.05 205.78C293.54 204.22 290.15 204.18 287.61 205.69C285.07 207.2 283.48 210.19 283.65 213.14C280.71 213.36 277.66 213.61 275.07 215.01C272.47 216.41 270.43 219.3 270.97 222.2C271.77 226.53 277.12 228.33 281.52 228.49C299.57 229.13 318.46 229.13 337.28 228.72C339.52 228.67 342.98 227.79 344.93 226.67C346.88 225.56 347.49 223.7 347.16 221.48C346.63 217.83 342.09 216.56 338.43 216.1C339.57 213.27 338.45 208.42 336.45 206.73C334.12 204.76 328.91 204.02 326.35 205.7" fill="white"/>
<path d="M303.17 317.35H239.79L272.41 274.85H335.79L303.17 317.35Z" fill="white"/>
<path d="M247.74 313.43L274.35 278.78H327.84L301.24 313.43H247.74Z" fill="#01B040"/>
<path d="M309.84 306.56H250.78L251.28 304.24L309.84 305.22V306.56Z" fill="white"/>
<path d="M316.71 297.49H257.65V296.64L316.71 295.17V297.49Z" fill="white"/>
<path d="M323.81 286.46L264.75 287.44V285.13H323.81V286.46Z" fill="white"/>
<path d="M258.26 313.92L285.68 277.33L284.73 276.92L255.56 313.68L258.26 313.92Z" fill="white"/>
<path d="M268.77 313.92L297.65 277.33L295.23 276.92L267.54 313.68L268.77 313.92Z" fill="white"/>
<path d="M280.75 313.92L307.67 277.33L306.72 276.92L278.05 313.68L280.75 313.92Z" fill="white"/>
<path d="M290.76 313.92L320.14 277.33L317.72 276.92L289.54 313.68L290.76 313.92Z" fill="white"/>
<mask id="mask0_2727_9111" style="mask-type:luminance" maskUnits="userSpaceOnUse" x="200" y="231" width="170" height="133">
<path d="M369.88 231.28C369.88 231.28 337.73 271.86 261.79 262.3C258.62 261.9 256.28 258.94 256.59 255.75L257.2 249.62C257.78 243.75 250.44 240.65 246.64 245.16L201.52 298.72C199.69 300.89 199.63 304.04 201.38 306.28L244.3 361.27C247.74 365.68 254.81 363.4 255.02 357.8L255.22 352.43C255.35 348.87 258.36 346.3 261.9 346.7C285.13 349.28 363.67 349.2 369.88 231.27V231.28Z" fill="white"/>
</mask>
<g mask="url(#mask0_2727_9111)">
<path d="M375.85 317.35H312.47L345.09 274.85H408.47L375.85 317.35Z" fill="white"/>
<path d="M320.43 313.43L347.03 278.78H400.52L373.92 313.43H320.43Z" fill="#01B040"/>
<path d="M382.53 306.56H323.47L323.96 304.24L382.53 305.22V306.56Z" fill="white"/>
<path d="M389.39 297.49H330.33V296.64L389.39 295.17V297.49Z" fill="white"/>
<path d="M396.49 286.46L337.44 287.44V285.13H396.49V286.46Z" fill="white"/>
<path d="M330.94 313.92L358.36 277.33L357.41 276.92L328.25 313.68L330.94 313.92Z" fill="white"/>
<path d="M341.45 313.92L370.34 277.33L367.92 276.92L340.22 313.68L341.45 313.92Z" fill="white"/>
<path d="M353.43 313.92L380.35 277.33L379.4 276.92L350.73 313.68L353.43 313.92Z" fill="white"/>
<path d="M363.45 313.92L392.82 277.33L390.4 276.92L362.22 313.68L363.45 313.92Z" fill="white"/>
<path d="M264.73 369.07H201.35L233.97 326.57H297.35L264.73 369.07Z" fill="white"/>
<path d="M209.31 365.15L235.91 330.49H289.4L262.8 365.15H209.31Z" fill="#01B040"/>
<path d="M271.41 358.27H212.35L212.84 355.96L271.41 356.94V358.27Z" fill="white"/>
<path d="M278.27 349.21H219.21V348.36L278.27 346.89V349.21Z" fill="white"/>
<path d="M285.38 338.18L226.32 339.16V336.84H285.38V338.18Z" fill="white"/>
<path d="M219.82 365.64L247.24 329.04L246.29 328.63L217.13 365.39L219.82 365.64Z" fill="white"/>
<path d="M230.33 365.64L259.22 329.04L256.8 328.63L229.1 365.39L230.33 365.64Z" fill="white"/>
<path d="M242.31 365.64L269.23 329.04L268.28 328.63L239.61 365.39L242.31 365.64Z" fill="white"/>
<path d="M252.33 365.64L281.7 329.04L279.28 328.63L251.1 365.39L252.33 365.64Z" fill="white"/>
<path d="M337.42 369.07H274.04L306.66 326.57H370.04L337.42 369.07Z" fill="white"/>
<path d="M281.99 365.15L308.59 330.49H362.08L335.48 365.15H281.99Z" fill="#01B040"/>
<path d="M344.09 358.27H285.03L285.52 355.96L344.09 356.94V358.27Z" fill="white"/>
<path d="M350.95 349.21H291.89V348.36L350.95 346.89V349.21Z" fill="white"/>
<path d="M358.06 338.18L299 339.16V336.84H358.06V338.18Z" fill="white"/>
<path d="M292.5 365.64L319.92 329.04L318.97 328.63L289.81 365.39L292.5 365.64Z" fill="white"/>
<path d="M303.01 365.64L331.9 329.04L329.48 328.63L301.79 365.39L303.01 365.64Z" fill="white"/>
<path d="M314.99 365.64L341.92 329.04L340.97 328.63L312.29 365.39L314.99 365.64Z" fill="white"/>
<path d="M325.01 365.64L354.39 329.04L351.96 328.63L323.78 365.39L325.01 365.64Z" fill="white"/>
</g>
<path d="M197.16 273.15L205.09 269.22L199.26 262.55L208.09 261.97L205.27 253.58L213.65 256.41L214.24 247.58L220.9 253.41L224.83 245.48L228.76 253.41L235.42 247.58L236 256.41L244.39 253.59L241.56 261.97L250.39 262.56L244.56 269.22L252.49 273.15L244.56 277.08L250.39 283.74L241.56 284.32L244.39 292.71L236 289.88L235.42 298.71L228.76 292.88L224.83 300.81L220.9 292.88L214.24 298.71L213.65 289.88L205.27 292.71L208.09 284.32L199.26 283.74L205.09 277.08L197.16 273.15Z" fill="#FCCF5C"/>
<path d="M243.388 277.803C245.945 267.564 239.716 257.19 229.477 254.633C219.237 252.076 208.863 258.304 206.306 268.544C203.75 278.784 209.978 289.158 220.218 291.715C230.457 294.271 240.831 288.043 243.388 277.803Z" fill="white"/>
<path d="M178.02 282.06L178.36 345.06C178.36 352.65 172.21 358.8 164.62 358.8H132.62C101.36 358.8 78.73 335.43 76.28 306.06C74.13 280.26 79.64 268.3 79.64 268.3C79.64 268.3 137.34 267.59 165.06 268.44C172.48 268.67 178.03 274.63 178.03 282.05L178.02 282.06Z" fill="#01B040"/>
<path d="M76.03 329.57C76.03 329.57 53.44 282.98 95.04 218.73C96.78 216.04 100.46 215.22 103.19 216.89L108.44 220.1C113.47 223.17 119.45 217.91 117.04 212.53L88.39 148.62C87.23 146.03 84.42 144.61 81.65 145.21L13.47 159.98C8.00001 161.16 6.99001 168.53 11.93 171.15L16.68 173.67C19.83 175.34 20.84 179.16 18.94 182.18C6.52001 201.98 -27.52 272.77 76.01 329.58L76.03 329.57Z" fill="#8BC73C"/>
<path d="M76.03 329.57C76.03 329.57 53.44 282.98 95.04 218.73C96.78 216.04 100.46 215.22 103.19 216.89L108.44 220.1C113.47 223.17 119.45 217.91 117.04 212.53L88.39 148.62C87.23 146.03 84.42 144.61 81.65 145.21L13.47 159.98C8.00001 161.16 6.99001 168.53 11.93 171.15L16.68 173.67C19.83 175.34 20.84 179.16 18.94 182.18C6.52001 201.98 -27.52 272.77 76.01 329.58L76.03 329.57Z" fill="#8BC73C"/>
<path d="M49.94 186.89C49.94 186.89 42.58 191.44 37.8 182.29C37.8 182.29 46.48 177.72 49.94 186.89Z" fill="#EBE7DF"/>
<path d="M53.31 180.3C53.31 180.3 40.87 176.09 46.95 161.65C46.95 161.65 60.69 167.39 53.31 180.3Z" fill="white"/>
<path d="M40.19 286.83C40.19 286.83 37.08 294.9 46.95 297.91C46.95 297.91 49.84 288.54 40.19 286.83Z" fill="#EBE7DF"/>
<path d="M67.59 227.98C67.59 227.98 74.35 227.64 73.36 219.63C73.36 219.63 65.75 220.55 67.59 227.98Z" fill="white"/>
<path d="M66.72 241.1C66.72 241.1 74.48 246.02 79.67 236.35C79.67 236.35 70.5 231.4 66.72 241.1Z" fill="#EBE7DF"/>
<path d="M46.04 282.3C46.04 282.3 52.47 293.75 65.54 285.1C65.54 285.1 57.36 272.66 46.04 282.3Z" fill="white"/>
<path d="M141.95 273.38C141.85 268.1 132.04 253.78 132.04 253.78C132.04 253.78 122.79 268.46 122.89 273.74C122.99 279.02 127.34 283.22 132.61 283.12C137.88 283.02 142.06 278.66 141.96 273.38H141.95Z" fill="white"/>
<path d="M152.04 254.94C152.04 252.42 147.49 245.51 147.49 245.51C147.49 245.51 142.94 252.42 142.94 254.94C142.94 257.46 144.97 259.5 147.49 259.5C150.01 259.5 152.04 257.46 152.04 254.94Z" fill="#01B040"/>
<path d="M91.46 320.62L94.87 317.2L96.68 315.38L101.09 321.17L103.83 318.54L105.1 317.31L108.31 321.45L104.6 319.1L100.99 322L96.48 317.86L91.46 320.62Z" fill="white"/>
<path d="M85.1 281.79L88.5 278.37L90.31 276.55L94.73 282.35L97.46 279.71L98.74 278.49L101.95 282.62L98.24 280.28L94.63 283.17L90.11 279.04L85.1 281.79Z" fill="white"/>
<path d="M111.16 298.5L116.12 293.52L118.75 290.87L125.17 299.3L129.16 295.47L131.01 293.68L135.68 299.7L130.28 296.29L125.03 300.51L118.46 294.49L111.16 298.5Z" fill="white"/>
<path d="M14.59 208.34L49.74 215.37L40.88 277.07L0.529999 262.23L14.59 208.34Z" fill="white"/>
<path d="M40.88 277.07L52.86 264.57L61.45 266.91L63.01 212.24L56.77 216.15L49.74 215.37L40.88 277.07Z" fill="#EBE7DF"/>
<path d="M14.59 208.34L24.74 207.55L27.09 204.04L63.01 212.24L56.38 218.1L49.74 215.37L14.59 208.34Z" fill="#01B040"/>
<path d="M23.66 245.88L22.62 250.41C22.49 250.96 21.95 251.3 21.4 251.17L19.1 250.64C16.85 250.12 15.61 248.06 15.92 245.91C16.19 244.02 16.79 243.25 16.79 243.25C16.79 243.25 20.95 244.16 22.94 244.68C23.47 244.82 23.79 245.35 23.67 245.89L23.66 245.88Z" fill="#8BC73C"/>
<path d="M15.51 247.59C15.51 247.59 14.66 243.86 18.72 239.93C18.89 239.77 19.17 239.77 19.34 239.93L19.66 240.25C19.97 240.55 20.49 240.27 20.4 239.85L19.4 234.77C19.36 234.56 19.18 234.42 18.97 234.41L13.82 234.34C13.41 234.34 13.21 234.85 13.52 235.12L13.82 235.38C14.02 235.55 14.03 235.84 13.84 236.03C12.62 237.25 8.99001 241.78 15.5 247.59H15.51Z" fill="#8BC73C"/>
<path d="M21.52 234.96L18.27 231.64C17.88 231.24 17.89 230.6 18.29 230.2L19.98 228.55C21.63 226.94 24.03 227 25.68 228.43C27.13 229.68 27.45 230.6 27.45 230.6C27.45 230.6 24.44 233.62 22.93 235C22.53 235.37 21.9 235.35 21.52 234.96Z" fill="#8BC73C"/>
<path d="M24.47 227.18C24.47 227.18 28.07 228.47 29.19 234.02C29.24 234.25 29.08 234.49 28.85 234.54L28.41 234.64C27.99 234.74 27.94 235.32 28.35 235.48L33.16 237.38C33.35 237.46 33.58 237.38 33.69 237.21L36.53 232.91C36.76 232.56 36.43 232.12 36.03 232.24L35.65 232.35C35.4 232.42 35.15 232.27 35.09 232.02C34.72 230.33 32.87 224.84 24.46 227.18H24.47Z" fill="#8BC73C"/>
<path d="M33.21 238.79L37.74 237.76C38.29 237.64 38.83 237.98 38.95 238.53L39.47 240.84C39.98 243.09 38.67 245.1 36.59 245.76C34.77 246.34 33.82 246.13 33.82 246.13C33.82 246.13 32.83 241.98 32.44 239.97C32.34 239.43 32.68 238.91 33.21 238.79Z" fill="#8BC73C"/>
<path d="M38.29 245.39C38.29 245.39 35.3 247.78 29.99 245.83C29.77 245.75 29.65 245.5 29.72 245.27L29.87 244.84C30.01 244.43 29.53 244.08 29.18 244.34L25.04 247.45C24.87 247.58 24.82 247.8 24.9 247.99L27.08 252.66C27.25 253.03 27.8 252.99 27.91 252.59L28.01 252.21C28.08 251.96 28.34 251.82 28.59 251.91C30.22 252.48 35.87 253.78 38.28 245.39H38.29Z" fill="#8BC73C"/>
<path d="M31.38 207.16L32.55 195.06L57.94 199.74L53.25 211.85H51.3L54.03 200.92L35.68 197.01L34.12 207.95L31.38 207.16Z" fill="#01B040"/>
<path d="M23.18 210.68L24.35 198.57L49.74 203.26L45.05 215.37H43.1L45.83 204.43L27.48 200.53L25.91 211.46L23.18 210.68Z" fill="white"/>
<path d="M108.48 162.75L80.07 160.31L73.13 209.4L107.24 207.03L108.48 162.75Z" fill="white"/>
<path d="M73.13 209.4L66.75 197.2L59.72 194.34L70.62 154.97L74.53 159.34L80.07 160.31L73.13 209.4Z" fill="#EBE7DF"/>
<path d="M108.48 162.75L100.9 159.9L99.89 156.69L70.62 154.97L74.39 160.92L80.07 160.31L108.48 162.75Z" fill="#01B040"/>
<path d="M93.21 189.41L93 193.1C92.97 193.55 93.32 193.93 93.76 193.95L95.64 194.06C97.47 194.16 98.88 192.87 99.12 191.15C99.33 189.64 99.05 188.92 99.05 188.92C99.05 188.92 95.67 188.69 94.04 188.64C93.6 188.63 93.24 188.97 93.21 189.4V189.41Z" fill="#FCCF5C"/>
<path d="M99.05 192.53C99.05 192.53 100.53 189.87 98.3 185.96C98.21 185.8 97.99 185.74 97.83 185.83L97.51 186C97.2 186.16 96.87 185.83 97.03 185.53L98.92 181.88C99 181.73 99.17 181.66 99.33 181.7L103.28 182.79C103.6 182.88 103.63 183.31 103.33 183.45L103.04 183.58C102.85 183.67 102.78 183.89 102.88 184.07C103.54 185.27 105.3 189.54 99.04 192.53H99.05Z" fill="#FCCF5C"/>
<path d="M97.27 181.55L100.49 179.74C100.88 179.52 101.02 179.03 100.8 178.64L99.88 177C98.98 175.4 97.13 174.92 95.56 175.64C94.18 176.27 93.72 176.9 93.72 176.9C93.72 176.9 95.35 179.87 96.19 181.27C96.42 181.64 96.9 181.77 97.28 181.55H97.27Z" fill="#FCCF5C"/>
<path d="M96.74 174.94C96.74 174.94 93.7 175.13 91.62 179.11C91.53 179.28 91.6 179.49 91.76 179.58L92.08 179.76C92.38 179.93 92.29 180.39 91.94 180.42L87.84 180.8C87.67 180.82 87.52 180.71 87.47 180.55L86.26 176.63C86.16 176.32 86.51 176.05 86.79 176.23L87.06 176.4C87.24 176.51 87.46 176.45 87.56 176.27C88.21 175.06 90.85 171.28 96.75 174.94H96.74Z" fill="#FCCF5C"/>
<path d="M87.49 181.88L84.26 180.09C83.87 179.87 83.38 180.02 83.16 180.41L82.25 182.05C81.36 183.66 81.92 185.49 83.36 186.45C84.62 187.3 85.4 187.35 85.4 187.35C85.4 187.35 87.08 184.4 87.82 182.96C88.02 182.57 87.87 182.1 87.49 181.89V181.88Z" fill="#FCCF5C"/>
<path d="M82.14 185.79C82.14 185.79 83.89 188.28 88.38 187.97C88.57 187.96 88.71 187.79 88.71 187.6L88.69 187.24C88.68 186.89 89.12 186.74 89.32 187.01L91.79 190.3C91.89 190.43 91.88 190.62 91.77 190.74L89.07 193.82C88.85 194.07 88.45 193.91 88.45 193.58V193.26C88.45 193.05 88.29 192.89 88.08 192.9C86.71 192.97 82.1 192.71 82.13 185.77L82.14 185.79Z" fill="#FCCF5C"/>
<path d="M95.91 158.12L97.71 148.62L77.28 146.56L78.17 156.84L79.66 157.28L80 148.32L94.89 149.41L93.65 158.11L95.91 158.12Z" fill="#01B040"/>
<path d="M101.39 162.63L103.19 153.12L82.76 151.06L83.65 161.35L85.14 161.78L85.48 152.82L100.37 153.92L99.13 162.62L101.39 162.63Z" fill="white"/>
<mask id="mask1_2727_9111" style="mask-type:luminance" maskUnits="userSpaceOnUse" x="75" y="268" width="104" height="91">
<path d="M178.11 282.15L178.36 345.06C178.36 352.65 172.21 358.8 164.62 358.8H132.62C101.36 358.8 78.73 335.43 76.28 306.06C74.13 280.26 79.64 268.3 79.64 268.3C79.64 268.3 137.34 267.59 165.06 268.44C172.48 268.67 178.12 274.72 178.12 282.14L178.11 282.15Z" fill="white"/>
</mask>
<g mask="url(#mask1_2727_9111)">
<path d="M101.89 360.51C101.89 360.51 177.49 249.25 178.2 251.39C178.91 253.53 178.2 361.22 178.2 361.22L101.89 360.51Z" fill="#8BC73C"/>
</g>
<path d="M177.96 248.54L146.91 294.7C146.91 294.7 151.53 300.34 158.71 289.06C158.71 289.06 154.09 305.99 164.86 309.58C175.63 313.17 178.47 296.25 178.47 296.25L177.96 248.55V248.54Z" fill="white"/>
<path d="M130.15 193.022L140.662 193.082C140.704 193.082 140.739 193.117 140.739 193.16V196.642C140.739 196.684 140.704 196.719 140.662 196.719H125.591C125.549 196.719 125.514 196.684 125.514 196.642V177.077C125.514 177.035 125.549 177 125.591 177L140.287 177.02C140.33 177.02 140.365 177.055 140.365 177.097V180.56C140.365 180.602 140.33 180.637 140.287 180.637L130.15 180.704C130.107 180.704 130.072 180.739 130.072 180.782V184.855C130.072 184.898 130.107 184.933 130.15 184.933H139.102C139.145 184.933 139.18 184.968 139.18 185.01V188.41C139.18 188.452 139.145 188.487 139.102 188.487H130.15C130.107 188.487 130.072 188.522 130.072 188.565V192.945C130.072 192.987 130.107 193.022 130.15 193.022Z" fill="black"/>
<path d="M183.086 177.005C180.167 177.02 177.22 177.017 174.248 177C174.156 177 174.111 177.045 174.111 177.137V196.525C174.111 196.654 174.176 196.719 174.306 196.719H178.542C178.627 196.719 178.669 196.677 178.669 196.592L178.657 191.408C178.657 191.329 178.697 191.289 178.777 191.291C180.241 191.301 181.706 191.296 183.171 191.276C194.004 191.124 193.762 176.955 183.086 177.005ZM186.526 184.394C186.526 186.13 184.95 187.539 183.003 187.539H178.722C178.689 187.539 178.662 187.512 178.662 187.48V180.804C178.662 180.772 178.689 180.744 178.722 180.744H183.003C184.95 180.744 186.526 182.154 186.526 183.89V184.394Z" fill="black"/>
<path d="M232.429 186.053C230.889 189.688 232.386 194.16 235.889 195.912C239.138 197.533 244.053 197.408 246.653 194.557C246.701 194.505 246.701 194.455 246.653 194.405L244.49 192.07C244.428 192.003 244.363 191.998 244.293 192.055C241.907 194.006 237.254 194.148 236.358 190.506C236.341 190.431 236.368 190.394 236.446 190.394L247.599 190.344C247.661 190.344 247.696 190.314 247.704 190.252C248.971 180.598 235.809 178.073 232.429 186.053ZM243.474 187.802H236.368C236.289 187.802 236.256 187.762 236.269 187.685C236.96 183.671 242.903 183.688 243.587 187.67C243.602 187.757 243.564 187.802 243.474 187.802Z" fill="black"/>
<path d="M258.445 181.33V185.446C256.115 185.112 254.585 185.791 253.859 187.479C253.575 188.143 253.428 189.283 253.418 190.897C253.405 192.795 253.423 194.689 253.47 196.577C253.47 196.672 253.425 196.719 253.33 196.719H249.163C249.101 196.719 249.051 196.669 249.051 196.607L249.024 181.692C249.024 181.607 249.066 181.565 249.148 181.565H253.143C253.225 181.565 253.268 181.607 253.268 181.69V183.256C253.268 183.359 253.303 183.373 253.375 183.301C254.75 181.932 256.442 181.273 258.445 181.33Z" fill="black"/>
<path d="M142.893 184.217C146.279 180.325 153.701 180.088 156.344 185.07C156.379 185.137 156.354 185.22 156.286 185.257L153.098 186.953C153.005 187.003 152.93 186.983 152.876 186.896C151.715 185.092 150.141 184.519 148.157 185.175C144.41 186.419 144.781 192.775 149.14 193.307C150.68 193.494 151.942 192.85 152.928 191.374C152.975 191.301 153.04 191.284 153.118 191.326L156.291 193.07C156.349 193.102 156.369 193.172 156.336 193.229C153.734 197.994 146.456 198.099 143.032 194.217C140.635 191.498 140.477 186.993 142.893 184.217Z" fill="black"/>
<path d="M164.645 181.348C161.017 181.174 157.13 183.177 156.204 186.931C153.42 198.209 170.663 200.678 172.388 190.593C173.268 185.447 169.75 181.595 164.645 181.348ZM164.199 193.354C162.05 193.339 160.321 191.441 160.336 189.114C160.354 186.786 162.108 184.913 164.259 184.928C166.407 184.943 168.136 186.841 168.121 189.169C168.104 191.496 166.349 193.369 164.199 193.354Z" fill="black"/>
<path d="M202.697 181.835C202.438 181.75 202.176 181.678 201.916 181.613C201.784 181.583 201.652 181.553 201.519 181.525C201.417 181.505 201.315 181.485 201.21 181.468C201.16 181.458 201.108 181.451 201.058 181.443C200.951 181.426 200.843 181.413 200.736 181.398C200.604 181.381 200.472 181.368 200.339 181.358C200.24 181.348 200.14 181.343 200.037 181.338H200.01C199.97 181.336 199.928 181.336 199.888 181.333C199.778 181.328 199.666 181.326 199.556 181.326C199.331 181.326 199.107 181.333 198.88 181.348C198.827 181.351 198.777 181.356 198.725 181.361C198.673 181.366 198.623 181.371 198.57 181.376C198.56 181.376 198.55 181.376 198.538 181.378C198.458 181.386 198.381 181.396 198.301 181.406H198.291C198.268 181.408 198.248 181.411 198.226 181.413C198.211 181.416 198.194 181.418 198.179 181.421C198.039 181.441 197.902 181.461 197.762 181.485C190.716 182.728 188.825 191.95 194.855 195.664C197.34 197.193 200.654 197.336 203.311 196.178C209.686 193.402 209.332 183.992 202.697 181.835ZM199.561 193.354C197.413 193.342 195.678 191.449 195.691 189.121C195.703 186.794 197.455 184.918 199.606 184.928C201.754 184.94 203.488 186.834 203.476 189.161C203.463 191.489 201.712 193.364 199.561 193.354Z" fill="black"/>
<path d="M229.207 181.565H232.902C232.949 181.565 232.989 181.605 232.989 181.653C232.989 181.663 232.989 181.673 232.984 181.683L227.56 196.662C227.547 196.697 227.515 196.72 227.478 196.72H223.351C223.313 196.72 223.281 196.697 223.268 196.662L219.977 187.532C219.96 187.487 219.908 187.465 219.865 187.482C219.843 187.492 219.825 187.51 219.815 187.532L216.417 196.662C216.404 196.697 216.372 196.72 216.337 196.72H212.228C212.19 196.72 212.158 196.697 212.145 196.662L206.758 181.683C206.741 181.638 206.766 181.588 206.811 181.57C206.821 181.568 206.831 181.565 206.841 181.565H210.793C210.83 181.565 210.863 181.59 210.875 181.625L214.331 191.611C214.346 191.656 214.396 191.681 214.441 191.666C214.466 191.658 214.486 191.638 214.496 191.613L218.111 181.623C218.124 181.588 218.156 181.565 218.193 181.565H221.796C221.834 181.565 221.866 181.588 221.879 181.623L225.379 191.603C225.394 191.648 225.444 191.673 225.492 191.656C225.516 191.646 225.536 191.628 225.544 191.603L229.124 181.623C229.137 181.588 229.169 181.565 229.207 181.565Z" fill="black"/>
<path d="M218.597 204.248C218.597 204.21 218.589 204.17 218.582 204.133C218.579 204.105 218.574 204.075 218.569 204.048C218.562 204.006 218.554 203.966 218.547 203.926C218.537 203.886 218.527 203.843 218.517 203.801L218.482 203.669V203.659C218.482 203.659 218.472 203.639 218.47 203.626C218.455 203.577 218.44 203.534 218.422 203.487C218.41 203.449 218.395 203.407 218.38 203.37C218.377 203.365 218.377 203.362 218.375 203.357C218.375 203.355 218.372 203.355 218.372 203.352C218.37 203.347 218.37 203.345 218.367 203.34C218.342 203.28 218.315 203.22 218.287 203.157C218.282 203.15 218.28 203.14 218.275 203.133C218.26 203.103 218.243 203.073 218.228 203.04C218.215 203.018 218.2 202.993 218.188 202.968C218.175 202.943 218.16 202.918 218.145 202.896C218.13 202.871 218.118 202.846 218.103 202.823C218.09 202.798 218.075 202.773 218.058 202.751C218.015 202.686 217.971 202.624 217.926 202.561C217.878 202.499 217.831 202.439 217.781 202.379C217.744 202.337 217.706 202.294 217.666 202.252C217.626 202.21 217.586 202.17 217.544 202.13C217.511 202.1 217.482 202.07 217.449 202.04C217.417 202.01 217.382 201.983 217.349 201.955C217.284 201.898 217.215 201.845 217.145 201.793C217.107 201.768 217.072 201.743 217.035 201.718C217 201.696 216.963 201.671 216.925 201.648C216.85 201.601 216.773 201.556 216.696 201.516C216.656 201.496 216.613 201.474 216.573 201.454C216.571 201.454 216.571 201.454 216.568 201.454C216.531 201.436 216.493 201.421 216.456 201.404C216.414 201.386 216.374 201.369 216.331 201.351C216.291 201.334 216.249 201.319 216.207 201.304C216.094 201.264 215.979 201.229 215.86 201.199C215.807 201.184 215.752 201.172 215.698 201.162C215.693 201.162 215.685 201.159 215.68 201.159C215.64 201.149 215.6 201.142 215.56 201.137C215.51 201.127 215.46 201.119 215.408 201.114C215.331 201.104 215.253 201.097 215.176 201.092C215.151 201.09 215.124 201.087 215.099 201.087C215.091 201.085 215.084 201.085 215.076 201.085C215.031 201.082 214.984 201.082 214.939 201.082H214.909C214.847 201.082 214.782 201.085 214.719 201.087C214.67 201.09 214.62 201.092 214.57 201.097C214.55 201.099 214.527 201.099 214.507 201.102C214.455 201.107 214.403 201.114 214.348 201.122C214.288 201.132 214.228 201.142 214.168 201.154C214.126 201.162 214.083 201.169 214.041 201.182C214.008 201.187 213.976 201.194 213.943 201.204C213.901 201.214 213.856 201.227 213.814 201.239C213.699 201.274 213.587 201.314 213.477 201.359C213.365 201.404 213.255 201.454 213.15 201.509C213.098 201.534 213.048 201.561 213 201.591C212.948 201.621 212.898 201.651 212.851 201.683C212.803 201.713 212.758 201.743 212.713 201.776C212.708 201.778 212.701 201.783 212.696 201.788C212.651 201.818 212.609 201.85 212.569 201.883C212.561 201.888 212.554 201.895 212.546 201.9C212.531 201.913 212.516 201.923 212.504 201.935C212.474 201.96 212.444 201.985 212.416 202.01C212.384 202.035 212.354 202.065 212.322 202.095C212.314 202.102 212.307 202.107 212.302 202.112C212.259 202.152 212.217 202.195 212.179 202.235C212.12 202.297 212.062 202.362 212.007 202.429C211.97 202.476 211.932 202.524 211.895 202.574C211.865 202.611 211.838 202.651 211.813 202.691C211.798 202.711 211.783 202.733 211.768 202.756C211.753 202.776 211.74 202.798 211.728 202.821C211.705 202.851 211.688 202.883 211.67 202.916C211.653 202.94 211.638 202.968 211.626 202.995C211.611 203.02 211.598 203.048 211.583 203.075C211.556 203.13 211.528 203.187 211.501 203.245C211.483 203.282 211.468 203.322 211.453 203.36C211.441 203.387 211.431 203.417 211.421 203.447C211.403 203.489 211.389 203.532 211.376 203.574C211.364 203.614 211.351 203.654 211.339 203.694C211.316 203.769 211.299 203.846 211.281 203.926C211.271 203.971 211.264 204.018 211.256 204.065C211.246 204.118 211.239 204.173 211.234 204.228C211.226 204.285 211.221 204.34 211.216 204.397C211.211 204.465 211.209 204.532 211.209 204.599C211.196 206.558 212.843 208.157 214.889 208.171H214.919C214.981 208.171 215.041 208.169 215.104 208.166C215.146 208.164 215.186 208.162 215.223 208.159C215.228 208.159 215.231 208.159 215.236 208.159C215.258 208.157 215.281 208.157 215.303 208.154C215.326 208.152 215.348 208.152 215.371 208.147C215.416 208.142 215.463 208.137 215.508 208.129C215.51 208.129 215.515 208.127 215.52 208.127C215.618 208.112 215.717 208.092 215.812 208.069C215.915 208.044 216.014 208.017 216.112 207.984C216.112 207.984 216.113 207.984 216.117 207.982C216.152 207.972 216.189 207.959 216.224 207.944C216.266 207.932 216.309 207.915 216.349 207.897C216.401 207.877 216.451 207.855 216.503 207.832C216.613 207.782 216.721 207.727 216.825 207.665C216.873 207.64 216.918 207.613 216.963 207.583C217.017 207.548 217.07 207.513 217.122 207.476C217.162 207.448 217.2 207.421 217.237 207.391C217.269 207.366 217.302 207.338 217.334 207.311C217.362 207.288 217.389 207.266 217.417 207.241C217.447 207.216 217.477 207.189 217.506 207.161C217.639 207.039 217.763 206.904 217.873 206.762C217.931 206.69 217.983 206.617 218.035 206.54C218.048 206.52 218.06 206.503 218.073 206.483C218.1 206.438 218.128 206.395 218.155 206.35C218.158 206.343 218.163 206.338 218.165 206.331C218.2 206.271 218.233 206.208 218.262 206.146C218.292 206.091 218.317 206.034 218.34 205.976C218.357 205.941 218.372 205.904 218.387 205.867C218.39 205.859 218.392 205.852 218.395 205.844C218.405 205.817 218.417 205.787 218.427 205.757C218.44 205.727 218.45 205.697 218.457 205.669C218.46 205.664 218.46 205.662 218.462 205.657V205.652C218.482 205.59 218.5 205.53 218.514 205.465C218.522 205.437 218.529 205.408 218.534 205.38C218.542 205.35 218.549 205.318 218.554 205.285C218.559 205.268 218.562 205.248 218.564 205.23C218.572 205.193 218.577 205.153 218.582 205.116C218.594 205.051 218.602 204.983 218.607 204.916V204.911C218.609 204.876 218.612 204.841 218.614 204.806C218.617 204.756 218.619 204.707 218.619 204.654C218.619 204.519 218.612 204.385 218.597 204.253V204.248ZM214.914 207.019C213.592 207.019 212.521 205.949 212.521 204.627C212.521 203.305 213.592 202.235 214.914 202.235C216.236 202.235 217.307 203.305 217.307 204.627C217.307 205.949 216.236 207.019 214.914 207.019Z" fill="#4DC679"/>
<path d="M176.093 201.783C177.435 200.835 179.708 200.85 180.948 202.105C181.021 202.179 181.021 202.254 180.948 202.327L180.399 202.878C180.327 202.95 180.247 202.955 180.165 202.893C179.194 202.155 178.214 202.02 177.22 202.489C174.468 203.786 176.207 207.977 179.479 206.809C180.003 206.62 179.785 205.118 179.763 204.699C179.758 204.617 179.798 204.574 179.88 204.574L180.851 204.579C180.933 204.579 180.976 204.619 180.976 204.701V207.149C180.976 207.236 180.938 207.303 180.866 207.351C179.538 208.226 178.156 208.391 176.716 207.845C174.157 206.872 173.927 203.312 176.095 201.783H176.093Z" fill="#4DC679"/>
<path d="M204.754 203.656C205.727 204.093 206.989 204.17 207.838 204.774C208.606 205.318 208.671 206.393 208.197 207.111C207.179 208.655 204.487 208.229 203.142 207.426C203.062 207.378 203.039 207.311 203.077 207.224L203.406 206.48C203.451 206.378 203.519 206.358 203.611 206.42C204.646 207.121 205.752 207.259 206.929 206.827C207.211 206.725 207.358 206.413 207.256 206.129C207.256 206.129 207.256 206.126 207.256 206.124C206.949 205.305 205.332 205.103 204.574 204.876C203.381 204.52 202.835 203.39 203.414 202.279C204.232 200.713 206.78 200.992 208.085 201.606C208.184 201.653 208.214 201.731 208.172 201.833L207.87 202.579C207.833 202.671 207.77 202.694 207.683 202.646C206.874 202.215 203.8 201.663 204.589 203.487C204.624 203.564 204.679 203.622 204.756 203.656H204.754Z" fill="#4DC679"/>
<path d="M140.45 207.009H144.148C144.195 207.009 144.233 207.047 144.233 207.094V207.984C144.233 208.032 144.195 208.069 144.148 208.069H139.17C139.123 208.069 139.085 208.032 139.085 207.984L139.1 201.294C139.1 201.247 139.138 201.209 139.185 201.209H144.023C144.07 201.209 144.108 201.247 144.108 201.294V202.185C144.108 202.232 144.07 202.27 144.023 202.27H140.45C140.403 202.27 140.365 202.307 140.365 202.354V203.993C140.365 204.041 140.403 204.078 140.45 204.078H143.586C143.634 204.078 143.671 204.113 143.671 204.16V204.991C143.671 205.038 143.634 205.076 143.586 205.076H140.45C140.403 205.076 140.365 205.113 140.365 205.161V206.924C140.365 206.972 140.403 207.009 140.45 207.009Z" fill="#4DC679"/>
<path d="M148.764 208.069H147.686C147.638 208.069 147.601 208.032 147.601 207.984V201.294C147.601 201.247 147.638 201.209 147.686 201.209H148.616C148.641 201.209 148.666 201.222 148.681 201.242L152.254 205.64C152.284 205.675 152.339 205.68 152.374 205.65C152.394 205.635 152.404 205.61 152.404 205.585V201.294C152.404 201.247 152.441 201.209 152.489 201.209H153.567C153.614 201.209 153.651 201.247 153.651 201.294V207.984C153.651 208.032 153.614 208.069 153.567 208.069H152.678C152.653 208.069 152.628 208.057 152.613 208.037L148.998 203.587C148.968 203.552 148.913 203.547 148.878 203.577C148.858 203.592 148.848 203.617 148.848 203.642V207.984C148.848 208.032 148.811 208.069 148.764 208.069Z" fill="#4DC679"/>
<path d="M158.821 207.009H162.484C162.529 207.009 162.567 207.044 162.569 207.089L162.612 207.979C162.614 208.027 162.579 208.067 162.532 208.069C162.532 208.069 162.529 208.069 162.527 208.069H157.534C157.487 208.069 157.449 208.032 157.449 207.984L157.472 201.294C157.472 201.247 157.509 201.209 157.556 201.209H162.362C162.409 201.209 162.447 201.247 162.447 201.294V202.185C162.447 202.232 162.409 202.27 162.362 202.27H158.841C158.794 202.27 158.757 202.307 158.757 202.354L158.772 203.993C158.772 204.041 158.809 204.078 158.856 204.078H161.905C161.95 204.076 161.985 204.108 161.99 204.153L162.06 204.984C162.065 205.031 162.03 205.071 161.983 205.076C161.98 205.076 161.978 205.076 161.975 205.076H158.831C158.784 205.076 158.747 205.113 158.747 205.161L158.737 206.924C158.737 206.972 158.774 207.009 158.821 207.009Z" fill="#4DC679"/>
<path d="M171.716 207.894L170.358 205.949C170.296 205.861 170.314 205.794 170.408 205.744C171.494 205.165 171.915 204.297 171.673 203.137C171.174 200.74 168.153 201.174 166.117 201.222C166.039 201.224 166.002 201.261 166.002 201.339V207.944C166.002 208.027 166.044 208.069 166.127 208.069H167.125C167.207 208.069 167.25 208.027 167.25 207.944V206.198C167.25 206.156 167.26 206.126 167.282 206.106C167.285 206.106 167.285 206.103 167.287 206.101C167.287 206.101 167.287 206.098 167.292 206.098H167.294C167.294 206.098 167.309 206.083 167.319 206.081C167.334 206.076 167.354 206.073 167.374 206.073H168.946C169.034 206.073 169.101 206.108 169.151 206.178L170.383 207.944C170.443 208.027 170.523 208.069 170.625 208.069H171.623C171.766 208.069 171.798 208.012 171.716 207.894ZM169.091 204.948L167.324 204.943C167.292 204.943 167.267 204.918 167.267 204.886L167.277 202.387C167.277 202.354 167.302 202.329 167.334 202.329L169.101 202.334C169.807 202.337 170.378 202.86 170.376 203.504V203.788C170.373 204.432 169.797 204.951 169.091 204.948Z" fill="#4DC679"/>
<path d="M185.761 201.209H184.668C184.625 201.209 184.59 201.244 184.59 201.287V207.992C184.59 208.035 184.625 208.069 184.668 208.069H185.761C185.803 208.069 185.838 208.035 185.838 207.992V201.287C185.838 201.244 185.803 201.209 185.761 201.209Z" fill="#4DC679"/>
<path d="M196.069 207.917L193.07 201.272C193.07 201.272 193.06 201.254 193.052 201.247C193.047 201.239 193.04 201.232 193.03 201.227C193.015 201.217 192.995 201.209 192.972 201.209H191.842C191.822 201.209 191.802 201.217 191.785 201.227C191.775 201.232 191.767 201.239 191.762 201.247C191.755 201.254 191.75 201.262 191.745 201.272L188.763 207.917C188.756 207.932 188.753 207.947 188.753 207.962C188.753 207.975 188.756 207.984 188.758 207.994C188.761 208.002 188.763 208.007 188.766 208.012C188.768 208.017 188.771 208.022 188.776 208.027C188.778 208.032 188.783 208.037 188.788 208.042C188.798 208.052 188.813 208.059 188.825 208.062C188.838 208.067 188.848 208.069 188.86 208.069H189.936C189.936 208.069 189.956 208.067 189.966 208.064C189.986 208.059 190.006 208.047 190.016 208.029C190.023 208.022 190.028 208.014 190.033 208.004L190.652 206.558C190.669 206.518 190.707 206.493 190.749 206.493L194.045 206.468C194.09 206.468 194.128 206.495 194.145 206.535L194.764 208.004C194.781 208.044 194.821 208.069 194.864 208.069H195.969C195.981 208.069 195.994 208.067 196.006 208.062C196.009 208.062 196.014 208.062 196.016 208.059C196.026 208.054 196.036 208.047 196.046 208.039C196.056 208.029 196.064 208.017 196.069 208.004C196.074 207.994 196.076 207.982 196.079 207.97C196.079 207.952 196.079 207.935 196.069 207.917ZM193.596 205.398C193.596 205.398 193.591 205.408 193.589 205.413C193.581 205.425 193.569 205.435 193.554 205.443C193.544 205.448 193.531 205.45 193.521 205.45H191.281C191.258 205.45 191.238 205.44 191.223 205.425L191.216 205.418C191.216 205.418 191.213 205.415 191.213 205.413C191.208 205.408 191.206 205.403 191.206 205.398C191.206 205.398 191.205 205.396 191.203 205.393C191.203 205.393 191.201 205.385 191.201 205.383C191.198 205.378 191.198 205.373 191.198 205.368C191.198 205.355 191.201 205.345 191.206 205.335L192.326 202.701C192.326 202.701 192.334 202.686 192.339 202.681C192.341 202.679 192.344 202.679 192.344 202.676C192.344 202.676 192.345 202.675 192.349 202.674C192.349 202.674 192.349 202.669 192.354 202.669H192.356C192.356 202.669 192.361 202.664 192.363 202.664C192.363 202.664 192.365 202.663 192.368 202.661C192.368 202.661 192.391 202.654 192.401 202.654C192.411 202.654 192.421 202.656 192.433 202.661H192.436C192.436 202.661 192.448 202.669 192.456 202.674C192.458 202.676 192.461 202.679 192.463 202.681C192.468 202.689 192.473 202.694 192.476 202.701L193.596 205.335C193.596 205.335 193.604 205.358 193.604 205.368C193.604 205.378 193.601 205.388 193.596 205.398Z" fill="#4DC679"/>
<path d="M223.247 207.009H226.667C226.717 207.009 226.757 207.049 226.757 207.099V207.979C226.757 208.029 226.717 208.069 226.667 208.069H221.982C221.932 208.069 221.892 208.029 221.892 207.979V201.299C221.892 201.249 221.932 201.209 221.982 201.209H223.065C223.114 201.209 223.154 201.249 223.154 201.299V206.919C223.157 206.969 223.197 207.009 223.247 207.009Z" fill="#4DC679"/>
<path d="M236.127 207.935L233.133 201.264C233.133 201.264 233.123 201.247 233.115 201.239C233.113 201.234 233.108 201.232 233.105 201.229C233.095 201.222 233.085 201.217 233.076 201.214C233.071 201.212 233.063 201.209 233.056 201.209H231.883C231.883 201.209 231.868 201.212 231.863 201.214C231.853 201.217 231.843 201.222 231.833 201.229C231.83 201.232 231.825 201.234 231.823 201.239C231.815 201.247 231.81 201.254 231.806 201.264L228.816 207.935C228.816 207.935 228.806 207.962 228.806 207.977C228.806 207.977 228.806 207.992 228.806 207.997C228.809 208.002 228.811 208.009 228.814 208.014C228.816 208.024 228.824 208.032 228.831 208.039C228.849 208.059 228.874 208.069 228.901 208.069H230.002C230.039 208.069 230.074 208.047 230.089 208.012L230.748 206.495C230.763 206.46 230.798 206.438 230.835 206.438L234.106 206.473C234.143 206.473 234.178 206.495 234.193 206.53L234.837 208.012C234.852 208.047 234.887 208.069 234.924 208.069H236.037C236.052 208.069 236.065 208.067 236.08 208.059C236.09 208.054 236.097 208.049 236.105 208.042H236.107C236.107 208.042 236.12 208.024 236.124 208.014C236.129 208.002 236.132 207.992 236.134 207.979C236.134 207.965 236.132 207.95 236.124 207.935H236.127ZM233.657 205.398C233.649 205.418 233.634 205.433 233.614 205.443C233.604 205.448 233.592 205.45 233.582 205.45H231.346C231.346 205.45 231.324 205.45 231.311 205.445C231.304 205.44 231.294 205.435 231.289 205.43C231.282 205.423 231.277 205.415 231.272 205.408C231.269 205.403 231.267 205.4 231.267 205.395C231.264 205.393 231.264 205.39 231.264 205.39C231.264 205.385 231.262 205.378 231.262 205.373C231.262 205.36 231.264 205.348 231.269 205.338L232.382 202.709C232.382 202.709 232.389 202.694 232.394 202.689C232.394 202.689 232.396 202.687 232.399 202.684C232.399 202.684 232.404 202.676 232.407 202.676C232.409 202.674 232.412 202.671 232.414 202.671C232.417 202.666 232.422 202.664 232.427 202.664C232.432 202.661 232.437 202.659 232.442 202.659C232.447 202.656 232.452 202.656 232.457 202.656C232.457 202.656 232.467 202.656 232.472 202.659C232.479 202.659 232.484 202.661 232.487 202.664C232.489 202.666 232.494 202.666 232.497 202.669C232.502 202.671 232.504 202.671 232.507 202.676C232.509 202.676 232.509 202.679 232.512 202.681C232.512 202.681 232.512 202.681 232.514 202.681C232.514 202.681 232.519 202.684 232.519 202.686C232.524 202.691 232.529 202.699 232.532 202.706L233.654 205.333C233.654 205.333 233.662 205.355 233.662 205.365C233.662 205.375 233.659 205.385 233.654 205.395L233.657 205.398Z" fill="#4DC679"/>
<path d="M244.737 207.887L243.38 205.926C243.33 205.854 243.345 205.799 243.422 205.757C245.86 204.484 244.752 201.249 242.095 201.214C241.866 201.212 241.639 201.209 241.414 201.207C240.663 201.202 239.952 201.204 239.283 201.217C239.051 201.217 238.944 201.339 238.964 201.571C239.151 203.681 238.969 205.826 238.989 207.937C238.989 208.024 239.031 208.069 239.118 208.069H240.169C240.251 208.069 240.294 208.027 240.294 207.944V206.198C240.294 206.156 240.304 206.126 240.326 206.106L240.331 206.101C240.331 206.101 240.331 206.098 240.336 206.098H240.339C240.339 206.098 240.354 206.083 240.364 206.081C240.381 206.076 240.398 206.073 240.418 206.073H241.98C242.068 206.073 242.138 206.108 242.187 206.181L243.41 207.939C243.425 207.962 243.442 207.979 243.46 207.994C243.477 208.012 243.495 208.024 243.517 208.037C243.557 208.059 243.605 208.069 243.657 208.069H244.643C244.69 208.069 244.725 208.062 244.747 208.052C244.76 208.044 244.767 208.037 244.775 208.027C244.792 207.994 244.78 207.949 244.737 207.887ZM241.985 204.973H240.393C240.339 204.973 240.294 204.931 240.294 204.876L240.289 202.397C240.289 202.342 240.334 202.297 240.388 202.297H241.98L241.99 202.294C242.038 202.294 242.085 202.297 242.13 202.302H242.133C242.172 202.304 242.21 202.309 242.247 202.317C242.3 202.322 242.347 202.334 242.395 202.347C242.439 202.357 242.482 202.369 242.524 202.384C242.562 202.397 242.602 202.411 242.637 202.429C242.674 202.446 242.709 202.464 242.744 202.484C242.826 202.524 242.901 202.574 242.971 202.634C242.996 202.653 243.021 202.673 243.043 202.696C243.056 202.706 243.068 202.718 243.081 202.733C243.093 202.746 243.106 202.756 243.116 202.771C243.136 202.791 243.156 202.813 243.175 202.838C243.19 202.861 243.21 202.888 243.228 202.913C243.233 202.918 243.238 202.925 243.24 202.933H243.243C243.243 202.933 243.245 202.938 243.248 202.943C243.253 202.95 243.255 202.958 243.26 202.965C243.263 202.968 243.265 202.97 243.265 202.973C243.268 202.978 243.27 202.983 243.273 202.988C243.275 202.993 243.278 202.998 243.28 203C243.283 203.005 243.288 203.013 243.29 203.018C243.29 203.018 243.298 203.033 243.3 203.04H243.303C243.303 203.04 243.308 203.05 243.308 203.055C243.313 203.06 243.313 203.068 243.315 203.073L243.323 203.088C243.333 203.11 243.343 203.13 243.35 203.152C243.363 203.185 243.373 203.217 243.38 203.252C243.388 203.285 243.395 203.317 243.4 203.352C243.405 203.379 243.41 203.404 243.41 203.432C243.413 203.459 243.415 203.487 243.415 203.514V203.749C243.415 204.425 242.776 204.971 241.985 204.973Z" fill="#4DC679"/>
</g>
<defs>
<clipPath id="clip0_2727_9111">
<rect width="407.94" height="368.57" fill="white" transform="translate(0.529999 0.5)"/>
</clipPath>
</defs>
</svg>
