<svg width="76" height="76" viewBox="0 0 76 76" fill="none" xmlns="http://www.w3.org/2000/svg">
<circle cx="37.75" cy="37.75" r="37.75" fill="#F8F6F1"/>
<mask id="mask0_2534_7639" style="mask-type:alpha" maskUnits="userSpaceOnUse" x="22" y="22" width="32" height="32">
<rect x="22.1293" y="22.1294" width="31.2414" height="31.2414" fill="#D9D9D9"/>
</mask>
<g mask="url(#mask0_2534_7639)">
<path d="M28.638 48.1637H46.8621V45.5603H28.638V48.1637ZM32.9337 42.9568H42.5664L41.8179 37.7499H33.6821L32.9337 42.9568ZM26.0345 50.7672V45.5603C26.0345 44.8443 26.2894 44.2314 26.7993 43.7216C27.3091 43.2117 27.922 42.9568 28.638 42.9568H30.3302L31.0462 37.7499H27.3362V35.1465H48.1638V37.7499H44.4539L45.1699 42.9568H46.8621C47.578 42.9568 48.1909 43.2117 48.7008 43.7216C49.2106 44.2314 49.4655 44.8443 49.4655 45.5603V50.7672H26.0345ZM30.9485 35.1465L28.638 24.7327C29.3539 25.2751 30.0916 25.7849 30.8509 26.2622C31.6102 26.7395 32.4455 26.9781 33.3567 26.9781C34.2245 26.9781 35.0218 26.7558 35.7486 26.311C36.4754 25.8663 37.1426 25.3401 37.75 24.7327C38.3575 25.3401 39.0246 25.8663 39.7514 26.311C40.4782 26.7558 41.2755 26.9781 42.1434 26.9781C43.0546 26.9781 43.8898 26.7395 44.6492 26.2622C45.4085 25.7849 46.1462 25.2751 46.8621 24.7327L44.5515 35.1465H41.883L43.1522 29.5165L42.9081 29.549C42.7454 29.5707 42.4905 29.5816 42.1434 29.5816C41.3623 29.5816 40.5976 29.4623 39.8491 29.2236C39.1006 28.985 38.4009 28.6487 37.75 28.2148C37.1209 28.6487 36.4429 28.985 35.7161 29.2236C34.9893 29.4623 34.2462 29.5816 33.4869 29.5816C33.0964 29.5816 32.8089 29.5707 32.6245 29.549L32.3479 29.5165L33.6171 35.1465H30.9485Z" fill="#1C1B1F"/>
</g>
</svg>
