<svg width="76" height="76" viewBox="0 0 76 76" fill="none" xmlns="http://www.w3.org/2000/svg">
<circle cx="37.75" cy="37.75" r="37.75" fill="#F8F6F1"/>
<mask id="mask0_2534_7632" style="mask-type:alpha" maskUnits="userSpaceOnUse" x="22" y="22" width="32" height="32">
<rect x="22.1293" y="22.1294" width="31.2414" height="31.2414" fill="#D9D9D9"/>
</mask>
<g mask="url(#mask0_2534_7632)">
<mask id="mask1_2534_7632" style="mask-type:alpha" maskUnits="userSpaceOnUse" x="22" y="22" width="32" height="32">
<rect x="22.1293" y="22.1294" width="31.2414" height="31.2414" fill="#D9D9D9"/>
</mask>
<g mask="url(#mask1_2534_7632)">
<path d="M33.5194 51.3205C32.5214 51.3205 31.6265 51.0602 30.8346 50.5395C30.0427 50.0188 29.4299 49.3029 28.9959 48.3917C28.6488 48.8473 28.2095 49.1998 27.6779 49.4493C27.1464 49.6988 26.5986 49.8236 26.0345 49.8236C24.9281 49.8236 24.0006 49.4439 23.2521 48.6846C22.5036 47.9252 22.1293 47.0032 22.1293 45.9184C22.1293 44.9855 22.4331 44.1448 23.0406 43.3963C23.648 42.6478 24.4182 42.2193 25.3511 42.1109C25.0474 41.6769 24.8142 41.2159 24.6514 40.7278C24.4887 40.2396 24.4074 39.7244 24.4074 39.182C24.4074 38.3142 24.6297 37.5006 25.0745 36.7412C25.5193 35.9819 26.143 35.3636 26.9457 34.8863C27.0542 35.2768 27.2006 35.6944 27.3851 36.1392C27.5695 36.5839 27.781 36.969 28.0197 37.2945C27.7159 37.5331 27.4773 37.8206 27.3037 38.1569C27.1301 38.4931 27.0434 38.8457 27.0434 39.2145C27.0434 40.4295 27.5424 41.1779 28.5403 41.46C29.5383 41.742 30.4821 41.9698 31.3716 42.1434L31.9899 43.1848C31.7513 43.879 31.5452 44.4702 31.3716 44.9584C31.198 45.4465 31.1112 45.8859 31.1112 46.2764C31.1112 46.9272 31.3445 47.4967 31.8109 47.9849C32.2774 48.473 32.8469 48.7171 33.5194 48.7171C34.3439 48.7171 35.0273 48.3483 35.5696 47.6106C36.112 46.873 36.5568 46.0052 36.9039 45.0072C37.251 44.0092 37.5168 43.0004 37.7012 41.9807C37.8856 40.961 38.0321 40.18 38.1406 39.6376L40.6789 40.321C40.4837 41.2973 40.245 42.4146 39.963 43.6729C39.6809 44.9313 39.285 46.1299 38.7751 47.2689C38.2653 48.4079 37.5927 49.368 36.7575 50.149C35.9222 50.93 34.8429 51.3205 33.5194 51.3205ZM26.0345 47.2201C26.4033 47.2201 26.7125 47.0954 26.962 46.8459C27.2115 46.5964 27.3362 46.2872 27.3362 45.9184C27.3362 45.5496 27.2115 45.2404 26.962 44.9909C26.7125 44.7414 26.4033 44.6167 26.0345 44.6167C25.6657 44.6167 25.3565 44.7414 25.107 44.9909C24.8575 45.2404 24.7328 45.5496 24.7328 45.9184C24.7328 46.2872 24.8575 46.5964 25.107 46.8459C25.3565 47.0954 25.6657 47.2201 26.0345 47.2201ZM35.2768 42.0783C34.2788 41.1888 33.373 40.3589 32.5594 39.5888C31.7458 38.8186 31.0462 38.0701 30.4604 37.3433C29.8746 36.6165 29.4244 35.8897 29.1098 35.1629C28.7953 34.4361 28.638 33.6822 28.638 32.9012C28.638 31.491 29.1207 30.3031 30.0861 29.3377C31.0516 28.3722 32.2394 27.8895 33.6496 27.8895C33.7364 27.8895 33.8123 27.8949 33.8774 27.9058C33.9425 27.9166 34.0184 27.9221 34.1052 27.9221C34.0184 27.7051 33.9533 27.4881 33.91 27.2712C33.8666 27.0542 33.8449 26.8264 33.8449 26.5878C33.8449 25.503 34.2245 24.581 34.9839 23.8216C35.7432 23.0623 36.6653 22.6826 37.75 22.6826C38.8348 22.6826 39.7569 23.0623 40.5162 23.8216C41.2755 24.581 41.6552 25.503 41.6552 26.5878C41.6552 26.8264 41.6335 27.0488 41.5901 27.2549C41.5467 27.461 41.4816 27.6726 41.3949 27.8895H41.8505C43.1522 27.8895 44.2587 28.3072 45.1699 29.1424C46.0811 29.9777 46.6235 31.0137 46.797 32.2503C46.4065 32.1852 45.9672 32.1527 45.479 32.1527C44.9909 32.1527 44.5407 32.1744 44.1285 32.2177C43.9766 31.7188 43.7 31.3065 43.2986 30.9811C42.8973 30.6557 42.4145 30.493 41.8505 30.493C41.0911 30.493 40.4999 30.7153 40.0769 31.1601C39.6538 31.6049 39.0735 32.2503 38.3358 33.0964H37.1317C36.3724 32.2069 35.7812 31.5506 35.3581 31.1276C34.9351 30.7045 34.3656 30.493 33.6496 30.493C32.9554 30.493 32.3804 30.7208 31.9248 31.1764C31.4692 31.632 31.2414 32.2069 31.2414 32.9012C31.2414 33.4001 31.3824 33.9154 31.6645 34.4469C31.9465 34.9785 32.3425 35.5426 32.8523 36.1392C33.3621 36.7358 33.9805 37.3704 34.7073 38.043C35.4341 38.7155 36.2422 39.4423 37.1317 40.2234L35.2768 42.0783ZM37.75 27.8895C38.1189 27.8895 38.428 27.7648 38.6775 27.5153C38.927 27.2658 39.0518 26.9566 39.0518 26.5878C39.0518 26.219 38.927 25.9098 38.6775 25.6603C38.428 25.4108 38.1189 25.2861 37.75 25.2861C37.3812 25.2861 37.0721 25.4108 36.8226 25.6603C36.5731 25.9098 36.4483 26.219 36.4483 26.5878C36.4483 26.9566 36.5731 27.2658 36.8226 27.5153C37.0721 27.7648 37.3812 27.8895 37.75 27.8895ZM41.9481 51.3205C41.4708 51.3205 40.9989 51.2555 40.5325 51.1253C40.066 50.9951 39.6158 50.789 39.1819 50.507C39.4206 50.2032 39.6592 49.8453 39.8979 49.4331C40.1365 49.0208 40.3535 48.6412 40.5487 48.294C40.7874 48.4459 41.026 48.5544 41.2647 48.6195C41.5033 48.6846 41.742 48.7171 41.9806 48.7171C42.6749 48.7171 43.2552 48.473 43.7217 47.9849C44.1881 47.4967 44.4214 46.9164 44.4214 46.2438C44.4214 45.8316 44.3346 45.3869 44.161 44.9096C43.9875 44.4323 43.7814 43.8465 43.5427 43.1522L44.161 42.1109C45.0722 41.9373 46.0214 41.7095 47.0086 41.4274C47.9957 41.1454 48.4893 40.3969 48.4893 39.182C48.4893 38.3142 48.1693 37.685 47.5292 37.2945C46.8892 36.904 46.1895 36.7087 45.4302 36.7087C44.519 36.7087 43.4559 36.8823 42.241 37.2294C41.026 37.5765 39.605 38.0213 37.9778 38.5637L37.2944 36.0253C38.9867 35.4829 40.4945 35.0273 41.8179 34.6585C43.1413 34.2897 44.3563 34.1052 45.4628 34.1052C46.9597 34.1052 48.2723 34.55 49.4005 35.4395C50.5286 36.329 51.0927 37.5765 51.0927 39.182C51.0927 39.7244 51.0114 40.2396 50.8486 40.7278C50.6859 41.2159 50.4527 41.6769 50.149 42.1109C51.0819 42.2193 51.8521 42.6478 52.4595 43.3963C53.067 44.1448 53.3707 44.9855 53.3707 45.9184C53.3707 47.0032 52.9965 47.9252 52.248 48.6846C51.4995 49.4439 50.572 49.8236 49.4656 49.8236C48.9015 49.8236 48.3537 49.6988 47.8221 49.4493C47.2906 49.1998 46.8513 48.8473 46.5041 48.3917C46.0702 49.3029 45.4573 50.0188 44.6654 50.5395C43.8736 51.0602 42.9678 51.3205 41.9481 51.3205ZM49.4981 47.2201C49.8669 47.2201 50.1707 47.0954 50.4093 46.8459C50.648 46.5964 50.7673 46.2872 50.7673 45.9184C50.7673 45.5496 50.6425 45.235 50.393 44.9746C50.1435 44.7143 49.8344 44.5841 49.4656 44.5841C49.0967 44.5841 48.7876 44.7089 48.5381 44.9584C48.2886 45.2079 48.1638 45.517 48.1638 45.8859C48.1638 46.2547 48.294 46.5693 48.5543 46.8296C48.8147 47.0899 49.1293 47.2201 49.4981 47.2201Z" fill="#1C1B1F"/>
</g>
</g>
</svg>
