<svg width="76" height="76" viewBox="0 0 76 76" fill="none" xmlns="http://www.w3.org/2000/svg">
<circle cx="37.75" cy="37.75" r="37.75" fill="#F8F6F1"/>
<mask id="mask0_2534_7646" style="mask-type:alpha" maskUnits="userSpaceOnUse" x="22" y="22" width="32" height="32">
<rect x="22.1293" y="22.1294" width="31.2414" height="31.2414" fill="#D9D9D9"/>
</mask>
<g mask="url(#mask0_2534_7646)">
<path d="M37.7499 31.8922C37.1208 31.8922 36.5838 31.6698 36.139 31.2251C35.6943 30.7803 35.4719 30.2434 35.4719 29.6142C35.4719 28.985 35.6943 28.4481 36.139 28.0033C36.5838 27.5586 37.1208 27.3362 37.7499 27.3362C38.3791 27.3362 38.9161 27.5586 39.3608 28.0033C39.8056 28.4481 40.0279 28.985 40.0279 29.6142C40.0279 30.2434 39.8056 30.7803 39.3608 31.2251C38.9161 31.6698 38.3791 31.8922 37.7499 31.8922ZM35.1465 48.1638V42.9569H32.543L35.6346 34.6584C35.8082 34.2245 36.0848 33.8719 36.4645 33.6007C36.8441 33.3295 37.2726 33.1939 37.7499 33.1939C38.2272 33.1939 38.6557 33.3295 39.0354 33.6007C39.415 33.8719 39.6917 34.2245 39.8652 34.6584L42.9568 42.9569H40.3534V48.1638H35.1465Z" fill="#1C1B1F"/>
</g>
</svg>
