<svg width="30" height="30" viewBox="0 0 30 30" fill="none" xmlns="http://www.w3.org/2000/svg">
<path d="M15.2208 18.573C15.0386 18.0835 14.8094 17.6315 14.531 17.2194C14.2132 16.7475 13.8516 16.3519 13.4468 16.0324C13.1729 15.8162 12.8878 15.6437 12.5921 15.513C12.5311 15.4861 12.4699 15.4613 12.4084 15.4387C12.3228 15.4065 12.2448 15.4213 12.1788 15.4841C12.0803 15.5772 12.0444 15.712 12.0779 15.8839C12.104 16.017 12.164 16.1196 12.2597 16.1836C12.3971 16.2757 12.5286 16.3857 12.6556 16.5042C13.0933 16.9125 13.4445 17.4252 13.7114 18.0399C13.7933 18.228 13.8637 18.4212 13.923 18.621C13.9668 18.7691 14.0059 18.9183 14.0399 19.0692C14.0637 19.1779 14.0801 19.2874 14.0978 19.3966C14.1197 19.5327 14.1354 19.6687 14.1456 19.8052C14.1696 20.1223 14.1662 20.4347 14.134 20.7413C14.0824 21.2354 13.9625 21.6876 13.7758 22.0982C13.6719 22.3261 13.5498 22.5328 13.4098 22.7203C13.1418 23.0791 12.7715 23.3953 12.3509 23.5557C12.3233 23.5662 12.2966 23.578 12.2696 23.5912C12.2388 23.6066 12.2092 23.6245 12.1809 23.6449C11.7261 23.8005 11.447 24.2731 11.5468 24.7561C11.655 25.2795 12.1674 25.617 12.6915 25.5086C12.7094 25.5049 12.727 25.4992 12.7441 25.495C12.8166 25.4807 12.8888 25.4644 12.9594 25.4442C13.0817 25.4093 13.3229 25.2992 13.4403 25.2472C13.6001 25.176 13.7553 25.092 13.904 24.9906C14.3186 24.7075 14.668 24.3236 14.9539 23.8399C15.0955 23.6001 15.2171 23.3408 15.3183 23.0629C15.4769 22.627 15.5809 22.1615 15.6308 21.6656C15.6814 21.1633 15.6714 20.6521 15.605 20.1332C15.5824 19.957 15.5551 19.7812 15.5155 19.6065C15.4849 19.4653 15.4537 19.3242 15.4159 19.1852C15.3598 18.9772 15.2956 18.7736 15.221 18.5736L15.2208 18.573Z" stroke="#F8F6F1" stroke-width="8" stroke-linecap="round" stroke-linejoin="round"/>
<path d="M21.0813 21.7962C21.0747 21.7976 21.0689 21.7995 21.0622 21.8009C21.0225 21.7932 20.983 21.7896 20.944 21.7921C20.8845 21.7857 20.8264 21.7963 20.767 21.7933C20.6431 21.7871 20.519 21.7767 20.3946 21.7512C19.6926 21.6088 19.0702 21.195 18.5274 20.5127C18.271 20.1903 18.0582 19.8242 17.886 19.42C17.8094 19.2404 17.7415 19.0564 17.6856 18.8663C17.6406 18.7122 17.5974 18.5569 17.5648 18.3988C17.5429 18.2932 17.5252 18.1874 17.5088 18.0814C17.4781 17.8855 17.459 17.6892 17.4509 17.4928C17.4307 17.0162 17.473 16.5607 17.5778 16.1262C17.6803 15.7005 17.8371 15.3197 18.0472 14.9853C18.0763 14.9384 18.0944 14.8855 18.1026 14.8243C18.1165 14.7209 18.1003 14.619 18.0557 14.5236C17.9538 14.3022 17.7388 14.2338 17.6047 14.3695C17.5079 14.4671 17.4128 14.5671 17.3239 14.6763C17.0178 15.0519 16.7729 15.4925 16.5919 16.001C16.4306 16.454 16.3276 16.9374 16.2845 17.4526C16.2513 17.8453 16.2534 18.2439 16.292 18.6487C16.3084 18.8185 16.3309 18.9877 16.3582 19.1566C16.3718 19.2425 16.3903 19.3287 16.4006 19.382C16.4583 19.661 16.4928 19.7945 16.5654 20.0385C16.6159 20.2089 16.6733 20.3764 16.7376 20.5398C16.9167 21.0008 17.1384 21.4267 17.4031 21.816C17.7226 22.2861 18.0853 22.6801 18.4918 22.9978C18.8518 23.2788 19.2285 23.4856 19.6219 23.6162C19.8547 23.6935 20.0876 23.7444 20.3216 23.7639C20.4386 23.7737 20.7711 23.7805 20.8865 23.776C20.9848 23.7723 21.0832 23.7658 21.1798 23.7507C21.2791 23.7351 21.3769 23.7155 21.4747 23.6926C21.9981 23.5844 22.3356 23.072 22.2272 22.5479C22.1189 22.0237 21.6067 21.687 21.0825 21.7953L21.0813 21.7962Z" stroke="#F8F6F1" stroke-width="8" stroke-linecap="round" stroke-linejoin="round"/>
<path d="M24.8562 11.5559C24.8201 11.4214 24.7918 11.2845 24.7445 11.153C24.7197 11.0833 24.7006 11.0111 24.6752 10.9415C24.6125 10.7688 24.5439 10.598 24.4653 10.4321C24.3084 10.0988 24.1237 9.78163 23.9088 9.48248C23.6269 9.0905 23.3014 8.73871 22.9323 8.42778C22.6387 8.18022 22.3234 7.96486 21.9867 7.78024C21.6235 7.58168 21.2441 7.42181 20.8475 7.30569C20.7878 7.28825 20.7278 7.27293 20.6676 7.25629C20.6527 7.24135 20.6325 7.24069 20.6132 7.23775C20.6089 7.23724 20.6036 7.2418 20.5994 7.24476C20.5994 7.24476 20.6003 7.24941 20.6021 7.25112C20.6155 7.26567 20.6311 7.27768 20.6511 7.28048C20.7271 7.3368 20.8044 7.39217 20.8799 7.4493C21.254 7.7308 21.5864 8.05553 21.8793 8.4203C22.2813 8.92114 22.5967 9.47175 22.8159 10.0762C22.8723 10.2321 22.927 10.3892 22.9666 10.5507C22.972 10.5738 22.9788 10.5967 22.985 10.6196C22.9966 10.6623 23.0096 10.7053 23.0192 10.7483C23.041 10.847 23.06 10.9456 23.0804 11.0446C23.0852 11.0679 23.09 11.0911 23.0929 11.1148C23.1047 11.2356 23.1279 11.3548 23.1399 11.4763C23.1544 11.6271 23.1662 11.7778 23.1697 11.9287C23.1777 12.2526 23.159 12.5744 23.1124 12.8951C23.0536 13.3041 22.9532 13.7031 22.8097 14.0916C22.6274 14.5871 22.3815 15.0494 22.0731 15.4775C22.0145 15.5596 21.9568 15.6421 21.8877 15.7167C21.8724 15.7233 21.8589 15.7282 21.8646 15.7021C21.8676 15.6931 21.8725 15.6866 21.8741 15.6779C21.8821 15.6493 21.8908 15.6211 21.8981 15.5926C21.9609 15.3538 21.9411 15.1203 21.8343 14.8986C21.5734 14.3568 20.9758 14.2205 20.5662 14.3835C20.3582 14.4666 20.1912 14.5968 20.0692 14.7841C20.0156 14.8665 19.9712 14.9532 19.9482 15.0501C19.933 15.1135 19.9177 15.177 19.9038 15.2408C19.829 15.5894 19.8156 15.9399 19.8623 16.2932C19.8856 16.4664 19.9237 16.6373 19.9764 16.8051C20.0204 16.9442 20.0745 17.0785 20.1363 17.2098C20.2754 17.5045 20.4583 17.7694 20.6824 18.0057C20.7924 18.1222 20.9115 18.2292 21.0385 18.3277C21.0616 18.3457 21.0812 18.3701 21.1062 18.3836C21.1537 18.4091 21.1957 18.4413 21.2404 18.4702C21.3731 18.5557 21.5106 18.6312 21.6542 18.6957C22.055 18.8754 22.4746 18.9653 22.9138 18.9687C23.0651 18.97 23.2161 18.9603 23.3656 18.9363C23.4092 18.9293 23.4532 18.9209 23.4972 18.9125C23.7079 18.8731 23.9119 18.8144 24.11 18.7305C24.377 18.6178 24.6224 18.4715 24.8493 18.2923C24.9124 18.2425 24.9713 18.1888 25.0129 18.1186C25.0175 18.1107 25.023 18.104 25.0286 18.0973C25.1109 17.9861 25.1655 17.8619 25.1973 17.7272C25.2305 17.5832 25.2332 17.4385 25.2021 17.2946C25.166 17.1234 25.0918 16.969 24.974 16.8382C24.742 16.58 24.4505 16.4671 24.1066 16.4952C23.9635 16.5068 23.8279 16.5514 23.7042 16.6262C23.6863 16.6368 23.6681 16.6461 23.6501 16.6561C23.6481 16.6565 23.6424 16.6556 23.6422 16.6549C23.6413 16.6503 23.6399 16.6436 23.6415 16.6412C23.6626 16.6126 23.6845 16.5845 23.7072 16.557C23.9215 16.2938 24.1096 16.0139 24.274 15.7167C24.5143 15.2839 24.6956 14.8274 24.8189 14.3482C24.8389 14.2706 24.8581 14.1926 24.8746 14.115C24.8917 14.0367 24.9066 13.9581 24.92 13.8791C24.9336 13.7974 24.9479 13.7154 24.9557 13.6328C24.9636 13.5536 24.9743 13.4745 24.9821 13.3953C25.0081 13.1322 25.0119 12.8689 24.9989 12.6049C24.989 12.4096 24.9736 12.2146 24.9399 12.0214C24.9347 11.9892 24.9294 11.9571 24.9255 11.9246C24.911 11.8009 24.885 11.6788 24.8531 11.5579L24.8562 11.5559Z" stroke="#F8F6F1" stroke-width="8" stroke-linecap="round" stroke-linejoin="round"/>
<path d="M10.1046 15.0033C10.1458 14.9345 10.1817 14.8634 10.2007 14.7847C10.2176 14.7154 10.2352 14.6466 10.2499 14.5771C10.3284 14.1958 10.3407 13.813 10.2737 13.4285C10.2584 13.341 10.2377 13.2545 10.2184 13.1677C10.196 13.0692 10.1618 12.9744 10.1283 12.8795C10.1053 12.815 10.0754 12.754 10.0498 12.6907C10.0012 12.5726 9.94127 12.4603 9.87511 12.3514C9.67381 12.0175 9.41987 11.7306 9.1097 11.4934C9.0859 11.4755 9.06501 11.4548 9.04585 11.4325C9.01254 11.4255 8.98845 11.4028 8.96119 11.3849C8.73592 11.2333 8.49502 11.1134 8.23835 11.0244C7.69609 10.8373 7.14325 10.8068 6.5815 10.9208C6.51773 10.934 6.45533 10.9538 6.39211 10.9697C6.27111 11.0009 6.15499 11.0457 6.03995 11.0923C5.91336 11.1434 5.79189 11.2059 5.67446 11.2745C5.52854 11.3594 5.38906 11.4554 5.26019 11.5659C5.23069 11.5907 5.20225 11.6173 5.17863 11.6472C5.14722 11.6862 5.11769 11.7276 5.09122 11.7705C4.89978 12.0809 4.87353 12.4064 5.02134 12.7395C5.13731 13.0023 5.338 13.179 5.60882 13.2761C5.76231 13.3316 5.92123 13.3431 6.08208 13.3237C6.13206 13.3176 6.18161 13.3059 6.22981 13.2911C6.31172 13.2652 6.39147 13.2321 6.46528 13.187C6.47508 13.1809 6.48596 13.1765 6.49685 13.1722C6.4995 13.1717 6.5031 13.1723 6.5055 13.1739C6.50711 13.1749 6.5066 13.1792 6.50635 13.1813C6.49787 13.2073 6.4775 13.2261 6.46087 13.2461C6.38643 13.3384 6.31373 13.4324 6.24423 13.5285C5.98486 13.889 5.77075 14.274 5.5991 14.6836C5.43126 15.0847 5.3106 15.4996 5.23552 15.9273C5.21368 16.0495 5.1892 16.1723 5.19013 16.2975C5.19047 16.3092 5.18736 16.321 5.18424 16.3327C5.17385 16.3729 5.17066 16.4145 5.16747 16.456C5.15071 16.6631 5.14432 16.8702 5.14911 17.0777C5.15282 17.2196 5.16012 17.3622 5.17406 17.5034C5.18554 17.6125 5.19569 17.7219 5.2166 17.8298C5.2309 17.9024 5.23989 17.976 5.253 18.0495C5.26128 18.0963 5.27222 18.1425 5.28183 18.189C5.29087 18.2294 5.30257 18.2692 5.31227 18.3095C5.34935 18.4687 5.39479 18.6249 5.44687 18.7797C5.49583 18.9261 5.5505 19.07 5.61102 19.2119C5.7665 19.5788 5.95804 19.9257 6.18577 20.2534C6.66689 20.9457 7.26825 21.5092 7.99195 21.9408C8.34505 22.1511 8.71611 22.321 9.10556 22.4525C9.22329 22.4926 9.34155 22.5319 9.46345 22.5586C9.47275 22.5567 9.4801 22.5621 9.48798 22.5667C9.49251 22.5686 9.49744 22.5689 9.50289 22.5685C9.51315 22.5712 9.52151 22.5681 9.52731 22.5593C9.51087 22.5468 9.49495 22.5334 9.47798 22.5217C9.33699 22.4227 9.20049 22.3186 9.06834 22.2088C8.79214 21.9784 8.54 21.7236 8.31152 21.446C8.06064 21.1404 7.84328 20.8127 7.65759 20.4638C7.55887 20.2778 7.46958 20.0871 7.39249 19.8918C7.33583 19.7483 7.28434 19.6031 7.23936 19.4558C7.18948 19.2916 7.14611 19.1253 7.10858 18.9571C7.06626 18.7692 7.04136 18.5783 7.01831 18.3863C6.99933 18.2275 6.98845 18.0676 6.9845 17.9077C6.97589 17.5812 6.99402 17.2567 7.04077 16.9333C7.09007 16.592 7.16788 16.258 7.27473 15.9304C7.37063 15.637 7.48987 15.3526 7.63125 15.0781C7.76712 14.8138 7.92355 14.5619 8.09842 14.3221C8.15077 14.2504 8.20058 14.1763 8.26283 14.1122L8.29289 14.1102C8.28741 14.1272 8.28259 14.1442 8.27631 14.1607C8.2451 14.251 8.22827 14.3438 8.2217 14.4394C8.2132 14.5658 8.23035 14.689 8.26943 14.8077C8.3104 14.9322 8.37525 15.0449 8.45998 15.1465C8.73053 15.4702 9.19887 15.6013 9.6151 15.4301C9.82448 15.3438 9.98774 15.202 10.1038 15.0062L10.1046 15.0033Z" stroke="#F8F6F1" stroke-width="8" stroke-linecap="round" stroke-linejoin="round"/>
<path d="M15.4863 7.84601C15.6995 7.97581 15.9024 8.11952 16.0967 8.27539C16.0914 8.28341 16.0863 8.29209 16.0803 8.30024C16.0491 8.29006 16.0186 8.27975 15.9869 8.27038C15.7844 8.21247 15.5813 8.21498 15.383 8.28436C15.1575 8.36284 14.9772 8.50262 14.8513 8.70804C14.6866 8.9769 14.6523 9.26316 14.7488 9.56253C14.8143 9.76579 14.9371 9.9309 15.1089 10.0582C15.2022 10.1276 15.3046 10.1805 15.4172 10.2127C15.5171 10.2405 15.6191 10.261 15.7212 10.2793C15.9674 10.3241 16.2151 10.3366 16.4648 10.321C16.5359 10.3167 16.6068 10.311 16.6771 10.2993C16.8646 10.2681 17.0503 10.2318 17.231 10.1709C17.3631 10.1263 17.4921 10.0733 17.6166 10.0123C17.9638 9.84216 18.2687 9.61497 18.5307 9.33085C18.5686 9.28976 18.6045 9.24563 18.6415 9.20335C18.6802 9.15933 18.7102 9.10672 18.7556 9.06825C18.7597 9.06463 18.7627 9.05916 18.765 9.05316C18.778 9.01582 18.8039 8.98692 18.825 8.95486C19.0619 8.59972 19.2172 8.21159 19.2954 7.79228C19.3433 7.53162 19.3562 7.26852 19.3376 7.0043C19.3336 6.94486 19.3289 6.88555 19.3197 6.82721C19.2903 6.65179 19.2577 6.47705 19.2018 6.30712C19.1696 6.20848 19.1343 6.11119 19.0931 6.0158C19.0226 5.85235 18.9383 5.69591 18.8397 5.54728C18.7792 5.45587 18.7145 5.36742 18.6444 5.28285C18.6022 5.2327 18.5579 5.18576 18.5003 5.15194C18.4876 5.14417 18.476 5.1348 18.4638 5.12623C18.3338 5.03328 18.1881 4.97541 18.0302 4.95194C17.8795 4.92976 17.7301 4.93777 17.5826 4.98488C17.3999 5.04273 17.2445 5.14204 17.1182 5.2852C16.8674 5.56978 16.7834 5.99445 16.9628 6.38336C16.979 6.41811 16.9997 6.45124 17.0178 6.48491C17.0204 6.49754 17.0215 6.50977 17.0233 6.52186C17.0132 6.51634 17.0025 6.51162 16.9934 6.50449C16.9092 6.43878 16.8267 6.37133 16.7414 6.30722C16.4585 6.09485 16.1568 5.912 15.8392 5.75599C15.3982 5.53957 14.9365 5.3801 14.4548 5.28155C14.2724 5.24374 14.0894 5.20607 13.9019 5.20049C13.8963 5.20026 13.8899 5.1995 13.8841 5.19794C13.8089 5.17954 13.732 5.17604 13.6547 5.17055C13.4474 5.15658 13.2403 5.15299 13.0329 5.1619C12.9381 5.16557 12.8438 5.1719 12.7493 5.18035C12.6255 5.19139 12.5013 5.2039 12.3789 5.22504C12.3529 5.22973 12.3263 5.23522 12.3 5.23858C12.0845 5.26511 11.8756 5.32352 11.667 5.37981C11.5384 5.41469 11.4123 5.45807 11.2866 5.50345C11.1726 5.54502 11.059 5.58859 10.948 5.63786C10.4432 5.85995 9.97685 6.14405 9.55153 6.49587C9.16048 6.81913 8.818 7.18639 8.52291 7.59857C8.3279 7.87162 8.1576 8.16034 8.01241 8.46326C7.85567 8.79074 7.72959 9.1292 7.63792 9.47994C7.62023 9.50161 7.61668 9.52797 7.61738 9.55484C7.61779 9.55684 7.62061 9.56041 7.62288 9.56133C7.62448 9.56238 7.6286 9.56222 7.62979 9.56128C7.64727 9.54866 7.65834 9.53183 7.66233 9.51092C7.68119 9.48486 7.70071 9.45865 7.72009 9.43179C7.94911 9.10877 8.2089 8.81402 8.49972 8.54541C8.91142 8.16454 9.36892 7.8511 9.87073 7.60122C10.1019 7.48626 10.339 7.38669 10.5838 7.30423C10.64 7.28498 10.697 7.26904 10.7526 7.24993C10.8761 7.2071 11.0029 7.17741 11.1297 7.14707C11.271 7.1137 11.4133 7.08498 11.5574 7.0649C11.7015 7.04481 11.8453 7.02686 11.9894 7.0137C12.1227 7.0014 12.2559 6.99602 12.3887 6.9949C12.6583 6.99251 12.9271 7.00901 13.1947 7.04374C13.6046 7.09685 14.0046 7.1922 14.3945 7.32912C14.7763 7.46356 15.139 7.63658 15.4845 7.84708L15.4863 7.84601Z" stroke="#F8F6F1" stroke-width="8" stroke-linecap="round" stroke-linejoin="round"/>
<path d="M15.2208 18.573C15.0386 18.0835 14.8094 17.6315 14.531 17.2194C14.2132 16.7475 13.8516 16.3519 13.4468 16.0324C13.1729 15.8162 12.8878 15.6437 12.5921 15.513C12.5311 15.4861 12.4699 15.4613 12.4084 15.4387C12.3228 15.4065 12.2448 15.4213 12.1788 15.4841C12.0803 15.5772 12.0444 15.712 12.0779 15.8839C12.104 16.017 12.164 16.1196 12.2597 16.1836C12.3971 16.2757 12.5286 16.3857 12.6556 16.5042C13.0933 16.9125 13.4445 17.4252 13.7114 18.0399C13.7933 18.228 13.8637 18.4212 13.923 18.621C13.9668 18.7691 14.0059 18.9183 14.0399 19.0692C14.0637 19.1779 14.0801 19.2874 14.0978 19.3966C14.1197 19.5327 14.1354 19.6687 14.1456 19.8052C14.1696 20.1223 14.1662 20.4347 14.134 20.7413C14.0824 21.2354 13.9625 21.6876 13.7758 22.0982C13.6719 22.3261 13.5498 22.5328 13.4098 22.7203C13.1418 23.0791 12.7715 23.3953 12.3509 23.5557C12.3233 23.5662 12.2966 23.578 12.2696 23.5912C12.2388 23.6066 12.2092 23.6245 12.1809 23.6449C11.7261 23.8005 11.447 24.2731 11.5468 24.7561C11.655 25.2795 12.1674 25.617 12.6915 25.5086C12.7094 25.5049 12.727 25.4992 12.7441 25.495C12.8166 25.4807 12.8888 25.4644 12.9594 25.4442C13.0817 25.4093 13.3229 25.2992 13.4403 25.2472C13.6001 25.176 13.7553 25.092 13.904 24.9906C14.3186 24.7075 14.668 24.3236 14.9539 23.8399C15.0955 23.6001 15.2171 23.3408 15.3183 23.0629C15.4769 22.627 15.5809 22.1615 15.6308 21.6656C15.6814 21.1633 15.6714 20.6521 15.605 20.1332C15.5824 19.957 15.5551 19.7812 15.5155 19.6065C15.4849 19.4653 15.4537 19.3242 15.4159 19.1852C15.3598 18.9772 15.2956 18.7736 15.221 18.5736L15.2208 18.573Z" fill="#01B040"/>
<path d="M21.0813 21.7962C21.0747 21.7976 21.0689 21.7995 21.0622 21.8009C21.0225 21.7932 20.983 21.7896 20.944 21.7921C20.8845 21.7857 20.8264 21.7963 20.767 21.7933C20.6431 21.7871 20.519 21.7767 20.3946 21.7512C19.6926 21.6088 19.0702 21.195 18.5274 20.5127C18.271 20.1903 18.0582 19.8242 17.886 19.42C17.8094 19.2404 17.7415 19.0564 17.6856 18.8663C17.6406 18.7122 17.5974 18.5569 17.5648 18.3988C17.5429 18.2932 17.5252 18.1874 17.5088 18.0814C17.4781 17.8855 17.459 17.6892 17.4509 17.4928C17.4307 17.0162 17.473 16.5607 17.5778 16.1262C17.6803 15.7005 17.8371 15.3197 18.0472 14.9853C18.0763 14.9384 18.0944 14.8855 18.1026 14.8243C18.1165 14.7209 18.1003 14.619 18.0557 14.5236C17.9538 14.3022 17.7388 14.2338 17.6047 14.3695C17.5079 14.4671 17.4128 14.5671 17.3239 14.6763C17.0178 15.0519 16.7729 15.4925 16.5919 16.001C16.4306 16.454 16.3276 16.9374 16.2845 17.4526C16.2513 17.8453 16.2534 18.2439 16.292 18.6487C16.3084 18.8185 16.3309 18.9877 16.3582 19.1566C16.3718 19.2425 16.3903 19.3287 16.4006 19.382C16.4583 19.661 16.4928 19.7945 16.5654 20.0385C16.6159 20.2089 16.6733 20.3764 16.7376 20.5398C16.9167 21.0008 17.1384 21.4267 17.4031 21.816C17.7226 22.2861 18.0853 22.6801 18.4918 22.9978C18.8518 23.2788 19.2285 23.4856 19.6219 23.6162C19.8547 23.6935 20.0876 23.7444 20.3216 23.7639C20.4386 23.7737 20.7711 23.7805 20.8865 23.776C20.9848 23.7723 21.0832 23.7658 21.1798 23.7507C21.2791 23.7351 21.3769 23.7155 21.4747 23.6926C21.9981 23.5844 22.3356 23.072 22.2272 22.5479C22.1189 22.0237 21.6067 21.687 21.0825 21.7953L21.0813 21.7962Z" fill="#01B040"/>
<path d="M24.8562 11.5559C24.8201 11.4214 24.7918 11.2845 24.7445 11.153C24.7197 11.0833 24.7006 11.0111 24.6752 10.9415C24.6125 10.7688 24.5439 10.598 24.4653 10.4321C24.3084 10.0988 24.1237 9.78163 23.9088 9.48248C23.6269 9.0905 23.3014 8.73871 22.9323 8.42778C22.6387 8.18022 22.3234 7.96486 21.9867 7.78024C21.6235 7.58168 21.2441 7.42181 20.8475 7.30569C20.7878 7.28825 20.7278 7.27293 20.6676 7.25629C20.6527 7.24135 20.6325 7.24069 20.6132 7.23775C20.6089 7.23724 20.6036 7.2418 20.5994 7.24476C20.5994 7.24476 20.6003 7.24941 20.6021 7.25112C20.6155 7.26567 20.6311 7.27768 20.6511 7.28048C20.7271 7.3368 20.8044 7.39217 20.8799 7.4493C21.254 7.7308 21.5864 8.05553 21.8793 8.4203C22.2813 8.92114 22.5967 9.47175 22.8159 10.0762C22.8723 10.2321 22.927 10.3892 22.9666 10.5507C22.972 10.5738 22.9788 10.5967 22.985 10.6196C22.9966 10.6623 23.0096 10.7053 23.0192 10.7483C23.041 10.847 23.06 10.9456 23.0804 11.0446C23.0852 11.0679 23.09 11.0911 23.0929 11.1148C23.1047 11.2356 23.1279 11.3548 23.1399 11.4763C23.1544 11.6271 23.1662 11.7778 23.1697 11.9287C23.1777 12.2526 23.159 12.5744 23.1124 12.8951C23.0536 13.3041 22.9532 13.7031 22.8097 14.0916C22.6274 14.5871 22.3815 15.0494 22.0731 15.4775C22.0145 15.5596 21.9568 15.6421 21.8877 15.7167C21.8724 15.7233 21.8589 15.7282 21.8646 15.7021C21.8676 15.6931 21.8725 15.6866 21.8741 15.6779C21.8821 15.6493 21.8908 15.6211 21.8981 15.5926C21.9609 15.3538 21.9411 15.1203 21.8343 14.8986C21.5734 14.3568 20.9758 14.2205 20.5662 14.3835C20.3582 14.4666 20.1912 14.5968 20.0692 14.7841C20.0156 14.8665 19.9712 14.9532 19.9482 15.0501C19.933 15.1135 19.9177 15.177 19.9038 15.2408C19.829 15.5894 19.8156 15.9399 19.8623 16.2932C19.8856 16.4664 19.9237 16.6373 19.9764 16.8051C20.0204 16.9442 20.0745 17.0785 20.1363 17.2098C20.2754 17.5045 20.4583 17.7694 20.6824 18.0057C20.7924 18.1222 20.9115 18.2292 21.0385 18.3277C21.0616 18.3457 21.0812 18.3701 21.1062 18.3836C21.1537 18.4091 21.1957 18.4413 21.2404 18.4702C21.3731 18.5557 21.5106 18.6312 21.6542 18.6957C22.055 18.8754 22.4746 18.9653 22.9138 18.9687C23.0651 18.97 23.2161 18.9603 23.3656 18.9363C23.4092 18.9293 23.4532 18.9209 23.4972 18.9125C23.7079 18.8731 23.9119 18.8144 24.11 18.7305C24.377 18.6178 24.6224 18.4715 24.8493 18.2923C24.9124 18.2425 24.9713 18.1888 25.0129 18.1186C25.0175 18.1107 25.023 18.104 25.0286 18.0973C25.1109 17.9861 25.1655 17.8619 25.1973 17.7272C25.2305 17.5832 25.2332 17.4385 25.2021 17.2946C25.166 17.1234 25.0918 16.969 24.974 16.8382C24.742 16.58 24.4505 16.4671 24.1066 16.4952C23.9635 16.5068 23.8279 16.5514 23.7042 16.6262C23.6863 16.6368 23.6681 16.6461 23.6501 16.6561C23.6481 16.6565 23.6424 16.6556 23.6422 16.6549C23.6413 16.6503 23.6399 16.6436 23.6415 16.6412C23.6626 16.6126 23.6845 16.5845 23.7072 16.557C23.9215 16.2938 24.1096 16.0139 24.274 15.7167C24.5143 15.2839 24.6956 14.8274 24.8189 14.3482C24.8389 14.2706 24.8581 14.1926 24.8746 14.115C24.8917 14.0367 24.9066 13.9581 24.92 13.8791C24.9336 13.7974 24.9479 13.7154 24.9557 13.6328C24.9636 13.5536 24.9743 13.4745 24.9821 13.3953C25.0081 13.1322 25.0119 12.8689 24.9989 12.6049C24.989 12.4096 24.9736 12.2146 24.9399 12.0214C24.9347 11.9892 24.9294 11.9571 24.9255 11.9246C24.911 11.8009 24.885 11.6788 24.8531 11.5579L24.8562 11.5559Z" fill="#01B040"/>
<path d="M10.1046 15.0033C10.1458 14.9345 10.1817 14.8634 10.2007 14.7847C10.2176 14.7154 10.2352 14.6466 10.2499 14.5771C10.3284 14.1958 10.3407 13.813 10.2737 13.4285C10.2584 13.341 10.2377 13.2545 10.2184 13.1677C10.196 13.0692 10.1618 12.9744 10.1283 12.8795C10.1053 12.815 10.0754 12.754 10.0498 12.6907C10.0012 12.5726 9.94127 12.4603 9.87511 12.3514C9.67381 12.0175 9.41987 11.7306 9.1097 11.4934C9.0859 11.4755 9.06501 11.4548 9.04585 11.4325C9.01254 11.4255 8.98845 11.4028 8.96119 11.3849C8.73592 11.2333 8.49502 11.1134 8.23835 11.0244C7.69609 10.8373 7.14325 10.8068 6.5815 10.9208C6.51773 10.934 6.45533 10.9538 6.39211 10.9697C6.27111 11.0009 6.15499 11.0457 6.03995 11.0923C5.91336 11.1434 5.79189 11.2059 5.67446 11.2745C5.52854 11.3594 5.38906 11.4554 5.26019 11.5659C5.23069 11.5907 5.20225 11.6173 5.17863 11.6472C5.14722 11.6862 5.11769 11.7276 5.09122 11.7705C4.89978 12.0809 4.87353 12.4064 5.02134 12.7395C5.13731 13.0023 5.338 13.179 5.60882 13.2761C5.76231 13.3316 5.92123 13.3431 6.08208 13.3237C6.13206 13.3176 6.18161 13.3059 6.22981 13.2911C6.31172 13.2652 6.39147 13.2321 6.46528 13.187C6.47508 13.1809 6.48596 13.1765 6.49685 13.1722C6.4995 13.1717 6.5031 13.1723 6.5055 13.1739C6.50711 13.1749 6.5066 13.1792 6.50635 13.1813C6.49787 13.2073 6.4775 13.2261 6.46087 13.2461C6.38643 13.3384 6.31373 13.4324 6.24423 13.5285C5.98486 13.889 5.77075 14.274 5.5991 14.6836C5.43126 15.0847 5.3106 15.4996 5.23552 15.9273C5.21368 16.0495 5.1892 16.1723 5.19013 16.2975C5.19047 16.3092 5.18736 16.321 5.18424 16.3327C5.17385 16.3729 5.17066 16.4145 5.16747 16.456C5.15071 16.6631 5.14432 16.8702 5.14911 17.0777C5.15282 17.2196 5.16012 17.3622 5.17406 17.5034C5.18554 17.6125 5.19569 17.7219 5.2166 17.8298C5.2309 17.9024 5.23989 17.976 5.253 18.0495C5.26128 18.0963 5.27222 18.1425 5.28183 18.189C5.29087 18.2294 5.30257 18.2692 5.31227 18.3095C5.34935 18.4687 5.39479 18.6249 5.44687 18.7797C5.49583 18.9261 5.5505 19.07 5.61102 19.2119C5.7665 19.5788 5.95804 19.9257 6.18577 20.2534C6.66689 20.9457 7.26825 21.5092 7.99195 21.9408C8.34505 22.1511 8.71611 22.321 9.10556 22.4525C9.22329 22.4926 9.34155 22.5319 9.46345 22.5586C9.47275 22.5567 9.4801 22.5621 9.48798 22.5667C9.49251 22.5686 9.49744 22.5689 9.50289 22.5685C9.51315 22.5712 9.52151 22.5681 9.52731 22.5593C9.51087 22.5468 9.49495 22.5334 9.47798 22.5217C9.33699 22.4227 9.20049 22.3186 9.06834 22.2088C8.79214 21.9784 8.54 21.7236 8.31152 21.446C8.06064 21.1404 7.84328 20.8127 7.65759 20.4638C7.55887 20.2778 7.46958 20.0871 7.39249 19.8918C7.33583 19.7483 7.28434 19.6031 7.23936 19.4558C7.18948 19.2916 7.14611 19.1253 7.10858 18.9571C7.06626 18.7692 7.04136 18.5783 7.01831 18.3863C6.99933 18.2275 6.98845 18.0676 6.9845 17.9077C6.97589 17.5812 6.99402 17.2567 7.04077 16.9333C7.09007 16.592 7.16788 16.258 7.27473 15.9304C7.37063 15.637 7.48987 15.3526 7.63125 15.0781C7.76712 14.8138 7.92355 14.5619 8.09842 14.3221C8.15077 14.2504 8.20058 14.1763 8.26283 14.1122L8.29289 14.1102C8.28741 14.1272 8.28259 14.1442 8.27631 14.1607C8.2451 14.251 8.22827 14.3438 8.2217 14.4394C8.2132 14.5658 8.23035 14.689 8.26943 14.8077C8.3104 14.9322 8.37525 15.0449 8.45998 15.1465C8.73053 15.4702 9.19887 15.6013 9.6151 15.4301C9.82448 15.3438 9.98774 15.202 10.1038 15.0062L10.1046 15.0033Z" fill="#01B040"/>
<path d="M15.4863 7.84601C15.6995 7.97581 15.9024 8.11952 16.0967 8.27539C16.0914 8.28341 16.0863 8.29209 16.0803 8.30024C16.0491 8.29006 16.0186 8.27975 15.9869 8.27038C15.7844 8.21247 15.5813 8.21498 15.383 8.28436C15.1575 8.36284 14.9772 8.50262 14.8513 8.70804C14.6866 8.9769 14.6523 9.26316 14.7488 9.56253C14.8143 9.76579 14.9371 9.9309 15.1089 10.0582C15.2022 10.1276 15.3046 10.1805 15.4172 10.2127C15.5171 10.2405 15.6191 10.261 15.7212 10.2793C15.9674 10.3241 16.2151 10.3366 16.4648 10.321C16.5359 10.3167 16.6068 10.311 16.6771 10.2993C16.8646 10.2681 17.0503 10.2318 17.231 10.1709C17.3631 10.1263 17.4921 10.0733 17.6166 10.0123C17.9638 9.84216 18.2687 9.61497 18.5307 9.33085C18.5686 9.28976 18.6045 9.24563 18.6415 9.20335C18.6802 9.15933 18.7102 9.10672 18.7556 9.06825C18.7597 9.06463 18.7627 9.05916 18.765 9.05316C18.778 9.01582 18.8039 8.98692 18.825 8.95486C19.0619 8.59972 19.2172 8.21159 19.2954 7.79228C19.3433 7.53162 19.3562 7.26852 19.3376 7.0043C19.3336 6.94486 19.3289 6.88555 19.3197 6.82721C19.2903 6.65179 19.2577 6.47705 19.2018 6.30712C19.1696 6.20848 19.1343 6.11119 19.0931 6.0158C19.0226 5.85235 18.9383 5.69591 18.8397 5.54728C18.7792 5.45587 18.7145 5.36742 18.6444 5.28285C18.6022 5.2327 18.5579 5.18576 18.5003 5.15194C18.4876 5.14417 18.476 5.1348 18.4638 5.12623C18.3338 5.03328 18.1881 4.97541 18.0302 4.95194C17.8795 4.92976 17.7301 4.93777 17.5826 4.98488C17.3999 5.04273 17.2445 5.14204 17.1182 5.2852C16.8674 5.56978 16.7834 5.99445 16.9628 6.38336C16.979 6.41811 16.9997 6.45124 17.0178 6.48491C17.0204 6.49754 17.0215 6.50977 17.0233 6.52186C17.0132 6.51634 17.0025 6.51162 16.9934 6.50449C16.9092 6.43878 16.8267 6.37133 16.7414 6.30722C16.4585 6.09485 16.1568 5.912 15.8392 5.75599C15.3982 5.53957 14.9365 5.3801 14.4548 5.28155C14.2724 5.24374 14.0894 5.20607 13.9019 5.20049C13.8963 5.20026 13.8899 5.1995 13.8841 5.19794C13.8089 5.17954 13.732 5.17604 13.6547 5.17055C13.4474 5.15658 13.2403 5.15299 13.0329 5.1619C12.9381 5.16557 12.8438 5.1719 12.7493 5.18035C12.6255 5.19139 12.5013 5.2039 12.3789 5.22504C12.3529 5.22973 12.3263 5.23522 12.3 5.23858C12.0845 5.26511 11.8756 5.32352 11.667 5.37981C11.5384 5.41469 11.4123 5.45807 11.2866 5.50345C11.1726 5.54502 11.059 5.58859 10.948 5.63786C10.4432 5.85995 9.97685 6.14405 9.55153 6.49587C9.16048 6.81913 8.818 7.18639 8.52291 7.59857C8.3279 7.87162 8.1576 8.16034 8.01241 8.46326C7.85567 8.79074 7.72959 9.1292 7.63792 9.47994C7.62023 9.50161 7.61668 9.52797 7.61738 9.55484C7.61779 9.55684 7.62061 9.56041 7.62288 9.56133C7.62448 9.56238 7.6286 9.56222 7.62979 9.56128C7.64727 9.54866 7.65834 9.53183 7.66233 9.51092C7.68119 9.48486 7.70071 9.45865 7.72009 9.43179C7.94911 9.10877 8.2089 8.81402 8.49972 8.54541C8.91142 8.16454 9.36892 7.8511 9.87073 7.60122C10.1019 7.48626 10.339 7.38669 10.5838 7.30423C10.64 7.28498 10.697 7.26904 10.7526 7.24993C10.8761 7.2071 11.0029 7.17741 11.1297 7.14707C11.271 7.1137 11.4133 7.08498 11.5574 7.0649C11.7015 7.04481 11.8453 7.02686 11.9894 7.0137C12.1227 7.0014 12.2559 6.99602 12.3887 6.9949C12.6583 6.99251 12.9271 7.00901 13.1947 7.04374C13.6046 7.09685 14.0046 7.1922 14.3945 7.32912C14.7763 7.46356 15.139 7.63658 15.4845 7.84708L15.4863 7.84601Z" fill="#01B040"/>
</svg>
