<svg width="35" height="35" viewBox="0 0 35 35" fill="none" xmlns="http://www.w3.org/2000/svg">
<path d="M17.04 34.08C26.4509 34.08 34.08 26.4509 34.08 17.04C34.08 7.62907 26.4509 0 17.04 0C7.62907 0 0 7.62907 0 17.04C0 26.4509 7.62907 34.08 17.04 34.08Z" fill="#4FAC4F"/>
<path d="M14.3339 27.1119V24.472C12.4683 23.8209 10.9468 22.6824 9.76776 21.0546C8.58869 19.4285 8 17.5764 8 15.5C8 14.1809 8.25133 12.9445 8.75231 11.7924C9.25328 10.6404 9.93137 9.63672 10.7849 8.7832C11.6384 7.92969 12.6404 7.25328 13.7941 6.75062C14.9445 6.25133 16.1725 6 17.4747 6C18.7769 6 20.0083 6.25133 21.1688 6.75231C22.3293 7.25328 23.3414 7.93137 24.2033 8.78489C25.0653 9.63841 25.7467 10.6404 26.2477 11.7941C26.7487 12.9462 27 14.1826 27 15.5017C27 17.5781 26.4063 19.4201 25.2188 21.031C24.0313 22.6402 22.5131 23.7805 20.6661 24.4484V27.1135H18.5542V24.9494C18.3788 24.9848 18.2017 25.0017 18.0263 25.0017H17.4713C17.2959 25.0017 17.1238 24.9966 16.9569 24.9882C16.7899 24.9798 16.6178 24.9663 16.4424 24.9494V27.1135H14.3305L14.3339 27.1119ZM17.5 22.9421C19.541 22.9421 21.2818 22.2202 22.7257 20.778C24.1679 19.3358 24.8898 17.5933 24.8898 15.5523C24.8898 13.5113 24.1679 11.7705 22.7257 10.3266C21.2835 8.88441 19.541 8.16246 17.5 8.16246C15.459 8.16246 13.7182 8.88441 12.2743 10.3266C10.8321 11.7688 10.1102 13.5113 10.1102 15.5523C10.1102 17.5933 10.8321 19.3341 12.2743 20.778C13.7165 22.2202 15.459 22.9421 17.5 22.9421ZM13.278 13.4421H21.722V11.3303H13.278V13.4421ZM16.7089 21.8862L19.875 18.7201L18.5559 17.401L19.875 16.0819L18.2911 14.498L15.125 17.6642L16.4441 18.9832L15.125 20.3023L16.7089 21.8862Z" fill="white"/>
</svg>
