<svg width="35" height="35" viewBox="0 0 35 35" fill="none" xmlns="http://www.w3.org/2000/svg">
<path d="M17.04 34.08C26.4509 34.08 34.08 26.4509 34.08 17.04C34.08 7.62907 26.4509 0 17.04 0C7.62907 0 0 7.62907 0 17.04C0 26.4509 7.62907 34.08 17.04 34.08Z" fill="#4FAC4F"/>
<path d="M16.1466 24.086H17.9051V22.8305C18.7421 22.6796 19.4624 22.3536 20.066 21.8506C20.6696 21.3476 20.9694 20.6032 20.9694 19.6153C20.9694 18.9111 20.7682 18.2673 20.3658 17.6818C19.9634 17.0963 19.1606 16.5852 17.9534 16.1486C16.9494 15.8146 16.2532 15.5209 15.8689 15.2694C15.4846 15.0179 15.2915 14.6738 15.2915 14.2392C15.2915 13.8046 15.4464 13.4606 15.7563 13.2091C16.0661 12.9576 16.5148 12.8328 17.1003 12.8328C17.6355 12.8328 18.054 12.9636 18.3558 13.2231C18.6576 13.4827 18.8749 13.8046 19.0097 14.1909L20.6173 13.537C20.4322 12.9515 20.0942 12.4405 19.5992 12.0039C19.1042 11.5693 18.557 11.3258 17.9534 11.2755V10.02H16.1949V11.2755C15.3579 11.4606 14.704 11.8288 14.2352 12.3801C13.7664 12.9334 13.531 13.5531 13.531 14.2392C13.531 15.0259 13.7604 15.6637 14.2211 16.1486C14.6819 16.6335 15.4062 17.052 16.3941 17.4041C17.4484 17.7884 18.1827 18.1324 18.5932 18.4343C19.0036 18.7361 19.2089 19.1284 19.2089 19.6153C19.2089 20.1686 19.0117 20.575 18.6194 20.8346C18.225 21.0941 17.7522 21.2249 17.2009 21.2249C16.6496 21.2249 16.1587 21.0539 15.7321 20.7098C15.3056 20.3658 14.9917 19.8507 14.7905 19.1646L13.1326 19.8185C13.368 20.6233 13.7322 21.2712 14.2251 21.7661C14.7201 22.2611 15.3599 22.5991 16.1466 22.7842V24.09V24.086ZM17.05 27.1C15.6597 27.1 14.3539 26.8364 13.1306 26.3093C11.9073 25.7821 10.8449 25.0658 9.93954 24.1604C9.03615 23.257 8.31988 22.1927 7.79072 20.9694C7.26357 19.7461 7 18.4403 7 17.05C7 15.6597 7.26357 14.3539 7.79072 13.1306C8.31786 11.9073 9.03414 10.845 9.93954 9.93955C10.8429 9.03616 11.9073 8.31988 13.1306 7.79072C14.3539 7.26357 15.6597 7 17.05 7C18.4403 7 19.7461 7.26357 20.9694 7.79072C22.1927 8.31786 23.255 9.03414 24.1604 9.93955C25.0638 10.8429 25.7801 11.9073 26.3093 13.1306C26.8364 14.3539 27.1 15.6597 27.1 17.05C27.1 18.4403 26.8364 19.7461 26.3093 20.9694C25.7821 22.1927 25.0658 23.255 24.1604 24.1604C23.257 25.0638 22.1927 25.7801 20.9694 26.3093C19.7461 26.8364 18.4403 27.1 17.05 27.1ZM17.05 25.092C19.2934 25.092 21.1947 24.3133 22.752 22.756C24.3093 21.1987 25.088 19.2974 25.088 17.054C25.088 14.8106 24.3093 12.9093 22.752 11.352C21.1947 9.79468 19.2934 9.01603 17.05 9.01603C14.8066 9.01603 12.9052 9.79468 11.3479 11.352C9.79065 12.9093 9.01201 14.8106 9.01201 17.054C9.01201 19.2974 9.79065 21.1987 11.3479 22.756C12.9052 24.3133 14.8066 25.092 17.05 25.092Z" fill="#F7F5F0"/>
</svg>
