<svg width="35" height="35" viewBox="0 0 35 35" fill="none" xmlns="http://www.w3.org/2000/svg">
<path d="M17.04 34.08C26.4509 34.08 34.08 26.4509 34.08 17.04C34.08 7.62907 26.4509 0 17.04 0C7.62907 0 0 7.62907 0 17.04C0 26.4509 7.62907 34.08 17.04 34.08Z" fill="#F8F6F1"/>
<path d="M17.4459 28.8851C15.5048 28.8851 13.7174 28.4423 12.0873 27.5587C10.4572 26.675 9.12172 25.495 8.08257 24.0223V26.8049H6.00244V20.5627H12.2447V22.6429H9.67056C10.503 23.8906 11.5988 24.8968 12.96 25.6597C14.3211 26.4226 15.8158 26.8049 17.4459 26.8049C18.7467 26.8049 19.9651 26.558 21.0994 26.064C22.2355 25.57 23.2234 24.9023 24.065 24.0607C24.9065 23.2191 25.5743 22.2312 26.0683 21.0951C26.5622 19.959 26.8092 18.7406 26.8092 17.4416H28.8893C28.8893 19.0186 28.5911 20.5024 27.9929 21.8891C27.3946 23.2759 26.575 24.4906 25.5359 25.5298C24.4949 26.5708 23.282 27.3886 21.8952 27.9868C20.5085 28.585 19.0247 28.8832 17.4477 28.8832L17.4459 28.8851ZM16.5092 24.723V23.371C15.6951 23.1807 15.031 22.8295 14.5187 22.3172C14.0065 21.805 13.6296 21.1335 13.3881 20.3011L15.1041 19.6242C15.3127 20.3359 15.6365 20.8682 16.0793 21.2232C16.522 21.5781 17.0288 21.7556 17.6014 21.7556C18.174 21.7556 18.6625 21.622 19.0705 21.3531C19.4785 21.0841 19.6815 20.6633 19.6815 20.0925C19.6815 19.5894 19.4693 19.1815 19.0449 18.8705C18.6204 18.5576 17.8612 18.2027 16.769 17.8039C15.7463 17.4398 14.9962 17.0062 14.5187 16.5031C14.0412 16 13.8034 15.3414 13.8034 14.5272C13.8034 13.8156 14.0504 13.1698 14.5443 12.5898C15.0383 12.0099 15.7097 11.6312 16.5604 11.4592V10.1584H18.3808V11.4592C19.0046 11.5104 19.5736 11.7629 20.084 12.2129C20.5963 12.663 20.9475 13.1917 21.1378 13.7991L19.473 14.476C19.3339 14.0772 19.1089 13.7442 18.7961 13.4753C18.4832 13.2064 18.0496 13.0728 17.4953 13.0728C16.8879 13.0728 16.425 13.2027 16.103 13.4625C15.7829 13.7223 15.6219 14.0772 15.6219 14.5291C15.6219 14.981 15.8213 15.3359 16.2201 15.5957C16.619 15.8554 17.3379 16.1592 18.3789 16.5068C19.6266 16.9568 20.4591 17.4855 20.8762 18.0929C21.2915 18.7003 21.5 19.3681 21.5 20.0962C21.5 20.5993 21.4141 21.0421 21.2403 21.4226C21.0665 21.805 20.8378 22.1288 20.5505 22.3977C20.2651 22.6666 19.9303 22.8825 19.5498 23.0472C19.1674 23.2118 18.7613 23.3381 18.3277 23.4241V24.7248H16.5074L16.5092 24.723ZM6.00244 17.4416C6.00244 15.8646 6.30064 14.3809 6.89888 12.9941C7.49713 11.6074 8.31674 10.3926 9.35589 9.35345C10.3969 8.31247 11.6098 7.49469 12.9966 6.89644C14.3833 6.2982 15.867 6 17.4441 6C19.3851 6 21.1726 6.44274 22.8026 7.32638C24.4327 8.21002 25.7682 9.39004 26.8074 10.8628V8.08013H28.8875V14.3223H22.6453V12.2422H25.2194C24.387 10.9945 23.2911 9.98829 21.93 9.22539C20.5688 8.46249 19.0741 8.08013 17.4441 8.08013C16.1433 8.08013 14.9248 8.32711 13.7906 8.82107C12.6545 9.31503 11.6665 9.9828 10.825 10.8244C9.98341 11.6659 9.31564 12.6538 8.82168 13.79C8.32772 14.9261 8.08074 16.1445 8.08074 17.4435H6.00061L6.00244 17.4416Z" fill="#4FAC4F"/>
</svg>
