<svg width="35" height="35" viewBox="0 0 35 35" fill="none" xmlns="http://www.w3.org/2000/svg">
<path d="M17.04 34.08C26.4509 34.08 34.08 26.4509 34.08 17.04C34.08 7.62907 26.4509 0 17.04 0C7.62907 0 0 7.62907 0 17.04C0 26.4509 7.62907 34.08 17.04 34.08Z" fill="#4FAC4F"/>
<path d="M23.5654 6.81677H24.523C25.3462 6.96249 26.0389 7.34099 26.5612 7.99958C27.5831 9.28837 27.4828 11.0957 26.3246 12.2709C25.6074 12.9995 24.8807 13.7206 24.1539 14.4416C24.0518 14.5438 24.0234 14.629 24.0839 14.7709C24.7255 16.2849 24.9185 17.8614 24.7009 19.4889C24.453 21.3435 23.7035 22.9749 22.4261 24.3318C20.2119 26.6841 17.4697 27.6645 14.2903 27.1156C10.827 26.5157 8.50872 24.4567 7.27482 21.1751C7.01933 20.4938 6.90389 19.7803 6.81873 19.0612V17.4658C6.84522 17.269 6.86604 17.0703 6.89632 16.8754C7.17262 15.1608 7.87095 13.643 9.02158 12.3391C10.3653 10.8137 12.0363 9.84476 14.0291 9.43598C14.7823 9.2808 15.5431 9.25619 16.3077 9.28079C16.4685 9.28647 16.548 9.23348 16.5878 9.07262C16.6445 8.83984 16.7448 8.6222 16.8679 8.41403C17.3921 7.52267 18.1718 7.00224 19.1824 6.81677H20.14C20.7361 6.92654 21.2793 7.15742 21.7429 7.55673C21.8224 7.62675 21.8867 7.62865 21.9662 7.55863C22.4299 7.15931 22.9711 6.92843 23.5692 6.81677H23.5654ZM17.3807 19.6744V19.6573C17.1423 19.6573 16.8962 19.6933 16.6654 19.6516C15.3217 19.4018 14.7274 17.8822 15.5299 16.7732C15.7589 16.4552 15.9954 16.143 16.2358 15.8326C16.3342 15.7039 16.3758 15.5695 16.3739 15.4087C16.3682 14.7312 16.3739 14.0537 16.372 13.3743C16.372 13.0166 16.5007 12.7138 16.7354 12.4526C16.8205 12.3599 16.9057 12.2653 17.0022 12.1839C17.1328 12.076 17.1309 11.9852 17.0306 11.8489C16.7865 11.5196 16.6237 11.1487 16.5348 10.7475C16.5026 10.6018 16.4383 10.5412 16.2812 10.5317C15.6888 10.4939 15.1003 10.5204 14.5155 10.6188C12.9296 10.8875 11.5594 11.5858 10.4031 12.6986C10.2328 12.8633 10.2385 12.8765 10.4693 12.9598C11.1563 13.2077 11.8509 13.4367 12.5284 13.7054C14.067 14.3148 14.5117 16.3436 13.3819 17.551C13.1548 17.7932 12.9201 18.0298 12.6798 18.2569C12.4924 18.4348 12.411 18.6448 12.4129 18.8965C12.4129 19.0101 12.4129 19.1218 12.4129 19.2353C12.411 20.1456 11.7865 20.878 10.8838 21.0237C10.2233 21.1297 9.56094 21.2376 8.89857 21.3322C8.71879 21.3587 8.70933 21.4192 8.77746 21.5631C9.28086 22.6096 9.97919 23.501 10.8706 24.2447C10.9879 24.3431 11.0579 24.345 11.1222 24.1955C11.1771 24.0687 11.2434 23.9438 11.3134 23.8227C11.6124 23.3155 12.0439 22.99 12.623 22.8632C12.8993 22.8027 13.1794 22.8235 13.4576 22.8348C13.9345 22.8537 14.2657 22.691 14.5117 22.25C14.9508 21.4628 15.8705 21.0843 16.7505 21.2697C17.5246 21.4344 18.0601 21.8924 18.3497 22.6248C18.6582 23.4026 18.9553 24.1842 19.2524 24.9677C19.3054 25.1077 19.3603 25.1399 19.4984 25.0623C20.9878 24.2258 22.1006 23.0392 22.8273 21.493C22.9257 21.283 22.9125 21.2641 22.6702 21.2641C21.7467 21.2641 20.8232 21.2584 19.8996 21.2641C19.2997 21.2678 18.8739 20.9953 18.5938 20.4768C18.4859 20.2781 18.3856 20.0756 18.2891 19.8712C18.221 19.7292 18.1169 19.6611 17.9579 19.6649C17.7649 19.6706 17.5719 19.6649 17.3788 19.6649L17.3807 19.6744ZM17.7024 10.0794C17.693 10.5223 17.869 10.9803 18.2361 11.3493C19.3905 12.5151 20.5544 13.6733 21.7126 14.8371C21.8167 14.9431 21.8924 14.9356 21.9946 14.8334C23.149 13.6752 24.3091 12.5245 25.4579 11.3606C25.8875 10.9254 26.0654 10.3879 25.9897 9.77473C25.8969 9.02341 25.4976 8.48595 24.8069 8.19639C24.101 7.90117 23.4253 8.00336 22.8216 8.47649C22.6437 8.61464 22.4942 8.78685 22.3296 8.94204C22.0211 9.23159 21.6748 9.2297 21.3739 8.93825C21.2357 8.80389 21.0995 8.66763 20.9575 8.53705C20.5885 8.1964 20.14 8.03364 19.6479 8.03364C18.5654 8.03364 17.7062 8.90986 17.7006 10.0775L17.7024 10.0794ZM21.5593 20.0415H23.0544C23.3402 20.0415 23.3364 20.0396 23.3932 19.7482C23.5351 19.0271 23.5673 18.2985 23.5067 17.568C23.4537 16.9378 23.3194 16.3228 23.1131 15.7228C23.0639 15.5828 23.0109 15.5752 22.9106 15.6812C22.7421 15.8591 22.5643 16.0313 22.3901 16.2035C22.0135 16.5782 21.6842 16.5782 21.3076 16.2016C20.456 15.3519 19.6063 14.5003 18.7566 13.6506C18.5503 13.4443 18.3421 13.2361 18.1358 13.0298C18.0885 12.9825 18.0336 12.9182 17.9674 12.9825C17.7857 13.1604 17.5794 13.3061 17.5908 13.6203C17.6135 14.2637 17.5908 14.9091 17.6003 15.5544C17.6059 15.9178 17.4962 16.2319 17.2804 16.5158C17.0514 16.8167 16.8262 17.1233 16.5972 17.4242C16.4383 17.6324 16.3493 17.8519 16.4742 18.1074C16.6029 18.3685 16.8357 18.4442 17.1025 18.4461C17.428 18.448 17.7535 18.4499 18.0791 18.4461C18.6449 18.4405 19.0575 18.7016 19.3338 19.1842C19.453 19.3905 19.5571 19.6081 19.6574 19.8239C19.7312 19.9828 19.8466 20.0453 20.0207 20.0434C20.5317 20.0377 21.0446 20.0415 21.5556 20.0434L21.5593 20.0415ZM8.02992 18.2512C8.04317 18.4632 8.05263 18.6751 8.06777 18.8871C8.09427 19.2656 8.15672 19.6384 8.23999 20.0074C8.2627 20.1077 8.30623 20.1645 8.43492 20.1437C9.17488 20.0245 9.91673 19.9147 10.6567 19.7993C10.9387 19.7557 11.1033 19.5892 11.1658 19.311C11.2074 19.1199 11.1904 18.9268 11.1885 18.7357C11.1828 18.2493 11.3626 17.8405 11.6919 17.4961C11.9114 17.2652 12.1423 17.0438 12.3656 16.8167C13.0564 16.1146 12.8425 15.1437 11.9209 14.8088C11.1658 14.5343 10.4069 14.2675 9.64989 13.9988C9.37927 13.9023 9.37737 13.9042 9.22408 14.1521C8.44059 15.4068 8.05263 16.7751 8.03181 18.2512H8.02992ZM15.7626 26.0218C15.9273 26.0104 16.0938 25.9953 16.2585 25.9896C16.8451 25.9707 17.4148 25.8514 17.9787 25.6963C18.0791 25.6679 18.1737 25.6395 18.1169 25.4957C17.7933 24.6668 17.481 23.8359 17.1498 23.0108C17.0363 22.7288 16.8092 22.5566 16.5064 22.5017C16.0768 22.426 15.7494 22.5869 15.5166 22.9976C15.2365 23.4972 14.8353 23.8359 14.2846 24.0006C14.0178 24.0801 13.7433 24.0801 13.4746 24.0536C12.8406 23.9911 12.4129 24.2239 12.1972 24.8409C12.1139 25.0812 12.0874 25.0717 12.3278 25.1929C13.4084 25.7341 14.5552 26.001 15.7607 26.0199L15.7626 26.0218Z" fill="#F8F6F1"/>
</svg>
