<svg width="15" height="15" viewBox="0 0 15 15" fill="none" xmlns="http://www.w3.org/2000/svg">
<path d="M0.0463671 7.30083C0.0719946 11.2817 3.31991 14.4881 7.3008 14.4625C11.2817 14.4368 14.488 11.1889 14.4624 7.20803C14.4368 3.22714 11.1889 0.0207753 7.20799 0.0464029C3.22711 0.0720304 0.0207395 3.31995 0.0463671 7.30083Z" fill="#007D2E"/>
<path d="M1.03223 7.29453C1.05435 10.7307 3.85786 13.4983 7.29403 13.4762C10.7302 13.4541 13.4978 10.6506 13.4757 7.21442C13.4536 3.77825 10.6501 1.01061 7.21392 1.03273C3.77775 1.05485 1.01011 3.85835 1.03223 7.29453Z" stroke="white" stroke-width="0.5" stroke-linecap="round" stroke-linejoin="round"/>
<path d="M4.15243 6.00199L7.27018 9.7265L10.3397 5.96216" stroke="white" stroke-width="0.5" stroke-linecap="round" stroke-linejoin="round"/>
</svg>
