<svg width="66" height="66" viewBox="0 0 66 66" fill="none" xmlns="http://www.w3.org/2000/svg">
<circle cx="33" cy="33" r="33" fill="white"/>
<path fill-rule="evenodd" clip-rule="evenodd" d="M20.818 17.818C21.6619 16.9741 22.8065 16.5 24 16.5H36.75C37.1478 16.5 37.5294 16.658 37.8107 16.9393L46.0607 25.1893C46.342 25.4706 46.5 25.8522 46.5 26.25V45C46.5 46.1935 46.0259 47.3381 45.182 48.182C44.3381 49.0259 43.1935 49.5 42 49.5H24C22.8065 49.5 21.6619 49.0259 20.818 48.182C19.9741 47.3381 19.5 46.1935 19.5 45V21C19.5 19.8065 19.9741 18.6619 20.818 17.818ZM24 19.5C23.6022 19.5 23.2206 19.658 22.9393 19.9393C22.658 20.2206 22.5 20.6022 22.5 21V45C22.5 45.3978 22.658 45.7794 22.9393 46.0607C23.2206 46.342 23.6022 46.5 24 46.5H42C42.3978 46.5 42.7794 46.342 43.0607 46.0607C43.342 45.7794 43.5 45.3978 43.5 45V26.8713L36.1287 19.5H24Z" fill="#171718"/>
<path fill-rule="evenodd" clip-rule="evenodd" d="M36 16.5C36.8284 16.5 37.5 17.1716 37.5 18V25.5H45C45.8284 25.5 46.5 26.1716 46.5 27C46.5 27.8284 45.8284 28.5 45 28.5H36C35.1716 28.5 34.5 27.8284 34.5 27V18C34.5 17.1716 35.1716 16.5 36 16.5Z" fill="#171718"/>
<path fill-rule="evenodd" clip-rule="evenodd" d="M38.5607 33.4393C39.1464 34.0251 39.1464 34.9749 38.5607 35.5607L32.5607 41.5607C31.9749 42.1464 31.0251 42.1464 30.4393 41.5607L27.4393 38.5607C26.8536 37.9749 26.8536 37.0251 27.4393 36.4393C28.0251 35.8536 28.9749 35.8536 29.5607 36.4393L31.5 38.3787L36.4393 33.4393C37.0251 32.8536 37.9749 32.8536 38.5607 33.4393Z" fill="#171718"/>
</svg>
