<svg width="48" height="49" viewBox="0 0 48 49" fill="none" xmlns="http://www.w3.org/2000/svg">
<mask id="mask0_4089_25419" style="mask-type:alpha" maskUnits="userSpaceOnUse" x="0" y="0" width="48" height="49">
<rect y="0.0429688" width="48" height="48" fill="#D9D9D9"/>
</mask>
<g mask="url(#mask0_4089_25419)">
<path d="M17.1999 45.043L13.3999 38.643L6.19988 37.043L6.89988 29.643L1.99988 24.043L6.89988 18.443L6.19988 11.043L13.3999 9.44297L17.1999 3.04297L23.9999 5.94297L30.7999 3.04297L34.5999 9.44297L41.7999 11.043L41.0999 18.443L45.9999 24.043L41.0999 29.643L41.7999 37.043L34.5999 38.643L30.7999 45.043L23.9999 42.143L17.1999 45.043ZM21.8999 31.143L33.1999 19.843L30.3999 16.943L21.8999 25.443L17.5999 21.243L14.7999 24.043L21.8999 31.143Z" fill="white"/>
</g>
</svg>
