<svg width="33" height="33" viewBox="0 0 33 33" fill="none" xmlns="http://www.w3.org/2000/svg">
<mask id="mask0_4089_25622" style="mask-type:alpha" maskUnits="userSpaceOnUse" x="0" y="0" width="33" height="33">
<rect x="0.5" y="0.0429688" width="32" height="32" fill="#D9D9D9"/>
</mask>
<g mask="url(#mask0_4089_25622)">
<path d="M11.9666 30.043L9.43325 25.7763L4.63325 24.7096L5.09992 19.7763L1.83325 16.043L5.09992 12.3096L4.63325 7.3763L9.43325 6.30964L11.9666 2.04297L16.4999 3.9763L21.0333 2.04297L23.5666 6.30964L28.3666 7.3763L27.8999 12.3096L31.1666 16.043L27.8999 19.7763L28.3666 24.7096L23.5666 25.7763L21.0333 30.043L16.4999 28.1096L11.9666 30.043ZM15.0999 20.7763L22.6333 13.243L20.7666 11.3096L15.0999 16.9763L12.2333 14.1763L10.3666 16.043L15.0999 20.7763Z" fill="#01B040"/>
</g>
</svg>
