<svg width="255" height="287" viewBox="0 0 255 287" fill="none" xmlns="http://www.w3.org/2000/svg">
<mask id="mask0_4089_24656" style="mask-type:alpha" maskUnits="userSpaceOnUse" x="-148" y="-67" width="403" height="404">
<circle cx="53.5" cy="134.543" r="201.5" fill="url(#paint0_radial_4089_24656)"/>
</mask>
<g mask="url(#mask0_4089_24656)">
<circle cx="11.129" cy="6.13974" r="6.09677" fill="#01802E" fill-opacity="0.05"/>
<circle cx="29.4194" cy="6.13974" r="6.09677" fill="#01802E" fill-opacity="0.05"/>
<circle cx="47.7097" cy="6.13974" r="6.09677" fill="#01802E" fill-opacity="0.05"/>
<circle cx="66" cy="6.13974" r="6.09677" fill="#01802E" fill-opacity="0.05"/>
<circle cx="84.2904" cy="6.13974" r="6.09677" fill="#01802E" fill-opacity="0.05"/>
<circle cx="102.581" cy="6.13974" r="6.09677" fill="#01802E" fill-opacity="0.05"/>
<circle cx="120.871" cy="6.13974" r="6.09677" fill="#01802E" fill-opacity="0.05"/>
<circle cx="139.161" cy="6.13974" r="6.09677" fill="#01802E" fill-opacity="0.05"/>
<circle cx="157.452" cy="6.13974" r="6.09677" fill="#01802E" fill-opacity="0.05"/>
<circle cx="175.742" cy="6.13974" r="6.09677" fill="#01802E" fill-opacity="0.05"/>
<circle cx="194.032" cy="6.13974" r="6.09677" fill="#01802E" fill-opacity="0.05"/>
<circle cx="212.323" cy="6.13974" r="6.09677" fill="#01802E" fill-opacity="0.05"/>
<circle cx="230.613" cy="6.13974" r="6.09677" fill="#01802E" fill-opacity="0.05"/>
<circle cx="248.903" cy="6.13974" r="6.09677" fill="#01802E" fill-opacity="0.05"/>
<circle cx="11.129" cy="24.4298" r="6.09677" fill="#01802E" fill-opacity="0.05"/>
<circle cx="29.4193" cy="24.4298" r="6.09677" fill="#01802E" fill-opacity="0.05"/>
<circle cx="47.7097" cy="24.4298" r="6.09677" fill="#01802E" fill-opacity="0.05"/>
<circle cx="66" cy="24.4298" r="6.09677" fill="#01802E" fill-opacity="0.05"/>
<circle cx="84.2903" cy="24.4298" r="6.09677" fill="#01802E" fill-opacity="0.05"/>
<circle cx="102.581" cy="24.4298" r="6.09677" fill="#01802E" fill-opacity="0.05"/>
<circle cx="120.871" cy="24.4298" r="6.09677" fill="#01802E" fill-opacity="0.05"/>
<circle cx="139.161" cy="24.4298" r="6.09677" fill="#01802E" fill-opacity="0.05"/>
<circle cx="157.452" cy="24.4298" r="6.09677" fill="#01802E" fill-opacity="0.05"/>
<circle cx="175.742" cy="24.4298" r="6.09677" fill="#01802E" fill-opacity="0.05"/>
<circle cx="194.032" cy="24.4298" r="6.09677" fill="#01802E" fill-opacity="0.05"/>
<circle cx="212.322" cy="24.4298" r="6.09677" fill="#01802E" fill-opacity="0.05"/>
<circle cx="230.613" cy="24.4298" r="6.09677" fill="#01802E" fill-opacity="0.05"/>
<circle cx="248.903" cy="24.4298" r="6.09677" fill="#01802E" fill-opacity="0.05"/>
<circle cx="11.129" cy="42.7208" r="6.09677" fill="#01802E" fill-opacity="0.05"/>
<circle cx="29.4193" cy="42.7208" r="6.09677" fill="#01802E" fill-opacity="0.05"/>
<circle cx="47.7097" cy="42.7208" r="6.09677" fill="#01802E" fill-opacity="0.05"/>
<circle cx="66" cy="42.7208" r="6.09677" fill="#01802E" fill-opacity="0.05"/>
<circle cx="84.2903" cy="42.7208" r="6.09677" fill="#01802E" fill-opacity="0.05"/>
<circle cx="102.581" cy="42.7208" r="6.09677" fill="#01802E" fill-opacity="0.05"/>
<circle cx="120.871" cy="42.7208" r="6.09677" fill="#01802E" fill-opacity="0.05"/>
<circle cx="139.161" cy="42.7208" r="6.09677" fill="#01802E" fill-opacity="0.05"/>
<circle cx="157.452" cy="42.7208" r="6.09677" fill="#01802E" fill-opacity="0.05"/>
<circle cx="175.742" cy="42.7208" r="6.09677" fill="#01802E" fill-opacity="0.05"/>
<circle cx="194.032" cy="42.7208" r="6.09677" fill="#01802E" fill-opacity="0.05"/>
<circle cx="212.322" cy="42.7208" r="6.09677" fill="#01802E" fill-opacity="0.05"/>
<circle cx="230.613" cy="42.7208" r="6.09677" fill="#01802E" fill-opacity="0.05"/>
<circle cx="248.903" cy="42.7208" r="6.09677" fill="#01802E" fill-opacity="0.05"/>
<circle cx="11.129" cy="61.0108" r="6.09677" fill="#01802E" fill-opacity="0.05"/>
<circle cx="29.4194" cy="61.0108" r="6.09677" fill="#01802E" fill-opacity="0.05"/>
<circle cx="47.7097" cy="61.0108" r="6.09677" fill="#01802E" fill-opacity="0.05"/>
<circle cx="66" cy="61.0108" r="6.09677" fill="#01802E" fill-opacity="0.05"/>
<circle cx="84.2904" cy="61.0108" r="6.09677" fill="#01802E" fill-opacity="0.05"/>
<circle cx="102.581" cy="61.0108" r="6.09677" fill="#01802E" fill-opacity="0.05"/>
<circle cx="120.871" cy="61.0108" r="6.09677" fill="#01802E" fill-opacity="0.05"/>
<circle cx="139.161" cy="61.0108" r="6.09677" fill="#01802E" fill-opacity="0.05"/>
<circle cx="157.452" cy="61.0108" r="6.09677" fill="#01802E" fill-opacity="0.05"/>
<circle cx="175.742" cy="61.0108" r="6.09677" fill="#01802E" fill-opacity="0.05"/>
<circle cx="194.032" cy="61.0108" r="6.09677" fill="#01802E" fill-opacity="0.05"/>
<circle cx="212.323" cy="61.0108" r="6.09677" fill="#01802E" fill-opacity="0.05"/>
<circle cx="230.613" cy="61.0108" r="6.09677" fill="#01802E" fill-opacity="0.05"/>
<circle cx="248.903" cy="61.0108" r="6.09677" fill="#01802E" fill-opacity="0.05"/>
<circle cx="11.129" cy="79.3009" r="6.09677" fill="#01802E" fill-opacity="0.05"/>
<circle cx="29.4194" cy="79.3009" r="6.09677" fill="#01802E" fill-opacity="0.05"/>
<circle cx="47.7097" cy="79.3009" r="6.09677" fill="#01802E" fill-opacity="0.05"/>
<circle cx="66" cy="79.3009" r="6.09677" fill="#01802E" fill-opacity="0.05"/>
<circle cx="84.2904" cy="79.3009" r="6.09677" fill="#01802E" fill-opacity="0.05"/>
<circle cx="102.581" cy="79.3009" r="6.09677" fill="#01802E" fill-opacity="0.05"/>
<circle cx="120.871" cy="79.3009" r="6.09677" fill="#01802E" fill-opacity="0.05"/>
<circle cx="139.161" cy="79.3009" r="6.09677" fill="#01802E" fill-opacity="0.05"/>
<circle cx="157.452" cy="79.3009" r="6.09677" fill="#01802E" fill-opacity="0.05"/>
<circle cx="175.742" cy="79.3009" r="6.09677" fill="#01802E" fill-opacity="0.05"/>
<circle cx="194.032" cy="79.3009" r="6.09677" fill="#01802E" fill-opacity="0.05"/>
<circle cx="212.323" cy="79.3009" r="6.09677" fill="#01802E" fill-opacity="0.05"/>
<circle cx="230.613" cy="79.3009" r="6.09677" fill="#01802E" fill-opacity="0.05"/>
<circle cx="248.903" cy="79.3009" r="6.09677" fill="#01802E" fill-opacity="0.05"/>
<circle cx="11.129" cy="97.5909" r="6.09677" fill="#01802E" fill-opacity="0.05"/>
<circle cx="29.4193" cy="97.5909" r="6.09677" fill="#01802E" fill-opacity="0.05"/>
<circle cx="47.7097" cy="97.5909" r="6.09677" fill="#01802E" fill-opacity="0.05"/>
<circle cx="66" cy="97.5909" r="6.09677" fill="#01802E" fill-opacity="0.05"/>
<circle cx="84.2903" cy="97.5909" r="6.09677" fill="#01802E" fill-opacity="0.05"/>
<circle cx="102.581" cy="97.5909" r="6.09677" fill="#01802E" fill-opacity="0.05"/>
<circle cx="120.871" cy="97.5909" r="6.09677" fill="#01802E" fill-opacity="0.05"/>
<circle cx="139.161" cy="97.5909" r="6.09677" fill="#01802E" fill-opacity="0.05"/>
<circle cx="157.452" cy="97.5909" r="6.09677" fill="#01802E" fill-opacity="0.05"/>
<circle cx="175.742" cy="97.5909" r="6.09677" fill="#01802E" fill-opacity="0.05"/>
<circle cx="194.032" cy="97.5909" r="6.09677" fill="#01802E" fill-opacity="0.05"/>
<circle cx="212.322" cy="97.5909" r="6.09677" fill="#01802E" fill-opacity="0.05"/>
<circle cx="230.613" cy="97.5909" r="6.09677" fill="#01802E" fill-opacity="0.05"/>
<circle cx="248.903" cy="97.5909" r="6.09677" fill="#01802E" fill-opacity="0.05"/>
<circle cx="11.129" cy="115.882" r="6.09677" fill="#01802E" fill-opacity="0.05"/>
<circle cx="29.4193" cy="115.882" r="6.09677" fill="#01802E" fill-opacity="0.05"/>
<circle cx="47.7097" cy="115.882" r="6.09677" fill="#01802E" fill-opacity="0.05"/>
<circle cx="66" cy="115.882" r="6.09677" fill="#01802E" fill-opacity="0.05"/>
<circle cx="84.2903" cy="115.882" r="6.09677" fill="#01802E" fill-opacity="0.05"/>
<circle cx="102.581" cy="115.882" r="6.09677" fill="#01802E" fill-opacity="0.05"/>
<circle cx="120.871" cy="115.882" r="6.09677" fill="#01802E" fill-opacity="0.05"/>
<circle cx="139.161" cy="115.882" r="6.09677" fill="#01802E" fill-opacity="0.05"/>
<circle cx="157.452" cy="115.882" r="6.09677" fill="#01802E" fill-opacity="0.05"/>
<circle cx="175.742" cy="115.882" r="6.09677" fill="#01802E" fill-opacity="0.05"/>
<circle cx="194.032" cy="115.882" r="6.09677" fill="#01802E" fill-opacity="0.05"/>
<circle cx="212.322" cy="115.882" r="6.09677" fill="#01802E" fill-opacity="0.05"/>
<circle cx="230.613" cy="115.882" r="6.09677" fill="#01802E" fill-opacity="0.05"/>
<circle cx="248.903" cy="115.882" r="6.09677" fill="#01802E" fill-opacity="0.05"/>
<circle cx="11.129" cy="134.172" r="6.09677" fill="#01802E" fill-opacity="0.05"/>
<circle cx="29.4194" cy="134.172" r="6.09677" fill="#01802E" fill-opacity="0.05"/>
<circle cx="47.7097" cy="134.172" r="6.09677" fill="#01802E" fill-opacity="0.05"/>
<circle cx="66" cy="134.172" r="6.09677" fill="#01802E" fill-opacity="0.05"/>
<circle cx="84.2904" cy="134.172" r="6.09677" fill="#01802E" fill-opacity="0.05"/>
<circle cx="102.581" cy="134.172" r="6.09677" fill="#01802E" fill-opacity="0.05"/>
<circle cx="120.871" cy="134.172" r="6.09677" fill="#01802E" fill-opacity="0.05"/>
<circle cx="139.161" cy="134.172" r="6.09677" fill="#01802E" fill-opacity="0.05"/>
<circle cx="157.452" cy="134.172" r="6.09677" fill="#01802E" fill-opacity="0.05"/>
<circle cx="175.742" cy="134.172" r="6.09677" fill="#01802E" fill-opacity="0.05"/>
<circle cx="194.032" cy="134.172" r="6.09677" fill="#01802E" fill-opacity="0.05"/>
<circle cx="212.323" cy="134.172" r="6.09677" fill="#01802E" fill-opacity="0.05"/>
<circle cx="230.613" cy="134.172" r="6.09677" fill="#01802E" fill-opacity="0.05"/>
<circle cx="248.903" cy="134.172" r="6.09677" fill="#01802E" fill-opacity="0.05"/>
<circle cx="11.129" cy="152.462" r="6.09677" fill="#01802E" fill-opacity="0.05"/>
<circle cx="29.4193" cy="152.462" r="6.09677" fill="#01802E" fill-opacity="0.05"/>
<circle cx="47.7097" cy="152.462" r="6.09677" fill="#01802E" fill-opacity="0.05"/>
<circle cx="66" cy="152.462" r="6.09677" fill="#01802E" fill-opacity="0.05"/>
<circle cx="84.2903" cy="152.462" r="6.09677" fill="#01802E" fill-opacity="0.05"/>
<circle cx="102.581" cy="152.462" r="6.09677" fill="#01802E" fill-opacity="0.05"/>
<circle cx="120.871" cy="152.462" r="6.09677" fill="#01802E" fill-opacity="0.05"/>
<circle cx="139.161" cy="152.462" r="6.09677" fill="#01802E" fill-opacity="0.05"/>
<circle cx="157.452" cy="152.462" r="6.09677" fill="#01802E" fill-opacity="0.05"/>
<circle cx="175.742" cy="152.462" r="6.09677" fill="#01802E" fill-opacity="0.05"/>
<circle cx="194.032" cy="152.462" r="6.09677" fill="#01802E" fill-opacity="0.05"/>
<circle cx="212.322" cy="152.462" r="6.09677" fill="#01802E" fill-opacity="0.05"/>
<circle cx="230.613" cy="152.462" r="6.09677" fill="#01802E" fill-opacity="0.05"/>
<circle cx="248.903" cy="152.462" r="6.09677" fill="#01802E" fill-opacity="0.05"/>
<circle cx="11.129" cy="170.753" r="6.09677" fill="#01802E" fill-opacity="0.05"/>
<circle cx="29.4193" cy="170.753" r="6.09677" fill="#01802E" fill-opacity="0.05"/>
<circle cx="47.7097" cy="170.753" r="6.09677" fill="#01802E" fill-opacity="0.05"/>
<circle cx="66" cy="170.753" r="6.09677" fill="#01802E" fill-opacity="0.05"/>
<circle cx="84.2903" cy="170.753" r="6.09677" fill="#01802E" fill-opacity="0.05"/>
<circle cx="102.581" cy="170.753" r="6.09677" fill="#01802E" fill-opacity="0.05"/>
<circle cx="120.871" cy="170.753" r="6.09677" fill="#01802E" fill-opacity="0.05"/>
<circle cx="139.161" cy="170.753" r="6.09677" fill="#01802E" fill-opacity="0.05"/>
<circle cx="157.452" cy="170.753" r="6.09677" fill="#01802E" fill-opacity="0.05"/>
<circle cx="175.742" cy="170.753" r="6.09677" fill="#01802E" fill-opacity="0.05"/>
<circle cx="194.032" cy="170.753" r="6.09677" fill="#01802E" fill-opacity="0.05"/>
<circle cx="212.322" cy="170.753" r="6.09677" fill="#01802E" fill-opacity="0.05"/>
<circle cx="230.613" cy="170.753" r="6.09677" fill="#01802E" fill-opacity="0.05"/>
<circle cx="248.903" cy="170.753" r="6.09677" fill="#01802E" fill-opacity="0.05"/>
<circle cx="11.129" cy="189.043" r="6.09677" fill="#01802E" fill-opacity="0.05"/>
<circle cx="29.4194" cy="189.043" r="6.09677" fill="#01802E" fill-opacity="0.05"/>
<circle cx="47.7097" cy="189.043" r="6.09677" fill="#01802E" fill-opacity="0.05"/>
<circle cx="66" cy="189.043" r="6.09677" fill="#01802E" fill-opacity="0.05"/>
<circle cx="84.2904" cy="189.043" r="6.09677" fill="#01802E" fill-opacity="0.05"/>
<circle cx="102.581" cy="189.043" r="6.09677" fill="#01802E" fill-opacity="0.05"/>
<circle cx="120.871" cy="189.043" r="6.09677" fill="#01802E" fill-opacity="0.05"/>
<circle cx="139.161" cy="189.043" r="6.09677" fill="#01802E" fill-opacity="0.05"/>
<circle cx="157.452" cy="189.043" r="6.09677" fill="#01802E" fill-opacity="0.05"/>
<circle cx="175.742" cy="189.043" r="6.09677" fill="#01802E" fill-opacity="0.05"/>
<circle cx="194.032" cy="189.043" r="6.09677" fill="#01802E" fill-opacity="0.05"/>
<circle cx="212.323" cy="189.043" r="6.09677" fill="#01802E" fill-opacity="0.05"/>
<circle cx="230.613" cy="189.043" r="6.09677" fill="#01802E" fill-opacity="0.05"/>
<circle cx="248.903" cy="189.043" r="6.09677" fill="#01802E" fill-opacity="0.05"/>
<circle cx="11.129" cy="207.333" r="6.09677" fill="#01802E" fill-opacity="0.05"/>
<circle cx="29.4194" cy="207.333" r="6.09677" fill="#01802E" fill-opacity="0.05"/>
<circle cx="47.7097" cy="207.333" r="6.09677" fill="#01802E" fill-opacity="0.05"/>
<circle cx="66" cy="207.333" r="6.09677" fill="#01802E" fill-opacity="0.05"/>
<circle cx="84.2904" cy="207.333" r="6.09677" fill="#01802E" fill-opacity="0.05"/>
<circle cx="102.581" cy="207.333" r="6.09677" fill="#01802E" fill-opacity="0.05"/>
<circle cx="120.871" cy="207.333" r="6.09677" fill="#01802E" fill-opacity="0.05"/>
<circle cx="139.161" cy="207.333" r="6.09677" fill="#01802E" fill-opacity="0.05"/>
<circle cx="157.452" cy="207.333" r="6.09677" fill="#01802E" fill-opacity="0.05"/>
<circle cx="175.742" cy="207.333" r="6.09677" fill="#01802E" fill-opacity="0.05"/>
<circle cx="194.032" cy="207.333" r="6.09677" fill="#01802E" fill-opacity="0.05"/>
<circle cx="212.323" cy="207.333" r="6.09677" fill="#01802E" fill-opacity="0.05"/>
<circle cx="230.613" cy="207.333" r="6.09677" fill="#01802E" fill-opacity="0.05"/>
<circle cx="248.903" cy="207.333" r="6.09677" fill="#01802E" fill-opacity="0.05"/>
<circle cx="11.129" cy="225.623" r="6.09677" fill="#01802E" fill-opacity="0.05"/>
<circle cx="29.4193" cy="225.623" r="6.09677" fill="#01802E" fill-opacity="0.05"/>
<circle cx="47.7097" cy="225.623" r="6.09677" fill="#01802E" fill-opacity="0.05"/>
<circle cx="66" cy="225.623" r="6.09677" fill="#01802E" fill-opacity="0.05"/>
<circle cx="84.2903" cy="225.623" r="6.09677" fill="#01802E" fill-opacity="0.05"/>
<circle cx="102.581" cy="225.623" r="6.09677" fill="#01802E" fill-opacity="0.05"/>
<circle cx="120.871" cy="225.623" r="6.09677" fill="#01802E" fill-opacity="0.05"/>
<circle cx="139.161" cy="225.623" r="6.09677" fill="#01802E" fill-opacity="0.05"/>
<circle cx="157.452" cy="225.623" r="6.09677" fill="#01802E" fill-opacity="0.05"/>
<circle cx="175.742" cy="225.623" r="6.09677" fill="#01802E" fill-opacity="0.05"/>
<circle cx="194.032" cy="225.623" r="6.09677" fill="#01802E" fill-opacity="0.05"/>
<circle cx="212.322" cy="225.623" r="6.09677" fill="#01802E" fill-opacity="0.05"/>
<circle cx="230.613" cy="225.623" r="6.09677" fill="#01802E" fill-opacity="0.05"/>
<circle cx="248.903" cy="225.623" r="6.09677" fill="#01802E" fill-opacity="0.05"/>
<circle cx="11.129" cy="243.914" r="6.09677" fill="#01802E" fill-opacity="0.05"/>
<circle cx="29.4194" cy="243.914" r="6.09677" fill="#01802E" fill-opacity="0.05"/>
<circle cx="47.7097" cy="243.914" r="6.09677" fill="#01802E" fill-opacity="0.05"/>
<circle cx="66" cy="243.914" r="6.09677" fill="#01802E" fill-opacity="0.05"/>
<circle cx="84.2904" cy="243.914" r="6.09677" fill="#01802E" fill-opacity="0.05"/>
<circle cx="102.581" cy="243.914" r="6.09677" fill="#01802E" fill-opacity="0.05"/>
<circle cx="120.871" cy="243.914" r="6.09677" fill="#01802E" fill-opacity="0.05"/>
<circle cx="139.161" cy="243.914" r="6.09677" fill="#01802E" fill-opacity="0.05"/>
<circle cx="157.452" cy="243.914" r="6.09677" fill="#01802E" fill-opacity="0.05"/>
<circle cx="175.742" cy="243.914" r="6.09677" fill="#01802E" fill-opacity="0.05"/>
<circle cx="194.032" cy="243.914" r="6.09677" fill="#01802E" fill-opacity="0.05"/>
<circle cx="212.323" cy="243.914" r="6.09677" fill="#01802E" fill-opacity="0.05"/>
<circle cx="230.613" cy="243.914" r="6.09677" fill="#01802E" fill-opacity="0.05"/>
<circle cx="248.903" cy="243.914" r="6.09677" fill="#01802E" fill-opacity="0.05"/>
<circle cx="11.129" cy="262.204" r="6.09677" fill="#01802E" fill-opacity="0.05"/>
<circle cx="29.4194" cy="262.204" r="6.09677" fill="#01802E" fill-opacity="0.05"/>
<circle cx="47.7097" cy="262.204" r="6.09677" fill="#01802E" fill-opacity="0.05"/>
<circle cx="66" cy="262.204" r="6.09677" fill="#01802E" fill-opacity="0.05"/>
<circle cx="84.2904" cy="262.204" r="6.09677" fill="#01802E" fill-opacity="0.05"/>
<circle cx="102.581" cy="262.204" r="6.09677" fill="#01802E" fill-opacity="0.05"/>
<circle cx="120.871" cy="262.204" r="6.09677" fill="#01802E" fill-opacity="0.05"/>
<circle cx="139.161" cy="262.204" r="6.09677" fill="#01802E" fill-opacity="0.05"/>
<circle cx="157.452" cy="262.204" r="6.09677" fill="#01802E" fill-opacity="0.05"/>
<circle cx="175.742" cy="262.204" r="6.09677" fill="#01802E" fill-opacity="0.05"/>
<circle cx="194.032" cy="262.204" r="6.09677" fill="#01802E" fill-opacity="0.05"/>
<circle cx="212.323" cy="262.204" r="6.09677" fill="#01802E" fill-opacity="0.05"/>
<circle cx="230.613" cy="262.204" r="6.09677" fill="#01802E" fill-opacity="0.05"/>
<circle cx="248.903" cy="262.204" r="6.09677" fill="#01802E" fill-opacity="0.05"/>
<circle cx="11.129" cy="280.494" r="6.09677" fill="#01802E" fill-opacity="0.05"/>
<circle cx="29.4193" cy="280.494" r="6.09677" fill="#01802E" fill-opacity="0.05"/>
<circle cx="47.7097" cy="280.494" r="6.09677" fill="#01802E" fill-opacity="0.05"/>
<circle cx="66" cy="280.494" r="6.09677" fill="#01802E" fill-opacity="0.05"/>
<circle cx="84.2903" cy="280.494" r="6.09677" fill="#01802E" fill-opacity="0.05"/>
<circle cx="102.581" cy="280.494" r="6.09677" fill="#01802E" fill-opacity="0.05"/>
<circle cx="120.871" cy="280.494" r="6.09677" fill="#01802E" fill-opacity="0.05"/>
<circle cx="139.161" cy="280.494" r="6.09677" fill="#01802E" fill-opacity="0.05"/>
<circle cx="157.452" cy="280.494" r="6.09677" fill="#01802E" fill-opacity="0.05"/>
<circle cx="175.742" cy="280.494" r="6.09677" fill="#01802E" fill-opacity="0.05"/>
<circle cx="194.032" cy="280.494" r="6.09677" fill="#01802E" fill-opacity="0.05"/>
<circle cx="212.322" cy="280.494" r="6.09677" fill="#01802E" fill-opacity="0.05"/>
<circle cx="230.613" cy="280.494" r="6.09677" fill="#01802E" fill-opacity="0.05"/>
<circle cx="248.903" cy="280.494" r="6.09677" fill="#01802E" fill-opacity="0.05"/>
</g>
<defs>
<radialGradient id="paint0_radial_4089_24656" cx="0" cy="0" r="1" gradientUnits="userSpaceOnUse" gradientTransform="translate(53.5 134.543) rotate(90) scale(201.5)">
<stop/>
<stop offset="1" stop-color="#D9D9D9" stop-opacity="0"/>
</radialGradient>
</defs>
</svg>
