<svg width="285" height="147" viewBox="0 0 285 147" fill="none" xmlns="http://www.w3.org/2000/svg">
<g clip-path="url(#clip0_3646_9244)">
<path d="M285 49.8301H120V149.492H285V49.8301Z" fill="#6DD55A"/>
<path d="M120 49.8301H0V149.492H120V49.8301Z" fill="#1D8010"/>
<path d="M284.999 49.8309H119.999C99.999 33.2206 79.999 16.6103 59.999 0H220.845C242.232 16.6103 263.612 33.2206 284.999 49.8309Z" fill="#21343C"/>
<path d="M120 49.8309H0C20 33.2206 40 16.6103 60 0C79.9999 16.6103 99.9999 33.2206 120 49.8309Z" fill="#1D8010"/>
<path d="M164.997 49.8301C154.997 41.5249 144.997 33.2198 134.997 24.9146C156.384 24.6612 177.764 24.4078 199.151 24.1602C187.764 32.7187 176.384 41.2773 164.997 49.8301Z" fill="#338527"/>
<path d="M224.998 49.8301C215.366 54.1497 205.74 58.4693 196.108 62.7889C185.74 58.4693 175.366 54.1497 164.998 49.8301C176.385 41.2715 187.765 32.713 199.152 24.1602C207.765 32.7187 216.385 41.2773 224.998 49.8301Z" fill="#6DD55A"/>
<path d="M96.9493 74.7461H90.6455V80.0966H96.9493V74.7461Z" fill="#3F8F34"/>
<path d="M96.9493 90.8037H90.6455V96.1542H96.9493V90.8037Z" fill="#3F8F34"/>
<path d="M96.9493 106.854H90.6455V112.205H96.9493V106.854Z" fill="#3F8F34"/>
<path d="M96.9493 122.911H90.6455V128.262H96.9493V122.911Z" fill="#3F8F34"/>
<path d="M78.0371 74.7461H71.7334V80.0966H78.0371V74.7461Z" fill="#3F8F34"/>
<path d="M78.0371 90.8037H71.7334V96.1542H78.0371V90.8037Z" fill="#3F8F34"/>
<path d="M78.0371 106.854H71.7334V112.205H78.0371V106.854Z" fill="#3F8F34"/>
<path d="M78.0371 122.911H71.7334V128.262H78.0371V122.911Z" fill="#3F8F34"/>
<path d="M59.125 74.7461H52.8213V80.0966H59.125V74.7461Z" fill="#3F8F34"/>
<path d="M59.125 90.8037H52.8213V96.1542H59.125V90.8037Z" fill="#3F8F34"/>
<path d="M59.125 106.854H52.8213V112.205H59.125V106.854Z" fill="#3F8F34"/>
<path d="M59.125 122.911H52.8213V128.262H59.125V122.911Z" fill="#3F8F34"/>
<path d="M40.2129 74.7461H33.9092V80.0966H40.2129V74.7461Z" fill="#3F8F34"/>
<path d="M40.2129 90.8037H33.9092V96.1542H40.2129V90.8037Z" fill="#3F8F34"/>
<path d="M40.2129 106.854H33.9092V112.205H40.2129V106.854Z" fill="#3F8F34"/>
<path d="M40.2129 122.911H33.9092V128.262H40.2129V122.911Z" fill="#3F8F34"/>
<path d="M21.3028 74.7461H14.999V80.0966H21.3028V74.7461Z" fill="#3F8F34"/>
<path d="M21.3028 90.8037H14.999V96.1542H21.3028V90.8037Z" fill="#3F8F34"/>
<path d="M21.3028 106.854H14.999V112.205H21.3028V106.854Z" fill="#3F8F34"/>
<path d="M21.3028 122.912H14.999V128.263H21.3028V122.912Z" fill="#3F8F34"/>
<g clip-path="url(#clip1_3646_9244)">
<path d="M282.959 50.2217H120.328V148.396H282.959V50.2217Z" fill="#6DD45A"/>
<path d="M120.328 50.2217H2.05176V148.396H120.328V50.2217Z" fill="#1D8010"/>
<path d="M282.959 50.2219H120.329C100.616 33.8596 80.9032 17.4972 61.1904 1.13477H219.727C240.806 17.4972 261.879 33.8596 282.959 50.2219Z" fill="#21343C"/>
<path d="M120.328 50.2219H2.05176C21.7645 33.8596 41.4773 17.4972 61.1901 1.13477C80.9029 17.4972 100.616 33.8596 120.328 50.2219Z" fill="#1D8010"/>
<path d="M97.6077 74.7656H91.3945V80.0363H97.6077V74.7656Z" fill="#3F8F34"/>
<path d="M97.6077 90.5781H91.3945V95.8488H97.6077V90.5781Z" fill="#3F8F34"/>
<path d="M97.6077 106.396H91.3945V111.666H97.6077V106.396Z" fill="#3F8F34"/>
<path d="M97.6077 122.207H91.3945V127.478H97.6077V122.207Z" fill="#3F8F34"/>
<path d="M78.9681 74.7656H72.7549V80.0363H78.9681V74.7656Z" fill="#3F8F34"/>
<path d="M78.9681 90.5781H72.7549V95.8488H78.9681V90.5781Z" fill="#3F8F34"/>
<path d="M78.9681 106.396H72.7549V111.666H78.9681V106.396Z" fill="#3F8F34"/>
<path d="M78.9681 122.207H72.7549V127.478H78.9681V122.207Z" fill="#3F8F34"/>
<path d="M60.3285 74.7656H54.1152V80.0363H60.3285V74.7656Z" fill="#3F8F34"/>
<path d="M60.3285 90.5781H54.1152V95.8488H60.3285V90.5781Z" fill="#3F8F34"/>
<path d="M60.3285 106.396H54.1152V111.666H60.3285V106.396Z" fill="#3F8F34"/>
<path d="M60.3285 122.207H54.1152V127.478H60.3285V122.207Z" fill="#3F8F34"/>
<path d="M41.6888 74.7656H35.4756V80.0363H41.6888V74.7656Z" fill="#3F8F34"/>
<path d="M41.6888 90.5781H35.4756V95.8488H41.6888V90.5781Z" fill="#3F8F34"/>
<path d="M41.6888 106.396H35.4756V111.666H41.6888V106.396Z" fill="#3F8F34"/>
<path d="M41.6888 122.207H35.4756V127.478H41.6888V122.207Z" fill="#3F8F34"/>
<path d="M23.0492 74.7656H16.8359V80.0363H23.0492V74.7656Z" fill="#3F8F34"/>
<path d="M23.0492 90.5781H16.8359V95.8488H23.0492V90.5781Z" fill="#3F8F34"/>
<path d="M23.0492 106.396H16.8359V111.666H23.0492V106.396Z" fill="#3F8F34"/>
<path d="M23.0492 122.207H16.8359V127.478H23.0492V122.207Z" fill="#3F8F34"/>
<path d="M268.175 78.1523H260.226V96.2849H268.175V78.1523Z" fill="#21343C"/>
<path d="M268.175 94.1748H260.226V96.2229H268.175V94.1748Z" fill="#46923B"/>
<path d="M239.337 78.1523H231.388V96.2849H239.337V78.1523Z" fill="#21343C"/>
<path d="M239.337 94.1748H231.388V96.2229H239.337V94.1748Z" fill="#46923B"/>
<path d="M210.499 78.1523H202.55V96.2849H210.499V78.1523Z" fill="#21343C"/>
<path d="M210.499 94.1748H202.55V96.2229H210.499V94.1748Z" fill="#46923B"/>
<path d="M181.661 78.1523H173.712V96.2849H181.661V78.1523Z" fill="#21343C"/>
<path d="M181.661 94.1748H173.712V96.2229H181.661V94.1748Z" fill="#46923B"/>
<path d="M152.823 78.1523H144.874V96.2849H152.823V78.1523Z" fill="#21343C"/>
<path d="M152.823 94.1748H144.874V96.2229H152.823V94.1748Z" fill="#46923B"/>
<path d="M268.175 110.19H260.226V128.323H268.175V110.19Z" fill="#21343C"/>
<path d="M268.175 126.207H260.226V128.255H268.175V126.207Z" fill="#46923B"/>
<path d="M239.337 110.19H231.388V128.323H239.337V110.19Z" fill="#21343C"/>
<path d="M239.337 126.207H231.388V128.255H239.337V126.207Z" fill="#46923B"/>
<path d="M210.499 110.19H202.55V128.323H210.499V110.19Z" fill="#21343C"/>
<path d="M210.499 126.207H202.55V128.255H210.499V126.207Z" fill="#46923B"/>
<path d="M181.661 110.19H173.712V128.323H181.661V110.19Z" fill="#21343C"/>
<path d="M181.661 126.207H173.712V128.255H181.661V126.207Z" fill="#46923B"/>
<path d="M152.823 110.19H144.874V128.323H152.823V110.19Z" fill="#21343C"/>
<path d="M152.823 126.207H144.874V128.255H152.823V126.207Z" fill="#46923B"/>
<path d="M71.1221 3.71582L123.124 47.2827H203.725L145.605 3.71582H71.1221Z" fill="#338527"/>
<path d="M151.094 3.71582L208.564 47.2827H274.128L218.058 3.71582H151.094Z" fill="#338527"/>
<path d="M266.609 39.0455H251.653L242.583 31.9536H255.72V31.3862H241.858L232.788 24.2943H246.479V23.727H232.064L222.993 16.6351H235.584V16.0678H222.269L213.198 8.97588H227.662V8.40853H212.467L205.673 3.09813L205.201 3.51229L211.469 8.4142H200.082L193.369 3.1038L192.898 3.51229L199.09 8.4142H186.138L179.009 3.09813L178.551 3.51797L185.112 8.4142H169.289L161.921 3.09245L161.469 3.51797L168.25 8.40853H141.839L134.935 2.81445L134.457 3.21727L140.861 8.40286H124.498L117.847 2.81445L117.362 3.2116L123.534 8.40286H107.41L100.759 2.81445L100.274 3.2116L106.446 8.40286H90.3216L83.6709 2.81445L83.1856 3.2116L89.3578 8.40286H74.5391V8.97021H90.0345L98.4692 16.0621H82.7413V16.6294H99.1459L107.581 23.7213H90.9436V24.2887H108.257L116.692 31.3806H99.1459V31.9479H117.369L125.803 39.0398H107.348V39.6071H126.48L137.177 48.5997L137.662 48.2025L127.437 39.6071H143.561L154.258 48.5997L154.744 48.2025L144.518 39.6071H160.642L171.339 48.5997L171.825 48.2025L161.599 39.6071H179.364L190.82 48.889L191.298 48.4862L180.341 39.6128H211.455L224.326 48.906L224.777 48.4805L212.494 39.6185H226.91L239.357 48.906L239.815 48.4862L227.928 39.6185H238.489L251.653 50.035L252.125 49.6266L239.48 39.6185H251.353L263.957 49.4677L264.428 49.0535L252.357 39.6128H266.588V39.0455H266.609ZM240.861 31.3862H229.111L220.15 24.2943H231.783L240.854 31.3862H240.861ZM205.645 23.727H190.512L180.683 16.6351H196.138L205.645 23.727ZM197.163 16.6351H209.487L218.448 23.727H206.671L197.163 16.6351ZM189.473 23.727H160.752L151.996 16.6351H179.644L189.473 23.727ZM159.774 23.727H142.727L134.293 16.6351H151.025L159.781 23.727H159.774ZM141.763 23.727H125.639L117.205 16.6351H133.329L141.763 23.727ZM142.44 24.2943L150.875 31.3862H134.751L126.316 24.2943H142.44ZM143.404 24.2943H160.478L169.234 31.3862H151.839L143.404 24.2943ZM161.456 24.2943H190.259L200.088 31.3862H170.212L161.456 24.2943ZM191.298 24.2943H206.404L215.912 31.3862H201.127L191.298 24.2943ZM207.429 24.2943H219.166L228.126 31.3862H216.937L207.429 24.2943ZM231.066 23.727H219.439L210.478 16.6351H221.995L231.066 23.727ZM212.2 8.97588L221.271 16.0678H209.76L200.799 8.97588H212.194H212.2ZM199.808 8.97588L208.769 16.0678H196.404L186.896 8.97588H199.808ZM185.871 8.97588L195.379 16.0678H179.897L170.068 8.97588H185.871ZM150.41 8.97588H169.029L178.858 16.0678H151.292L142.536 8.97588H150.41ZM141.558 8.97588L150.314 16.0678H133.609L125.174 8.97588H141.558ZM124.211 8.97588L132.645 16.0678H116.521L108.086 8.97588H124.211ZM90.9983 8.97588H107.123L115.557 16.0678H99.4329L90.9983 8.97588ZM100.11 16.6351H116.234L124.669 23.727H108.544L100.11 16.6351ZM109.221 24.2943H125.345L133.78 31.3862H117.656L109.221 24.2943ZM126.767 39.0455L118.332 31.9536H134.457L142.891 39.0455H126.767ZM143.855 39.0455L135.42 31.9536H151.545L159.979 39.0455H143.855ZM160.943 39.0455L152.508 31.9536H169.931L178.687 39.0455H160.95H160.943ZM194.839 39.0455H179.658L170.902 31.9536H200.861L210.69 39.0455H194.839ZM211.729 39.0455L201.9 31.9536H216.664L226.172 39.0455H211.729ZM227.19 39.0455L217.682 31.9536H228.831L237.792 39.0455H227.19ZM238.783 39.0455L229.822 31.9536H241.578L250.649 39.0455H238.783Z" fill="#21343C"/>
</g>
<g clip-path="url(#clip2_3646_9244)">
<path d="M282.959 50.2217H120.328V148.396H282.959V50.2217Z" fill="#6DD45A"/>
<path d="M120.328 50.2217H2.05176V148.396H120.328V50.2217Z" fill="#1D8010"/>
<path d="M282.959 50.2219H120.329C100.616 33.8596 80.9032 17.4972 61.1904 1.13477H219.727C240.806 17.4972 261.879 33.8596 282.959 50.2219Z" fill="#21343C"/>
<path d="M120.328 50.2219H2.05176C21.7645 33.8596 41.4773 17.4972 61.1901 1.13477C80.9029 17.4972 100.616 33.8596 120.328 50.2219Z" fill="#1D8010"/>
<path d="M97.6077 74.7656H91.3945V80.0363H97.6077V74.7656Z" fill="#3F8F34"/>
<path d="M97.6077 90.5781H91.3945V95.8488H97.6077V90.5781Z" fill="#3F8F34"/>
<path d="M97.6077 106.396H91.3945V111.666H97.6077V106.396Z" fill="#3F8F34"/>
<path d="M97.6077 122.207H91.3945V127.478H97.6077V122.207Z" fill="#3F8F34"/>
<path d="M78.9681 74.7656H72.7549V80.0363H78.9681V74.7656Z" fill="#3F8F34"/>
<path d="M78.9681 90.5781H72.7549V95.8488H78.9681V90.5781Z" fill="#3F8F34"/>
<path d="M78.9681 106.396H72.7549V111.666H78.9681V106.396Z" fill="#3F8F34"/>
<path d="M78.9681 122.207H72.7549V127.478H78.9681V122.207Z" fill="#3F8F34"/>
<path d="M60.3285 74.7656H54.1152V80.0363H60.3285V74.7656Z" fill="#3F8F34"/>
<path d="M60.3285 90.5781H54.1152V95.8488H60.3285V90.5781Z" fill="#3F8F34"/>
<path d="M60.3285 106.396H54.1152V111.666H60.3285V106.396Z" fill="#3F8F34"/>
<path d="M60.3285 122.207H54.1152V127.478H60.3285V122.207Z" fill="#3F8F34"/>
<path d="M41.6888 74.7656H35.4756V80.0363H41.6888V74.7656Z" fill="#3F8F34"/>
<path d="M41.6888 90.5781H35.4756V95.8488H41.6888V90.5781Z" fill="#3F8F34"/>
<path d="M41.6888 106.396H35.4756V111.666H41.6888V106.396Z" fill="#3F8F34"/>
<path d="M41.6888 122.207H35.4756V127.478H41.6888V122.207Z" fill="#3F8F34"/>
<path d="M23.0492 74.7656H16.8359V80.0363H23.0492V74.7656Z" fill="#3F8F34"/>
<path d="M23.0492 90.5781H16.8359V95.8488H23.0492V90.5781Z" fill="#3F8F34"/>
<path d="M23.0492 106.396H16.8359V111.666H23.0492V106.396Z" fill="#3F8F34"/>
<path d="M23.0492 122.207H16.8359V127.478H23.0492V122.207Z" fill="#3F8F34"/>
<path d="M268.175 78.1523H260.226V96.2849H268.175V78.1523Z" fill="#21343C"/>
<path d="M268.175 94.1748H260.226V96.2229H268.175V94.1748Z" fill="#46923B"/>
<path d="M239.337 78.1523H231.388V96.2849H239.337V78.1523Z" fill="#21343C"/>
<path d="M239.337 94.1748H231.388V96.2229H239.337V94.1748Z" fill="#46923B"/>
<path d="M210.499 78.1523H202.55V96.2849H210.499V78.1523Z" fill="#21343C"/>
<path d="M210.499 94.1748H202.55V96.2229H210.499V94.1748Z" fill="#46923B"/>
<path d="M181.661 78.1523H173.712V96.2849H181.661V78.1523Z" fill="#21343C"/>
<path d="M181.661 94.1748H173.712V96.2229H181.661V94.1748Z" fill="#46923B"/>
<path d="M152.823 78.1523H144.874V96.2849H152.823V78.1523Z" fill="#21343C"/>
<path d="M152.823 94.1748H144.874V96.2229H152.823V94.1748Z" fill="#46923B"/>
<path d="M268.175 110.19H260.226V128.323H268.175V110.19Z" fill="#21343C"/>
<path d="M268.175 126.207H260.226V128.255H268.175V126.207Z" fill="#46923B"/>
<path d="M239.337 110.19H231.388V128.323H239.337V110.19Z" fill="#21343C"/>
<path d="M239.337 126.207H231.388V128.255H239.337V126.207Z" fill="#46923B"/>
<path d="M210.499 110.19H202.55V128.323H210.499V110.19Z" fill="#21343C"/>
<path d="M210.499 126.207H202.55V128.255H210.499V126.207Z" fill="#46923B"/>
<path d="M181.661 110.19H173.712V128.323H181.661V110.19Z" fill="#21343C"/>
<path d="M181.661 126.207H173.712V128.255H181.661V126.207Z" fill="#46923B"/>
<path d="M152.823 110.19H144.874V128.323H152.823V110.19Z" fill="#21343C"/>
<path d="M152.823 126.207H144.874V128.255H152.823V126.207Z" fill="#46923B"/>
<path d="M71.1221 3.71582L123.124 47.2827H203.725L145.605 3.71582H71.1221Z" fill="white"/>
<path d="M151.094 3.71582L208.564 47.2827H274.128L218.058 3.71582H151.094Z" fill="white"/>
<path d="M266.609 39.0455H251.653L242.583 31.9536H255.72V31.3862H241.858L232.788 24.2943H246.479V23.727H232.064L222.993 16.6351H235.584V16.0678H222.269L213.198 8.97588H227.662V8.40853H212.467L205.673 3.09813L205.201 3.51229L211.469 8.4142H200.082L193.369 3.1038L192.898 3.51229L199.09 8.4142H186.138L179.009 3.09813L178.551 3.51797L185.112 8.4142H169.289L161.921 3.09245L161.469 3.51797L168.25 8.40853H141.839L134.935 2.81445L134.457 3.21727L140.861 8.40286H124.498L117.847 2.81445L117.362 3.2116L123.534 8.40286H107.41L100.759 2.81445L100.274 3.2116L106.446 8.40286H90.3216L83.6709 2.81445L83.1856 3.2116L89.3578 8.40286H74.5391V8.97021H90.0345L98.4692 16.0621H82.7413V16.6294H99.1459L107.581 23.7213H90.9436V24.2887H108.257L116.692 31.3806H99.1459V31.9479H117.369L125.803 39.0398H107.348V39.6071H126.48L137.177 48.5997L137.662 48.2025L127.437 39.6071H143.561L154.258 48.5997L154.744 48.2025L144.518 39.6071H160.642L171.339 48.5997L171.825 48.2025L161.599 39.6071H179.364L190.82 48.889L191.298 48.4862L180.341 39.6128H211.455L224.326 48.906L224.777 48.4805L212.494 39.6185H226.91L239.357 48.906L239.815 48.4862L227.928 39.6185H238.489L251.653 50.035L252.125 49.6266L239.48 39.6185H251.353L263.957 49.4677L264.428 49.0535L252.357 39.6128H266.588V39.0455H266.609ZM240.861 31.3862H229.111L220.15 24.2943H231.783L240.854 31.3862H240.861ZM205.645 23.727H190.512L180.683 16.6351H196.138L205.645 23.727ZM197.163 16.6351H209.487L218.448 23.727H206.671L197.163 16.6351ZM189.473 23.727H160.752L151.996 16.6351H179.644L189.473 23.727ZM159.774 23.727H142.727L134.293 16.6351H151.025L159.781 23.727H159.774ZM141.763 23.727H125.639L117.205 16.6351H133.329L141.763 23.727ZM142.44 24.2943L150.875 31.3862H134.751L126.316 24.2943H142.44ZM143.404 24.2943H160.478L169.234 31.3862H151.839L143.404 24.2943ZM161.456 24.2943H190.259L200.088 31.3862H170.212L161.456 24.2943ZM191.298 24.2943H206.404L215.912 31.3862H201.127L191.298 24.2943ZM207.429 24.2943H219.166L228.126 31.3862H216.937L207.429 24.2943ZM231.066 23.727H219.439L210.478 16.6351H221.995L231.066 23.727ZM212.2 8.97588L221.271 16.0678H209.76L200.799 8.97588H212.194H212.2ZM199.808 8.97588L208.769 16.0678H196.404L186.896 8.97588H199.808ZM185.871 8.97588L195.379 16.0678H179.897L170.068 8.97588H185.871ZM150.41 8.97588H169.029L178.858 16.0678H151.292L142.536 8.97588H150.41ZM141.558 8.97588L150.314 16.0678H133.609L125.174 8.97588H141.558ZM124.211 8.97588L132.645 16.0678H116.521L108.086 8.97588H124.211ZM90.9983 8.97588H107.123L115.557 16.0678H99.4329L90.9983 8.97588ZM100.11 16.6351H116.234L124.669 23.727H108.544L100.11 16.6351ZM109.221 24.2943H125.345L133.78 31.3862H117.656L109.221 24.2943ZM126.767 39.0455L118.332 31.9536H134.457L142.891 39.0455H126.767ZM143.855 39.0455L135.42 31.9536H151.545L159.979 39.0455H143.855ZM160.943 39.0455L152.508 31.9536H169.931L178.687 39.0455H160.95H160.943ZM194.839 39.0455H179.658L170.902 31.9536H200.861L210.69 39.0455H194.839ZM211.729 39.0455L201.9 31.9536H216.664L226.172 39.0455H211.729ZM227.19 39.0455L217.682 31.9536H228.831L237.792 39.0455H227.19ZM238.783 39.0455L229.822 31.9536H241.578L250.649 39.0455H238.783Z" fill="#21343C"/>
</g>
</g>
<defs>
<clipPath id="clip0_3646_9244">
<rect width="285" height="147" fill="white"/>
</clipPath>
<clipPath id="clip1_3646_9244">
<rect width="280.907" height="147.262" fill="white" transform="translate(2.05176 1.13477)"/>
</clipPath>
<clipPath id="clip2_3646_9244">
<rect width="280.907" height="147.262" fill="white" transform="translate(2.05176 1.13477)"/>
</clipPath>
</defs>
</svg>
