<svg width="320" height="272" viewBox="0 0 320 272" fill="none" xmlns="http://www.w3.org/2000/svg">
<path d="M319.518 73.7711H195.416L257.467 0L319.518 73.7711Z" fill="#3F8F34"/>
<path d="M257.467 0L195.416 73.7711H0L62.0511 0H257.467Z" fill="#338527"/>
<path d="M319.519 73.7705H198.309V271.532H319.519V73.7705Z" fill="#3F8F34"/>
<path d="M198.308 73.7715H0V271.533H198.308V73.7715Z" fill="#21343C"/>
<path d="M172.052 98.3682H164.098V106.5H172.052V98.3682Z" fill="#1D8010"/>
<path d="M172.052 122.772H164.098V130.904H172.052V122.772Z" fill="#1D8010"/>
<path d="M172.052 147.177H164.098V155.308H172.052V147.177Z" fill="#1D8010"/>
<path d="M172.052 171.581H164.098V179.712H172.052V171.581Z" fill="#1D8010"/>
<path d="M172.052 195.985H164.098V204.117H172.052V195.985Z" fill="#1D8010"/>
<path d="M148.187 98.3682H140.232V106.5H148.187V98.3682Z" fill="#1D8010"/>
<path d="M148.187 122.772H140.232V130.904H148.187V122.772Z" fill="#1D8010"/>
<path d="M148.187 147.177H140.232V155.308H148.187V147.177Z" fill="#1D8010"/>
<path d="M148.187 171.581H140.232V179.712H148.187V171.581Z" fill="#1D8010"/>
<path d="M148.187 195.985H140.232V204.117H148.187V195.985Z" fill="#1D8010"/>
<path d="M124.325 98.3682H116.371V106.5H124.325V98.3682Z" fill="#1D8010"/>
<path d="M124.325 122.772H116.371V130.904H124.325V122.772Z" fill="#1D8010"/>
<path d="M124.325 147.177H116.371V155.308H124.325V147.177Z" fill="#1D8010"/>
<path d="M124.325 171.581H116.371V179.712H124.325V171.581Z" fill="#1D8010"/>
<path d="M124.325 195.984H116.371V204.116H124.325V195.984Z" fill="#1D8010"/>
<path d="M100.462 98.3682H92.5078V106.5H100.462V98.3682Z" fill="#1D8010"/>
<path d="M100.462 122.772H92.5078V130.904H100.462V122.772Z" fill="#1D8010"/>
<path d="M100.462 147.177H92.5078V155.308H100.462V147.177Z" fill="#1D8010"/>
<path d="M100.462 171.581H92.5078V179.712H100.462V171.581Z" fill="#1D8010"/>
<path d="M100.462 195.985H92.5078V204.117H100.462V195.985Z" fill="#1D8010"/>
<path d="M76.6007 98.3682H68.6465V106.5H76.6007V98.3682Z" fill="#1D8010"/>
<path d="M76.6007 122.772H68.6465V130.904H76.6007V122.772Z" fill="#1D8010"/>
<path d="M76.6007 147.177H68.6465V155.308H76.6007V147.177Z" fill="#1D8010"/>
<path d="M76.6007 171.581H68.6465V179.712H76.6007V171.581Z" fill="#1D8010"/>
<path d="M76.6007 195.985H68.6465V204.117H76.6007V195.985Z" fill="#1D8010"/>
<path d="M52.7257 98.3682H44.7715V106.5H52.7257V98.3682Z" fill="#1D8010"/>
<path d="M52.7257 122.772H44.7715V130.904H52.7257V122.772Z" fill="#1D8010"/>
<path d="M52.7257 147.177H44.7715V155.308H52.7257V147.177Z" fill="#1D8010"/>
<path d="M52.7257 171.581H44.7715V179.712H52.7257V171.581Z" fill="#1D8010"/>
<path d="M52.7257 195.985H44.7715V204.117H52.7257V195.985Z" fill="#1D8010"/>
<path d="M28.8644 98.3682H20.9102V106.5H28.8644V98.3682Z" fill="#1D8010"/>
<path d="M28.8644 122.772H20.9102V130.904H28.8644V122.772Z" fill="#1D8010"/>
<path d="M28.8644 147.177H20.9102V155.308H28.8644V147.177Z" fill="#1D8010"/>
<path d="M28.8644 171.581H20.9102V179.712H28.8644V171.581Z" fill="#1D8010"/>
<path d="M28.8644 195.984H20.9102V204.116H28.8644V195.984Z" fill="#1D8010"/>
<path d="M172.052 220.39H164.098V228.521H172.052V220.39Z" fill="#1D8010"/>
<path d="M148.187 220.39H140.232V228.521H148.187V220.39Z" fill="#1D8010"/>
<path d="M124.325 220.39H116.371V228.521H124.325V220.39Z" fill="#1D8010"/>
<path d="M100.462 220.39H92.5078V228.521H100.462V220.39Z" fill="#1D8010"/>
<path d="M76.6007 220.39H68.6465V228.521H76.6007V220.39Z" fill="#1D8010"/>
<path d="M52.7257 220.39H44.7715V228.521H52.7257V220.39Z" fill="#1D8010"/>
<path d="M28.8644 220.39H20.9102V228.521H28.8644V220.39Z" fill="#1D8010"/>
<path d="M84.2696 0L22.2186 73.7711H16.0195L78.0706 0H84.2696Z" fill="#21343C"/>
<path d="M110.467 0L48.4158 73.7711H42.2168L104.268 0H110.467Z" fill="#21343C"/>
<path d="M136.662 0L74.6111 73.7711H68.4121L130.463 0H136.662Z" fill="#21343C"/>
<path d="M162.859 0L100.808 73.7711H94.6094L156.66 0H162.859Z" fill="#21343C"/>
<path d="M189.052 0L127.001 73.7711H120.812L182.853 0H189.052Z" fill="#21343C"/>
<path d="M215.25 0L153.199 73.7711H147L209.051 0H215.25Z" fill="#21343C"/>
<path d="M241.447 0L179.396 73.7711H173.207L235.248 0H241.447Z" fill="#21343C"/>
</svg>
