<svg width="259" height="155" viewBox="0 0 259 155" fill="none" xmlns="http://www.w3.org/2000/svg">
<g clip-path="url(#clip0_3646_9057)">
<path d="M258.992 86.1753H191.808L225.404 -0.492188L258.992 86.1753Z" fill="#6DD45A"/>
<path d="M225.404 -0.492188L191.808 86.1753H0L33.5885 -0.492188H225.404Z" fill="#338527"/>
<path d="M210.873 -0.492188L177.277 86.1753H165.476L199.072 -0.492188H210.873Z" fill="#21343C"/>
<path d="M59.2672 -0.492188L25.671 86.1753H13.8701L47.4586 -0.492188H59.2672Z" fill="#21343C"/>
<path d="M180.549 -0.492188L146.961 86.1753H135.152L168.749 -0.492188H180.549Z" fill="#21343C"/>
<path d="M150.232 -0.492188L116.636 86.1753H104.835L138.431 -0.492188H150.232Z" fill="#21343C"/>
<path d="M119.906 -0.492188L86.3097 86.1753H74.5088L108.105 -0.492188H119.906Z" fill="#21343C"/>
<path d="M89.5846 -0.492188L55.9885 86.1753H44.1875L77.7837 -0.492188H89.5846Z" fill="#21343C"/>
<path d="M259 86.1758H191.808V257.614H259V86.1758Z" fill="#6DD45A"/>
<path d="M191.808 86.1758H0V257.614H191.808V86.1758Z" fill="#1D8010"/>
</g>
<defs>
<clipPath id="clip0_3646_9057">
<rect width="259" height="155" fill="white"/>
</clipPath>
</defs>
</svg>
