<svg width="630" height="583" viewBox="0 0 630 583" fill="none" xmlns="http://www.w3.org/2000/svg">
<rect x="0.5" width="600" height="582" rx="291" fill="#F8F6F1"/>
<path fill-rule="evenodd" clip-rule="evenodd" d="M513.935 250C498.094 149.143 410.806 72 305.5 72L295.5 72C190.194 72 102.906 149.143 87.0656 250L96.1823 250C111.935 154.136 195.176 81 295.5 81L305.5 81C405.824 81 489.065 154.136 504.818 250L513.935 250Z" fill="#F0EDE4"/>
<mask id="mask0_2550_22671" style="mask-type:alpha" maskUnits="userSpaceOnUse" x="0" y="0" width="601" height="582">
<rect x="0.5" width="600" height="582" rx="291" fill="#F8F6F1"/>
</mask>
<g mask="url(#mask0_2550_22671)">
<rect x="0.5" y="291" width="600" height="291" fill="#26C44B"/>
</g>
<g clip-path="url(#clip0_2550_22671)">
<path d="M0.5 232.679H40.8941L20.697 212L0.5 232.679Z" fill="#4AA53A"/>
<path d="M20.6973 212L40.8943 232.679H104.5L84.3032 212H20.6973Z" fill="#21343C"/>
<path d="M40.8941 232.679H0.5V291H40.8941V232.679Z" fill="#4AA53A"/>
<path d="M104.5 232.679H40.8945V291H104.5V232.679Z" fill="white"/>
<path d="M98.578 244.481H51.0859V250.055H98.578V244.481Z" fill="#21343C"/>
<path d="M98.578 259.949H51.0859V265.523H98.578V259.949Z" fill="#21343C"/>
<path d="M98.578 275.421H51.0859V280.995H98.578V275.421Z" fill="#21343C"/>
</g>
<g clip-path="url(#clip1_2550_22671)">
<path d="M450.153 272.836H447.787V290.131H450.153V272.836Z" fill="#1D8010"/>
<path d="M477.023 272.836H474.657V290.131H477.023V272.836Z" fill="#1D8010"/>
<path d="M451.163 289.07H446.776C445.878 289.07 445.151 289.79 445.151 290.679V291H452.785V290.679C452.785 289.79 452.058 289.07 451.16 289.07H451.163Z" fill="#1D8010"/>
<path d="M478.033 289.07H473.646C472.748 289.07 472.021 289.79 472.021 290.679V291H479.655V290.679C479.655 289.79 478.928 289.07 478.03 289.07H478.033Z" fill="#1D8010"/>
<path d="M440.5 275.076H481.751L489.628 249H448.378L440.5 275.076Z" fill="white"/>
<path d="M447.174 260.838H457.763L460.614 251.4H450.025L447.174 260.838Z" fill="#D0E3CE"/>
<path d="M443.596 272.679H454.185L457.036 263.238H446.45L443.596 272.679Z" fill="#D0E3CE"/>
<path d="M460.134 260.838H470.72L473.572 251.4H462.985L460.134 260.838Z" fill="#D0E3CE"/>
<path d="M456.556 272.679H467.145L469.996 263.238H459.407L456.556 272.679Z" fill="#D0E3CE"/>
<path d="M473.092 260.838H483.681L486.532 251.4H475.946L473.092 260.838Z" fill="#D0E3CE"/>
<path d="M469.517 272.679H480.103L482.954 263.238H472.368L469.517 272.679Z" fill="#D0E3CE"/>
<path d="M440.5 275.076L441.755 277.395H483.006L481.751 275.076H440.5Z" fill="#1D8010"/>
<path d="M481.751 275.076L483.006 277.395L490.884 251.319L489.629 249L481.751 275.076Z" fill="#3F8F34"/>
<path d="M495.875 272.833H493.513V290.099H495.875V272.833Z" fill="#1D8010"/>
<path d="M522.703 272.833H520.34V290.099H522.703V272.833Z" fill="#1D8010"/>
<path d="M496.883 289.042H492.504C491.61 289.042 490.883 289.762 490.883 290.648V290.969H498.505V290.648C498.505 289.762 497.778 289.042 496.883 289.042Z" fill="#1D8010"/>
<path d="M523.711 289.042H519.332C518.438 289.042 517.711 289.762 517.711 290.648V290.969H525.333V290.648C525.333 289.762 524.606 289.042 523.711 289.042Z" fill="#1D8010"/>
<path d="M486.237 275.068H527.423L535.289 249.034H494.103L486.237 275.068Z" fill="white"/>
<path d="M492.899 260.852H503.472L506.32 251.428H495.748L492.899 260.852Z" fill="#D0E3CE"/>
<path d="M489.33 272.673H499.9L502.748 263.249H492.178L489.33 272.673Z" fill="#D0E3CE"/>
<path d="M505.84 260.852H516.409L519.258 251.428H508.685L505.84 260.852Z" fill="#D0E3CE"/>
<path d="M502.268 272.673H512.84L515.686 263.25H505.116L502.268 272.673Z" fill="#D0E3CE"/>
<path d="M518.778 260.852H529.351L532.196 251.428H521.627L518.778 260.852Z" fill="#D0E3CE"/>
<path d="M515.206 272.673H525.779L528.627 263.249H518.054L515.206 272.673Z" fill="#D0E3CE"/>
<path d="M486.237 275.068L487.49 277.383H528.675L527.423 275.068H486.237Z" fill="#1D8010"/>
<path d="M527.423 275.068L528.675 277.384L536.541 251.347L535.289 249.034L527.423 275.068Z" fill="#3F8F34"/>
<path d="M541.834 272.833H539.472V290.099H541.834V272.833Z" fill="#1D8010"/>
<path d="M568.662 272.833H566.299V290.099H568.662V272.833Z" fill="#1D8010"/>
<path d="M542.842 289.042H538.463C537.569 289.042 536.842 289.762 536.842 290.648V290.969H544.464V290.648C544.464 289.762 543.737 289.042 542.842 289.042Z" fill="#1D8010"/>
<path d="M569.67 289.042H565.291C564.397 289.042 563.67 289.762 563.67 290.648V290.969H571.292V290.648C571.292 289.762 570.565 289.042 569.67 289.042Z" fill="#1D8010"/>
<path d="M532.196 275.068H573.382L581.248 249.034H540.062L532.196 275.068Z" fill="white"/>
<path d="M538.858 260.852H549.431L552.279 251.428H541.707L538.858 260.852Z" fill="#D0E3CE"/>
<path d="M535.289 272.673H545.859L548.707 263.249H538.137L535.289 272.673Z" fill="#D0E3CE"/>
<path d="M551.799 260.852H562.368L565.217 251.428H554.644L551.799 260.852Z" fill="#D0E3CE"/>
<path d="M548.227 272.673H558.799L561.644 263.25H551.075L548.227 272.673Z" fill="#D0E3CE"/>
<path d="M564.737 260.852H575.31L578.155 251.428H567.586L564.737 260.852Z" fill="#D0E3CE"/>
<path d="M561.168 272.673H571.738L574.586 263.249H564.013L561.168 272.673Z" fill="#D0E3CE"/>
<path d="M532.196 275.068L533.449 277.383H574.634L573.382 275.068H532.196Z" fill="#1D8010"/>
<path d="M573.382 275.068L574.634 277.384L582.5 251.347L581.248 249.034L573.382 275.068Z" fill="#3F8F34"/>
</g>
<path d="M141.491 83.4377C136.828 83.4377 132.54 85.021 129.075 87.6456C128.007 77.1044 119.186 68.8881 108.474 68.8881C103.176 68.8881 98.354 70.9137 94.6871 74.223C91.641 66.4917 84.1773 61 75.4431 61C64.529 61 55.6071 69.53 54.7987 80.3423C51.6948 78.4737 48.0857 77.3754 44.2166 77.3754C32.7684 77.3754 23.5 86.747 23.5 98.3011V99H161.5C159.147 90.0563 151.091 83.452 141.505 83.452L141.491 83.4377Z" fill="white"/>
<path d="M611.086 192.666C606.794 192.666 602.849 194.125 599.66 196.542C598.677 186.833 590.559 179.265 580.701 179.265C575.825 179.265 571.387 181.131 568.013 184.179C565.209 177.058 558.341 172 550.303 172C540.259 172 532.048 179.857 531.304 189.815C528.447 188.094 525.126 187.083 521.565 187.083C511.03 187.083 502.5 195.714 502.5 206.356V207H629.5C627.334 198.762 619.921 192.679 611.099 192.679L611.086 192.666Z" fill="white"/>
<path d="M390.412 132.249C408.154 128.021 419.174 109.936 415.026 91.8538C410.877 73.772 393.132 62.5411 375.39 66.7689C357.647 70.9966 346.628 89.082 350.776 107.164C354.924 125.246 372.67 136.476 390.412 132.249Z" fill="#26C44B" stroke="#1A2E35" stroke-miterlimit="10"/>
<path d="M382.897 41V57.1363" stroke="#1A2E35" stroke-miterlimit="10"/>
<path d="M382.897 141.864V158" stroke="#1A2E35" stroke-miterlimit="10"/>
<path d="M440.301 99.4968H424.468" stroke="#1A2E35" stroke-miterlimit="10"/>
<path d="M341.333 99.4968H325.5" stroke="#1A2E35" stroke-miterlimit="10"/>
<path d="M423.487 58.1353L412.291 69.5456" stroke="#1A2E35" stroke-miterlimit="10"/>
<path d="M353.511 129.454L342.315 140.864" stroke="#1A2E35" stroke-miterlimit="10"/>
<path d="M342.315 58.1353L353.511 69.5456" stroke="#1A2E35" stroke-miterlimit="10"/>
<path d="M412.291 129.454L423.487 140.864" stroke="#1A2E35" stroke-miterlimit="10"/>
<path fill-rule="evenodd" clip-rule="evenodd" d="M87.0654 324C102.906 424.857 190.194 502 295.5 502H305.5C410.806 502 498.094 424.857 513.934 324H504.818C489.065 419.864 405.824 493 305.5 493H295.5C195.176 493 111.935 419.864 96.1822 324H87.0654Z" fill="#2FDA57"/>
<path d="M138.032 268.133C138.032 276.05 133.435 282.47 127.766 282.47C122.096 282.47 117.5 276.051 117.5 268.133C117.5 260.214 122.096 233 127.766 233C133.435 233 138.032 260.215 138.032 268.133Z" fill="#2FDA57"/>
<path d="M133.522 272.275L130.414 273.447L131.038 271.541L129.552 273.772L128.067 274.332L127.961 268.07L133.362 260.757L130.468 263.707L130.958 261.656L129.573 264.619L127.931 266.291L127.766 256.508L127.178 270.777L122.061 265.25L124.871 269.144L122.22 268.845L125.495 270.009L127.117 272.256L126.833 279.136L124.946 277.83L126.774 280.559L126.134 290.559H128.468L128.085 275.331L133.522 272.275Z" fill="black"/>
<path d="M133.413 256.539C133.413 256.539 133.508 257.5 132.993 258.206C132.477 258.912 131.546 259.094 131.546 259.094C131.546 259.094 131.451 258.133 131.967 257.427C132.482 256.721 133.413 256.539 133.413 256.539H133.413Z" fill="white"/>
<path d="M136.506 260.97C136.506 260.97 136.602 261.931 136.085 262.636C135.57 263.342 134.639 263.525 134.639 263.525C134.639 263.525 134.543 262.564 135.06 261.858C135.575 261.153 136.506 260.97 136.506 260.97Z" fill="white"/>
<path d="M136.505 269.595C136.505 269.595 136.277 270.534 135.558 271.021C134.84 271.509 133.902 271.362 133.902 271.362C133.902 271.362 134.13 270.425 134.849 269.936C135.568 269.449 136.505 269.595 136.505 269.595Z" fill="white"/>
<path d="M119.513 269.595C119.513 269.595 119.74 270.534 120.46 271.021C121.178 271.509 122.115 271.362 122.115 271.362C122.115 271.362 121.888 270.425 121.168 269.936C120.45 269.449 119.513 269.595 119.513 269.595Z" fill="white"/>
<path d="M132.931 266.015C132.931 266.015 133.026 266.976 132.51 267.681C131.995 268.387 131.064 268.57 131.064 268.57C131.064 268.57 130.968 267.608 131.485 266.903C132 266.197 132.931 266.015 132.931 266.015Z" fill="white"/>
<path d="M132.129 251.72C132.129 251.72 132.225 252.681 131.708 253.386C131.193 254.092 130.262 254.275 130.262 254.275C130.262 254.275 130.167 253.314 130.682 252.608C131.197 251.903 132.128 251.72 132.128 251.72H132.129Z" fill="white"/>
<path d="M130.287 255.396C130.287 255.396 130.382 256.357 129.866 257.062C129.35 257.769 128.419 257.951 128.419 257.951C128.419 257.951 128.324 256.99 128.84 256.284C129.355 255.578 130.287 255.396 130.287 255.396Z" fill="white"/>
<path d="M134.663 252.719C134.663 252.719 134.758 253.681 134.242 254.386C133.726 255.091 132.795 255.274 132.795 255.274C132.795 255.274 132.7 254.313 133.216 253.608C133.731 252.902 134.663 252.719 134.663 252.719Z" fill="white"/>
<path d="M120.442 252.719C120.442 252.719 120.346 253.681 120.862 254.386C121.378 255.091 122.309 255.274 122.309 255.274C122.309 255.274 122.404 254.313 121.888 253.608C121.373 252.902 120.442 252.719 120.442 252.719Z" fill="white"/>
<path d="M132.53 247.227C132.53 247.227 132.625 248.188 132.109 248.893C131.593 249.6 130.662 249.782 130.662 249.782C130.662 249.782 130.567 248.821 131.083 248.115C131.599 247.409 132.53 247.227 132.53 247.227Z" fill="white"/>
<path d="M131.624 242.454C131.624 242.454 131.954 243.36 131.628 244.175C131.303 244.99 130.447 245.405 130.447 245.405C130.447 245.405 130.118 244.5 130.444 243.685C130.768 242.87 131.624 242.454 131.624 242.454Z" fill="white"/>
<path d="M125.133 241.208C125.133 241.208 125.972 241.656 126.267 242.483C126.561 243.31 126.199 244.203 126.199 244.203C126.199 244.203 125.359 243.755 125.065 242.928C124.77 242.101 125.133 241.208 125.133 241.208Z" fill="white"/>
<path d="M128.16 246.914C128.16 246.914 128.758 247.663 128.709 248.542C128.659 249.421 127.981 250.094 127.981 250.094C127.981 250.094 127.382 249.345 127.432 248.466C127.481 247.588 128.16 246.914 128.16 246.914Z" fill="white"/>
<path d="M128 238.419C128 238.419 128.598 239.168 128.549 240.047C128.499 240.925 127.82 241.599 127.82 241.599C127.82 241.599 127.222 240.85 127.271 239.971C127.321 239.093 128 238.419 128 238.419Z" fill="white"/>
<path d="M121.206 256.539C121.206 256.539 121.111 257.5 121.627 258.206C122.143 258.912 123.074 259.094 123.074 259.094C123.074 259.094 123.169 258.133 122.653 257.427C122.137 256.721 121.206 256.539 121.206 256.539Z" fill="white"/>
<path d="M119.442 261.768C119.442 261.768 119.348 262.729 119.863 263.434C120.379 264.14 121.31 264.323 121.31 264.323C121.31 264.323 121.405 263.361 120.889 262.656C120.373 261.95 119.442 261.768 119.442 261.768Z" fill="white"/>
<path d="M124.123 263.665C124.123 263.665 124.028 264.627 124.544 265.332C125.06 266.037 125.991 266.221 125.991 266.221C125.991 266.221 126.086 265.259 125.57 264.554C125.054 263.848 124.123 263.665 124.123 263.665Z" fill="white"/>
<path d="M125.402 256.421C125.402 256.421 125.041 257.314 125.337 258.141C125.633 258.967 126.473 259.415 126.473 259.415C126.473 259.415 126.834 258.521 126.538 257.695C126.243 256.868 125.402 256.421 125.402 256.421Z" fill="white"/>
<path d="M122.088 275.697C122.088 275.697 123.036 275.715 123.684 275.133C124.331 274.552 124.434 273.592 124.434 273.592C124.434 273.592 123.486 273.574 122.838 274.156C122.19 274.737 122.088 275.697 122.088 275.697Z" fill="white"/>
<path d="M131.183 274.641C131.183 274.641 131.44 275.571 132.174 276.034C132.907 276.499 133.839 276.321 133.839 276.321C133.839 276.321 133.581 275.39 132.848 274.927C132.115 274.463 131.183 274.641 131.183 274.641Z" fill="white"/>
<path d="M123.145 251.72C123.145 251.72 123.049 252.681 123.566 253.386C124.081 254.092 125.012 254.275 125.012 254.275C125.012 254.275 125.107 253.314 124.591 252.608C124.076 251.903 123.145 251.72 123.145 251.72Z" fill="white"/>
<path d="M123.13 247.472C123.13 247.472 123.035 248.434 123.551 249.139C124.066 249.845 124.997 250.028 124.997 250.028C124.997 250.028 125.093 249.066 124.576 248.361C124.061 247.655 123.13 247.472 123.13 247.472Z" fill="white"/>
<path d="M155.184 276.704C155.184 281.596 152.345 285.562 148.842 285.562C145.34 285.562 142.5 281.597 142.5 276.704C142.5 271.812 145.34 255 148.842 255C152.345 255 155.184 271.813 155.184 276.704Z" fill="#2FDA57"/>
<path d="M152.398 279.264L150.478 279.988L150.863 278.81L149.945 280.188L149.028 280.534L148.963 276.666L152.299 272.148L150.511 273.971L150.814 272.703L149.958 274.534L148.944 275.567L148.842 269.523L148.479 278.338L145.317 274.924L147.054 277.33L145.416 277.145L147.439 277.864L148.441 279.252L148.266 283.502L147.1 282.696L148.229 284.382L147.834 290.559H149.276L149.039 281.151L152.398 279.264Z" fill="black"/>
<path d="M152.331 269.542C152.331 269.542 152.39 270.136 152.072 270.572C151.753 271.008 151.178 271.121 151.178 271.121C151.178 271.121 151.119 270.527 151.438 270.091C151.757 269.655 152.332 269.542 152.332 269.542H152.331Z" fill="white"/>
<path d="M154.242 272.279C154.242 272.279 154.301 272.873 153.982 273.309C153.663 273.745 153.088 273.858 153.088 273.858C153.088 273.858 153.029 273.264 153.348 272.828C153.667 272.393 154.242 272.279 154.242 272.279Z" fill="white"/>
<path d="M154.242 277.608C154.242 277.608 154.101 278.188 153.657 278.489C153.213 278.79 152.634 278.7 152.634 278.7C152.634 278.7 152.774 278.121 153.219 277.819C153.663 277.518 154.242 277.608 154.242 277.608Z" fill="white"/>
<path d="M143.744 277.608C143.744 277.608 143.885 278.188 144.329 278.489C144.773 278.79 145.352 278.7 145.352 278.7C145.352 278.7 145.211 278.121 144.767 277.819C144.323 277.518 143.744 277.608 143.744 277.608Z" fill="white"/>
<path d="M152.034 275.396C152.034 275.396 152.093 275.99 151.774 276.426C151.455 276.862 150.88 276.975 150.88 276.975C150.88 276.975 150.821 276.381 151.14 275.945C151.459 275.509 152.034 275.396 152.034 275.396Z" fill="white"/>
<path d="M151.538 266.565C151.538 266.565 151.597 267.159 151.278 267.595C150.959 268.03 150.384 268.144 150.384 268.144C150.384 268.144 150.325 267.55 150.644 267.114C150.962 266.678 151.537 266.565 151.537 266.565H151.538Z" fill="white"/>
<path d="M150.4 268.836C150.4 268.836 150.459 269.43 150.14 269.866C149.822 270.302 149.246 270.415 149.246 270.415C149.246 270.415 149.188 269.821 149.507 269.385C149.825 268.949 150.4 268.836 150.4 268.836Z" fill="white"/>
<path d="M153.103 267.182C153.103 267.182 153.162 267.776 152.843 268.212C152.525 268.647 151.95 268.761 151.95 268.761C151.95 268.761 151.891 268.167 152.21 267.731C152.528 267.295 153.103 267.182 153.103 267.182Z" fill="white"/>
<path d="M144.318 267.182C144.318 267.182 144.259 267.776 144.578 268.212C144.896 268.647 145.471 268.761 145.471 268.761C145.471 268.761 145.53 268.167 145.211 267.731C144.893 267.295 144.318 267.182 144.318 267.182Z" fill="white"/>
<path d="M151.786 263.789C151.786 263.789 151.845 264.383 151.526 264.819C151.207 265.255 150.632 265.368 150.632 265.368C150.632 265.368 150.573 264.774 150.892 264.338C151.211 263.902 151.786 263.789 151.786 263.789Z" fill="white"/>
<path d="M151.227 260.841C151.227 260.841 151.43 261.4 151.229 261.904C151.028 262.407 150.499 262.664 150.499 262.664C150.499 262.664 150.296 262.104 150.497 261.601C150.698 261.098 151.227 260.841 151.227 260.841Z" fill="white"/>
<path d="M147.216 260.071C147.216 260.071 147.734 260.348 147.916 260.859C148.098 261.369 147.874 261.921 147.874 261.921C147.874 261.921 147.356 261.644 147.174 261.133C146.992 260.623 147.216 260.071 147.216 260.071Z" fill="white"/>
<path d="M149.086 263.596C149.086 263.596 149.456 264.059 149.426 264.601C149.395 265.144 148.976 265.561 148.976 265.561C148.976 265.561 148.606 265.098 148.637 264.555C148.667 264.012 149.086 263.596 149.086 263.596Z" fill="white"/>
<path d="M148.987 258.348C148.987 258.348 149.356 258.811 149.326 259.353C149.295 259.896 148.876 260.313 148.876 260.313C148.876 260.313 148.506 259.85 148.537 259.307C148.567 258.764 148.987 258.348 148.987 258.348Z" fill="white"/>
<path d="M144.79 269.542C144.79 269.542 144.732 270.136 145.05 270.572C145.369 271.008 145.944 271.121 145.944 271.121C145.944 271.121 146.003 270.527 145.684 270.091C145.366 269.655 144.79 269.542 144.79 269.542Z" fill="white"/>
<path d="M143.7 272.772C143.7 272.772 143.642 273.366 143.961 273.802C144.279 274.238 144.854 274.351 144.854 274.351C144.854 274.351 144.913 273.757 144.594 273.321C144.276 272.885 143.7 272.772 143.7 272.772Z" fill="white"/>
<path d="M146.592 273.945C146.592 273.945 146.533 274.539 146.852 274.974C147.171 275.41 147.746 275.523 147.746 275.523C147.746 275.523 147.805 274.929 147.486 274.494C147.167 274.057 146.592 273.945 146.592 273.945Z" fill="white"/>
<path d="M147.383 269.469C147.383 269.469 147.16 270.021 147.342 270.532C147.525 271.042 148.044 271.319 148.044 271.319C148.044 271.319 148.267 270.767 148.084 270.256C147.902 269.745 147.383 269.469 147.383 269.469Z" fill="white"/>
<path d="M145.335 281.378C145.335 281.378 145.921 281.389 146.321 281.029C146.721 280.67 146.784 280.077 146.784 280.077C146.784 280.077 146.199 280.066 145.798 280.425C145.398 280.784 145.335 281.378 145.335 281.378Z" fill="white"/>
<path d="M150.953 280.725C150.953 280.725 151.112 281.3 151.565 281.586C152.019 281.873 152.594 281.763 152.594 281.763C152.594 281.763 152.435 281.188 151.982 280.902C151.529 280.615 150.953 280.725 150.953 280.725Z" fill="white"/>
<path d="M145.988 266.565C145.988 266.565 145.929 267.159 146.248 267.595C146.566 268.03 147.141 268.144 147.141 268.144C147.141 268.144 147.2 267.55 146.881 267.114C146.563 266.678 145.988 266.565 145.988 266.565Z" fill="white"/>
<path d="M145.979 263.941C145.979 263.941 145.92 264.535 146.239 264.971C146.557 265.407 147.133 265.52 147.133 265.52C147.133 265.52 147.191 264.926 146.873 264.49C146.554 264.054 145.979 263.941 145.979 263.941Z" fill="white"/>
<path d="M363.146 421.996C363.146 470.45 335.018 509.734 300.323 509.734C265.628 509.734 237.5 470.456 237.5 421.996C237.5 373.537 265.628 207 300.323 207C335.018 207 363.146 373.542 363.146 421.996Z" fill="#2FDA57"/>
<path d="M335.547 447.349L316.525 454.521L320.344 442.852L311.249 456.508L302.165 459.932L301.516 421.611L334.564 376.861L316.855 394.915L319.852 382.36L311.378 400.497L301.333 410.729L300.323 350.859L296.72 438.179L265.406 404.355L282.608 428.189L266.384 426.356L286.421 433.478L296.348 447.228L294.614 489.33L283.062 481.343L294.252 498.043L290.442 582.137H304.056L302.273 466.047L335.547 447.349Z" fill="black"/>
<path d="M334.884 351.046C334.884 351.046 335.467 356.93 332.313 361.246C329.159 365.567 323.461 366.684 323.461 366.684C323.461 366.684 322.878 360.8 326.038 356.485C329.192 352.164 334.89 351.046 334.89 351.046H334.884Z" fill="white"/>
<path d="M353.819 378.16C353.819 378.16 354.403 384.044 351.243 388.359C348.089 392.68 342.391 393.798 342.391 393.798C342.391 393.798 341.808 387.913 344.967 383.598C348.121 379.283 353.819 378.16 353.819 378.16Z" fill="white"/>
<path d="M353.812 430.946C353.812 430.946 352.419 436.687 348.017 439.67C343.62 442.653 337.885 441.756 337.885 441.756C337.885 441.756 339.278 436.021 343.68 433.032C348.076 430.049 353.812 430.946 353.812 430.946Z" fill="white"/>
<path d="M249.821 430.946C249.821 430.946 251.215 436.687 255.616 439.67C260.013 442.653 265.748 441.756 265.748 441.756C265.748 441.756 264.355 436.021 259.953 433.032C255.557 430.049 249.821 430.946 249.821 430.946Z" fill="white"/>
<path d="M331.942 409.034C331.942 409.034 332.526 414.918 329.366 419.233C326.212 423.554 320.514 424.671 320.514 424.671C320.514 424.671 319.931 418.787 323.09 414.472C326.244 410.151 331.942 409.034 331.942 409.034Z" fill="white"/>
<path d="M327.037 321.554C327.037 321.554 327.62 327.438 324.461 331.754C321.307 336.069 315.609 337.192 315.609 337.192C315.609 337.192 315.026 331.308 318.18 326.992C321.334 322.677 327.032 321.554 327.032 321.554H327.037Z" fill="white"/>
<path d="M315.755 344.05C315.755 344.05 316.338 349.934 313.179 354.249C310.024 358.57 304.327 359.687 304.327 359.687C304.327 359.687 303.743 353.803 306.903 349.488C310.057 345.167 315.755 344.05 315.755 344.05Z" fill="white"/>
<path d="M342.537 327.669C342.537 327.669 343.12 333.553 339.961 337.869C336.807 342.184 331.109 343.307 331.109 343.307C331.109 343.307 330.526 337.423 333.685 333.107C336.839 328.787 342.537 327.669 342.537 327.669Z" fill="white"/>
<path d="M255.51 327.669C255.51 327.669 254.927 333.553 258.086 337.869C261.241 342.184 266.938 343.307 266.938 343.307C266.938 343.307 267.522 337.423 264.362 333.107C261.208 328.787 255.51 327.669 255.51 327.669Z" fill="white"/>
<path d="M329.49 294.061C329.49 294.061 330.073 299.945 326.914 304.26C323.76 308.581 318.062 309.698 318.062 309.698C318.062 309.698 317.479 303.814 320.638 299.499C323.792 295.178 329.49 294.061 329.49 294.061Z" fill="white"/>
<path d="M323.942 264.855C323.942 264.855 325.957 270.398 323.964 275.385C321.977 280.372 316.738 282.915 316.738 282.915C316.738 282.915 314.723 277.372 316.716 272.385C318.704 267.398 323.942 264.855 323.942 264.855Z" fill="white"/>
<path d="M284.221 257.226C284.221 257.226 289.357 259.967 291.161 265.031C292.96 270.09 290.745 275.555 290.745 275.555C290.745 275.555 285.609 272.814 283.805 267.75C282.001 262.692 284.221 257.226 284.221 257.226Z" fill="white"/>
<path d="M302.746 292.145C302.746 292.145 306.408 296.73 306.105 302.108C305.803 307.485 301.65 311.608 301.65 311.608C301.65 311.608 297.988 307.023 298.29 301.645C298.593 296.268 302.746 292.145 302.746 292.145Z" fill="white"/>
<path d="M301.761 240.157C301.761 240.157 305.422 244.743 305.12 250.12C304.817 255.492 300.664 259.621 300.664 259.621C300.664 259.621 297.002 255.035 297.305 249.658C297.607 244.286 301.761 240.157 301.761 240.157Z" fill="white"/>
<path d="M260.185 351.046C260.185 351.046 259.602 356.93 262.761 361.246C265.915 365.567 271.613 366.684 271.613 366.684C271.613 366.684 272.197 360.8 269.037 356.485C265.883 352.164 260.185 351.046 260.185 351.046Z" fill="white"/>
<path d="M249.395 383.042C249.395 383.042 248.817 388.926 251.971 393.241C255.125 397.562 260.823 398.68 260.823 398.68C260.823 398.68 261.407 392.796 258.247 388.48C255.093 384.159 249.395 383.042 249.395 383.042Z" fill="white"/>
<path d="M278.042 394.656C278.042 394.656 277.459 400.541 280.619 404.856C283.773 409.171 289.471 410.294 289.471 410.294C289.471 410.294 290.054 404.41 286.894 400.095C283.74 395.774 278.042 394.656 278.042 394.656Z" fill="white"/>
<path d="M285.873 350.325C285.873 350.325 283.664 355.791 285.473 360.849C287.282 365.908 292.424 368.643 292.424 368.643C292.424 368.643 294.633 363.178 292.823 358.119C291.014 353.061 285.873 350.325 285.873 350.325Z" fill="white"/>
<path d="M265.586 468.287C265.586 468.287 271.386 468.397 275.351 464.836C279.315 461.28 279.941 455.401 279.941 455.401C279.941 455.401 274.141 455.291 270.177 458.852C266.212 462.408 265.586 468.287 265.586 468.287Z" fill="white"/>
<path d="M321.241 461.825C321.241 461.825 322.818 467.516 327.306 470.351C331.795 473.191 337.498 472.101 337.498 472.101C337.498 472.101 335.921 466.41 331.433 463.575C326.945 460.735 321.241 461.825 321.241 461.825Z" fill="white"/>
<path d="M272.056 321.554C272.056 321.554 271.473 327.438 274.632 331.754C277.786 336.069 283.484 337.192 283.484 337.192C283.484 337.192 284.062 331.308 280.908 326.992C277.754 322.677 272.056 321.554 272.056 321.554Z" fill="white"/>
<path d="M271.957 295.564C271.957 295.564 271.374 301.448 274.534 305.763C277.688 310.084 283.386 311.201 283.386 311.201C283.386 311.201 283.969 305.317 280.809 301.002C277.655 296.681 271.957 295.564 271.957 295.564Z" fill="white"/>
<defs>
<clipPath id="clip0_2550_22671">
<rect width="104" height="79" fill="white" transform="translate(0.5 212)"/>
</clipPath>
<clipPath id="clip1_2550_22671">
<rect width="142" height="42" fill="white" transform="translate(440.5 249)"/>
</clipPath>
</defs>
</svg>
