<svg width="76" height="76" viewBox="0 0 76 76" fill="none" xmlns="http://www.w3.org/2000/svg">
<circle cx="37.75" cy="37.75" r="37.75" fill="#F8F6F1"/>
<mask id="mask0_2645_20861" style="mask-type:alpha" maskUnits="userSpaceOnUse" x="22" y="22" width="32" height="32">
<rect x="22.1293" y="22.1294" width="31.2414" height="31.2414" fill="#D9D9D9"/>
</mask>
<g mask="url(#mask0_2645_20861)">
<mask id="mask1_2645_20861" style="mask-type:alpha" maskUnits="userSpaceOnUse" x="22" y="22" width="32" height="32">
<rect x="22.1293" y="22.1294" width="31.2414" height="31.2414" fill="#D9D9D9"/>
</mask>
<g mask="url(#mask1_2645_20861)">
<path d="M26.0345 50.7672C25.3186 50.7672 24.7057 50.5122 24.1958 50.0024C23.686 49.4925 23.4311 48.8797 23.4311 48.1637V29.9396C23.4311 29.2236 23.686 28.6107 24.1958 28.1009C24.7057 27.591 25.3186 27.3361 26.0345 27.3361H36.4483V29.9396H26.0345V48.1637H44.2586V40.3534H46.8621V48.1637C46.8621 48.8797 46.6072 49.4925 46.0973 50.0024C45.5875 50.5122 44.9746 50.7672 44.2586 50.7672H26.0345ZM28.638 45.5603H31.2414V36.4482H28.638V45.5603ZM33.8449 45.5603H36.4483V32.543H33.8449V45.5603ZM39.0518 45.5603H41.6552V40.3534H39.0518V45.5603ZM45.5604 37.7499C44.9095 37.7499 44.2695 37.6523 43.6403 37.457C43.0112 37.2618 42.4254 36.9797 41.883 36.6109L41.3949 37.0665C41.1345 37.3052 40.8254 37.4245 40.4674 37.4245C40.1094 37.4245 39.8111 37.3052 39.5724 37.0665C39.3338 36.8279 39.2145 36.5241 39.2145 36.1553C39.2145 35.7865 39.3338 35.4827 39.5724 35.2441L40.0931 34.7234C39.746 34.2027 39.4857 33.6495 39.3121 33.0637C39.1385 32.4779 39.0518 31.8705 39.0518 31.2413C39.0518 29.4406 39.6863 27.9056 40.9555 26.6364C42.2247 25.3673 43.7597 24.7327 45.5604 24.7327H52.069V31.2413C52.069 33.042 51.4344 34.577 50.1652 35.8461C48.896 37.1153 47.3611 37.7499 45.5604 37.7499ZM45.5604 35.1465C46.6451 35.1465 47.5672 34.7668 48.3265 34.0075C49.0859 33.2481 49.4655 32.3261 49.4655 31.2413V27.3361H45.5604C44.4756 27.3361 43.5535 27.7158 42.7942 28.4751C42.0349 29.2345 41.6552 30.1565 41.6552 31.2413C41.6552 31.5233 41.6823 31.7945 41.7366 32.0549C41.7908 32.3152 41.8722 32.5756 41.9806 32.8359L45.3651 29.4514C45.6038 29.2128 45.9075 29.0934 46.2763 29.0934C46.6451 29.0934 46.9489 29.2128 47.1875 29.4514C47.4479 29.7118 47.578 30.0209 47.578 30.3789C47.578 30.7369 47.4479 31.046 47.1875 31.3064L43.803 34.6909C44.0851 34.821 44.3725 34.9295 44.6654 35.0163C44.9583 35.1031 45.2566 35.1465 45.5604 35.1465Z" fill="#1C1B1F"/>
</g>
</g>
</svg>
