<svg width="567" height="539" viewBox="0 0 567 539" fill="none" xmlns="http://www.w3.org/2000/svg">
<path d="M172.312 214.047L93.9092 163.782C84.4457 157.71 81.691 145.122 87.7631 135.658L113.34 95.7605C138.324 56.7958 185.552 47.2435 224.117 67.6662C258.002 85.6157 268.517 102.025 268.517 102.025C268.517 102.025 223.288 174.534 200.066 208.404C193.861 217.468 181.569 219.956 172.312 214.017V214.047Z" fill="#01B040"/>
<path d="M195.016 48.5912C195.016 48.5912 271.153 57.6696 318.012 160.879C319.967 165.189 318.056 170.447 313.791 172.52L305.586 176.504C297.737 180.325 299.514 191.995 308.148 193.283L410.736 208.641C414.883 209.263 418.911 206.894 420.377 202.954L456.454 106.142C459.342 98.3818 450.974 91.2287 443.762 95.3014L436.831 99.2112C432.225 101.803 426.671 100.011 424.42 95.2273C409.655 63.9193 348.609 -35.0992 195.031 48.5764L195.016 48.5912Z" fill="#8BC73C"/>
<path d="M379.769 104.75C373.326 86.6525 352.874 77.574 334.954 85.3936C319.878 91.9692 311.806 108.926 316.205 124.773C317.923 130.934 321.21 136.177 325.491 140.205C332.377 146.677 338.627 153.815 344.58 161.161L356.088 175.334L382.405 165.974L381.294 140.264C380.983 133.141 380.924 125.987 381.561 118.879C381.975 114.243 381.427 109.43 379.754 104.765L379.769 104.75Z" fill="#EBE7DF"/>
<path d="M378.969 164.33C376.881 158.465 370.438 155.415 364.588 157.488C358.724 159.576 355.673 166.018 357.746 171.868C359.835 177.733 366.277 180.784 372.127 178.71C377.991 176.622 381.042 170.18 378.969 164.33Z" fill="#EBE7DF"/>
<path d="M382.42 165.974L356.103 175.334L325.505 140.205L381.575 118.879L382.42 165.974Z" fill="#01B040"/>
<path d="M330.881 146.41L375.933 135.495L335.354 151.342L330.881 146.41Z" fill="white"/>
<path d="M382.109 142.959L354.296 156.821L382.168 148.306L382.109 142.959Z" fill="white"/>
<path d="M348.031 166.581L367.728 161.738L351.2 170.002L348.031 166.581Z" fill="white"/>
<path d="M351.245 121.767C351.245 121.767 335.946 100.633 355.94 89.4071C355.94 89.4071 371.993 107.831 351.245 121.767Z" fill="white"/>
<path d="M345.114 123.603C345.114 123.603 330.244 126.432 329.267 113.162C329.267 113.162 342.907 109.267 345.114 123.603Z" fill="white"/>
<path d="M353.081 129.66L351.748 126.017L357.45 89.6737L349.69 125.469L329.282 113.162L349.69 127.157L351.334 130.297" fill="white"/>
<path d="M340.493 29.5013C342.833 15.3283 332.718 1.96981 318.16 0.5925C305.912 -0.562667 294.479 7.61236 291.62 19.5935C290.51 24.2586 290.761 28.8645 292.109 33.0557C294.271 39.7941 295.782 46.7251 297.026 53.7006L299.425 67.1479L320.055 70.5542L328.63 53.3155C331.015 48.5319 333.562 43.8224 336.554 39.4091C338.508 36.5212 339.886 33.1741 340.493 29.5161V29.5013Z" fill="white"/>
<path d="M318.382 68.2142C319.137 63.6231 316.027 59.2839 311.436 58.5286C306.845 57.7733 302.506 60.8833 301.75 65.4744C300.995 70.0654 304.105 74.4047 308.696 75.16C313.287 75.9153 317.627 72.8052 318.382 68.2142Z" fill="white"/>
<path d="M320.055 70.5393L299.425 67.1479L292.124 33.0556L336.554 39.3942L320.055 70.5393Z" fill="#01B040"/>
<path d="M293.383 39.0685L326.838 48.2358L294.538 43.9261L293.383 39.0685Z" fill="white"/>
<path d="M328.186 55.3741L304.949 54.367L326.29 58.884L328.186 55.3741Z" fill="white"/>
<path d="M297.322 58.4841L311.969 62.4532L298.152 61.8756L297.322 58.4841Z" fill="white"/>
<path d="M315.657 30.301C315.657 30.301 313.302 10.9149 330.452 10.8113C330.452 10.8113 334.288 28.6868 315.657 30.301Z" fill="#8BC73C"/>
<path d="M310.977 29.294C310.977 29.294 300.21 25.7544 304.387 16.7204C304.387 16.7204 314.724 19.1048 310.977 29.294Z" fill="#8BC73C"/>
<path d="M313.998 36.1361L314.442 33.2778L331.34 11.5518L313.302 32.1671L304.387 16.7204L312.68 33.2778L312.621 35.9288" fill="#EBE7DF"/>
<path d="M421.858 121.737L393.971 157.532L411.862 153.948L399.94 186.16L432.151 140.827L413.061 144.411L421.858 121.737Z" fill="white"/>
<path d="M267.199 29.8123L252.537 48.6208L261.942 46.74L255.677 63.6824L272.605 39.8386L262.564 41.7194L267.199 29.8123Z" fill="white"/>
<path d="M384.478 2.38446L354.296 41.1122L373.667 37.232L360.753 72.0944L395.615 23.0442L374.955 26.9095L384.478 2.38446Z" fill="#FCCF5C"/>
<path d="M143.744 157.369C143.744 157.369 133.363 104.795 201.814 113.962C201.814 113.962 196.527 181.435 143.744 157.369Z" fill="#8BC73C"/>
<path d="M201.828 113.962L128.86 168.21L132.03 171.38L201.828 113.962Z" fill="white"/>
<path d="M174.963 118.612L170.047 137.583L159.487 146.943L175.097 152.69L152.971 150.083L165.026 140.708L174.963 118.612Z" fill="white"/>
<path d="M129.423 141.36C129.423 141.36 117.457 157.74 99.0038 142.086C99.0038 142.086 113.828 124.506 129.423 141.36Z" fill="white"/>
<path d="M209.1 79.7066C209.1 79.7066 218.386 88.015 207.678 98.3522C207.678 98.3522 197.845 88.2223 209.1 79.7066Z" fill="#8BC73C"/>
<path d="M128.446 127.409C128.446 127.409 115.843 129.705 114.199 114.51C114.199 114.51 128.638 112.91 128.446 127.409Z" fill="#8BC73C"/>
<path d="M247.191 92.0136C247.191 92.0136 238.72 110.437 217.512 98.7521C217.512 98.7521 228.56 78.5959 247.191 92.0136Z" fill="white"/>
<path d="M154.57 100.248C154.57 100.248 161.59 73.2792 184.412 82.1206C184.412 82.1206 180.147 107.86 154.57 100.248Z" fill="#EBE7DF"/>
<path d="M148.868 96.4565C148.868 96.4565 136.428 86.134 146.706 76.3151C146.706 76.3151 159.176 84.9048 148.868 96.4565Z" fill="white"/>
<path d="M149.298 107.12L151.401 103.55L185.197 83.5572L150.453 101.492L146.706 76.3004L149.061 102.632L147.595 106.113" fill="#8BC73C"/>
<path d="M182.102 196.793C182.102 196.793 173.542 170.284 151.253 180.428C151.253 180.428 156.999 205.886 182.102 196.793Z" fill="#EBE7DF"/>
<path d="M187.567 192.676C187.567 192.676 199.385 181.643 188.559 172.446C188.559 172.446 176.607 181.732 187.567 192.676Z" fill="white"/>
<path d="M187.759 203.339L185.449 199.903L150.557 181.895L186.278 197.785L188.574 172.431L187.744 198.852L189.418 202.228" fill="#8BC73C"/>
<path d="M207.93 140.738C207.93 140.738 225.954 152.941 213.484 167.455C213.484 167.455 195.638 157.592 207.93 140.738Z" fill="white"/>
<path d="M215.705 135.303C215.705 135.303 223.11 125.351 231.048 132.815C231.048 132.815 224.991 142.722 215.705 135.303Z" fill="#8BC73C"/>
<path d="M417.963 236.247L501.846 195.801C511.976 190.914 524.135 195.164 529.022 205.294L549.608 247.976C569.72 289.666 553.103 334.895 515.501 357.05C482.46 376.511 462.97 376.866 462.97 376.866C462.97 376.866 424.909 300.344 408.218 262.83C403.746 252.789 408.07 241.015 417.963 236.247Z" fill="#01B040"/>
<path d="M547.001 342.27C547.001 342.27 499.388 402.369 386.922 388.21C382.227 387.618 378.762 383.234 379.221 378.51L380.124 369.431C380.983 360.738 370.113 356.147 364.485 362.826L297.663 442.148C294.953 445.362 294.864 450.027 297.456 453.344L361.019 534.783C366.114 541.314 376.585 537.938 376.896 529.644L377.192 521.691C377.384 516.419 381.842 512.613 387.085 513.205C421.488 517.026 537.804 516.908 547.001 342.255V342.27Z" fill="#8BC73C"/>
<path d="M417.963 236.247L501.846 195.801C511.976 190.914 524.135 195.164 529.022 205.294L549.608 247.976C569.72 289.666 553.103 334.895 515.501 357.05C482.46 376.511 462.97 376.866 462.97 376.866C462.97 376.866 424.909 300.344 408.218 262.83C403.746 252.789 408.07 241.015 417.963 236.247Z" fill="#01B040"/>
<path d="M547.001 342.27C547.001 342.27 499.388 402.369 386.922 388.21C382.227 387.618 378.762 383.234 379.221 378.51L380.124 369.431C380.983 360.738 370.113 356.147 364.485 362.826L297.663 442.148C294.953 445.362 294.864 450.027 297.456 453.344L361.019 534.783C366.114 541.314 376.585 537.938 376.896 529.644L377.192 521.691C377.384 516.419 381.842 512.613 387.085 513.205C421.488 517.026 537.804 516.908 547.001 342.255V342.27Z" fill="#8BC73C"/>
<path fill-rule="evenodd" clip-rule="evenodd" d="M546.75 261.438C544.587 255.381 538.338 251.042 531.91 251.131C525.483 251.219 519.351 255.736 517.352 261.838C514.923 260.327 511.635 260.283 509.177 261.749C506.719 263.215 505.178 266.118 505.341 268.976C502.483 269.199 499.536 269.435 497.018 270.798C494.5 272.161 492.516 274.96 493.049 277.773C493.834 281.965 499.003 283.712 503.268 283.875C520.758 284.497 539.078 284.497 557.339 284.097C559.516 284.053 562.863 283.194 564.758 282.113C566.654 281.032 567.232 279.24 566.921 277.077C566.402 273.538 562.004 272.309 558.449 271.864C559.56 269.124 558.479 264.43 556.524 262.771C554.258 260.861 549.208 260.15 546.735 261.764" fill="white"/>
<path fill-rule="evenodd" clip-rule="evenodd" d="M464.525 211.677C462.793 206.805 457.757 203.31 452.589 203.384C447.42 203.458 442.488 207.086 440.874 212.003C438.919 210.789 436.283 210.759 434.298 211.929C432.314 213.114 431.085 215.439 431.218 217.734C428.923 217.912 426.553 218.105 424.524 219.201C422.495 220.296 420.91 222.548 421.325 224.799C421.947 228.175 426.109 229.582 429.545 229.701C443.614 230.204 458.335 230.204 473.011 229.878C474.759 229.834 477.454 229.153 478.98 228.279C480.49 227.405 480.979 225.969 480.727 224.236C480.313 221.392 476.773 220.4 473.915 220.045C474.803 217.838 473.93 214.062 472.375 212.743C470.553 211.203 466.495 210.626 464.511 211.944" fill="white"/>
<path fill-rule="evenodd" clip-rule="evenodd" d="M482.579 303.898C479.276 294.642 469.724 288.007 459.905 288.14C450.086 288.274 440.711 295.16 437.66 304.505C433.943 302.195 428.922 302.136 425.161 304.372C421.399 306.608 419.044 311.036 419.296 315.405C414.942 315.731 410.425 316.101 406.589 318.175C402.739 320.248 399.717 324.528 400.517 328.823C401.702 335.236 409.625 337.901 416.142 338.138C442.873 339.086 470.849 339.086 498.721 338.479C502.039 338.405 507.163 337.102 510.051 335.443C512.939 333.799 513.842 331.044 513.353 327.757C512.568 322.351 505.845 320.47 500.424 319.789C502.113 315.598 500.454 308.415 497.492 305.912C494.041 302.995 486.325 301.899 482.534 304.387" fill="white"/>
<path d="M448.205 469.739H354.34L402.65 406.797H496.515L448.205 469.739Z" fill="white"/>
<path d="M366.114 463.933L405.523 412.617H484.741L445.347 463.933H366.114Z" fill="#01B040"/>
<path d="M458.083 453.759H370.616L371.357 450.323L458.083 451.774V453.759Z" fill="white"/>
<path d="M468.257 440.326H380.79V439.067L468.257 436.89V440.326Z" fill="white"/>
<path d="M478.772 423.991L391.306 425.442V422.021H478.772V423.991Z" fill="white"/>
<path d="M381.694 464.659L422.303 410.47L420.896 409.862L377.695 464.303L381.694 464.659Z" fill="white"/>
<path d="M397.259 464.659L440.03 410.47L436.446 409.862L395.437 464.303L397.259 464.659Z" fill="white"/>
<path d="M415.001 464.659L454.869 410.47L453.462 409.862L411.003 464.303L415.001 464.659Z" fill="white"/>
<path d="M429.826 464.659L473.337 410.47L469.753 409.862L428.019 464.303L429.826 464.659Z" fill="white"/>
<mask id="mask0_2727_9113" style="mask-type:luminance" maskUnits="userSpaceOnUse" x="295" y="342" width="253" height="197">
<path d="M547.001 342.27C547.001 342.27 499.388 402.369 386.922 388.21C382.227 387.618 378.762 383.234 379.221 378.51L380.124 369.431C380.983 360.738 370.113 356.147 364.485 362.826L297.663 442.148C294.953 445.362 294.864 450.027 297.456 453.344L361.019 534.783C366.114 541.314 376.585 537.938 376.896 529.644L377.192 521.691C377.384 516.419 381.842 512.613 387.085 513.205C421.488 517.026 537.804 516.908 547.001 342.255V342.27Z" fill="white"/>
</mask>
<g mask="url(#mask0_2727_9113)">
<path d="M555.843 469.739H461.978L510.288 406.797H604.153L555.843 469.739Z" fill="white"/>
<path d="M473.767 463.933L513.161 412.617H592.379L552.985 463.933H473.767Z" fill="#01B040"/>
<path d="M565.736 453.759H478.269L478.995 450.323L565.736 451.774V453.759Z" fill="white"/>
<path d="M575.895 440.326H488.428V439.067L575.895 436.89V440.326Z" fill="white"/>
<path d="M586.41 423.991L498.958 425.442V422.021H586.41V423.991Z" fill="white"/>
<path d="M489.332 464.659L529.94 410.47L528.534 409.862L485.348 464.303L489.332 464.659Z" fill="white"/>
<path d="M504.897 464.659L547.683 410.47L544.099 409.862L503.075 464.303L504.897 464.659Z" fill="white"/>
<path d="M522.639 464.659L562.507 410.47L561.1 409.862L518.641 464.303L522.639 464.659Z" fill="white"/>
<path d="M537.479 464.659L580.975 410.47L577.391 409.862L535.657 464.303L537.479 464.659Z" fill="white"/>
<path d="M391.276 546.335H297.411L345.721 483.393H439.586L391.276 546.335Z" fill="white"/>
<path d="M309.2 540.53L348.594 489.199H427.812L388.418 540.53H309.2Z" fill="#01B040"/>
<path d="M401.169 530.34H313.702L314.428 526.919L401.169 528.371V530.34Z" fill="white"/>
<path d="M411.328 516.923H323.862V515.664L411.328 513.487V516.923Z" fill="white"/>
<path d="M421.858 500.587L334.391 502.039V498.603H421.858V500.587Z" fill="white"/>
<path d="M324.765 541.255L365.373 487.051L363.967 486.444L320.781 540.885L324.765 541.255Z" fill="white"/>
<path d="M340.33 541.255L383.116 487.051L379.532 486.444L338.508 540.885L340.33 541.255Z" fill="white"/>
<path d="M358.072 541.255L397.94 487.051L396.533 486.444L354.074 540.885L358.072 541.255Z" fill="white"/>
<path d="M372.912 541.255L416.408 487.051L412.824 486.444L371.09 540.885L372.912 541.255Z" fill="white"/>
<path d="M498.929 546.335H405.064L453.374 483.393H547.238L498.929 546.335Z" fill="white"/>
<path d="M416.838 540.53L456.232 489.199H535.45L496.055 540.53H416.838Z" fill="#01B040"/>
<path d="M508.807 530.34H421.34L422.066 526.919L508.807 528.371V530.34Z" fill="white"/>
<path d="M518.966 516.923H431.5V515.664L518.966 513.487V516.923Z" fill="white"/>
<path d="M529.496 500.587L442.029 502.039V498.603H529.496V500.587Z" fill="white"/>
<path d="M432.403 541.255L473.012 487.051L471.605 486.444L428.419 540.885L432.403 541.255Z" fill="white"/>
<path d="M447.968 541.255L490.754 487.051L487.17 486.444L446.161 540.885L447.968 541.255Z" fill="white"/>
<path d="M465.71 541.255L505.593 487.051L504.186 486.444L461.712 540.885L465.71 541.255Z" fill="white"/>
<path d="M480.55 541.255L524.061 487.051L520.462 486.444L478.728 540.885L480.55 541.255Z" fill="white"/>
</g>
<path d="M291.206 404.279L302.95 398.459L294.316 388.581L307.393 387.722L303.217 375.296L315.627 379.487L316.501 366.41L326.364 375.044L332.185 363.3L338.005 375.044L347.868 366.41L348.727 379.487L361.153 375.311L356.961 387.722L370.039 388.595L361.404 398.459L373.149 404.279L361.404 410.099L370.039 419.963L356.961 420.822L361.153 433.247L348.727 429.056L347.868 442.133L338.005 433.499L332.185 445.243L326.364 433.499L316.501 442.133L315.627 429.056L303.217 433.247L307.393 420.822L294.316 419.963L302.95 410.099L291.206 404.279Z" fill="#FCCF5C"/>
<path d="M359.669 411.171C363.455 396.006 354.231 380.643 339.066 376.856C323.901 373.069 308.538 382.293 304.751 397.458C300.965 412.623 310.189 427.986 325.354 431.773C340.519 435.56 355.882 426.336 359.669 411.171Z" fill="white"/>
<path d="M262.86 417.475L263.363 510.777C263.363 522.017 254.255 531.125 243.015 531.125H195.623C149.328 531.125 115.813 496.515 112.184 453.018C109 414.809 117.161 397.096 117.161 397.096C117.161 397.096 202.613 396.045 243.666 397.304C254.655 397.644 262.875 406.471 262.875 417.46L262.86 417.475Z" fill="#01B040"/>
<path d="M111.814 487.836C111.814 487.836 78.3589 418.837 139.968 323.684C142.545 319.7 147.995 318.486 152.038 320.959L159.813 325.713C167.262 330.26 176.119 322.47 172.549 314.502L130.119 219.852C128.401 216.016 124.24 213.913 120.137 214.802L19.1639 236.676C11.063 238.424 9.56716 249.339 16.8832 253.219L23.9179 256.951C28.583 259.424 30.0788 265.081 27.2649 269.554C8.8711 298.877 -41.5416 403.716 111.785 487.851L111.814 487.836Z" fill="#8BC73C"/>
<path d="M111.814 487.836C111.814 487.836 78.3589 418.837 139.968 323.684C142.545 319.7 147.995 318.486 152.038 320.959L159.813 325.713C167.262 330.26 176.119 322.47 172.549 314.502L130.119 219.852C128.401 216.016 124.24 213.913 120.137 214.802L19.1639 236.676C11.063 238.424 9.56716 249.339 16.8832 253.219L23.9179 256.951C28.583 259.424 30.0788 265.081 27.2649 269.554C8.8711 298.877 -41.5416 403.716 111.785 487.851L111.814 487.836Z" fill="#8BC73C"/>
<path d="M73.1754 276.529C73.1754 276.529 62.2753 283.268 55.1962 269.717C55.1962 269.717 68.0512 262.949 73.1754 276.529Z" fill="#EBE7DF"/>
<path d="M78.1663 266.77C78.1663 266.77 59.7429 260.535 68.7473 239.149C68.7473 239.149 89.096 247.65 78.1663 266.77Z" fill="white"/>
<path d="M58.7358 424.539C58.7358 424.539 54.13 436.49 68.7473 440.948C68.7473 440.948 73.0273 427.071 58.7358 424.539Z" fill="#EBE7DF"/>
<path d="M99.3147 337.383C99.3147 337.383 109.326 336.879 107.86 325.017C107.86 325.017 96.5897 326.379 99.3147 337.383Z" fill="white"/>
<path d="M98.0263 356.814C98.0263 356.814 109.519 364.1 117.205 349.779C117.205 349.779 103.624 342.448 98.0263 356.814Z" fill="#EBE7DF"/>
<path d="M67.3996 417.83C67.3996 417.83 76.9223 434.787 96.2788 421.977C96.2788 421.977 84.1643 403.553 67.3996 417.83Z" fill="white"/>
<path d="M209.441 404.62C209.293 396.8 194.764 375.592 194.764 375.592C194.764 375.592 181.065 397.333 181.213 405.153C181.361 412.972 187.804 419.193 195.608 419.044C203.413 418.896 209.604 412.439 209.456 404.62H209.441Z" fill="white"/>
<path d="M224.384 377.31C224.384 373.578 217.645 363.345 217.645 363.345C217.645 363.345 210.907 373.578 210.907 377.31C210.907 381.042 213.913 384.064 217.645 384.064C221.377 384.064 224.384 381.042 224.384 377.31Z" fill="#01B040"/>
<path d="M134.666 474.581L139.716 469.516L142.397 466.821L148.928 475.396L152.986 471.501L154.866 469.679L159.62 475.811L154.126 472.33L148.78 476.625L142.1 470.494L134.666 474.581Z" fill="white"/>
<path d="M125.247 417.075L130.282 412.01L132.963 409.314L139.509 417.904L143.552 413.994L145.447 412.187L150.201 418.304L144.707 414.838L139.361 419.119L132.667 413.002L125.247 417.075Z" fill="white"/>
<path d="M163.841 441.822L171.187 434.447L175.082 430.522L184.59 443.007L190.499 437.335L193.239 434.684L200.155 443.599L192.158 438.549L184.382 444.799L174.652 435.883L163.841 441.822Z" fill="white"/>
<path d="M20.8226 308.296L72.8792 318.708L59.7577 410.085L0 388.107L20.8226 308.296Z" fill="white"/>
<path d="M59.7577 410.085L77.4999 391.572L90.2215 395.038L92.5319 314.072L83.2905 319.863L72.8792 318.708L59.7577 410.085Z" fill="#EBE7DF"/>
<path d="M20.8226 308.296L35.8546 307.127L39.3349 301.928L92.5319 314.072L82.7129 322.751L72.8792 318.708L20.8226 308.296Z" fill="#01B040"/>
<path d="M34.2552 363.893L32.7149 370.601C32.5224 371.416 31.7227 371.92 30.9081 371.727L27.5019 370.942C24.1697 370.172 22.3332 367.121 22.7923 363.937C23.1922 361.138 24.0808 359.998 24.0808 359.998C24.0808 359.998 30.2417 361.345 33.1888 362.115C33.9738 362.323 34.4477 363.108 34.27 363.907L34.2552 363.893Z" fill="#8BC73C"/>
<path d="M22.1852 366.425C22.1852 366.425 20.9263 360.901 26.9391 355.081C27.1909 354.844 27.6056 354.844 27.8573 355.081L28.3312 355.555C28.7903 355.999 29.5605 355.584 29.4272 354.962L27.9462 347.439C27.8869 347.128 27.6204 346.921 27.3094 346.906L19.6823 346.802C19.0751 346.802 18.7789 347.557 19.238 347.957L19.6823 348.342C19.9785 348.594 19.9933 349.024 19.7119 349.305C17.9051 351.112 12.5291 357.821 22.1703 366.425H22.1852Z" fill="#8BC73C"/>
<path d="M31.0858 347.72L26.2726 342.803C25.6951 342.211 25.7099 341.263 26.3023 340.671L28.8051 338.227C31.2488 335.843 34.8031 335.932 37.2467 338.049C39.3942 339.901 39.8681 341.263 39.8681 341.263C39.8681 341.263 35.4103 345.736 33.174 347.78C32.5816 348.327 31.6486 348.298 31.0858 347.72Z" fill="#8BC73C"/>
<path d="M35.4547 336.198C35.4547 336.198 40.7863 338.109 42.445 346.328C42.519 346.669 42.2821 347.024 41.9414 347.098L41.2898 347.246C40.6678 347.394 40.5937 348.253 41.2009 348.49L48.3245 351.304C48.6059 351.423 48.9465 351.304 49.1094 351.052L53.3154 344.684C53.656 344.166 53.1673 343.514 52.5749 343.692L52.0121 343.855C51.6419 343.959 51.2716 343.736 51.1828 343.366C50.6348 340.863 47.895 332.733 35.4399 336.198H35.4547Z" fill="#8BC73C"/>
<path d="M48.3986 353.392L55.1074 351.867C55.922 351.689 56.7217 352.193 56.8994 353.007L57.6695 356.428C58.4248 359.761 56.4847 362.737 53.4043 363.715C50.7089 364.574 49.302 364.263 49.302 364.263C49.302 364.263 47.8358 358.117 47.2582 355.14C47.1101 354.34 47.6136 353.57 48.3986 353.392Z" fill="#8BC73C"/>
<path d="M55.922 363.167C55.922 363.167 51.4938 366.706 43.6298 363.819C43.304 363.7 43.1263 363.33 43.2299 362.989L43.4521 362.352C43.6594 361.745 42.9485 361.227 42.4302 361.612L36.2989 366.218C36.0472 366.41 35.9731 366.736 36.0916 367.017L39.3201 373.934C39.5719 374.482 40.3864 374.422 40.5493 373.83L40.6974 373.267C40.8011 372.897 41.1862 372.69 41.5564 372.823C43.9704 373.667 52.338 375.592 55.9072 363.167H55.922Z" fill="#8BC73C"/>
<path d="M45.6884 306.549L47.4211 288.629L85.0233 295.56L78.0775 313.495H75.1896L79.2326 297.308L52.0566 291.517L49.7462 307.719L45.6884 306.549Z" fill="#01B040"/>
<path d="M33.5443 311.762L35.277 293.827L72.8792 300.773L65.9334 318.708H63.0455L67.0886 302.506L39.9125 296.73L37.5874 312.917L33.5443 311.762Z" fill="white"/>
<path d="M159.872 240.778L117.797 237.165L107.519 309.866L158.036 306.356L159.872 240.778Z" fill="white"/>
<path d="M107.519 309.866L98.0707 291.798L87.6594 287.563L103.802 229.256L109.593 235.728L117.797 237.165L107.519 309.866Z" fill="#EBE7DF"/>
<path d="M159.872 240.778L148.646 236.558L147.151 231.804L103.802 229.256L109.385 238.068L117.797 237.165L159.872 240.778Z" fill="#01B040"/>
<path d="M137.258 280.261L136.947 285.726C136.902 286.393 137.42 286.956 138.072 286.985L140.856 287.148C143.567 287.296 145.655 285.386 146.01 282.838C146.321 280.602 145.907 279.536 145.907 279.536C145.907 279.536 140.901 279.195 138.487 279.121C137.835 279.106 137.302 279.61 137.258 280.247V280.261Z" fill="#FCCF5C"/>
<path d="M145.906 284.882C145.906 284.882 148.098 280.943 144.796 275.152C144.662 274.915 144.337 274.826 144.1 274.96L143.626 275.211C143.167 275.448 142.678 274.96 142.915 274.515L145.714 269.11C145.832 268.888 146.084 268.784 146.321 268.843L152.171 270.457C152.645 270.591 152.689 271.227 152.245 271.435L151.816 271.627C151.534 271.761 151.431 272.086 151.579 272.353C152.556 274.13 155.163 280.454 145.892 284.882H145.906Z" fill="#FCCF5C"/>
<path d="M143.27 268.621L148.039 265.94C148.617 265.615 148.824 264.889 148.498 264.311L147.136 261.882C145.803 259.513 143.063 258.802 140.738 259.868C138.694 260.801 138.013 261.734 138.013 261.734C138.013 261.734 140.427 266.133 141.671 268.206C142.012 268.754 142.722 268.947 143.285 268.621H143.27Z" fill="#FCCF5C"/>
<path d="M142.485 258.832C142.485 258.832 137.983 259.113 134.903 265.007C134.77 265.259 134.873 265.57 135.11 265.703L135.584 265.97C136.028 266.222 135.895 266.903 135.377 266.947L129.305 267.51C129.053 267.54 128.831 267.377 128.757 267.14L126.965 261.335C126.817 260.875 127.335 260.476 127.75 260.742L128.15 260.994C128.416 261.157 128.742 261.068 128.89 260.801C129.853 259.009 133.762 253.411 142.5 258.832H142.485Z" fill="#FCCF5C"/>
<path d="M128.786 269.11L124.003 266.459C123.425 266.133 122.699 266.355 122.374 266.933L121.026 269.361C119.708 271.746 120.537 274.456 122.67 275.878C124.536 277.137 125.691 277.211 125.691 277.211C125.691 277.211 128.179 272.842 129.275 270.709C129.571 270.132 129.349 269.435 128.786 269.124V269.11Z" fill="#FCCF5C"/>
<path d="M120.863 274.9C120.863 274.9 123.455 278.588 130.104 278.129C130.386 278.114 130.593 277.862 130.593 277.581L130.564 277.048C130.549 276.529 131.2 276.307 131.497 276.707L135.155 281.58C135.303 281.772 135.288 282.053 135.125 282.231L131.126 286.793C130.8 287.163 130.208 286.926 130.208 286.437V285.963C130.208 285.652 129.971 285.415 129.66 285.43C127.631 285.534 120.804 285.149 120.848 274.871L120.863 274.9Z" fill="#FCCF5C"/>
<path d="M141.256 233.921L143.922 219.852L113.665 216.801L114.984 232.026L117.19 232.677L117.694 219.408L139.746 221.022L137.909 233.907L141.256 233.921Z" fill="#01B040"/>
<path d="M149.372 240.601L152.038 226.517L121.781 223.466L123.099 238.705L125.306 239.342L125.81 226.072L147.861 227.701L146.025 240.586L149.372 240.601Z" fill="white"/>
<mask id="mask1_2727_9113" style="mask-type:luminance" maskUnits="userSpaceOnUse" x="111" y="396" width="153" height="136">
<path d="M262.993 417.608L263.363 510.777C263.363 522.017 254.255 531.125 243.015 531.125H195.623C149.328 531.125 115.813 496.515 112.184 453.018C109 414.809 117.161 397.096 117.161 397.096C117.161 397.096 202.613 396.045 243.666 397.304C254.655 397.644 263.008 406.604 263.008 417.593L262.993 417.608Z" fill="white"/>
</mask>
<g mask="url(#mask1_2727_9113)">
<path d="M150.112 533.658C150.112 533.658 262.075 368.884 263.126 372.053C264.178 375.222 263.126 534.709 263.126 534.709L150.112 533.658Z" fill="#8BC73C"/>
</g>
<path d="M262.771 367.832L216.786 436.194C216.786 436.194 223.629 444.547 234.262 427.841C234.262 427.841 227.42 452.915 243.37 458.231C259.32 463.548 263.526 438.49 263.526 438.49L262.771 367.847V367.832Z" fill="white"/>
<path d="M191.965 285.611L207.533 285.7C207.595 285.7 207.647 285.752 207.647 285.815V290.972C207.647 291.035 207.595 291.086 207.533 291.086H185.214C185.151 291.086 185.099 291.035 185.099 290.972V261.997C185.099 261.934 185.151 261.883 185.214 261.883L206.978 261.912C207.041 261.912 207.093 261.964 207.093 262.027V267.154C207.093 267.217 207.041 267.269 206.978 267.269L191.965 267.369C191.902 267.369 191.85 267.42 191.85 267.483V273.516C191.85 273.579 191.902 273.631 191.965 273.631H205.223C205.286 273.631 205.338 273.682 205.338 273.745V278.781C205.338 278.843 205.286 278.895 205.223 278.895H191.965C191.902 278.895 191.85 278.947 191.85 279.01V285.497C191.85 285.56 191.902 285.611 191.965 285.611Z" fill="black"/>
<path d="M270.362 261.89C266.039 261.912 261.675 261.908 257.274 261.883C257.137 261.883 257.071 261.949 257.071 262.086V290.798C257.071 290.99 257.167 291.086 257.359 291.086H263.633C263.759 291.086 263.822 291.024 263.822 290.898L263.803 283.221C263.803 283.103 263.862 283.044 263.981 283.048C266.15 283.062 268.319 283.055 270.488 283.025C286.532 282.8 286.174 261.816 270.362 261.89ZM275.458 272.833C275.458 275.404 273.122 277.491 270.24 277.491H263.899C263.851 277.491 263.811 277.451 263.811 277.403V267.516C263.811 267.468 263.851 267.428 263.899 267.428H270.24C273.122 267.428 275.458 269.515 275.458 272.086V272.833Z" fill="black"/>
<path d="M343.438 275.29C341.158 280.673 343.375 287.297 348.563 289.89C353.374 292.292 360.654 292.107 364.504 287.884C364.575 287.807 364.575 287.733 364.504 287.659L361.301 284.201C361.208 284.101 361.112 284.094 361.009 284.179C357.476 287.068 350.585 287.278 349.258 281.885C349.232 281.774 349.273 281.718 349.387 281.718L365.905 281.645C365.997 281.645 366.049 281.6 366.06 281.508C367.937 267.211 348.445 263.472 343.438 275.29ZM359.797 277.88H349.273C349.155 277.88 349.106 277.821 349.125 277.706C350.149 271.762 358.95 271.788 359.963 277.684C359.985 277.813 359.93 277.88 359.797 277.88Z" fill="black"/>
<path d="M381.968 268.296V274.392C378.517 273.897 376.252 274.901 375.176 277.403C374.755 278.385 374.537 280.074 374.522 282.464C374.504 285.275 374.53 288.079 374.6 290.876C374.6 291.016 374.533 291.086 374.393 291.086H368.222C368.13 291.086 368.056 291.013 368.056 290.92L368.015 268.832C368.015 268.706 368.078 268.643 368.2 268.643H374.116C374.238 268.643 374.301 268.706 374.301 268.828V271.148C374.301 271.299 374.352 271.322 374.46 271.214C376.496 269.186 379.001 268.211 381.968 268.296Z" fill="black"/>
<path d="M210.837 272.57C215.851 266.807 226.844 266.456 230.758 273.834C230.809 273.934 230.772 274.056 230.673 274.111L225.95 276.623C225.813 276.697 225.703 276.667 225.621 276.538C223.903 273.867 221.571 273.017 218.634 273.989C213.084 275.833 213.634 285.246 220.09 286.033C222.37 286.31 224.239 285.357 225.699 283.17C225.769 283.062 225.865 283.037 225.98 283.099L230.68 285.682C230.765 285.73 230.795 285.833 230.746 285.918C226.892 292.974 216.114 293.13 211.044 287.381C207.493 283.354 207.26 276.682 210.837 272.57Z" fill="black"/>
<path d="M243.052 268.322C237.679 268.063 231.922 271.03 230.551 276.59C226.428 293.292 251.965 296.95 254.518 282.013C255.823 274.392 250.612 268.688 243.052 268.322ZM242.391 286.103C239.209 286.081 236.648 283.269 236.671 279.823C236.696 276.376 239.294 273.601 242.479 273.623C245.661 273.646 248.222 276.457 248.2 279.904C248.174 283.351 245.576 286.125 242.391 286.103Z" fill="black"/>
<path d="M299.406 269.043C299.022 268.917 298.634 268.81 298.25 268.714C298.054 268.67 297.858 268.625 297.662 268.585C297.511 268.555 297.359 268.525 297.204 268.5C297.13 268.485 297.052 268.474 296.979 268.463C296.82 268.437 296.661 268.418 296.502 268.396C296.306 268.37 296.11 268.352 295.914 268.337C295.766 268.322 295.619 268.315 295.467 268.307H295.427C295.367 268.304 295.305 268.304 295.245 268.3C295.083 268.293 294.917 268.289 294.754 268.289C294.421 268.289 294.089 268.3 293.753 268.322C293.675 268.326 293.601 268.333 293.524 268.341C293.446 268.348 293.372 268.356 293.294 268.363C293.28 268.363 293.265 268.363 293.246 268.367C293.128 268.378 293.014 268.392 292.895 268.407H292.881C292.847 268.411 292.818 268.415 292.784 268.418C292.762 268.422 292.736 268.426 292.714 268.429C292.507 268.459 292.304 268.489 292.097 268.525C281.662 270.365 278.861 284.023 287.792 289.524C291.473 291.789 296.38 291.999 300.315 290.285C309.756 286.173 309.232 272.238 299.406 269.043ZM294.761 286.103C291.58 286.085 289.012 283.281 289.03 279.834C289.049 276.387 291.643 273.609 294.828 273.624C298.009 273.642 300.578 276.446 300.559 279.893C300.541 283.34 297.947 286.118 294.761 286.103Z" fill="black"/>
<path d="M338.666 268.644H344.139C344.209 268.644 344.268 268.703 344.268 268.773C344.268 268.788 344.268 268.803 344.261 268.817L336.228 291.002C336.209 291.054 336.161 291.087 336.106 291.087H329.994C329.938 291.087 329.89 291.054 329.872 291.002L324.998 277.481C324.972 277.414 324.895 277.381 324.832 277.407C324.798 277.421 324.773 277.447 324.758 277.481L319.725 291.002C319.706 291.054 319.658 291.087 319.607 291.087H313.521C313.465 291.087 313.417 291.054 313.399 291.002L305.421 268.817C305.395 268.751 305.432 268.677 305.499 268.651C305.513 268.647 305.528 268.644 305.543 268.644H311.396C311.451 268.644 311.499 268.681 311.518 268.732L316.636 283.521C316.658 283.587 316.732 283.624 316.798 283.602C316.835 283.591 316.865 283.561 316.88 283.525L322.234 268.729C322.252 268.677 322.3 268.644 322.356 268.644H327.692C327.747 268.644 327.795 268.677 327.814 268.729L332.998 283.51C333.02 283.576 333.094 283.613 333.164 283.587C333.201 283.573 333.231 283.547 333.242 283.51L338.544 268.729C338.563 268.677 338.611 268.644 338.666 268.644Z" fill="black"/>
<path d="M322.953 302.236C322.953 302.18 322.942 302.121 322.931 302.066C322.928 302.025 322.92 301.981 322.913 301.94C322.902 301.878 322.891 301.818 322.88 301.759C322.865 301.7 322.85 301.637 322.835 301.575L322.783 301.379V301.364C322.783 301.364 322.769 301.334 322.765 301.316C322.743 301.242 322.721 301.179 322.695 301.109C322.676 301.054 322.654 300.991 322.632 300.935C322.628 300.928 322.628 300.924 322.625 300.917C322.625 300.913 322.621 300.913 322.621 300.91C322.617 300.902 322.617 300.899 322.613 300.891C322.577 300.802 322.536 300.714 322.495 300.621C322.488 300.61 322.484 300.596 322.477 300.584C322.455 300.54 322.429 300.496 322.407 300.448C322.388 300.415 322.366 300.378 322.347 300.341C322.329 300.304 322.307 300.267 322.285 300.234C322.262 300.197 322.244 300.16 322.222 300.126C322.203 300.089 322.181 300.052 322.155 300.019C322.092 299.923 322.026 299.831 321.959 299.738C321.889 299.646 321.819 299.557 321.745 299.469C321.69 299.406 321.634 299.343 321.575 299.28C321.516 299.218 321.457 299.158 321.394 299.099C321.346 299.055 321.302 299.011 321.254 298.966C321.206 298.922 321.154 298.881 321.106 298.841C321.01 298.756 320.906 298.678 320.803 298.601C320.747 298.564 320.696 298.527 320.64 298.49C320.589 298.457 320.533 298.42 320.478 298.386C320.367 298.316 320.252 298.25 320.138 298.191C320.079 298.161 320.016 298.128 319.957 298.098C319.953 298.098 319.953 298.098 319.949 298.098C319.894 298.072 319.838 298.05 319.783 298.024C319.72 297.998 319.661 297.973 319.598 297.947C319.539 297.921 319.476 297.899 319.413 297.877C319.247 297.817 319.077 297.766 318.9 297.721C318.822 297.699 318.741 297.681 318.66 297.666C318.652 297.666 318.641 297.662 318.634 297.662C318.575 297.647 318.516 297.636 318.456 297.629C318.382 297.614 318.309 297.603 318.231 297.596C318.116 297.581 318.002 297.57 317.887 297.563C317.85 297.559 317.81 297.555 317.773 297.555C317.762 297.551 317.751 297.551 317.74 297.551C317.673 297.548 317.603 297.548 317.536 297.548H317.492C317.4 297.548 317.304 297.551 317.211 297.555C317.137 297.559 317.063 297.563 316.989 297.57C316.96 297.574 316.927 297.574 316.897 297.577C316.819 297.585 316.742 297.596 316.661 297.607C316.572 297.622 316.483 297.636 316.394 297.655C316.332 297.666 316.269 297.677 316.206 297.696C316.158 297.703 316.11 297.714 316.062 297.729C315.999 297.744 315.933 297.762 315.87 297.78C315.7 297.832 315.534 297.891 315.371 297.958C315.205 298.024 315.042 298.098 314.887 298.179C314.809 298.216 314.735 298.257 314.665 298.301C314.588 298.346 314.514 298.39 314.443 298.438C314.373 298.482 314.307 298.527 314.24 298.575C314.233 298.578 314.222 298.586 314.214 298.593C314.148 298.638 314.085 298.686 314.026 298.734C314.015 298.741 314.004 298.752 313.993 298.759C313.97 298.778 313.948 298.793 313.93 298.811C313.885 298.848 313.841 298.885 313.8 298.922C313.752 298.959 313.708 299.003 313.66 299.048C313.649 299.059 313.638 299.066 313.63 299.073C313.568 299.133 313.505 299.195 313.449 299.255C313.361 299.347 313.276 299.443 313.194 299.543C313.139 299.613 313.084 299.683 313.028 299.757C312.984 299.812 312.943 299.871 312.906 299.931C312.884 299.96 312.862 299.993 312.84 300.027C312.818 300.056 312.799 300.089 312.781 300.123C312.747 300.167 312.721 300.215 312.696 300.263C312.67 300.3 312.648 300.341 312.629 300.381C312.607 300.418 312.588 300.459 312.566 300.5C312.526 300.581 312.485 300.666 312.444 300.751C312.418 300.806 312.396 300.865 312.374 300.921C312.356 300.961 312.341 301.006 312.326 301.05C312.3 301.113 312.278 301.176 312.26 301.238C312.241 301.297 312.223 301.357 312.204 301.416C312.171 301.527 312.145 301.641 312.119 301.759C312.104 301.826 312.093 301.896 312.082 301.966C312.067 302.044 312.056 302.125 312.049 302.206C312.038 302.291 312.03 302.373 312.023 302.458C312.016 302.557 312.012 302.657 312.012 302.757C311.994 305.657 314.432 308.025 317.462 308.047H317.507C317.599 308.047 317.688 308.043 317.78 308.04C317.843 308.036 317.902 308.032 317.958 308.029C317.965 308.029 317.969 308.029 317.976 308.029C318.009 308.025 318.043 308.025 318.076 308.021C318.109 308.018 318.142 308.018 318.176 308.01C318.242 308.003 318.312 307.995 318.379 307.984C318.382 307.984 318.39 307.981 318.397 307.981C318.541 307.958 318.689 307.929 318.83 307.896C318.981 307.859 319.129 307.818 319.273 307.77C319.273 307.77 319.275 307.769 319.28 307.766C319.332 307.752 319.388 307.733 319.439 307.711C319.502 307.692 319.565 307.667 319.624 307.641C319.702 307.611 319.776 307.578 319.853 307.545C320.016 307.471 320.175 307.389 320.33 307.297C320.4 307.26 320.467 307.22 320.533 307.175C320.614 307.123 320.692 307.072 320.77 307.016C320.829 306.976 320.884 306.935 320.94 306.891C320.988 306.854 321.036 306.813 321.084 306.773C321.124 306.739 321.165 306.706 321.206 306.669C321.25 306.632 321.294 306.592 321.339 306.551C321.534 306.37 321.719 306.17 321.882 305.96C321.967 305.853 322.044 305.746 322.122 305.631C322.14 305.601 322.159 305.576 322.177 305.546C322.218 305.48 322.259 305.417 322.299 305.35C322.303 305.339 322.31 305.332 322.314 305.321C322.366 305.232 322.414 305.14 322.458 305.047C322.503 304.966 322.54 304.881 322.573 304.796C322.599 304.744 322.621 304.689 322.643 304.634C322.647 304.622 322.65 304.611 322.654 304.6C322.669 304.56 322.687 304.515 322.702 304.471C322.721 304.427 322.735 304.382 322.746 304.342C322.75 304.334 322.75 304.331 322.754 304.323V304.316C322.783 304.223 322.809 304.135 322.832 304.039C322.843 303.998 322.854 303.954 322.861 303.913C322.872 303.869 322.883 303.821 322.891 303.773C322.898 303.747 322.902 303.717 322.905 303.691C322.916 303.636 322.924 303.577 322.931 303.522C322.95 303.425 322.961 303.326 322.968 303.226V303.219C322.972 303.167 322.976 303.115 322.979 303.063C322.983 302.99 322.987 302.916 322.987 302.838C322.987 302.639 322.976 302.439 322.953 302.243V302.236ZM317.499 306.34C315.541 306.34 313.956 304.755 313.956 302.797C313.956 300.839 315.541 299.255 317.499 299.255C319.458 299.255 321.043 300.839 321.043 302.797C321.043 304.755 319.458 306.34 317.499 306.34Z" fill="#4DC679"/>
<path d="M260.006 298.586C261.994 297.182 265.36 297.204 267.196 299.062C267.304 299.173 267.304 299.284 267.196 299.391L266.383 300.207C266.276 300.315 266.158 300.322 266.036 300.23C264.599 299.136 263.146 298.937 261.676 299.631C257.6 301.552 260.176 307.759 265.02 306.03C265.796 305.749 265.474 303.525 265.441 302.904C265.434 302.782 265.493 302.72 265.615 302.72L267.052 302.727C267.174 302.727 267.237 302.786 267.237 302.908V306.532C267.237 306.661 267.182 306.761 267.074 306.831C265.109 308.128 263.061 308.372 260.929 307.563C257.138 306.122 256.798 300.85 260.009 298.586H260.006Z" fill="#4DC679"/>
<path d="M302.452 301.36C303.893 302.007 305.763 302.121 307.019 303.015C308.157 303.821 308.253 305.413 307.551 306.477C306.044 308.764 302.056 308.132 300.065 306.943C299.947 306.872 299.913 306.773 299.969 306.643L300.456 305.542C300.523 305.391 300.623 305.361 300.759 305.454C302.293 306.492 303.93 306.695 305.674 306.056C306.092 305.904 306.31 305.443 306.158 305.022C306.158 305.022 306.158 305.018 306.158 305.014C305.704 303.802 303.309 303.503 302.186 303.167C300.42 302.639 299.61 300.965 300.468 299.321C301.68 297.001 305.452 297.415 307.385 298.324C307.533 298.394 307.577 298.508 307.514 298.66L307.067 299.764C307.012 299.901 306.919 299.934 306.79 299.864C305.593 299.225 301.04 298.409 302.208 301.109C302.26 301.224 302.341 301.309 302.456 301.36H302.452Z" fill="#4DC679"/>
<path d="M207.219 306.326H212.696C212.766 306.326 212.821 306.381 212.821 306.451V307.77C212.821 307.84 212.766 307.896 212.696 307.896H205.324C205.254 307.896 205.198 307.84 205.198 307.77L205.22 297.862C205.22 297.792 205.276 297.736 205.346 297.736H212.511C212.581 297.736 212.637 297.792 212.637 297.862V299.181C212.637 299.251 212.581 299.306 212.511 299.306H207.219C207.149 299.306 207.094 299.362 207.094 299.432V301.859C207.094 301.929 207.149 301.985 207.219 301.985H211.864C211.934 301.985 211.99 302.036 211.99 302.107V303.337C211.99 303.407 211.934 303.462 211.864 303.462H207.219C207.149 303.462 207.094 303.518 207.094 303.588V306.2C207.094 306.27 207.149 306.326 207.219 306.326Z" fill="#4DC679"/>
<path d="M219.531 307.896H217.935C217.865 307.896 217.809 307.84 217.809 307.77V297.862C217.809 297.792 217.865 297.736 217.935 297.736H219.313C219.35 297.736 219.387 297.755 219.409 297.784L224.701 304.297C224.745 304.349 224.827 304.357 224.878 304.312C224.908 304.29 224.923 304.253 224.923 304.216V297.862C224.923 297.792 224.978 297.736 225.048 297.736H226.645C226.715 297.736 226.77 297.792 226.77 297.862V307.77C226.77 307.84 226.715 307.896 226.645 307.896H225.329C225.292 307.896 225.255 307.877 225.233 307.848L219.879 301.257C219.834 301.205 219.753 301.198 219.701 301.242C219.672 301.264 219.657 301.301 219.657 301.338V307.77C219.657 307.84 219.602 307.896 219.531 307.896Z" fill="#4DC679"/>
<path d="M234.427 306.326H239.852C239.918 306.326 239.974 306.377 239.977 306.444L240.04 307.763C240.044 307.833 239.992 307.892 239.922 307.896C239.922 307.896 239.918 307.896 239.914 307.896H232.52C232.45 307.896 232.395 307.84 232.395 307.77L232.428 297.862C232.428 297.792 232.483 297.736 232.554 297.736H239.671C239.741 297.736 239.796 297.792 239.796 297.862V299.181C239.796 299.251 239.741 299.306 239.671 299.306H234.457C234.386 299.306 234.331 299.362 234.331 299.432L234.353 301.859C234.353 301.929 234.409 301.985 234.479 301.985H238.994C239.061 301.981 239.113 302.029 239.12 302.096L239.223 303.326C239.231 303.396 239.179 303.455 239.109 303.462C239.105 303.462 239.101 303.462 239.098 303.462H234.442C234.372 303.462 234.316 303.518 234.316 303.588L234.301 306.2C234.301 306.27 234.357 306.326 234.427 306.326Z" fill="#4DC679"/>
<path d="M253.523 307.637L251.513 304.755C251.421 304.626 251.447 304.526 251.587 304.452C253.194 303.595 253.819 302.309 253.461 300.592C252.722 297.041 248.247 297.684 245.231 297.754C245.117 297.758 245.061 297.813 245.061 297.928V307.711C245.061 307.833 245.124 307.895 245.246 307.895H246.724C246.846 307.895 246.909 307.833 246.909 307.711V305.125C246.909 305.062 246.924 305.017 246.957 304.988C246.961 304.988 246.961 304.984 246.964 304.981C246.964 304.981 246.964 304.977 246.972 304.977H246.976C246.976 304.977 246.998 304.955 247.012 304.951C247.035 304.944 247.064 304.94 247.094 304.94H249.422C249.551 304.94 249.651 304.992 249.725 305.095L251.55 307.711C251.639 307.833 251.757 307.895 251.909 307.895H253.387C253.597 307.895 253.645 307.81 253.523 307.637ZM249.636 303.274L247.02 303.266C246.972 303.266 246.935 303.229 246.935 303.181L246.95 299.48C246.95 299.432 246.987 299.395 247.035 299.395L249.651 299.402C250.697 299.406 251.543 300.182 251.539 301.135V301.556C251.535 302.509 250.682 303.277 249.636 303.274Z" fill="#4DC679"/>
<path d="M274.324 297.736H272.705C272.642 297.736 272.591 297.788 272.591 297.851V307.781C272.591 307.844 272.642 307.896 272.705 307.896H274.324C274.387 307.896 274.438 307.844 274.438 307.781V297.851C274.438 297.788 274.387 297.736 274.324 297.736Z" fill="#4DC679"/>
<path d="M289.59 307.67L285.148 297.829C285.148 297.829 285.133 297.803 285.122 297.792C285.115 297.781 285.104 297.769 285.089 297.762C285.067 297.747 285.037 297.736 285.004 297.736H283.33C283.3 297.736 283.271 297.747 283.245 297.762C283.23 297.769 283.219 297.781 283.212 297.792C283.201 297.803 283.193 297.814 283.186 297.829L278.77 307.67C278.759 307.693 278.755 307.715 278.755 307.737C278.755 307.755 278.759 307.77 278.763 307.785C278.766 307.796 278.77 307.803 278.774 307.811C278.778 307.818 278.781 307.826 278.789 307.833C278.792 307.84 278.8 307.848 278.807 307.855C278.822 307.87 278.844 307.881 278.863 307.885C278.881 307.892 278.896 307.896 278.914 307.896H280.507C280.507 307.896 280.536 307.892 280.551 307.888C280.581 307.881 280.61 307.862 280.625 307.837C280.636 307.826 280.644 307.814 280.651 307.8L281.567 305.657C281.593 305.598 281.649 305.561 281.712 305.561L286.593 305.524C286.659 305.524 286.715 305.565 286.741 305.624L287.657 307.8C287.683 307.859 287.742 307.896 287.805 307.896H289.442C289.46 307.896 289.479 307.892 289.497 307.885C289.501 307.885 289.508 307.885 289.512 307.881C289.527 307.874 289.542 307.862 289.556 307.851C289.571 307.837 289.582 307.818 289.59 307.8C289.597 307.785 289.601 307.766 289.604 307.748C289.604 307.722 289.604 307.696 289.59 307.67ZM285.928 303.939C285.928 303.939 285.92 303.954 285.917 303.961C285.906 303.98 285.887 303.994 285.865 304.006C285.85 304.013 285.832 304.017 285.817 304.017H282.499C282.465 304.017 282.436 304.002 282.414 303.98L282.403 303.969C282.403 303.969 282.399 303.965 282.399 303.961C282.391 303.954 282.388 303.946 282.388 303.939C282.388 303.939 282.387 303.937 282.384 303.932C282.384 303.932 282.38 303.921 282.38 303.917C282.377 303.91 282.377 303.902 282.377 303.895C282.377 303.876 282.38 303.861 282.388 303.847L284.047 299.945C284.047 299.945 284.058 299.923 284.065 299.916C284.069 299.912 284.073 299.912 284.073 299.909C284.073 299.909 284.075 299.907 284.08 299.905C284.08 299.905 284.08 299.897 284.088 299.897H284.091C284.091 299.897 284.099 299.89 284.102 299.89C284.102 299.89 284.105 299.889 284.11 299.886C284.11 299.886 284.143 299.875 284.158 299.875C284.173 299.875 284.187 299.879 284.206 299.886H284.209C284.209 299.886 284.228 299.897 284.239 299.905C284.243 299.909 284.246 299.912 284.25 299.916C284.258 299.927 284.265 299.934 284.269 299.945L285.928 303.847C285.928 303.847 285.939 303.88 285.939 303.895C285.939 303.91 285.935 303.924 285.928 303.939Z" fill="#4DC679"/>
<path d="M329.84 306.326H334.906C334.98 306.326 335.039 306.385 335.039 306.459V307.763C335.039 307.837 334.98 307.896 334.906 307.896H327.966C327.892 307.896 327.833 307.837 327.833 307.763V297.869C327.833 297.795 327.892 297.736 327.966 297.736H329.57C329.644 297.736 329.703 297.795 329.703 297.869V306.193C329.707 306.267 329.766 306.326 329.84 306.326Z" fill="#4DC679"/>
<path d="M348.915 307.696L344.481 297.818C344.481 297.818 344.466 297.792 344.455 297.781C344.452 297.773 344.444 297.769 344.441 297.766C344.426 297.755 344.411 297.747 344.396 297.744C344.389 297.74 344.378 297.736 344.367 297.736H342.63C342.63 297.736 342.608 297.74 342.6 297.744C342.586 297.747 342.571 297.755 342.556 297.766C342.552 297.769 342.545 297.773 342.541 297.781C342.53 297.792 342.523 297.803 342.515 297.818L338.089 307.696C338.089 307.696 338.074 307.737 338.074 307.759C338.074 307.759 338.074 307.781 338.074 307.789C338.077 307.796 338.081 307.807 338.085 307.814C338.088 307.829 338.1 307.84 338.111 307.851C338.137 307.881 338.174 307.896 338.214 307.896H339.844C339.899 307.896 339.951 307.862 339.973 307.811L340.949 305.565C340.971 305.513 341.022 305.48 341.078 305.48L345.922 305.531C345.978 305.531 346.029 305.565 346.052 305.616L347.005 307.811C347.027 307.862 347.079 307.896 347.134 307.896H348.782C348.805 307.896 348.823 307.892 348.845 307.881C348.86 307.874 348.871 307.866 348.882 307.855H348.886C348.886 307.855 348.904 307.829 348.912 307.814C348.919 307.796 348.923 307.781 348.926 307.763C348.926 307.741 348.923 307.718 348.912 307.696H348.915ZM345.257 303.939C345.246 303.969 345.224 303.991 345.194 304.006C345.18 304.013 345.161 304.017 345.146 304.017H341.835C341.835 304.017 341.802 304.017 341.784 304.009C341.773 304.002 341.758 303.994 341.75 303.987C341.739 303.976 341.732 303.965 341.725 303.954C341.721 303.946 341.717 303.943 341.717 303.935C341.713 303.932 341.713 303.928 341.713 303.928C341.713 303.921 341.71 303.91 341.71 303.902C341.71 303.884 341.713 303.865 341.721 303.85L343.369 299.957C343.369 299.957 343.38 299.934 343.387 299.927C343.387 299.927 343.39 299.925 343.395 299.92C343.395 299.92 343.402 299.909 343.406 299.909C343.41 299.905 343.413 299.901 343.417 299.901C343.421 299.894 343.428 299.89 343.435 299.89C343.443 299.886 343.45 299.883 343.458 299.883C343.465 299.879 343.472 299.879 343.48 299.879C343.48 299.879 343.495 299.879 343.502 299.883C343.513 299.883 343.52 299.886 343.524 299.89C343.528 299.894 343.535 299.894 343.539 299.897C343.546 299.901 343.55 299.901 343.554 299.909C343.557 299.909 343.557 299.912 343.561 299.916C343.561 299.916 343.562 299.916 343.565 299.916C343.565 299.916 343.572 299.92 343.572 299.923C343.58 299.931 343.587 299.942 343.591 299.953L345.253 303.843C345.253 303.843 345.265 303.876 345.265 303.891C345.265 303.906 345.261 303.921 345.253 303.935L345.257 303.939Z" fill="#4DC679"/>
<path d="M361.667 307.626L359.657 304.722C359.583 304.615 359.605 304.533 359.72 304.471C363.33 302.587 361.689 297.795 357.754 297.743C357.414 297.74 357.078 297.736 356.745 297.732C355.633 297.725 354.58 297.728 353.59 297.747C353.246 297.747 353.087 297.928 353.117 298.272C353.394 301.397 353.124 304.574 353.153 307.7C353.153 307.829 353.216 307.895 353.346 307.895H354.901C355.023 307.895 355.086 307.833 355.086 307.711V305.125C355.086 305.062 355.101 305.017 355.134 304.988L355.141 304.981C355.141 304.981 355.141 304.977 355.149 304.977H355.153C355.153 304.977 355.175 304.955 355.19 304.951C355.215 304.944 355.241 304.94 355.271 304.94H357.584C357.713 304.94 357.817 304.992 357.891 305.099L359.701 307.703C359.723 307.737 359.749 307.762 359.775 307.785C359.801 307.81 359.827 307.829 359.86 307.847C359.919 307.881 359.99 307.895 360.067 307.895H361.527C361.597 307.895 361.649 307.884 361.682 307.869C361.7 307.858 361.712 307.847 361.723 307.833C361.748 307.785 361.73 307.718 361.667 307.626ZM357.591 303.311H355.234C355.153 303.311 355.086 303.248 355.086 303.167L355.079 299.494C355.079 299.413 355.145 299.347 355.226 299.347H357.584L357.599 299.343C357.669 299.343 357.739 299.347 357.806 299.354H357.809C357.869 299.358 357.924 299.365 357.979 299.376C358.057 299.384 358.127 299.402 358.197 299.421C358.264 299.435 358.327 299.454 358.39 299.476C358.445 299.494 358.504 299.517 358.556 299.542C358.611 299.568 358.663 299.594 358.715 299.624C358.837 299.683 358.948 299.757 359.051 299.845C359.088 299.875 359.125 299.904 359.158 299.938C359.177 299.952 359.195 299.971 359.214 299.993C359.232 300.012 359.251 300.026 359.265 300.049C359.295 300.078 359.324 300.111 359.354 300.148C359.376 300.182 359.406 300.222 359.432 300.259C359.439 300.267 359.446 300.278 359.45 300.289H359.454C359.454 300.289 359.457 300.296 359.461 300.303C359.469 300.315 359.472 300.326 359.48 300.337C359.483 300.34 359.487 300.344 359.487 300.348C359.491 300.355 359.494 300.363 359.498 300.37C359.502 300.377 359.505 300.385 359.509 300.388C359.513 300.396 359.52 300.407 359.524 300.414C359.524 300.414 359.535 300.436 359.539 300.448H359.542C359.542 300.448 359.55 300.462 359.55 300.47C359.557 300.477 359.557 300.488 359.561 300.496L359.572 300.518C359.587 300.551 359.602 300.581 359.613 300.614C359.631 300.662 359.646 300.71 359.657 300.762C359.668 300.81 359.679 300.858 359.687 300.909C359.694 300.95 359.701 300.987 359.701 301.028C359.705 301.068 359.709 301.109 359.709 301.149V301.497C359.709 302.498 358.763 303.307 357.591 303.311Z" fill="#4DC679"/>
</svg>
