<svg width="563" height="166" viewBox="0 0 563 166" fill="none" xmlns="http://www.w3.org/2000/svg">
<path d="M199.588 62.8399V37.7536H206.707V62.012C206.707 66.7312 208.942 70.2085 214.572 70.2085C219.787 70.2085 222.436 67.4763 222.436 62.012V37.7536H229.555V62.2603C229.555 71.3676 223.512 76.5835 214.572 76.5835C205.631 76.6663 199.588 72.0299 199.588 62.8399ZM236.26 48.5167H242.634V51.9112H242.717C244.538 49.2618 247.436 48.0199 250.499 48.0199C256.707 48.0199 260.101 51.9112 260.101 58.4519V76.0868H253.561V60.1077C253.561 55.9681 251.823 53.7327 248.429 53.7327C245.035 53.7327 242.717 55.9681 242.717 60.6045V76.004H236.177L236.26 48.5167ZM266.972 37.3396H273.512V44.2943H266.972V37.3396ZM266.972 48.5167H273.512V76.004H266.972V48.5167ZM281.541 69.5461V53.7327H277.816V48.5167H281.541V40.2374H288.081V48.5995H294.041V53.8155H288.081V68.0559C288.081 70.1257 289.157 70.7052 290.647 70.7052C291.972 70.7052 292.717 70.6224 294.041 70.4569V76.004C292.551 76.418 290.151 76.5007 289.24 76.5007C284.935 76.5007 281.541 74.4309 281.541 69.5461ZM297.104 65.4893V60.1077C297.104 52.408 302.899 48.1027 309.687 48.1027C315.647 48.1027 321.525 51.58 321.525 58.8658V64.1646H303.892V65.6549C303.892 69.1322 306.707 71.202 310.266 71.202C312.501 71.202 314.737 69.7117 316.227 67.6419L321.276 70.5396C319.124 74.8449 314.819 76.6663 309.935 76.6663C303.23 76.6663 297.104 73.0234 297.104 65.4893ZM315.068 59.611V58.8658C315.068 55.1401 312.419 53.5671 309.77 53.5671C306.955 53.5671 303.975 55.0574 303.975 59.197V59.611H315.068ZM326.243 65.8204V59.197C326.243 51.7456 331.458 48.0199 337.584 48.0199C340.647 48.0199 343.13 49.593 344.538 51.4145H344.703V37.7536H351.243V76.0868H344.869V73.0234C343.296 75.1761 339.571 76.7491 337.17 76.7491C331.044 76.6663 326.243 72.8579 326.243 65.8204ZM344.703 65.6549V58.8658C344.703 55.5541 342.054 53.5671 338.66 53.5671C335.928 53.5671 332.948 55.0574 332.948 59.0314V65.8204C332.948 69.1322 335.515 71.1192 338.909 71.1192C341.64 71.0364 344.703 69.6289 344.703 65.6549ZM372.104 37.7536H379.057L395.696 63.8334H395.779V37.7536H402.65V76.0868H395.696L379.14 49.9242H379.057V76.0868H372.187L372.104 37.7536ZM408.279 68.2214C408.279 62.9227 413.08 59.7766 418.461 59.7766H425.746V57.2928C425.746 54.395 423.842 53.1531 420.448 53.1531C417.633 53.1531 415.481 54.1466 415.481 55.8853V56.8788H409.604V56.1337C409.604 50.0898 415.315 48.1027 420.531 48.1027C426.656 48.1027 432.286 50.1726 432.286 56.8788V70.2913C432.286 71.5332 432.451 75.59 432.782 76.1696H426.325C426.243 75.7556 426.077 74.0997 426.077 73.6858H425.994C423.594 76.1696 421.524 76.7491 417.964 76.7491C412.17 76.5835 408.279 73.4374 408.279 68.2214ZM425.746 65.9032V64.5786H419.289C416.474 64.5786 414.653 65.5721 414.653 67.9731C414.653 70.3741 416.557 71.4504 419.62 71.4504C424.918 71.4504 425.746 68.8838 425.746 65.9032ZM440.067 69.5461V53.7327H436.342V48.5167H440.067V40.2374H446.607V48.5995H452.567V53.8155H446.607V68.0559C446.607 70.1257 447.683 70.7052 449.173 70.7052C450.497 70.7052 451.242 70.6224 452.567 70.4569V76.004C451.077 76.418 448.676 76.5007 447.766 76.5007C443.461 76.5007 440.067 74.4309 440.067 69.5461ZM456.954 37.3396H463.494V44.2943H456.954V37.3396ZM456.954 48.5167H463.494V76.004H456.954V48.5167ZM469.289 65.9032V59.611C469.289 52.1596 475.663 48.1027 481.706 48.1027C488.328 48.1027 494.288 52.4908 494.288 59.5282V65.1581C494.288 72.6095 487.914 76.6663 481.871 76.6663C475.249 76.6663 469.289 72.9406 469.289 65.9032ZM487.666 65.7377V58.9486C487.666 55.6369 485.1 53.6499 481.706 53.6499C478.974 53.6499 475.994 55.1401 475.994 59.1142V65.9032C475.994 69.215 478.56 71.202 481.954 71.202C484.686 71.202 487.666 69.7117 487.666 65.7377ZM500.166 48.5167H506.54V51.9112H506.623C508.444 49.2618 511.341 48.0199 514.404 48.0199C520.613 48.0199 524.007 51.9112 524.007 58.4519V76.0868H517.467V60.1077C517.467 55.9681 515.729 53.7327 512.335 53.7327C508.941 53.7327 506.623 55.9681 506.623 60.6045V76.004H500.083L500.166 48.5167ZM528.974 71.2848L533.609 67.8075C535.348 70.0429 538.08 71.3676 541.143 71.3676C543.792 71.3676 546.606 70.4569 546.606 67.9731C546.606 65.8204 545.116 65.3237 541.474 64.6613L537.914 63.999C533.444 63.1711 530.381 61.0184 530.381 56.8788C530.381 51.1661 535.431 47.8544 541.308 47.8544C546.275 47.8544 549.752 49.0963 552.07 52.3252L547.351 55.5541C545.778 53.6499 543.874 52.9047 541.225 52.9047C538.576 52.9047 536.755 53.8983 536.755 55.9681C536.755 57.8723 539.156 58.2035 541.97 58.7002L546.109 59.5282C550.745 60.4389 553.477 63.0883 553.477 67.2279C553.477 73.603 547.02 76.5835 541.308 76.5835C536.341 76.6663 531.706 75.3416 528.974 71.2848ZM199.588 121.54V107.879C199.588 100.014 205.548 94.4668 213.827 94.4668C221.525 94.4668 227.237 98.8549 227.237 105.396V107.465H224.009V105.892C224.009 100.676 220.118 97.4474 213.661 97.4474C207.204 97.4474 202.982 101.504 202.982 107.797V120.878C202.982 127.087 207.452 131.061 213.909 131.061C220.366 131.061 224.174 127.75 224.174 122.534V117.069H213.413V114.006H227.403V122.948C227.403 129.737 222.022 134.042 213.909 134.042C205.88 134.207 199.588 129.819 199.588 121.54ZM235.267 127.17V95.1292H238.413V127.336C238.413 129.405 239.571 131.061 242.303 131.061C243.379 131.061 244.373 130.896 245.283 130.813V133.214C243.959 133.628 242.469 133.711 241.31 133.711C236.591 133.711 235.267 130.482 235.267 127.17ZM249.257 123.941V116.738C249.257 109.784 253.975 106.141 260.101 106.141C266.724 106.141 270.945 109.866 270.945 116.655V123.61C270.945 130.565 266.392 134.207 260.184 134.207C253.644 134.207 249.257 130.73 249.257 123.941ZM267.8 123.693V116.407C267.8 112.019 265.399 108.873 260.101 108.873C254.803 108.873 252.402 111.853 252.402 116.655V123.858C252.402 128.412 254.886 131.558 260.184 131.558C265.316 131.475 267.8 128.743 267.8 123.693ZM280.879 128.743H280.714V133.545H277.733V95.212H280.879V111.522H281.045C282.783 107.631 286.591 106.058 289.654 106.058C295.283 106.058 299.091 109.701 299.091 115.331V124.024C299.091 131.227 294.124 134.207 289.074 134.207C285.598 134.207 281.955 132.22 280.879 128.743ZM295.862 124.438V115.331C295.862 111.605 293.214 108.873 288.661 108.873C284.935 108.873 280.879 112.267 280.879 117.814V123.113C280.879 128.246 284.522 131.558 288.743 131.558C292.22 131.475 295.862 129.323 295.862 124.438ZM304.389 126.425C304.389 120.381 309.935 118.394 314.323 118.394H322.187V114.254C322.187 110.032 319.372 108.624 315.399 108.624C312.088 108.624 308.528 109.784 308.528 113.261V114.089H305.631V113.261C305.631 107.962 310.598 105.975 315.564 105.975C320.78 105.975 325.415 107.879 325.415 113.675V126.673C325.415 128.246 325.664 132.22 325.829 133.38H322.684C322.601 132.469 322.435 129.902 322.435 129.157H322.352C320.117 133.297 316.558 133.959 313.246 133.959C308.362 134.042 304.389 131.393 304.389 126.425ZM322.187 123.776V120.795H314.985C311.343 120.795 307.535 121.706 307.535 126.259C307.535 129.819 310.68 131.558 313.992 131.558C319.455 131.641 322.187 128.412 322.187 123.776ZM333.114 127.17V95.1292H336.26V127.336C336.26 129.405 337.419 131.061 340.15 131.061C341.226 131.061 342.22 130.896 343.13 130.813V133.214C341.806 133.628 340.316 133.711 339.157 133.711C334.438 133.711 333.114 130.482 333.114 127.17ZM360.763 121.54V107.879C360.763 100.014 366.723 94.4668 375.084 94.4668C382.783 94.4668 388.494 99.0204 388.494 105.561V107.714H385.183V106.141C385.183 100.925 381.292 97.5302 374.918 97.5302C368.544 97.5302 364.157 101.587 364.157 107.879V120.961C364.157 127.17 368.627 131.144 375.167 131.144C381.706 131.144 385.183 127.667 385.183 122.534V121.623H388.494V123.113C388.494 129.902 382.948 134.207 375.249 134.207C367.054 134.207 360.763 129.819 360.763 121.54ZM393.958 123.941V116.738C393.958 109.784 398.676 106.141 404.802 106.141C411.425 106.141 415.647 109.866 415.647 116.655V123.61C415.647 130.565 411.094 134.207 404.885 134.207C398.345 134.207 393.958 130.73 393.958 123.941ZM412.501 123.693V116.407C412.501 112.019 410.1 108.873 404.802 108.873C399.504 108.873 397.104 111.853 397.104 116.655V123.858C397.104 128.412 399.587 131.558 404.885 131.558C410.017 131.475 412.501 128.743 412.501 123.693ZM422.352 106.72H425.332V111.853H425.415C427.319 108.045 430.878 106.141 434.686 106.141C439.074 106.141 441.474 108.873 442.219 112.019H442.302C444.206 108.21 447.848 106.141 451.822 106.141C457.037 106.141 460.183 109.535 460.183 114.337V133.545H457.037V116.076C457.037 111.274 454.719 108.956 450.828 108.956C446.689 108.956 442.964 112.433 442.799 117.152V133.545H439.653V115.91C439.57 111.274 437.418 108.956 433.527 108.956C429.637 108.956 425.415 112.019 425.415 117.318V133.628H422.269L422.352 106.72ZM468.13 106.72H471.11V111.522H471.193C473.097 107.714 476.904 106.058 479.967 106.058C485.596 106.058 489.404 109.618 489.404 115.165V123.941C489.404 131.144 484.438 134.125 479.471 134.125C475.994 134.125 472.517 132.138 471.358 128.66H471.193V143.894H468.047L468.13 106.72ZM486.259 124.438V115.413C486.259 111.688 483.61 108.79 479.057 108.79C475.332 108.79 471.275 111.936 471.275 117.566V123.03C471.275 128.164 474.918 131.475 479.14 131.475C482.616 131.475 486.259 129.323 486.259 124.438ZM494.785 126.425C494.785 120.381 500.331 118.394 504.719 118.394H512.583V114.254C512.583 110.032 509.769 108.624 505.795 108.624C502.484 108.624 498.924 109.784 498.924 113.261V114.089H496.027V113.261C496.027 107.962 500.994 105.975 505.961 105.975C511.176 105.975 515.812 107.879 515.812 113.675V126.673C515.812 128.246 516.06 132.22 516.225 133.38H513.08C512.997 132.469 512.831 129.902 512.831 129.157H512.749C510.514 133.297 506.954 133.959 503.643 133.959C498.759 134.042 494.785 131.393 494.785 126.425ZM512.583 123.776V120.795H505.381C501.739 120.795 497.931 121.706 497.931 126.259C497.931 129.819 501.077 131.558 504.388 131.558C509.851 131.641 512.583 128.412 512.583 123.776ZM522.02 123.444V117.235C522.02 110.28 526.242 106.141 532.699 106.141C539.156 106.141 542.881 109.701 542.881 114.999V115.827H539.818V114.751C539.818 112.019 537.749 108.79 532.699 108.79C527.649 108.79 525.249 112.35 525.249 116.987V123.444C525.249 128.081 527.484 131.475 532.782 131.475C538.08 131.475 539.818 128.329 539.818 125.514V124.603H542.881V125.266C542.881 130.565 539.073 134.125 532.699 134.125C526.076 134.207 522.02 130.316 522.02 123.444ZM551.076 128.164V109.37H546.109V106.803H551.076V98.3581H554.222V106.803H562.169V109.37H554.222V127.336C554.222 130.233 555.712 131.144 558.444 131.144C559.851 131.144 561.258 130.896 562.5 130.565V133.297C560.762 133.794 558.609 133.959 557.533 133.959C554.139 133.959 551.076 132.717 551.076 128.164ZM112.585 91.5691C112.254 91.3207 112.172 89.9132 112.172 89.9132C111.261 82.8758 109.523 75.7556 106.791 68.801C106.625 68.387 106.542 68.1386 106.542 67.8903C106.542 67.5591 106.708 67.2279 107.536 66.814C111.095 65.1581 113.993 63.0883 116.145 60.9357C116.476 60.6045 116.724 60.4389 116.89 60.4389C117.056 60.4389 117.221 60.6045 117.552 61.1012C120.781 66.6484 123.181 72.8579 124.837 79.3985C125.003 80.1436 125.085 80.7232 125.085 81.1372C125.085 82.0479 124.754 82.7102 123.926 83.5382C121.774 85.6908 117.966 88.7541 113.993 91.1551C113.827 91.1551 112.834 91.7347 112.585 91.5691ZM109.109 99.6828C109.109 99.6828 109.109 98.4409 108.695 98.1925C108.281 97.9441 107.287 98.3581 107.287 98.3581C100.334 100.842 92.718 102.084 84.771 102.332C83.281 102.415 83.3637 102.746 83.281 103.988C83.1982 111.025 83.0326 117.649 82.8671 123.693C82.8671 123.693 82.7843 124.272 83.0326 124.521C83.1982 124.686 83.8604 124.686 83.8604 124.686C91.8074 124.19 99.3405 122.451 106.211 119.636C107.205 119.222 107.37 118.56 107.701 117.4C109.605 109.784 109.109 99.6828 109.109 99.6828ZM106.046 63.585C109.191 61.9292 112.089 59.9421 113.91 58.0379C114.324 57.6239 114.489 57.2928 114.489 56.8788C114.489 56.4648 114.324 56.0509 113.91 55.3885C109.688 49.5102 104.638 44.8738 99.1749 41.3965C97.6021 42.4728 95.1186 43.4663 92.5524 44.0459C97.0226 49.5102 100.996 55.7197 104.225 62.7571C104.556 63.4195 104.721 63.8334 104.97 63.9162C105.301 63.999 105.715 63.7506 106.046 63.585ZM100.582 65.9032C100.996 65.7377 101.244 65.6549 101.41 65.3237C101.493 64.9925 101.244 64.2474 101.244 64.2474C98.1815 56.7132 94.4564 49.8414 90.4829 44.5426C88.3306 44.9566 84.1916 45.205 82.7015 45.205C82.9498 52.8219 83.1154 60.3561 83.1982 67.6419C83.1982 68.3042 83.281 68.6354 83.5293 68.801C83.6949 68.9666 84.026 69.0494 84.3571 69.0494C89.324 68.9666 96.4431 67.4763 100.582 65.9032ZM105.963 122.948C105.963 122.782 105.797 122.782 105.797 122.782C105.632 122.782 105.383 122.865 104.804 123.03C96.112 125.763 88.5789 126.425 83.6949 126.508C83.0326 126.508 82.8671 126.756 82.7843 127.501L82.3704 133.959C82.3704 133.959 92.1385 134.207 102.155 129.985C103.562 128.164 104.721 126.011 105.715 123.61C105.797 123.362 105.88 123.196 105.963 122.948ZM126.244 87.2638C126.244 87.0983 126.079 87.2638 126.079 87.2638C123.761 89.582 119.539 92.7282 114.572 95.212C112.999 96.0399 112.834 96.6195 112.751 98.0269C112.834 106.058 111.84 112.185 110.102 117.4C110.102 117.4 109.936 117.814 110.433 117.566C110.93 117.318 118.132 113.84 123.099 108.79C124.754 107.134 126.079 104.65 126.327 102.001C127.403 93.2249 126.244 87.2638 126.244 87.2638ZM128.728 76.9975C132.039 71.2848 132.039 66.5656 132.039 66.5656C132.039 66.2344 132.039 65.986 131.956 65.8204C130.466 59.2798 126.989 53.0703 121.774 47.3576C121.857 47.9372 121.857 48.4339 121.857 49.0135C121.857 51.0005 121.443 53.0703 120.45 55.2229C120.118 55.9681 119.953 56.4648 119.953 56.8788C119.953 57.2928 120.118 57.5411 120.367 58.0379C120.45 57.8723 125.748 65.0753 128.728 76.9975ZM53.1487 93.2249C53.6454 85.1112 55.8805 76.5835 58.9434 68.4698C59.0261 68.3042 59.0261 68.1386 59.0261 68.0559C59.0261 67.8075 58.8606 67.6419 58.4467 67.4763C53.3143 65.2409 49.4236 62.1776 46.8573 58.8658C46.8573 58.8658 46.6918 58.7002 46.8573 58.5347C47.0229 58.3691 47.1885 58.5347 47.1885 58.5347C50.0858 61.3496 54.3076 63.6678 59.1917 65.4893C59.4401 65.5721 59.5228 65.5721 59.6884 65.5721C59.9367 65.5721 60.1023 65.4065 60.4334 64.7441C63.7447 57.1272 68.0493 49.9242 72.9333 43.9631C68.7943 42.9696 64.5725 40.7342 63.5791 38.3332C63.5791 38.3332 63.4135 38.0848 63.6619 37.9192C63.9102 37.8364 64.0758 38.0848 64.0758 38.0848C68.6287 43.0524 81.9565 42.7212 81.9565 42.7212C87.5028 42.7212 99.0094 40.817 99.0094 36.0978C99.0094 31.8753 92.8836 29.6399 81.7909 29.4743C48.1818 29.4743 30.1356 58.6175 30.1356 81.7167C30.1356 109.618 53.8109 133.959 81.2114 133.959C81.2114 133.545 80.8803 127.418 80.8803 127.418C80.8803 126.756 80.7148 126.508 79.8869 126.425C79.8869 126.425 67.9665 125.514 64.0758 123.527C63.9102 123.444 63.993 123.279 64.2413 123.279C64.2413 123.279 72.2711 124.686 79.9697 124.686C79.9697 124.686 80.7975 124.769 80.7975 123.776C80.7975 122.948 80.4664 103.988 80.4664 103.988C80.3836 102.581 80.2181 102.332 78.8108 102.249C70.5327 101.835 62.4202 100.097 55.3838 97.1162C55.2182 97.0334 55.1354 97.0334 54.9699 97.0334C54.8043 97.1162 54.8043 97.4474 54.8043 97.4474C54.1421 106.223 55.1354 114.751 55.1354 114.751C55.1354 114.917 55.1354 114.999 54.9699 114.999C54.8043 114.999 54.8043 114.834 54.8043 114.834C53.5626 110.115 52.9004 104.982 52.9004 99.5172C52.9004 99.1032 52.9831 96.8678 52.9831 96.8678C52.9831 96.2883 52.7348 95.8743 52.2381 95.6259C48.9269 93.9701 45.9468 91.9002 43.2978 89.8304C43.2978 89.8304 43.1322 89.6648 43.2978 89.4992C43.4633 89.4165 43.5461 89.4992 43.5461 89.4992C46.2779 91.2379 49.4236 92.7282 52.652 94.0529H53.0659C53.0659 93.9701 53.0659 93.7217 53.1487 93.2249ZM117.635 52.3252C118.546 50.007 118.711 46.7781 117.718 44.4599C116.807 42.3072 113.91 40.0718 113.91 40.0718C109.44 36.5945 104.473 34.4419 102.155 33.5312C102.569 34.2763 102.817 35.0214 102.817 35.7666C102.817 37.0913 102.155 38.416 100.996 39.8234C106.874 43.218 111.758 47.2748 116.062 52.2424C116.062 52.2424 116.724 53.0703 117.138 53.0703C117.387 52.9875 117.635 52.3252 117.635 52.3252ZM130.301 90.8239C130.301 94.384 129.969 97.9441 129.307 101.256C132.205 96.2883 134.522 89.0025 134.522 80.5576C134.522 78.1566 134.357 75.7556 133.943 73.2718C133.446 75.7556 132.618 78.2394 131.211 80.5576C130.301 82.1307 129.887 83.207 130.052 84.2833C130.218 87.7606 130.301 90.8239 130.301 90.8239ZM107.784 123.444C106.874 125.349 105.797 127.17 104.638 128.826C110.847 125.763 117.883 119.719 122.685 113.509C118.96 116.49 114.738 119.056 109.936 121.043C109.026 121.54 108.198 122.616 107.784 123.444ZM80.4664 73.6858C80.4664 72.6095 79.9697 72.0299 78.9764 71.9471C72.8506 71.6988 66.9731 70.5396 61.7579 68.7182C61.5096 68.6354 61.344 68.5526 61.1785 68.5526C61.0129 68.5526 60.8473 68.6354 60.7645 69.0494C55.9633 81.1372 54.9699 94.2185 54.9699 94.2185C54.8871 94.798 55.0527 94.9636 55.4666 95.1292C55.4666 95.1292 65.6486 99.0204 78.728 99.0204C78.728 99.0204 79.6386 99.0204 79.8869 98.7721C80.2181 98.4409 80.3009 98.1925 80.2181 97.1162C80.3836 90.7411 80.4664 73.6858 80.4664 73.6858ZM62.2546 65.4065C61.9235 66.0688 62.089 66.3172 62.089 66.3172C62.1718 66.4828 62.4202 66.5656 62.4202 66.5656C66.3109 67.8903 73.8439 69.1322 79.1419 69.1322C79.7214 69.1322 80.0525 69.0494 80.3009 68.801C80.5492 68.5526 80.632 68.1386 80.7148 67.4763C80.8803 60.1905 81.0459 52.5736 81.4598 45.205C79.2247 45.1222 76.4101 44.791 74.5062 44.3771C69.5393 50.5865 65.4831 57.6239 62.2546 65.4065ZM84.5227 98.9377C88.165 98.7721 97.5193 98.1097 106.956 94.4668C108.281 93.9701 108.529 93.3905 108.529 92.397C108.529 92.1486 108.529 91.9002 108.446 91.5691C107.536 84.3661 105.797 77.1631 103.397 69.9601C103.066 69.0494 102.9 68.8838 102.652 68.8838C102.486 68.8838 102.238 68.9666 101.907 69.0494C96.6915 70.788 90.9796 71.7815 84.9366 71.9471C83.7777 72.0299 83.4465 72.7751 83.4465 73.603C83.4465 77.3287 83.5293 83.207 83.5293 91.1551V97.7785C83.5293 97.7785 83.5293 98.3581 83.7777 98.6893C83.7777 98.9377 84.1088 99.0204 84.5227 98.9377ZM4.88739 117.318C8.86088 127.915 18.7118 128.826 25.3343 135.284C26.576 136.526 27.8177 137.685 29.225 138.43L29.3078 138.347C27.7349 136.691 25.9965 134.87 24.9204 132.717C21.0297 126.342 22.437 117.318 19.4568 110.446C22.1058 114.172 24.5065 118.063 26.0793 122.368C28.48 129.323 29.3906 137.188 34.8541 142.404C28.8939 140.086 21.9403 140.583 16.6423 136.36C11.1787 131.972 5.96354 125.1 4.88739 117.318ZM60.1851 147.786C61.0129 147.786 61.6751 147.537 61.6751 147.537C56.5427 146.378 52.1553 145.467 47.7679 141.742C41.9733 136.857 37.5031 131.972 31.0462 127.998C31.874 128.495 35.5163 136.029 38.5792 140.5C40.7316 143.646 44.1256 145.385 47.1885 146.13C49.7547 146.792 50.3341 147.04 50.3341 147.04C50.3341 147.04 49.9202 147.289 48.9269 147.04C48.9269 147.04 40.4004 145.302 35.7647 145.302C17.3873 145.302 12.586 138.264 12.586 138.264C18.0496 148.117 29.3078 151.842 36.6753 151.842C47.2712 151.76 55.1354 147.786 60.1851 147.786ZM127.817 151.76C135.185 151.76 146.443 148.117 151.906 138.182C151.906 138.182 147.105 145.219 128.728 145.219C124.092 145.219 115.566 146.958 115.566 146.958C114.572 147.206 114.158 146.958 114.158 146.958C114.158 146.958 114.738 146.709 117.304 146.047C120.284 145.302 123.761 143.563 125.913 140.417C128.976 135.946 132.618 128.412 133.446 127.915C126.989 131.889 122.519 136.857 116.724 141.659C112.337 145.302 107.95 146.295 102.817 147.454C102.817 147.454 103.48 147.703 104.307 147.703C109.44 147.786 117.304 151.76 127.817 151.76ZM13.4138 122.285C15.235 123.858 18.9602 127.253 19.6224 128.246C19.6224 128.246 19.2085 126.839 18.7946 125.1C18.3807 123.362 17.8012 119.139 16.0628 115.496C14.7383 112.599 9.10922 103.326 8.03307 98.1925C8.03307 98.1925 3.9768 114.254 13.4138 122.285ZM129.638 142.404C135.599 140.086 142.469 140.583 147.767 136.36C153.314 131.972 158.612 125.1 159.688 117.318C155.714 127.915 145.863 128.743 139.158 135.201C137.916 136.443 136.675 137.602 135.267 138.347L135.185 138.264C136.675 136.608 138.496 134.787 139.572 132.634C143.463 126.259 142.055 117.235 145.036 110.363C142.387 114.089 139.986 117.98 138.413 122.285C136.012 129.323 135.102 137.105 129.638 142.404ZM114.986 153.995C105.797 150.269 96.2776 145.55 85.2677 147.786C84.026 148.034 83.0326 148.282 81.8737 148.282C80.7975 148.282 79.8042 148.034 78.5625 147.786C67.4698 145.55 57.95 150.269 48.7613 153.995C41.8905 156.479 32.9501 156.065 26.9071 152.256C29.8872 155.734 33.8607 157.886 37.9998 159.377C45.6156 162.192 54.7215 160.287 61.0129 156.148C66.4764 153.333 71.1122 147.703 78.2313 149.773C70.9466 152.919 64.3241 157.39 58.2811 163.102L62.0063 166C62.0063 166 69.0426 156.479 81.7909 150.766C94.4564 156.479 101.576 166 101.576 166L105.383 163.102C99.3405 157.39 92.718 153.001 85.4333 149.773C92.5524 147.62 97.271 153.25 102.652 156.148C109.026 160.287 118.049 162.192 125.748 159.377C129.887 157.886 133.86 155.734 136.84 152.256C130.797 156.148 121.857 156.562 114.986 153.995ZM151.161 122.285C160.598 114.254 156.625 98.1925 156.625 98.1925C155.549 103.326 149.92 112.681 148.595 115.496C146.857 119.139 146.277 123.362 145.863 125.1C145.449 126.839 145.036 128.246 145.036 128.246C145.615 127.253 149.34 123.858 151.161 122.285ZM2.15562 76.6663C4.97017 76.9147 7.70194 77.1631 10.5165 77.4115C12.7516 77.5771 13.9105 76.7491 14.0761 74.5965C14.1589 73.603 14.0761 72.8578 13.6622 72.1955C13.1655 71.3676 12.4205 70.9536 10.8476 70.788C8.19863 70.4569 5.46686 70.2085 2.81787 69.8773C2.48674 70.4569 2.2384 71.0364 1.90728 71.616C1.74171 71.616 1.49337 71.616 1.32781 71.5332C1.49337 69.7945 1.74171 68.0559 1.90728 66.3172C2.07284 66.3172 2.32118 66.4 2.48674 66.4C2.65231 67.0623 2.81787 67.6419 2.98343 68.3042C5.54964 68.6354 8.11585 68.8838 10.6821 69.215C12.586 69.4633 13.745 70.1257 14.49 71.4504C15.0695 72.5267 15.3178 73.7686 15.1522 75.3416C14.8211 78.6534 13.0827 80.392 10.2682 80.1436C7.4536 79.8953 4.72183 79.7297 1.90728 79.4813C1.57615 80.0608 1.32781 80.6404 1.07947 81.2199C0.913905 81.2199 0.665562 81.2199 0.5 81.1372C0.665562 78.9845 0.831124 76.9147 0.996686 74.7621C1.16225 74.7621 1.41059 74.7621 1.57615 74.8449C1.8245 75.5072 1.99006 76.0868 2.15562 76.6663ZM6.62579 60.2733C9.60591 61.2668 12.6688 62.2603 15.6489 63.2539C16.0628 62.8399 16.4767 62.3431 16.8906 61.9292C17.0562 62.012 17.2218 62.012 17.4701 62.0948C16.9734 63.585 16.4767 65.0753 15.98 66.5656C15.8145 66.4828 15.5661 66.4828 15.4006 66.4C15.3178 65.7376 15.3178 65.1581 15.235 64.4958C11.6754 63.3367 8.11585 62.1776 4.55627 61.0184C4.14236 61.5152 3.72846 62.012 3.31455 62.5087C3.23177 62.5087 2.98343 62.5087 2.81787 62.4259C3.23177 61.1012 3.64568 59.7766 4.14236 58.3691C7.86751 57.0444 11.5926 55.7197 15.3178 54.4778C12.8344 53.5671 10.2682 52.6564 7.78473 51.8284C7.37082 52.2424 6.95692 52.7392 6.54301 53.2359C6.37745 53.1531 6.21189 53.1531 5.96354 53.0703C6.46023 51.4973 7.0397 49.9242 7.61916 48.4339C7.78473 48.5167 7.95029 48.5995 8.11585 48.5995C8.11585 49.2618 8.11585 49.9242 8.19863 50.5865C12.1721 51.994 16.1456 53.4843 20.1191 54.8918C20.0363 55.2229 19.8707 55.5541 19.788 55.8853C15.4006 57.21 11.0132 58.7002 6.62579 60.2733ZM26.2449 35.9322L29.3906 38.1676C28.6455 40.0718 28.0661 41.2309 27.321 42.3072C24.7548 45.8673 21.1952 46.6125 17.6357 44.0459C14.0761 41.5621 12.9171 37.9192 15.98 33.614C16.6423 32.6204 17.7184 31.6269 19.0429 30.385L19.2913 30.1367L22.0231 32.1237L21.4436 32.9516L18.7118 32.3721C18.2979 32.6204 18.0496 32.8688 17.8012 33.2C15.1522 36.5117 15.98 39.5751 19.2085 41.8933C22.1058 43.9631 25.1687 43.4663 27.0727 40.817C27.4038 40.3202 27.4866 39.989 27.4866 39.989L24.7548 38.0848L23.0992 39.0783L22.6025 38.7471L26.1621 33.8623L26.6588 34.1935L26.2449 35.9322ZM31.9568 34.4419L24.0098 26.411L22.2714 27.0733L21.8575 26.6594L26.2449 22.3541L26.6588 22.7681L25.9138 24.5067L33.9435 32.7032L36.4269 30.2194L35.5991 27.4873L36.1786 26.8249L38.4137 29.5571C38.4137 29.5571 34.9369 32.8688 31.5429 36.4289L31.129 36.015L31.9568 34.4419ZM35.8475 23.3476C33.2813 19.6219 33.8607 15.6479 37.7514 13.1641C41.311 10.9287 44.7878 11.9222 46.8573 15.3167C49.0924 19.0424 48.513 23.0993 44.9534 25.4175C41.7249 27.5701 38.1653 26.6594 35.8475 23.3476ZM37.917 21.4434C40.0693 24.5067 42.8011 25.5002 44.705 24.3411C46.5262 23.182 46.609 20.2843 44.705 17.0554C42.8839 14.0748 40.3176 12.7501 38.0826 14.2404C35.5991 15.7307 35.7647 18.4628 37.917 21.4434ZM53.2315 19.1252L48.7613 8.69327H46.9401L46.6918 8.19651L52.9831 5.54713C54.4732 4.96758 55.3838 4.88479 56.3772 5.21596C57.2877 5.54713 57.8672 6.12668 58.1983 6.95461C58.8606 8.69327 57.95 10.4319 55.7149 11.591C58.4467 10.5975 60.2679 11.1771 61.0957 13.1641C61.5096 14.2404 61.344 15.3995 60.7645 16.3102C60.1851 17.2209 59.2745 17.8005 57.5361 18.5456L52.1553 20.9466L51.907 20.4499L53.2315 19.1252ZM53.3143 12.2534L54.1421 11.9222C55.7149 11.2598 56.3772 9.85237 55.7149 8.2793C55.1354 6.70623 53.8937 6.12668 52.3209 6.78903L51.162 7.36858L53.3143 12.2534ZM55.7977 18.2973L56.5427 17.9661C57.6189 17.5521 58.1156 17.2209 58.4467 16.4758C58.7778 15.8135 58.7778 14.9855 58.4467 14.2404C57.7844 12.5017 56.3772 12.005 54.556 12.7501L53.5626 13.1641L55.7977 18.2973ZM66.5592 10.2663L65.8142 14.4888L67.5526 14.9027L67.6354 15.4823L63.0824 16.5586L62.9996 15.9791L64.4069 14.9855L67.5526 1.2419L68.546 1.07631L75.6651 12.9157L77.3207 13.3297L77.4035 13.9092L71.5261 14.7372L71.4433 14.1576L72.8506 13.1641L70.781 9.4384L66.5592 10.2663ZM66.7248 9.27282L70.2016 8.61047L67.8009 4.22244L66.7248 9.27282ZM80.3009 12.6673L80.3836 1.40748L78.6452 0.662344V0.082793C81.8737 0 84.771 0 84.771 0V0.579551L83.0326 1.32469L82.8671 12.8329L86.0955 12.9157L87.42 10.4319H88.2478L87.9167 13.992C87.9167 13.992 82.7015 13.7436 78.3969 13.9092V13.3297L80.3009 12.6673ZM103.562 16.1446L105.301 13.7436L106.211 13.992L105.135 17.2209H104.804C102.9 17.1382 101.824 17.0554 100.582 16.7242C96.5259 15.6479 94.7875 12.5017 95.6981 8.36209C96.6915 4.05686 99.7544 1.98703 104.887 3.22893C106.129 3.47731 107.37 4.13965 108.86 4.96758L107.95 8.2793L107.039 8.11372L106.791 5.13317C106.791 5.13317 106.294 4.88479 105.715 4.7192C101.244 3.5601 99.0921 5.71272 98.3471 9.10723C97.5193 12.5845 99.0094 15.2339 102.072 16.1446C102.734 15.9791 103.066 16.0618 103.562 16.1446ZM129.473 27.3217L138.993 23.0165L142.138 26.1626L141.724 26.5766L139.903 25.997L132.122 34.0279L133.032 35.7666L132.618 36.1805C130.549 34.1107 128.479 32.1237 128.479 32.1237L128.893 31.6269L130.632 32.2065L136.923 25.583L126.41 30.2194L125.996 29.8883L129.142 18.794L123.43 25.997L124.258 27.6529L123.844 28.0668L119.87 25.2519L120.284 24.8379L122.105 25.4175L129.224 16.807L128.397 15.1511L128.811 14.7372L132.453 17.3865L129.473 27.3217ZM141.062 37.4224L137.503 40.0718L137.916 41.8933L137.503 42.2244C135.764 39.8234 133.777 37.4224 133.777 37.4224L134.274 37.0913L135.847 38.002L144.622 31.1302L144.208 29.3915L144.704 29.0603L148.347 33.7795C149.589 35.4354 149.92 36.4289 150.002 37.588C150.002 38.7471 149.506 39.7407 148.512 40.4858C146.443 41.9761 143.877 41.2309 141.973 38.6643L141.062 37.4224ZM142.221 37.4224C142.883 38.3332 143.38 38.6643 143.959 38.8299C144.87 38.9955 145.863 38.9127 146.691 38.2504C147.519 37.6708 148.016 36.9257 148.098 36.1805C148.181 35.4354 148.016 34.8559 147.436 34.1107L146.608 33.1172L141.724 36.9257L142.221 37.4224ZM146.608 46.8608L142.387 47.192L142.469 48.9307L141.973 49.1791C140.897 47.192 139.655 45.1222 139.655 45.1222L140.151 44.791L141.476 45.9501L155.549 45.1222L156.045 46.2813L146.608 56.2165L146.691 57.9551L146.195 58.2035C145.036 55.3885 143.959 52.8219 143.959 52.8219L144.456 52.5736L145.781 53.6499L148.595 50.6693L146.608 46.8608ZM147.685 46.7781L149.257 49.9242L152.817 46.4469L147.685 46.7781ZM149.754 67.1451L152.817 67.4763L153.065 68.387L149.754 69.0494L149.589 68.801C148.595 67.1451 148.181 66.1516 147.85 64.9925C146.691 60.8529 148.512 57.9551 152.651 56.5476C156.956 55.1402 160.516 57.2928 161.675 61.8464C162.006 63.0883 162.171 64.5786 162.171 66.2344L158.86 67.0623L158.612 66.1516L161.012 64.4958C161.012 64.1646 160.93 63.6678 160.847 63.2539C159.771 59.4454 156.956 57.9551 153.396 59.1142C149.92 60.2733 148.347 62.5915 149.257 65.8204C149.34 66.3172 149.506 66.6484 149.754 67.1451ZM162.668 76.9147L151.327 77.7426L150.747 80.0608L150.168 80.1436C150.085 76.418 149.589 73.0234 149.589 73.0234L150.168 72.9406L151.079 75.1761L162.42 74.3481L162.171 71.4504L159.274 70.6224L159.191 69.7945L163.082 69.4633C163.082 69.4633 163.992 75.59 163.992 81.6339L160.102 81.9651L160.019 81.1372L162.751 79.8953L162.668 76.9147ZM110.019 12.419C111.923 8.2793 115.731 6.78903 119.787 8.94165C123.595 10.8459 124.423 14.406 122.519 17.8833C120.45 21.6918 116.559 23.2648 112.834 21.3606C109.357 19.6219 108.281 16.1446 110.019 12.419ZM112.668 13.1641C111.095 16.5586 111.592 19.4564 113.579 20.4499C115.483 21.4434 118.049 20.0359 119.87 16.8898C121.526 13.8264 121.36 10.9287 118.96 9.68678C116.476 8.36209 114.241 9.85237 112.668 13.1641ZM112.585 91.5691C112.254 91.3207 112.172 89.9132 112.172 89.9132C111.261 82.8758 109.523 75.7556 106.791 68.801C106.625 68.387 106.542 68.1386 106.542 67.8903C106.542 67.5591 106.708 67.2279 107.536 66.814C111.095 65.1581 113.993 63.0883 116.145 60.9357C116.476 60.6045 116.724 60.4389 116.89 60.4389C117.056 60.4389 117.221 60.6045 117.552 61.1012C120.781 66.6484 123.181 72.8579 124.837 79.3985C125.003 80.1436 125.085 80.7232 125.085 81.1372C125.085 82.0479 124.754 82.7102 123.926 83.5382C121.774 85.6908 117.966 88.7541 113.993 91.1551C113.827 91.1551 112.834 91.7347 112.585 91.5691ZM109.109 99.6828C109.109 99.6828 109.109 98.4409 108.695 98.1925C108.281 97.9441 107.287 98.3581 107.287 98.3581C100.334 100.842 92.718 102.084 84.771 102.332C83.281 102.415 83.3637 102.746 83.281 103.988C83.1982 111.025 83.0326 117.649 82.8671 123.693C82.8671 123.693 82.7843 124.272 83.0326 124.521C83.1982 124.686 83.8604 124.686 83.8604 124.686C91.8074 124.19 99.3405 122.451 106.211 119.636C107.205 119.222 107.37 118.56 107.701 117.4C109.605 109.784 109.109 99.6828 109.109 99.6828ZM106.046 63.585C109.191 61.9292 112.089 59.9421 113.91 58.0379C114.324 57.6239 114.489 57.2928 114.489 56.8788C114.489 56.4648 114.324 56.0509 113.91 55.3885C109.688 49.5102 104.638 44.8738 99.1749 41.3965C97.6021 42.4728 95.1186 43.4663 92.5524 44.0459C97.0226 49.5102 100.996 55.7197 104.225 62.7571C104.556 63.4195 104.721 63.8334 104.97 63.9162C105.301 63.999 105.715 63.7506 106.046 63.585ZM100.582 65.9032C100.996 65.7377 101.244 65.6549 101.41 65.3237C101.493 64.9925 101.244 64.2474 101.244 64.2474C98.1815 56.7132 94.4564 49.8414 90.4829 44.5426C88.3306 44.9566 84.1916 45.205 82.7015 45.205C82.9498 52.8219 83.1154 60.3561 83.1982 67.6419C83.1982 68.3042 83.281 68.6354 83.5293 68.801C83.6949 68.9666 84.026 69.0494 84.3571 69.0494C89.324 68.9666 96.4431 67.4763 100.582 65.9032ZM105.963 122.948C105.963 122.782 105.797 122.782 105.797 122.782C105.632 122.782 105.383 122.865 104.804 123.03C96.112 125.763 88.5789 126.425 83.6949 126.508C83.0326 126.508 82.8671 126.756 82.7843 127.501L82.3704 133.959C82.3704 133.959 92.1385 134.207 102.155 129.985C103.562 128.164 104.721 126.011 105.715 123.61C105.797 123.362 105.88 123.196 105.963 122.948ZM126.244 87.2638C126.244 87.0983 126.079 87.2638 126.079 87.2638C123.761 89.582 119.539 92.7282 114.572 95.212C112.999 96.0399 112.834 96.6195 112.751 98.0269C112.834 106.058 111.84 112.185 110.102 117.4C110.102 117.4 109.936 117.814 110.433 117.566C110.93 117.318 118.132 113.84 123.099 108.79C124.754 107.134 126.079 104.65 126.327 102.001C127.403 93.2249 126.244 87.2638 126.244 87.2638ZM128.728 76.9975C132.039 71.2848 132.039 66.5656 132.039 66.5656C132.039 66.2344 132.039 65.986 131.956 65.8204C130.466 59.2798 126.989 53.0703 121.774 47.3576C121.857 47.9372 121.857 48.4339 121.857 49.0135C121.857 51.0005 121.443 53.0703 120.45 55.2229C120.118 55.9681 119.953 56.4648 119.953 56.8788C119.953 57.2928 120.118 57.5411 120.367 58.0379C120.45 57.8723 125.748 65.0753 128.728 76.9975ZM53.1487 93.2249C53.6454 85.1112 55.8805 76.5835 58.9434 68.4698C59.0261 68.3042 59.0261 68.1386 59.0261 68.0559C59.0261 67.8075 58.8606 67.6419 58.4467 67.4763C53.3143 65.2409 49.4236 62.1776 46.8573 58.8658C46.8573 58.8658 46.6918 58.7002 46.8573 58.5347C47.0229 58.3691 47.1885 58.5347 47.1885 58.5347C50.0858 61.3496 54.3076 63.6678 59.1917 65.4893C59.4401 65.5721 59.5228 65.5721 59.6884 65.5721C59.9367 65.5721 60.1023 65.4065 60.4334 64.7441C63.7447 57.1272 68.0493 49.9242 72.9333 43.9631C68.7943 42.9696 64.5725 40.7342 63.5791 38.3332C63.5791 38.3332 63.4135 38.0848 63.6619 37.9192C63.9102 37.8364 64.0758 38.0848 64.0758 38.0848C68.6287 43.0524 81.9565 42.7212 81.9565 42.7212C87.5028 42.7212 99.0094 40.817 99.0094 36.0978C99.0094 31.8753 92.8836 29.6399 81.7909 29.4743C48.1818 29.4743 30.1356 58.6175 30.1356 81.7167C30.1356 109.618 53.8109 133.959 81.2114 133.959C81.2114 133.545 80.8803 127.418 80.8803 127.418C80.8803 126.756 80.7148 126.508 79.8869 126.425C79.8869 126.425 67.9665 125.514 64.0758 123.527C63.9102 123.444 63.993 123.279 64.2413 123.279C64.2413 123.279 72.2711 124.686 79.9697 124.686C79.9697 124.686 80.7975 124.769 80.7975 123.776C80.7975 122.948 80.4664 103.988 80.4664 103.988C80.3836 102.581 80.2181 102.332 78.8108 102.249C70.5327 101.835 62.4202 100.097 55.3838 97.1162C55.2182 97.0334 55.1354 97.0334 54.9699 97.0334C54.8043 97.1162 54.8043 97.4474 54.8043 97.4474C54.1421 106.223 55.1354 114.751 55.1354 114.751C55.1354 114.917 55.1354 114.999 54.9699 114.999C54.8043 114.999 54.8043 114.834 54.8043 114.834C53.5626 110.115 52.9004 104.982 52.9004 99.5172C52.9004 99.1032 52.9831 96.8678 52.9831 96.8678C52.9831 96.2883 52.7348 95.8743 52.2381 95.6259C48.9269 93.9701 45.9468 91.9002 43.2978 89.8304C43.2978 89.8304 43.1322 89.6648 43.2978 89.4992C43.4633 89.4165 43.5461 89.4992 43.5461 89.4992C46.2779 91.2379 49.4236 92.7282 52.652 94.0529H53.0659C53.0659 93.9701 53.0659 93.7217 53.1487 93.2249ZM117.635 52.3252C118.546 50.007 118.711 46.7781 117.718 44.4599C116.807 42.3072 113.91 40.0718 113.91 40.0718C109.44 36.5945 104.473 34.4419 102.155 33.5312C102.569 34.2763 102.817 35.0214 102.817 35.7666C102.817 37.0913 102.155 38.416 100.996 39.8234C106.874 43.218 111.758 47.2748 116.062 52.2424C116.062 52.2424 116.724 53.0703 117.138 53.0703C117.387 52.9875 117.635 52.3252 117.635 52.3252ZM130.301 90.8239C130.301 94.384 129.969 97.9441 129.307 101.256C132.205 96.2883 134.522 89.0025 134.522 80.5576C134.522 78.1566 134.357 75.7556 133.943 73.2718C133.446 75.7556 132.618 78.2394 131.211 80.5576C130.301 82.1307 129.887 83.207 130.052 84.2833C130.218 87.7606 130.301 90.8239 130.301 90.8239ZM107.784 123.444C106.874 125.349 105.797 127.17 104.638 128.826C110.847 125.763 117.883 119.719 122.685 113.509C118.96 116.49 114.738 119.056 109.936 121.043C109.026 121.54 108.198 122.616 107.784 123.444ZM80.4664 73.6858C80.4664 72.6095 79.9697 72.0299 78.9764 71.9471C72.8506 71.6988 66.9731 70.5396 61.7579 68.7182C61.5096 68.6354 61.344 68.5526 61.1785 68.5526C61.0129 68.5526 60.8473 68.6354 60.7645 69.0494C55.9633 81.1372 54.9699 94.2185 54.9699 94.2185C54.8871 94.798 55.0527 94.9636 55.4666 95.1292C55.4666 95.1292 65.6486 99.0204 78.728 99.0204C78.728 99.0204 79.6386 99.0204 79.8869 98.7721C80.2181 98.4409 80.3009 98.1925 80.2181 97.1162C80.3836 90.7411 80.4664 73.6858 80.4664 73.6858ZM62.2546 65.4065C61.9235 66.0688 62.089 66.3172 62.089 66.3172C62.1718 66.4828 62.4202 66.5656 62.4202 66.5656C66.3109 67.8903 73.8439 69.1322 79.1419 69.1322C79.7214 69.1322 80.0525 69.0494 80.3009 68.801C80.5492 68.5526 80.632 68.1386 80.7148 67.4763C80.8803 60.1905 81.0459 52.5736 81.4598 45.205C79.2247 45.1222 76.4101 44.791 74.5062 44.3771C69.5393 50.5865 65.4831 57.6239 62.2546 65.4065ZM84.5227 98.9377C88.165 98.7721 97.5193 98.1097 106.956 94.4668C108.281 93.9701 108.529 93.3905 108.529 92.397C108.529 92.1486 108.529 91.9002 108.446 91.5691C107.536 84.3661 105.797 77.1631 103.397 69.9601C103.066 69.0494 102.9 68.8838 102.652 68.8838C102.486 68.8838 102.238 68.9666 101.907 69.0494C96.6915 70.788 90.9796 71.7815 84.9366 71.9471C83.7777 72.0299 83.4465 72.7751 83.4465 73.603C83.4465 77.3287 83.5293 83.207 83.5293 91.1551V97.7785C83.5293 97.7785 83.5293 98.3581 83.7777 98.6893C83.7777 98.9377 84.1088 99.0204 84.5227 98.9377ZM4.88739 117.318C8.86088 127.915 18.7118 128.826 25.3343 135.284C26.576 136.526 27.8177 137.685 29.225 138.43L29.3078 138.347C27.7349 136.691 25.9965 134.87 24.9204 132.717C21.0297 126.342 22.437 117.318 19.4568 110.446C22.1058 114.172 24.5065 118.063 26.0793 122.368C28.48 129.323 29.3906 137.188 34.8541 142.404C28.8939 140.086 21.9403 140.583 16.6423 136.36C11.1787 131.972 5.96354 125.1 4.88739 117.318ZM60.1851 147.786C61.0129 147.786 61.6751 147.537 61.6751 147.537C56.5427 146.378 52.1553 145.467 47.7679 141.742C41.9733 136.857 37.5031 131.972 31.0462 127.998C31.874 128.495 35.5163 136.029 38.5792 140.5C40.7316 143.646 44.1256 145.385 47.1885 146.13C49.7547 146.792 50.3341 147.04 50.3341 147.04C50.3341 147.04 49.9202 147.289 48.9269 147.04C48.9269 147.04 40.4004 145.302 35.7647 145.302C17.3873 145.302 12.586 138.264 12.586 138.264C18.0496 148.117 29.3078 151.842 36.6753 151.842C47.2712 151.76 55.1354 147.786 60.1851 147.786ZM127.817 151.76C135.185 151.76 146.443 148.117 151.906 138.182C151.906 138.182 147.105 145.219 128.728 145.219C124.092 145.219 115.566 146.958 115.566 146.958C114.572 147.206 114.158 146.958 114.158 146.958C114.158 146.958 114.738 146.709 117.304 146.047C120.284 145.302 123.761 143.563 125.913 140.417C128.976 135.946 132.618 128.412 133.446 127.915C126.989 131.889 122.519 136.857 116.724 141.659C112.337 145.302 107.95 146.295 102.817 147.454C102.817 147.454 103.48 147.703 104.307 147.703C109.44 147.786 117.304 151.76 127.817 151.76ZM13.4138 122.285C15.235 123.858 18.9602 127.253 19.6224 128.246C19.6224 128.246 19.2085 126.839 18.7946 125.1C18.3807 123.362 17.8012 119.139 16.0628 115.496C14.7383 112.599 9.10922 103.326 8.03307 98.1925C8.03307 98.1925 3.9768 114.254 13.4138 122.285ZM129.638 142.404C135.599 140.086 142.469 140.583 147.767 136.36C153.314 131.972 158.612 125.1 159.688 117.318C155.714 127.915 145.863 128.743 139.158 135.201C137.916 136.443 136.675 137.602 135.267 138.347L135.185 138.264C136.675 136.608 138.496 134.787 139.572 132.634C143.463 126.259 142.055 117.235 145.036 110.363C142.387 114.089 139.986 117.98 138.413 122.285C136.012 129.323 135.102 137.105 129.638 142.404ZM114.986 153.995C105.797 150.269 96.2776 145.55 85.2677 147.786C84.026 148.034 83.0326 148.282 81.8737 148.282C80.7975 148.282 79.8042 148.034 78.5625 147.786C67.4698 145.55 57.95 150.269 48.7613 153.995C41.8905 156.479 32.9501 156.065 26.9071 152.256C29.8872 155.734 33.8607 157.886 37.9998 159.377C45.6156 162.192 54.7215 160.287 61.0129 156.148C66.4764 153.333 71.1122 147.703 78.2313 149.773C70.9466 152.919 64.3241 157.39 58.2811 163.102L62.0063 166C62.0063 166 69.0426 156.479 81.7909 150.766C94.4564 156.479 101.576 166 101.576 166L105.383 163.102C99.3405 157.39 92.718 153.001 85.4333 149.773C92.5524 147.62 97.271 153.25 102.652 156.148C109.026 160.287 118.049 162.192 125.748 159.377C129.887 157.886 133.86 155.734 136.84 152.256C130.797 156.148 121.857 156.562 114.986 153.995ZM151.161 122.285C160.598 114.254 156.625 98.1925 156.625 98.1925C155.549 103.326 149.92 112.681 148.595 115.496C146.857 119.139 146.277 123.362 145.863 125.1C145.449 126.839 145.036 128.246 145.036 128.246C145.615 127.253 149.34 123.858 151.161 122.285ZM2.15562 76.6663C4.97017 76.9147 7.70194 77.1631 10.5165 77.4115C12.7516 77.5771 13.9105 76.7491 14.0761 74.5965C14.1589 73.603 14.0761 72.8578 13.6622 72.1955C13.1655 71.3676 12.4205 70.9536 10.8476 70.788C8.19863 70.4569 5.46686 70.2085 2.81787 69.8773C2.48674 70.4569 2.2384 71.0364 1.90728 71.616C1.74171 71.616 1.49337 71.616 1.32781 71.5332C1.49337 69.7945 1.74171 68.0559 1.90728 66.3172C2.07284 66.3172 2.32118 66.4 2.48674 66.4C2.65231 67.0623 2.81787 67.6419 2.98343 68.3042C5.54964 68.6354 8.11585 68.8838 10.6821 69.215C12.586 69.4633 13.745 70.1257 14.49 71.4504C15.0695 72.5267 15.3178 73.7686 15.1522 75.3416C14.8211 78.6534 13.0827 80.392 10.2682 80.1436C7.4536 79.8953 4.72183 79.7297 1.90728 79.4813C1.57615 80.0608 1.32781 80.6404 1.07947 81.2199C0.913905 81.2199 0.665562 81.2199 0.5 81.1372C0.665562 78.9845 0.831124 76.9147 0.996686 74.7621C1.16225 74.7621 1.41059 74.7621 1.57615 74.8449C1.8245 75.5072 1.99006 76.0868 2.15562 76.6663ZM6.62579 60.2733C9.60591 61.2668 12.6688 62.2603 15.6489 63.2539C16.0628 62.8399 16.4767 62.3431 16.8906 61.9292C17.0562 62.012 17.2218 62.012 17.4701 62.0948C16.9734 63.585 16.4767 65.0753 15.98 66.5656C15.8145 66.4828 15.5661 66.4828 15.4006 66.4C15.3178 65.7376 15.3178 65.1581 15.235 64.4958C11.6754 63.3367 8.11585 62.1776 4.55627 61.0184C4.14236 61.5152 3.72846 62.012 3.31455 62.5087C3.23177 62.5087 2.98343 62.5087 2.81787 62.4259C3.23177 61.1012 3.64568 59.7766 4.14236 58.3691C7.86751 57.0444 11.5926 55.7197 15.3178 54.4778C12.8344 53.5671 10.2682 52.6564 7.78473 51.8284C7.37082 52.2424 6.95692 52.7392 6.54301 53.2359C6.37745 53.1531 6.21189 53.1531 5.96354 53.0703C6.46023 51.4973 7.0397 49.9242 7.61916 48.4339C7.78473 48.5167 7.95029 48.5995 8.11585 48.5995C8.11585 49.2618 8.11585 49.9242 8.19863 50.5865C12.1721 51.994 16.1456 53.4843 20.1191 54.8918C20.0363 55.2229 19.8707 55.5541 19.788 55.8853C15.4006 57.21 11.0132 58.7002 6.62579 60.2733ZM26.2449 35.9322L29.3906 38.1676C28.6455 40.0718 28.0661 41.2309 27.321 42.3072C24.7548 45.8673 21.1952 46.6125 17.6357 44.0459C14.0761 41.5621 12.9171 37.9192 15.98 33.614C16.6423 32.6204 17.7184 31.6269 19.0429 30.385L19.2913 30.1367L22.0231 32.1237L21.4436 32.9516L18.7118 32.3721C18.2979 32.6204 18.0496 32.8688 17.8012 33.2C15.1522 36.5117 15.98 39.5751 19.2085 41.8933C22.1058 43.9631 25.1687 43.4663 27.0727 40.817C27.4038 40.3202 27.4866 39.989 27.4866 39.989L24.7548 38.0848L23.0992 39.0783L22.6025 38.7471L26.1621 33.8623L26.6588 34.1935L26.2449 35.9322ZM31.9568 34.4419L24.0098 26.411L22.2714 27.0733L21.8575 26.6594L26.2449 22.3541L26.6588 22.7681L25.9138 24.5067L33.9435 32.7032L36.4269 30.2194L35.5991 27.4873L36.1786 26.8249L38.4137 29.5571C38.4137 29.5571 34.9369 32.8688 31.5429 36.4289L31.129 36.015L31.9568 34.4419ZM35.8475 23.3476C33.2813 19.6219 33.8607 15.6479 37.7514 13.1641C41.311 10.9287 44.7878 11.9222 46.8573 15.3167C49.0924 19.0424 48.513 23.0993 44.9534 25.4175C41.7249 27.5701 38.1653 26.6594 35.8475 23.3476ZM37.917 21.4434C40.0693 24.5067 42.8011 25.5002 44.705 24.3411C46.5262 23.182 46.609 20.2843 44.705 17.0554C42.8839 14.0748 40.3176 12.7501 38.0826 14.2404C35.5991 15.7307 35.7647 18.4628 37.917 21.4434ZM53.2315 19.1252L48.7613 8.69327H46.9401L46.6918 8.19651L52.9831 5.54713C54.4732 4.96758 55.3838 4.88479 56.3772 5.21596C57.2877 5.54713 57.8672 6.12668 58.1983 6.95461C58.8606 8.69327 57.95 10.4319 55.7149 11.591C58.4467 10.5975 60.2679 11.1771 61.0957 13.1641C61.5096 14.2404 61.344 15.3995 60.7645 16.3102C60.1851 17.2209 59.2745 17.8005 57.5361 18.5456L52.1553 20.9466L51.907 20.4499L53.2315 19.1252ZM53.3143 12.2534L54.1421 11.9222C55.7149 11.2598 56.3772 9.85237 55.7149 8.2793C55.1354 6.70623 53.8937 6.12668 52.3209 6.78903L51.162 7.36858L53.3143 12.2534ZM55.7977 18.2973L56.5427 17.9661C57.6189 17.5521 58.1156 17.2209 58.4467 16.4758C58.7778 15.8135 58.7778 14.9855 58.4467 14.2404C57.7844 12.5017 56.3772 12.005 54.556 12.7501L53.5626 13.1641L55.7977 18.2973ZM66.5592 10.2663L65.8142 14.4888L67.5526 14.9027L67.6354 15.4823L63.0824 16.5586L62.9996 15.9791L64.4069 14.9855L67.5526 1.2419L68.546 1.07631L75.6651 12.9157L77.3207 13.3297L77.4035 13.9092L71.5261 14.7372L71.4433 14.1576L72.8506 13.1641L70.781 9.4384L66.5592 10.2663ZM66.7248 9.27282L70.2016 8.61047L67.8009 4.22244L66.7248 9.27282ZM80.3009 12.6673L80.3836 1.40748L78.6452 0.662344V0.082793C81.8737 0 84.771 0 84.771 0V0.579551L83.0326 1.32469L82.8671 12.8329L86.0955 12.9157L87.42 10.4319H88.2478L87.9167 13.992C87.9167 13.992 82.7015 13.7436 78.3969 13.9092V13.3297L80.3009 12.6673ZM103.562 16.1446L105.301 13.7436L106.211 13.992L105.135 17.2209H104.804C102.9 17.1382 101.824 17.0554 100.582 16.7242C96.5259 15.6479 94.7875 12.5017 95.6981 8.36209C96.6915 4.05686 99.7544 1.98703 104.887 3.22893C106.129 3.47731 107.37 4.13965 108.86 4.96758L107.95 8.2793L107.039 8.11372L106.791 5.13317C106.791 5.13317 106.294 4.88479 105.715 4.7192C101.244 3.5601 99.0921 5.71272 98.3471 9.10723C97.5193 12.5845 99.0094 15.2339 102.072 16.1446C102.734 15.9791 103.066 16.0618 103.562 16.1446ZM129.473 27.3217L138.993 23.0165L142.138 26.1626L141.724 26.5766L139.903 25.997L132.122 34.0279L133.032 35.7666L132.618 36.1805C130.549 34.1107 128.479 32.1237 128.479 32.1237L128.893 31.6269L130.632 32.2065L136.923 25.583L126.41 30.2194L125.996 29.8883L129.142 18.794L123.43 25.997L124.258 27.6529L123.844 28.0668L119.87 25.2519L120.284 24.8379L122.105 25.4175L129.224 16.807L128.397 15.1511L128.811 14.7372L132.453 17.3865L129.473 27.3217ZM141.062 37.4224L137.503 40.0718L137.916 41.8933L137.503 42.2244C135.764 39.8234 133.777 37.4224 133.777 37.4224L134.274 37.0913L135.847 38.002L144.622 31.1302L144.208 29.3915L144.704 29.0603L148.347 33.7795C149.589 35.4354 149.92 36.4289 150.002 37.588C150.002 38.7471 149.506 39.7407 148.512 40.4858C146.443 41.9761 143.877 41.2309 141.973 38.6643L141.062 37.4224ZM142.221 37.4224C142.883 38.3332 143.38 38.6643 143.959 38.8299C144.87 38.9955 145.863 38.9127 146.691 38.2504C147.519 37.6708 148.016 36.9257 148.098 36.1805C148.181 35.4354 148.016 34.8559 147.436 34.1107L146.608 33.1172L141.724 36.9257L142.221 37.4224ZM146.608 46.8608L142.387 47.192L142.469 48.9307L141.973 49.1791C140.897 47.192 139.655 45.1222 139.655 45.1222L140.151 44.791L141.476 45.9501L155.549 45.1222L156.045 46.2813L146.608 56.2165L146.691 57.9551L146.195 58.2035C145.036 55.3885 143.959 52.8219 143.959 52.8219L144.456 52.5736L145.781 53.6499L148.595 50.6693L146.608 46.8608ZM147.685 46.7781L149.257 49.9242L152.817 46.4469L147.685 46.7781ZM149.754 67.1451L152.817 67.4763L153.065 68.387L149.754 69.0494L149.589 68.801C148.595 67.1451 148.181 66.1516 147.85 64.9925C146.691 60.8529 148.512 57.9551 152.651 56.5476C156.956 55.1402 160.516 57.2928 161.675 61.8464C162.006 63.0883 162.171 64.5786 162.171 66.2344L158.86 67.0623L158.612 66.1516L161.012 64.4958C161.012 64.1646 160.93 63.6678 160.847 63.2539C159.771 59.4454 156.956 57.9551 153.396 59.1142C149.92 60.2733 148.347 62.5915 149.257 65.8204C149.34 66.3172 149.506 66.6484 149.754 67.1451ZM162.668 76.9147L151.327 77.7426L150.747 80.0608L150.168 80.1436C150.085 76.418 149.589 73.0234 149.589 73.0234L150.168 72.9406L151.079 75.1761L162.42 74.3481L162.171 71.4504L159.274 70.6224L159.191 69.7945L163.082 69.4633C163.082 69.4633 163.992 75.59 163.992 81.6339L160.102 81.9651L160.019 81.1372L162.751 79.8953L162.668 76.9147ZM110.019 12.419C111.923 8.2793 115.731 6.78903 119.787 8.94165C123.595 10.8459 124.423 14.406 122.519 17.8833C120.45 21.6918 116.559 23.2648 112.834 21.3606C109.357 19.6219 108.281 16.1446 110.019 12.419ZM112.668 13.1641C111.095 16.5586 111.592 19.4564 113.579 20.4499C115.483 21.4434 118.049 20.0359 119.87 16.8898C121.526 13.8264 121.36 10.9287 118.96 9.68678C116.476 8.36209 114.241 9.85237 112.668 13.1641Z" fill="#203F59"/>
</svg>
