<svg width="51" height="11" viewBox="0 0 51 11" fill="none" xmlns="http://www.w3.org/2000/svg">
<path d="M5.96453 8.44889H2.55672L1.74349 10.496H0.0908203L4.26122 0.504883L8.41792 10.496H6.77776L5.96453 8.44889ZM5.42238 7.10954L4.26063 4.19791L3.09887 7.10954H5.42238Z" fill="white"/>
<path d="M16.523 2.28149H13.8897V10.4959H12.3794V2.28149H9.74609V0.942139H16.523V2.28149Z" fill="white"/>
<path d="M21.6478 10.1221C20.5004 9.62955 19.5858 8.71732 19.0919 7.57294C18.8446 6.98601 18.7174 6.35568 18.7178 5.719C18.7186 5.07823 18.8458 4.44387 19.0919 3.85199C19.3402 3.28678 19.6904 2.77179 20.125 2.3326C20.5609 1.89746 21.0783 1.55202 21.6478 1.3159C22.2363 1.06866 22.8686 0.941573 23.5072 0.942141C24.1495 0.942813 24.7854 1.06982 25.3785 1.3159C26.5295 1.79274 27.4445 2.70449 27.9236 3.85199C28.1701 4.44378 28.2972 5.0782 28.2978 5.719C28.2985 6.35571 28.1713 6.9861 27.9236 7.57294C27.6865 8.14106 27.34 8.65728 26.9037 9.09234C26.4637 9.52609 25.9472 9.87519 25.3803 10.1221C24.7872 10.3682 24.1513 10.4952 23.509 10.4959C22.8698 10.4967 22.2369 10.3696 21.6478 10.1221V10.1221ZM21.1831 3.40158C20.6502 3.93742 20.3199 4.64086 20.2484 5.39222C20.1769 6.14357 20.3687 6.89641 20.791 7.52265C21.2134 8.14889 21.8402 8.60984 22.5649 8.82705C23.2896 9.04427 24.0674 9.00434 24.7659 8.71406C25.4644 8.42378 26.0404 7.90108 26.3961 7.2349C26.7517 6.56873 26.865 5.80023 26.7165 5.06016C26.5681 4.3201 26.1671 3.6542 25.5819 3.17576C24.9967 2.69732 24.2633 2.4359 23.5066 2.43599C23.0746 2.43601 22.6468 2.52134 22.248 2.68707C21.8492 2.85279 21.4873 3.09564 21.1831 3.40158V3.40158Z" fill="white"/>
<path d="M33.3592 4.13124V10.5H31.877V0.501207C31.877 0.419206 36.4275 4.54184 36.4275 4.54184L40.978 0.501207V10.5H39.4963V4.11164L36.4275 6.62693L33.3592 4.13124Z" fill="white"/>
<path d="M50.2386 5.40792C49.8514 4.99554 49.1412 4.5166 47.9407 4.5166C47.4375 4.5091 46.939 4.61471 46.4823 4.82559C46.6171 4.39391 46.8181 3.98561 47.0781 3.61519C47.3879 3.17725 47.7489 2.85519 48.1504 2.66445C48.5881 2.44206 49.0857 2.36542 49.5702 2.44578V0.940045C48.8506 0.871624 48.1263 1.00542 47.479 1.32628C46.8469 1.63527 46.3047 2.12431 45.8526 2.75536C44.6265 4.5065 44.3554 7.08122 45.233 8.76818C45.8013 9.8752 46.7951 10.4807 48.0331 10.4807C48.4516 10.4834 48.8658 10.3949 49.2465 10.2215C49.6272 10.048 49.9654 9.79379 50.2374 9.47649C50.7313 8.89308 51.0013 8.15372 50.9994 7.39021C51.0006 6.61773 50.7295 5.92251 50.2386 5.40792ZM47.9598 9.03855C47.6408 9.03855 47.329 8.94421 47.0638 8.76747C46.7986 8.59072 46.5919 8.3395 46.4698 8.04558C46.3477 7.75166 46.3158 7.42824 46.378 7.11621C46.4403 6.80419 46.5939 6.51757 46.8194 6.29262C47.045 6.06766 47.3323 5.91446 47.6452 5.8524C47.958 5.79033 48.2823 5.82219 48.577 5.94393C48.8717 6.06568 49.1235 6.27185 49.3008 6.53637C49.478 6.80089 49.5725 7.11189 49.5725 7.43002C49.5725 7.85663 49.4026 8.26577 49.1002 8.56742C48.7977 8.86908 48.3875 9.03855 47.9598 9.03855V9.03855Z" fill="white"/>
</svg>
