<svg width="210" height="57" viewBox="0 0 210 57" fill="none" xmlns="http://www.w3.org/2000/svg">
<path d="M23.7593 0L24.0423 0.0816223C24.1104 0.100667 24.1076 0.116992 24.0369 0.127875C18.3139 1.00667 14.1067 3.97773 11.4098 9.03831C11.3146 9.2206 11.3445 9.24508 11.4996 9.11177C12.1745 8.54585 12.9147 7.91736 13.5488 7.4902C20.5454 2.78604 29.7 3.99133 35.2107 10.4395C35.2624 10.4993 35.2516 10.5157 35.1781 10.4857C33.7711 9.91983 32.6227 10.0885 31.7301 10.9918C30.6198 12.1155 30.6062 13.9057 31.7329 15.0022C32.2635 15.5218 33.1343 15.9136 34.3426 16.183C41.4807 17.7692 47.1085 10.8939 44.2211 4.18994C42.7761 0.832547 38.1743 2.30991 38.8056 6.00468C38.8301 6.1516 38.7948 6.16792 38.6995 6.05365C35.872 2.64456 32.2445 0.672023 27.8114 0.133316C27.6563 0.114271 27.6563 0.0979467 27.8114 0.0816223L28.5897 0H23.7593Z" fill="white"/>
<path d="M0 34.1288L0.0680337 32.5943C0.0816405 32.3086 0.10069 32.3086 0.130625 32.5916C0.236757 33.5874 0.266692 34.6294 0.522499 35.5518C1.8097 40.1961 4.61269 43.7058 8.93419 46.0783C8.98045 46.1028 9.03488 46.0838 9.05937 46.0402C9.07842 46.0049 9.07298 45.9641 9.04576 45.9341C2.68325 38.9255 3.24657 28.5132 10.3547 22.2691C10.4473 22.1875 10.4717 22.2038 10.4309 22.3208C9.02127 26.2904 13.9279 28.35 15.6015 24.7178C18.9515 17.4452 11.7508 10.2978 4.43036 13.0676C0.92798 14.3926 1.94849 19.113 5.99513 18.6668C6.12303 18.6532 6.13664 18.6859 6.03867 18.7675C2.6261 21.5835 0.664009 25.2102 0.152396 29.645C0.125182 29.8817 0.10069 29.8817 0.0816405 29.645L0 28.7554L0 34.1288Z" fill="white"/>
<path d="M51.5692 37.7914C51.5012 37.7995 51.4685 37.7914 51.4685 37.7696C51.4685 37.7642 51.4713 37.756 51.4767 37.7506C51.4822 37.7397 51.4903 37.7315 51.5012 37.7206C51.5094 37.7125 51.5175 37.7043 51.5284 37.6961C60.7783 29.8849 59.0176 15.9003 48.4941 10.3309C48.4778 10.32 48.456 10.3227 48.4424 10.3309L48.437 10.3364L48.4261 10.3472C48.4261 10.3472 48.4234 10.3527 48.4234 10.3554C48.4179 10.3717 48.4206 10.3908 48.4342 10.4044C54.7913 17.5382 54.4158 27.8579 47.2232 34.1292C47.1144 34.2217 47.0844 34.2027 47.1334 34.0667C48.6111 30.0481 43.4188 27.9695 41.7316 32.1975C38.8088 39.5272 46.2 46.1168 53.2537 43.3009C56.6718 41.9351 55.4608 37.3098 51.5692 37.7886V37.7914Z" fill="white"/>
<path d="M22.2734 29.0163C21.8026 28.5837 21.4243 28.3035 21.1386 28.1756C20.3657 27.8246 19.9113 28.7225 19.9902 29.3319C20.0201 29.5605 20.1725 29.8516 20.4419 30.2026C23.3157 33.9218 24.1947 38.1444 23.0789 42.873C22.1781 46.7039 19.816 49.8109 15.8483 50.6C12.1037 51.3427 12.931 56.6454 17.3341 55.9571C20.5317 55.4565 22.9728 53.8132 24.6519 51.0298C28.7203 44.2906 28.2658 34.5013 22.2734 29.0163Z" fill="white"/>
<path d="M43.021 51.1937C42.9666 51.1474 42.9122 51.1066 42.8632 51.0685C42.8142 51.0304 42.7679 50.9951 42.7217 50.9651C42.6917 50.9434 42.6618 50.9243 42.6346 50.9053C42.5611 50.859 42.4958 50.8209 42.4359 50.791C42.4169 50.7828 42.3978 50.7747 42.3788 50.7665C42.3271 50.7447 42.2835 50.7311 42.2454 50.7284C39.0805 50.3911 36.7646 48.8293 35.2951 46.046C32.6364 41.0127 33.1997 34.6107 36.7701 30.2086C37.4994 29.3107 37.0613 27.4089 35.8693 28.266C30.081 32.4369 28.802 40.5964 30.7178 47.0527C32.1928 52.0153 35.7659 55.9359 41.0916 56.042C43.8075 56.0964 45.179 52.9703 43.021 51.1937Z" fill="white"/>
<path d="M69.0719 27.5285L80.5369 27.5938C80.5832 27.5938 80.6213 27.6319 80.6213 27.6782V31.4763C80.6213 31.5226 80.5832 31.5607 80.5369 31.5607H64.1C64.0537 31.5607 64.0156 31.5226 64.0156 31.4763V10.1376C64.0156 10.0913 64.0537 10.0532 64.1 10.0532L80.1287 10.075C80.175 10.075 80.2131 10.1131 80.2131 10.1593V13.9357C80.2131 13.982 80.175 14.0201 80.1287 14.0201L69.0719 14.0935C69.0256 14.0935 68.9875 14.1316 68.9875 14.1779V18.6208C68.9875 18.6671 69.0256 18.7052 69.0719 18.7052H78.8361C78.8824 18.7052 78.9205 18.7433 78.9205 18.7895V22.4979C78.9205 22.5442 78.8824 22.5822 78.8361 22.5822H69.0719C69.0256 22.5822 68.9875 22.6203 68.9875 22.6666V27.4442C68.9875 27.4905 69.0256 27.5285 69.0719 27.5285Z" fill="white"/>
<path d="M126.808 10.0587C123.624 10.075 120.41 10.0723 117.169 10.0532C117.069 10.0532 117.02 10.1022 117.02 10.2029V31.3485C117.02 31.49 117.09 31.5607 117.232 31.5607H121.853C121.945 31.5607 121.991 31.5144 121.991 31.4219L121.978 25.7682C121.978 25.6812 122.021 25.6376 122.108 25.6404C123.706 25.6512 125.303 25.6458 126.901 25.624C138.717 25.4581 138.453 10.0042 126.808 10.0587ZM130.561 18.1175C130.561 20.0111 128.841 21.5484 126.718 21.5484H122.049C122.013 21.5484 121.983 21.5184 121.983 21.4831V14.2024C121.983 14.167 122.013 14.1371 122.049 14.1371H126.718C128.841 14.1371 130.561 15.6743 130.561 17.5679V18.1175Z" fill="white"/>
<path d="M180.625 19.9269C178.946 23.891 180.579 28.7693 184.399 30.6793C187.943 32.4478 193.304 32.3118 196.139 29.2019C196.191 29.1448 196.191 29.0904 196.139 29.036L193.78 26.4894C193.712 26.4159 193.641 26.4105 193.565 26.473C190.963 28.6007 185.888 28.7557 184.911 24.7835C184.892 24.7018 184.922 24.661 185.006 24.661L197.171 24.6066C197.239 24.6066 197.277 24.574 197.285 24.5059C198.667 13.9767 184.312 11.2233 180.625 19.9269ZM192.672 21.8342H184.922C184.835 21.8342 184.799 21.7906 184.813 21.7063C185.567 17.3286 192.049 17.3477 192.795 21.69C192.811 21.7852 192.77 21.8342 192.672 21.8342Z" fill="white"/>
<path d="M209.002 14.7762V19.2654C206.461 18.9009 204.792 19.6409 204.001 21.4829C203.69 22.2066 203.53 23.45 203.519 25.2103C203.505 27.2808 203.524 29.3458 203.576 31.4054C203.576 31.5088 203.527 31.5605 203.424 31.5605H198.879C198.811 31.5605 198.756 31.5061 198.756 31.438L198.727 15.1707C198.727 15.0782 198.773 15.032 198.863 15.032H203.22C203.309 15.032 203.356 15.0782 203.356 15.168V16.8766C203.356 16.9882 203.394 17.0045 203.473 16.9256C204.972 15.4319 206.817 14.7136 209.002 14.7762Z" fill="white"/>
<path d="M82.9704 17.9241C86.6633 13.6798 94.7593 13.4213 97.6412 18.8546C97.6793 18.9281 97.6521 19.0179 97.5786 19.0587L94.1007 20.9088C94 20.9632 93.9184 20.9414 93.8585 20.8462C92.5931 18.8791 90.8759 18.2533 88.7124 18.9689C84.625 20.3265 85.0305 27.259 89.7847 27.8385C91.4637 28.0426 92.8407 27.3406 93.9157 25.7299C93.9674 25.651 94.0381 25.632 94.1225 25.6782L97.584 27.58C97.6466 27.6154 97.6684 27.6916 97.633 27.7542C94.7947 32.9508 86.8565 33.0651 83.1228 28.8316C80.5076 25.866 80.3361 20.9523 82.9704 17.9241Z" fill="white"/>
<path d="M106.696 14.7952C102.739 14.6047 98.4989 16.7895 97.4893 20.8842C94.4523 33.1847 113.259 35.8782 115.14 24.8782C116.101 19.2654 112.263 15.0645 106.696 14.7952ZM106.208 27.8901C103.865 27.8738 101.98 25.8033 101.996 23.2648C102.015 20.7264 103.928 18.6831 106.274 18.6994C108.617 18.7158 110.503 20.7863 110.486 23.3247C110.467 25.8632 108.554 27.9064 106.208 27.8901Z" fill="white"/>
<path d="M148.197 15.3265C147.914 15.234 147.629 15.1551 147.346 15.0844C147.201 15.0517 147.057 15.0191 146.913 14.9891C146.801 14.9674 146.69 14.9456 146.575 14.9266C146.521 14.9157 146.464 14.9075 146.409 14.8994C146.292 14.8803 146.175 14.8667 146.058 14.8504C145.914 14.8313 145.77 14.8177 145.626 14.8069C145.517 14.796 145.408 14.7905 145.296 14.7851H145.266C145.223 14.7824 145.177 14.7824 145.133 14.7796C145.013 14.7742 144.891 14.7715 144.771 14.7715C144.526 14.7715 144.281 14.7796 144.034 14.796C143.977 14.7987 143.922 14.8041 143.865 14.8096C143.808 14.815 143.753 14.8205 143.696 14.8259C143.685 14.8259 143.674 14.8259 143.661 14.8286C143.574 14.8368 143.489 14.8477 143.402 14.8585H143.391C143.367 14.8613 143.345 14.864 143.321 14.8667C143.304 14.8694 143.285 14.8722 143.269 14.8749C143.117 14.8966 142.967 14.9184 142.815 14.9456C135.129 16.3005 133.067 26.3591 139.644 30.4103C142.355 32.0781 145.969 32.2332 148.867 30.9708C155.82 27.9426 155.433 17.68 148.197 15.3265ZM144.777 27.8909C142.434 27.8773 140.542 25.8123 140.556 23.2738C140.569 20.7354 142.48 18.6894 144.826 18.7002C147.169 18.7138 149.06 20.7789 149.046 23.3173C149.033 25.8558 147.122 27.9018 144.777 27.8909Z" fill="white"/>
<path d="M177.111 15.0322H181.142C181.193 15.0322 181.237 15.0758 181.237 15.1275C181.237 15.1383 181.237 15.1492 181.231 15.1601L175.315 31.4982C175.301 31.5362 175.266 31.5607 175.225 31.5607H170.724C170.683 31.5607 170.648 31.5362 170.634 31.4982L167.045 21.5402C167.026 21.4913 166.969 21.4668 166.922 21.4858C166.898 21.4967 166.879 21.5158 166.868 21.5402L163.162 31.4982C163.148 31.5362 163.113 31.5607 163.074 31.5607H158.592C158.552 31.5607 158.516 31.5362 158.503 31.4982L152.627 15.1601C152.608 15.1111 152.635 15.0567 152.684 15.0377C152.695 15.0349 152.706 15.0322 152.717 15.0322H157.028C157.068 15.0322 157.104 15.0594 157.117 15.0975L160.887 25.9887C160.903 26.0376 160.957 26.0648 161.006 26.0485C161.033 26.0403 161.055 26.0186 161.066 25.9914L165.009 15.0948C165.023 15.0567 165.058 15.0322 165.099 15.0322H169.029C169.07 15.0322 169.105 15.0567 169.119 15.0948L172.937 25.9805C172.953 26.0295 173.007 26.0567 173.059 26.0376C173.086 26.0267 173.108 26.0077 173.116 25.9805L177.021 15.0948C177.035 15.0567 177.07 15.0322 177.111 15.0322Z" fill="white"/>
<path d="M165.54 39.772C165.54 39.7311 165.532 39.6876 165.524 39.6468C165.521 39.6169 165.516 39.5842 165.51 39.5543C165.502 39.508 165.494 39.4645 165.486 39.421C165.475 39.3774 165.464 39.3312 165.453 39.2849L165.415 39.1407V39.1299C165.415 39.1299 165.404 39.1081 165.402 39.0945C165.385 39.0401 165.369 38.9938 165.35 38.9421C165.336 38.9013 165.32 38.8551 165.304 38.8143C165.301 38.8088 165.301 38.8061 165.298 38.8007C165.298 38.7979 165.295 38.7979 165.295 38.7952C165.293 38.7898 165.293 38.787 165.29 38.7816C165.263 38.7163 165.233 38.651 165.203 38.583C165.198 38.5748 165.195 38.5639 165.189 38.5558C165.173 38.5231 165.154 38.4905 165.138 38.4551C165.124 38.4306 165.108 38.4034 165.094 38.3762C165.081 38.349 165.064 38.3218 165.048 38.2973C165.032 38.2701 165.018 38.2429 165.002 38.2184C164.988 38.1912 164.972 38.164 164.953 38.1395C164.906 38.0688 164.857 38.0008 164.808 37.9327C164.757 37.8647 164.705 37.7994 164.651 37.7341C164.61 37.6879 164.569 37.6416 164.525 37.5954C164.482 37.5491 164.438 37.5056 164.392 37.462C164.357 37.4294 164.324 37.3967 164.289 37.3641C164.253 37.3315 164.215 37.3015 164.18 37.2716C164.109 37.209 164.033 37.1519 163.957 37.0947C163.916 37.0675 163.878 37.0403 163.837 37.0131C163.799 36.9886 163.758 36.9614 163.717 36.9369C163.635 36.8852 163.551 36.8363 163.467 36.7927C163.423 36.771 163.377 36.7465 163.333 36.7247C163.331 36.7247 163.331 36.7247 163.328 36.7247C163.287 36.7057 163.246 36.6894 163.206 36.6703C163.159 36.6513 163.116 36.6322 163.069 36.6132C163.026 36.5941 162.98 36.5778 162.933 36.5615C162.811 36.5179 162.686 36.4799 162.555 36.4472C162.498 36.4309 162.438 36.4173 162.378 36.4064C162.373 36.4064 162.365 36.4037 162.359 36.4037C162.316 36.3928 162.272 36.3846 162.229 36.3792C162.174 36.3683 162.12 36.3601 162.063 36.3547C161.978 36.3438 161.894 36.3357 161.809 36.3302C161.782 36.3275 161.752 36.3248 161.725 36.3248C161.717 36.3221 161.709 36.3221 161.701 36.3221C161.652 36.3193 161.6 36.3193 161.551 36.3193H161.518C161.45 36.3193 161.379 36.3221 161.311 36.3248C161.257 36.3275 161.203 36.3302 161.148 36.3357C161.126 36.3384 161.102 36.3384 161.08 36.3411C161.023 36.3465 160.966 36.3547 160.906 36.3629C160.841 36.3737 160.775 36.3846 160.71 36.3982C160.664 36.4064 160.618 36.4146 160.571 36.4282C160.536 36.4336 160.5 36.4418 160.465 36.4526C160.419 36.4635 160.37 36.4771 160.324 36.4907C160.198 36.5288 160.076 36.5724 159.956 36.6213C159.834 36.6703 159.714 36.7247 159.6 36.7846C159.543 36.8118 159.488 36.8417 159.436 36.8744C159.379 36.907 159.325 36.9397 159.273 36.975C159.221 37.0077 159.172 37.0403 159.123 37.0757C159.118 37.0784 159.11 37.0839 159.104 37.0893C159.055 37.122 159.009 37.1573 158.966 37.1927C158.957 37.1981 158.949 37.2063 158.941 37.2117C158.925 37.2253 158.908 37.2362 158.895 37.2498C158.862 37.277 158.83 37.3042 158.8 37.3315C158.764 37.3587 158.732 37.3913 158.696 37.424C158.688 37.4321 158.68 37.4376 158.674 37.443C158.628 37.4865 158.582 37.5328 158.541 37.5763C158.476 37.6443 158.413 37.7151 158.353 37.7885C158.313 37.8402 158.272 37.8919 158.231 37.9463C158.198 37.9871 158.168 38.0307 158.141 38.0742C158.125 38.096 158.108 38.1205 158.092 38.145C158.076 38.1667 158.062 38.1912 158.049 38.2157C158.024 38.2483 158.005 38.2837 157.986 38.3191C157.967 38.3463 157.951 38.3762 157.937 38.4061C157.921 38.4334 157.907 38.4633 157.891 38.4932C157.861 38.5531 157.831 38.6156 157.801 38.6782C157.782 38.719 157.766 38.7626 157.749 38.8034C157.736 38.8333 157.725 38.8659 157.714 38.8986C157.695 38.9449 157.678 38.9911 157.665 39.0374C157.651 39.0809 157.638 39.1244 157.624 39.168C157.6 39.2496 157.58 39.3339 157.561 39.421C157.551 39.47 157.542 39.5216 157.534 39.5733C157.523 39.6305 157.515 39.6903 157.51 39.7502C157.502 39.8128 157.496 39.8726 157.491 39.9352C157.485 40.0087 157.482 40.0821 157.482 40.1556C157.469 42.2914 159.265 44.0354 161.496 44.0517H161.529C161.597 44.0517 161.662 44.049 161.731 44.0462C161.777 44.0435 161.82 44.0408 161.861 44.0381C161.867 44.0381 161.869 44.0381 161.875 44.0381C161.899 44.0354 161.924 44.0354 161.948 44.0326C161.973 44.0299 161.997 44.0299 162.022 44.0245C162.071 44.019 162.122 44.0136 162.171 44.0054C162.174 44.0054 162.18 44.0027 162.185 44.0027C162.291 43.9864 162.4 43.9646 162.503 43.9401C162.615 43.9129 162.724 43.883 162.83 43.8476C162.83 43.8476 162.832 43.8467 162.835 43.8449C162.873 43.834 162.914 43.8204 162.952 43.8041C162.999 43.7905 163.045 43.7714 163.088 43.7524C163.146 43.7306 163.2 43.7062 163.257 43.6817C163.377 43.6272 163.494 43.5674 163.608 43.4994C163.66 43.4722 163.709 43.4422 163.758 43.4096C163.818 43.3715 163.875 43.3334 163.932 43.2926C163.976 43.2627 164.016 43.2327 164.057 43.2001C164.093 43.1729 164.128 43.143 164.163 43.113C164.193 43.0885 164.223 43.0641 164.253 43.0368C164.286 43.0096 164.319 42.9797 164.351 42.9498C164.495 42.8165 164.631 42.6695 164.751 42.5145C164.814 42.4356 164.871 42.3567 164.928 42.2723C164.942 42.2506 164.955 42.2315 164.969 42.2097C164.999 42.1608 165.029 42.1145 165.059 42.0655C165.061 42.0574 165.067 42.0519 165.07 42.0438C165.108 41.9785 165.143 41.9105 165.176 41.8424C165.208 41.7826 165.236 41.72 165.26 41.6574C165.279 41.6193 165.295 41.5785 165.312 41.5377C165.315 41.5296 165.317 41.5214 165.32 41.5132C165.331 41.4833 165.344 41.4507 165.355 41.418C165.369 41.3854 165.38 41.3527 165.388 41.3228C165.391 41.3173 165.391 41.3146 165.393 41.3092V41.3037C165.415 41.2357 165.434 41.1704 165.451 41.0997C165.459 41.0698 165.467 41.0371 165.472 41.0072C165.481 40.9745 165.489 40.9392 165.494 40.9038C165.5 40.8847 165.502 40.863 165.505 40.8439C165.513 40.8031 165.519 40.7596 165.524 40.7188C165.538 40.648 165.546 40.5746 165.551 40.5011V40.4957C165.554 40.4576 165.557 40.4195 165.559 40.3814C165.562 40.327 165.565 40.2726 165.565 40.2154C165.565 40.0685 165.557 39.9216 165.54 39.7774V39.772ZM161.524 42.7947C160.081 42.7947 158.914 41.6275 158.914 40.1855C158.914 38.7435 160.081 37.5763 161.524 37.5763C162.966 37.5763 164.133 38.7435 164.133 40.1855C164.133 41.6275 162.966 42.7947 161.524 42.7947Z" fill="white"/>
<path d="M119.182 37.0842C120.646 36.0503 123.125 36.0667 124.478 37.4352C124.557 37.5168 124.557 37.5984 124.478 37.6773L123.879 38.2786C123.8 38.3575 123.713 38.363 123.623 38.2949C122.565 37.4896 121.495 37.3427 120.412 37.8542C117.411 39.269 119.307 43.8398 122.875 42.5665C123.447 42.3597 123.21 40.7218 123.185 40.2648C123.18 40.175 123.223 40.1287 123.313 40.1287L124.372 40.1342C124.462 40.1342 124.508 40.1777 124.508 40.2675V42.9365C124.508 43.0318 124.467 43.1052 124.388 43.1569C122.94 44.1119 121.433 44.2915 119.863 43.6956C117.07 42.6345 116.82 38.752 119.185 37.0842H119.182Z" fill="white"/>
<path d="M150.442 39.1272C151.503 39.6033 152.88 39.6877 153.805 40.3461C154.643 40.9392 154.714 42.1119 154.197 42.8954C153.087 44.5796 150.151 44.1143 148.684 43.2382C148.597 43.1866 148.572 43.1131 148.613 43.0179L148.972 42.2071C149.021 42.0955 149.095 42.0738 149.195 42.1418C150.325 42.9063 151.53 43.056 152.815 42.5853C153.122 42.4737 153.283 42.1336 153.171 41.8235C153.171 41.8235 153.171 41.8207 153.171 41.818C152.837 40.9256 151.073 40.7052 150.246 40.4576C148.945 40.0686 148.349 38.8361 148.98 37.6254C149.873 35.9167 152.651 36.2215 154.075 36.8908C154.184 36.9424 154.216 37.0268 154.17 37.1383L153.841 37.9518C153.8 38.0525 153.732 38.077 153.637 38.0253C152.755 37.5546 149.402 36.9533 150.262 38.9422C150.3 39.0265 150.36 39.0891 150.444 39.1272H150.442Z" fill="white"/>
<path d="M80.3069 42.7837H84.34C84.3917 42.7837 84.4325 42.8245 84.4325 42.8762V43.8475C84.4325 43.8992 84.3917 43.94 84.34 43.94H78.9109C78.8592 43.94 78.8184 43.8992 78.8184 43.8475L78.8347 36.5505C78.8347 36.4988 78.8755 36.458 78.9272 36.458H84.2039C84.2556 36.458 84.2964 36.4988 84.2964 36.5505V37.5218C84.2964 37.5735 84.2556 37.6143 84.2039 37.6143H80.3069C80.2552 37.6143 80.2144 37.6551 80.2144 37.7068V39.4944C80.2144 39.5461 80.2552 39.5869 80.3069 39.5869H83.7277C83.7794 39.5869 83.8202 39.625 83.8202 39.6766V40.5827C83.8202 40.6343 83.7794 40.6752 83.7277 40.6752H80.3069C80.2552 40.6752 80.2144 40.716 80.2144 40.7677V42.6912C80.2144 42.7429 80.2552 42.7837 80.3069 42.7837Z" fill="white"/>
<path d="M89.3736 43.94H88.198C88.1463 43.94 88.1055 43.8992 88.1055 43.8475V36.5505C88.1055 36.4988 88.1463 36.458 88.198 36.458H89.2131C89.2403 36.458 89.2675 36.4716 89.2838 36.4934L93.1808 41.29C93.2134 41.3281 93.2733 41.3336 93.3114 41.3009C93.3332 41.2846 93.3441 41.2574 93.3441 41.2302V36.5505C93.3441 36.4988 93.3849 36.458 93.4366 36.458H94.6122C94.6639 36.458 94.7047 36.4988 94.7047 36.5505V43.8475C94.7047 43.8992 94.6639 43.94 94.6122 43.94H93.6434C93.6162 43.94 93.589 43.9264 93.5727 43.9047L89.6294 39.0509C89.5968 39.0128 89.5369 39.0073 89.4988 39.04C89.477 39.0563 89.4661 39.0835 89.4661 39.1107V43.8475C89.4661 43.8992 89.4253 43.94 89.3736 43.94Z" fill="white"/>
<path d="M100.344 42.7837H104.339C104.388 42.7837 104.429 42.8218 104.432 42.8708L104.478 43.8421C104.481 43.8938 104.443 43.9373 104.391 43.94C104.391 43.94 104.388 43.94 104.386 43.94H98.9402C98.8885 43.94 98.8477 43.8992 98.8477 43.8475L98.8721 36.5505C98.8721 36.4988 98.913 36.458 98.9647 36.458H104.206C104.258 36.458 104.299 36.4988 104.299 36.5505V37.5218C104.299 37.5735 104.258 37.6143 104.206 37.6143H100.366C100.314 37.6143 100.274 37.6551 100.274 37.7068L100.29 39.4944C100.29 39.5461 100.331 39.5869 100.382 39.5869H103.708C103.757 39.5841 103.795 39.6195 103.801 39.6685L103.877 40.5745C103.882 40.6262 103.844 40.6697 103.792 40.6752C103.79 40.6752 103.787 40.6752 103.784 40.6752H100.355C100.304 40.6752 100.263 40.716 100.263 40.7677L100.252 42.6912C100.252 42.7429 100.293 42.7837 100.344 42.7837Z" fill="white"/>
<path d="M114.408 43.75L112.927 41.6278C112.859 41.5326 112.878 41.4591 112.982 41.4047C114.165 40.7735 114.625 39.8267 114.361 38.5616C113.817 35.9469 110.522 36.4203 108.301 36.472C108.217 36.4747 108.176 36.5156 108.176 36.5999V43.8044C108.176 43.8942 108.222 43.9405 108.312 43.9405H109.4C109.49 43.9405 109.536 43.8942 109.536 43.8044V41.8999C109.536 41.8537 109.547 41.821 109.572 41.7992C109.575 41.7992 109.575 41.7965 109.577 41.7938C109.577 41.7938 109.577 41.7911 109.583 41.7911H109.585C109.585 41.7911 109.602 41.7748 109.613 41.772C109.629 41.7666 109.651 41.7639 109.673 41.7639H111.387C111.482 41.7639 111.556 41.802 111.61 41.8781L112.954 43.8044C113.02 43.8942 113.107 43.9405 113.218 43.9405H114.307C114.462 43.9405 114.497 43.8779 114.408 43.75ZM111.545 40.5368L109.618 40.5314C109.583 40.5314 109.556 40.5042 109.556 40.4688L109.566 37.7426C109.566 37.7072 109.594 37.68 109.629 37.68L111.556 37.6855C112.326 37.6882 112.949 38.2596 112.946 38.9615V39.2717C112.944 39.9736 112.315 40.5395 111.545 40.5368Z" fill="white"/>
<path d="M129.726 36.458H128.534C128.487 36.458 128.449 36.4958 128.449 36.5424V43.8557C128.449 43.9023 128.487 43.94 128.534 43.94H129.726C129.772 43.94 129.81 43.9023 129.81 43.8557V36.5424C129.81 36.4958 129.772 36.458 129.726 36.458Z" fill="white"/>
<path d="M140.969 43.7741L137.698 36.526C137.698 36.526 137.687 36.507 137.679 36.4988C137.674 36.4907 137.666 36.4825 137.655 36.4771C137.638 36.4662 137.617 36.458 137.592 36.458H136.359C136.337 36.458 136.316 36.4662 136.297 36.4771C136.286 36.4825 136.278 36.4907 136.272 36.4988C136.264 36.507 136.259 36.5151 136.253 36.526L133.001 43.7741C132.993 43.7904 132.99 43.8067 132.99 43.8231C132.99 43.8367 132.993 43.8475 132.996 43.8584C132.998 43.8666 133.001 43.872 133.004 43.8775C133.007 43.8829 133.009 43.8884 133.015 43.8938C133.017 43.8992 133.023 43.9047 133.028 43.9101C133.039 43.921 133.056 43.9292 133.069 43.9319C133.083 43.9373 133.094 43.94 133.107 43.94H134.28C134.28 43.94 134.302 43.9373 134.313 43.9346C134.335 43.9292 134.356 43.9156 134.367 43.8965C134.375 43.8884 134.381 43.8802 134.386 43.8693L135.061 42.2913C135.08 42.2477 135.121 42.2205 135.167 42.2205L138.762 42.1933C138.811 42.1933 138.852 42.2233 138.871 42.2668L139.546 43.8693C139.565 43.9128 139.609 43.94 139.655 43.94H140.86C140.874 43.94 140.888 43.9373 140.901 43.9319C140.904 43.9319 140.909 43.9319 140.912 43.9292C140.923 43.9237 140.934 43.9156 140.945 43.9074C140.956 43.8965 140.964 43.8829 140.969 43.8693C140.975 43.8584 140.977 43.8448 140.98 43.8312C140.98 43.8122 140.98 43.7931 140.969 43.7741ZM138.272 41.0261C138.272 41.0261 138.267 41.037 138.264 41.0425C138.256 41.0561 138.242 41.0669 138.226 41.0751C138.215 41.0805 138.202 41.0833 138.191 41.0833H135.747C135.722 41.0833 135.701 41.0724 135.684 41.0561L135.676 41.0479C135.676 41.0479 135.673 41.0452 135.673 41.0425C135.668 41.037 135.665 41.0316 135.665 41.0261C135.665 41.0261 135.664 41.0243 135.663 41.0207C135.663 41.0207 135.66 41.0125 135.66 41.0098C135.657 41.0044 135.657 40.9989 135.657 40.9935C135.657 40.9799 135.66 40.969 135.665 40.9581L136.887 38.085C136.887 38.085 136.895 38.0687 136.901 38.0632C136.904 38.0605 136.906 38.0605 136.906 38.0578C136.906 38.0578 136.908 38.0569 136.912 38.0551C136.912 38.0551 136.912 38.0496 136.917 38.0496H136.92C136.92 38.0496 136.925 38.0442 136.928 38.0442C136.928 38.0442 136.93 38.0433 136.933 38.0415C136.933 38.0415 136.958 38.0333 136.969 38.0333C136.98 38.0333 136.991 38.036 137.004 38.0415H137.007C137.007 38.0415 137.021 38.0496 137.029 38.0551C137.031 38.0578 137.034 38.0605 137.037 38.0632C137.042 38.0714 137.048 38.0768 137.05 38.085L138.272 40.9581C138.272 40.9581 138.281 40.9826 138.281 40.9935C138.281 41.0044 138.278 41.0152 138.272 41.0261Z" fill="white"/>
<path d="M170.612 42.7837H174.343C174.398 42.7837 174.441 42.8273 174.441 42.8817V43.8421C174.441 43.8965 174.398 43.94 174.343 43.94H169.233C169.178 43.94 169.135 43.8965 169.135 43.8421V36.556C169.135 36.5015 169.178 36.458 169.233 36.458H170.414C170.468 36.458 170.512 36.5015 170.512 36.556V42.6858C170.514 42.7402 170.558 42.7837 170.612 42.7837Z" fill="white"/>
<path d="M184.66 43.7931L181.395 36.5179C181.395 36.5179 181.384 36.4988 181.376 36.4907C181.373 36.4852 181.367 36.4825 181.365 36.4798C181.354 36.4716 181.343 36.4662 181.332 36.4635C181.327 36.4607 181.318 36.458 181.31 36.458H180.031C180.031 36.458 180.015 36.4607 180.009 36.4635C179.999 36.4662 179.988 36.4716 179.977 36.4798C179.974 36.4825 179.969 36.4852 179.966 36.4907C179.958 36.4988 179.952 36.507 179.947 36.5179L176.687 43.7931C176.687 43.7931 176.676 43.8231 176.676 43.8394C176.676 43.8394 176.676 43.8557 176.676 43.8611C176.679 43.8666 176.681 43.8748 176.684 43.8802C176.687 43.8911 176.695 43.8992 176.703 43.9074C176.722 43.9292 176.749 43.94 176.779 43.94H177.979C178.02 43.94 178.058 43.9156 178.075 43.8775L178.793 42.2233C178.809 42.1852 178.847 42.1607 178.888 42.1607L182.456 42.1988C182.497 42.1988 182.535 42.2233 182.551 42.2614L183.253 43.8775C183.27 43.9156 183.308 43.94 183.349 43.94H184.562C184.579 43.94 184.592 43.9373 184.609 43.9292C184.619 43.9237 184.628 43.9183 184.636 43.9101H184.638C184.638 43.9101 184.652 43.8911 184.657 43.8802C184.663 43.8666 184.666 43.8557 184.668 43.8421C184.668 43.8258 184.666 43.8095 184.657 43.7931H184.66ZM181.966 41.0261C181.958 41.0479 181.942 41.0642 181.92 41.0751C181.909 41.0805 181.895 41.0833 181.884 41.0833H179.446C179.446 41.0833 179.422 41.0833 179.408 41.0778C179.4 41.0724 179.389 41.0669 179.384 41.0615C179.375 41.0533 179.37 41.0452 179.364 41.037C179.362 41.0316 179.359 41.0289 179.359 41.0234C179.356 41.0207 179.356 41.018 179.356 41.018C179.356 41.0125 179.354 41.0044 179.354 40.9989C179.354 40.9853 179.356 40.9717 179.362 40.9608L180.575 38.0932C180.575 38.0932 180.584 38.0768 180.589 38.0714C180.589 38.0714 180.591 38.0696 180.595 38.066C180.595 38.066 180.6 38.0578 180.603 38.0578C180.605 38.0551 180.608 38.0524 180.611 38.0524C180.614 38.0469 180.619 38.0442 180.624 38.0442C180.63 38.0415 180.635 38.0388 180.641 38.0388C180.646 38.036 180.652 38.036 180.657 38.036C180.657 38.036 180.668 38.036 180.673 38.0388C180.682 38.0388 180.687 38.0415 180.69 38.0442C180.692 38.0469 180.698 38.0469 180.701 38.0496C180.706 38.0524 180.709 38.0524 180.712 38.0578C180.714 38.0578 180.714 38.0605 180.717 38.0632C180.717 38.0632 180.718 38.0632 180.72 38.0632C180.72 38.0632 180.725 38.066 180.725 38.0687C180.731 38.0741 180.736 38.0823 180.739 38.0905L181.963 40.9554C181.963 40.9554 181.972 40.9799 181.972 40.9908C181.972 41.0016 181.969 41.0125 181.963 41.0234L181.966 41.0261Z" fill="white"/>
<path d="M194.052 43.7414L192.571 41.6029C192.517 41.524 192.533 41.4641 192.618 41.4179C195.276 40.0303 194.068 36.5015 191.17 36.4634C190.919 36.4607 190.672 36.458 190.427 36.4553C189.608 36.4498 188.832 36.4525 188.103 36.4661C187.85 36.4661 187.733 36.5995 187.755 36.8525C187.959 39.1542 187.76 41.4941 187.782 43.7958C187.782 43.8911 187.828 43.94 187.923 43.94H189.069C189.159 43.94 189.205 43.8938 189.205 43.804V41.8995C189.205 41.8532 189.216 41.8206 189.24 41.7988L189.246 41.7934C189.246 41.7934 189.246 41.7906 189.251 41.7906H189.254C189.254 41.7906 189.27 41.7743 189.281 41.7716C189.3 41.7662 189.319 41.7634 189.341 41.7634H191.045C191.14 41.7634 191.216 41.8015 191.271 41.8804L192.604 43.7985C192.62 43.823 192.639 43.8421 192.658 43.8584C192.677 43.8774 192.696 43.8911 192.721 43.9047C192.765 43.9291 192.816 43.94 192.873 43.94H193.948C194 43.94 194.038 43.9319 194.063 43.921C194.076 43.9128 194.084 43.9047 194.093 43.8938C194.112 43.8584 194.098 43.8094 194.052 43.7414ZM191.05 40.5636H189.314C189.254 40.5636 189.205 40.5173 189.205 40.4575L189.2 37.7531C189.2 37.6932 189.249 37.6442 189.308 37.6442H191.045L191.056 37.6415C191.107 37.6415 191.159 37.6442 191.208 37.6497H191.211C191.254 37.6524 191.295 37.6578 191.336 37.666C191.393 37.6714 191.445 37.685 191.496 37.6986C191.545 37.7095 191.592 37.7231 191.638 37.7395C191.679 37.7531 191.722 37.7694 191.76 37.7884C191.801 37.8075 191.839 37.8265 191.877 37.8483C191.967 37.8918 192.049 37.9462 192.125 38.0115C192.152 38.0333 192.179 38.0551 192.204 38.0795C192.218 38.0904 192.231 38.104 192.245 38.1204C192.258 38.134 192.272 38.1448 192.283 38.1612C192.305 38.1829 192.326 38.2074 192.348 38.2346C192.364 38.2591 192.386 38.289 192.405 38.3163C192.411 38.3217 192.416 38.3299 192.419 38.338H192.422C192.422 38.338 192.424 38.3435 192.427 38.3489C192.433 38.3571 192.435 38.3652 192.441 38.3734C192.443 38.3761 192.446 38.3788 192.446 38.3816C192.449 38.387 192.452 38.3924 192.454 38.3979C192.457 38.4033 192.46 38.4088 192.462 38.4115C192.465 38.4169 192.471 38.4251 192.473 38.4305C192.473 38.4305 192.481 38.4468 192.484 38.455H192.487C192.487 38.455 192.492 38.4659 192.492 38.4713C192.498 38.4768 192.498 38.4849 192.501 38.4904L192.509 38.5067C192.52 38.5312 192.53 38.553 192.539 38.5774C192.552 38.6128 192.563 38.6482 192.571 38.6863C192.579 38.7216 192.588 38.757 192.593 38.7951C192.599 38.825 192.604 38.8522 192.604 38.8822C192.607 38.9121 192.609 38.942 192.609 38.972V39.2277C192.609 39.965 191.913 40.5609 191.05 40.5636Z" fill="white"/>
</svg>
