<svg width="54" height="54" viewBox="0 0 54 54" fill="none" xmlns="http://www.w3.org/2000/svg">
<path d="M44.2329 0H46.7602C48.9339 0.385191 50.7626 1.38247 52.1408 3.12268C54.839 6.52713 54.5741 11.3003 51.5171 14.403C49.6209 16.3279 47.7036 18.2317 45.7841 20.1333C45.5119 20.4035 45.439 20.6304 45.5973 21.005C47.2931 25.0057 47.8006 29.1668 47.2276 33.4662C46.5745 38.3629 44.5959 42.6707 41.2213 46.2556C35.3743 52.4682 28.1323 55.059 19.7338 53.6059C10.5892 52.024 4.46677 46.5838 1.20612 37.9186C0.529723 36.1214 0.226873 34.2334 0 32.3339C0 30.9292 0 29.5257 0 28.121C0.0685896 27.6008 0.123461 27.0784 0.206824 26.5613C0.935984 22.034 2.78263 18.0248 5.81745 14.5813C9.36829 10.5532 13.7791 7.99614 19.0436 6.91338C21.0317 6.50392 23.0419 6.43743 25.0595 6.50181C25.4847 6.51553 25.6926 6.37622 25.7971 5.9541C25.949 5.34096 26.2139 4.7637 26.5347 4.21599C27.917 1.86052 29.9789 0.489667 32.6476 0H35.1749C36.7514 0.292323 38.1854 0.898075 39.4095 1.95234C39.6216 2.13491 39.7873 2.14124 40.0004 1.95761C41.2234 0.902296 42.6564 0.295489 44.2329 0ZM27.9001 33.9559V33.9094C27.2691 33.9094 26.6202 34.0065 26.0113 33.8936C22.4647 33.234 20.8913 29.2186 23.0113 26.2901C23.618 25.4521 24.2417 24.6248 24.8748 23.8058C25.1355 23.4681 25.2441 23.1114 25.241 22.6861C25.2283 20.8963 25.241 19.1065 25.2336 17.3156C25.2294 16.3711 25.5723 15.5712 26.1949 14.881C26.4176 14.6341 26.6444 14.384 26.8998 14.1729C27.2438 13.889 27.2396 13.6474 26.9747 13.2896C26.331 12.4211 25.9005 11.4396 25.6673 10.3833C25.5818 9.99702 25.4119 9.83978 24.9983 9.81339C23.4334 9.71419 21.8801 9.78384 20.3373 10.0445C16.1513 10.7537 12.5329 12.5963 9.47486 15.5374C9.02323 15.9722 9.03906 16.0081 9.65214 16.2287C11.4671 16.8819 13.3001 17.4887 15.0918 18.1989C19.1534 19.8083 20.33 25.1651 17.3468 28.3553C16.7475 28.9959 16.127 29.6185 15.4907 30.2211C14.9969 30.6897 14.7795 31.2469 14.7848 31.9128C14.7879 32.2114 14.7848 32.509 14.7848 32.8077C14.7784 35.2128 13.1291 37.1461 10.7443 37.5302C8.9979 37.812 7.25151 38.0948 5.50089 38.3439C5.02815 38.4114 4.99966 38.5729 5.18326 38.9549C6.51074 41.7188 8.35633 44.0743 10.7116 46.035C11.0218 46.2936 11.2075 46.2978 11.3785 45.9073C11.5252 45.5707 11.6982 45.2425 11.8839 44.9248C12.6711 43.5846 13.8129 42.7266 15.3409 42.3889C16.0721 42.2275 16.8118 42.2834 17.5431 42.3119C18.8031 42.3604 19.6789 41.932 20.3268 40.769C21.4844 38.6921 23.9135 37.6896 26.2371 38.1803C28.2832 38.613 29.694 39.8266 30.4612 41.761C31.2769 43.8146 32.062 45.8799 32.8428 47.9473C32.9832 48.3177 33.1288 48.4021 33.4918 48.1974C37.4246 45.9886 40.3634 42.8554 42.285 38.7723C42.5467 38.2151 42.5076 38.1666 41.8724 38.1666C39.4327 38.1655 36.9941 38.1539 34.5555 38.1698C32.9705 38.1803 31.8467 37.4595 31.107 36.0918C30.8231 35.5673 30.5593 35.0323 30.3018 34.4941C30.1224 34.1184 29.846 33.94 29.4281 33.9495C28.9195 33.9622 28.4109 33.9527 27.9012 33.9527L27.9001 33.9559ZM28.7496 8.61666C28.7253 9.78384 29.1917 10.9932 30.1604 11.9715C33.21 15.052 36.2839 18.1092 39.3419 21.1813C39.6184 21.4588 39.8179 21.4409 40.0859 21.1718C43.1323 18.1124 46.1977 15.072 49.2315 12C50.3669 10.8497 50.8344 9.42926 50.635 7.81251C50.3902 5.82957 49.3349 4.41122 47.5126 3.64612C45.6501 2.86413 43.8657 3.1364 42.2691 4.38695C41.8017 4.75315 41.406 5.20904 40.9712 5.61745C40.1576 6.3815 39.2438 6.37517 38.4492 5.6069C38.0831 5.25337 37.7243 4.89139 37.3507 4.54736C36.3747 3.64929 35.1917 3.21872 33.8917 3.21766C31.0342 3.2145 28.7623 5.53408 28.7507 8.61561L28.7496 8.61666ZM38.9357 34.9268C40.2516 34.9268 41.5685 34.9268 42.8843 34.9268C43.6399 34.9268 43.6293 34.9204 43.7813 34.1532C44.158 32.2484 44.2414 30.3256 44.081 28.3965C43.9427 26.7312 43.584 25.107 43.0395 23.5241C42.9118 23.1537 42.7704 23.1325 42.5055 23.4122C42.0592 23.8839 41.5927 24.3356 41.1327 24.7936C40.1386 25.7824 39.2702 25.7814 38.2741 24.7873C36.0275 22.5426 33.782 20.2948 31.5354 18.0491C30.9898 17.5035 30.4432 16.9568 29.8966 16.4123C29.7721 16.2878 29.6276 16.1157 29.4534 16.2857C28.9744 16.7532 28.4278 17.1394 28.4573 17.971C28.5175 19.6711 28.4541 21.3754 28.4837 23.0777C28.5006 24.037 28.2104 24.8664 27.6395 25.6189C27.0349 26.4156 26.4418 27.2208 25.8361 28.0166C25.4183 28.5653 25.1819 29.1447 25.5122 29.8201C25.8498 30.5092 26.4661 30.7076 27.1731 30.7129C28.0331 30.7203 28.8931 30.7213 29.7531 30.7129C31.2494 30.6992 32.3353 31.3893 33.0655 32.661C33.3799 33.2077 33.6553 33.7786 33.9223 34.3506C34.1186 34.7716 34.4235 34.9373 34.8815 34.932C36.2322 34.9173 37.5839 34.9268 38.9357 34.9278V34.9268ZM3.20472 30.1979C3.23743 30.7583 3.26381 31.3186 3.30285 31.879C3.37144 32.8773 3.53711 33.862 3.75555 34.8381C3.81569 35.1041 3.93071 35.2539 4.2705 35.199C6.22477 34.8824 8.18327 34.5965 10.1386 34.2904C10.8825 34.1743 11.3194 33.7343 11.4819 33.0029C11.5938 32.4985 11.5463 31.9877 11.541 31.4812C11.5273 30.1989 12 29.1194 12.8716 28.2055C13.4531 27.5955 14.0619 27.0129 14.6529 26.4125C16.4763 24.5593 15.9117 21.9949 13.4784 21.1116C11.484 20.3877 9.48225 19.6827 7.4826 18.9714C6.7661 18.7171 6.76505 18.7213 6.35668 19.3746C4.28843 22.6861 3.26487 26.3027 3.20577 30.1989L3.20472 30.1979ZM23.6233 50.7206C24.0602 50.6921 24.497 50.651 24.935 50.6373C26.4861 50.5877 27.9909 50.2742 29.4788 49.8627C29.7457 49.7888 29.9948 49.7149 29.846 49.334C28.9934 47.1463 28.165 44.9491 27.2913 42.7709C26.9937 42.028 26.3933 41.57 25.5903 41.4286C24.458 41.2281 23.5906 41.6512 22.9786 42.7403C22.2389 44.0574 21.1784 44.9554 19.7232 45.3871C19.0183 45.596 18.2923 45.5981 17.5843 45.5295C15.9096 45.367 14.7826 45.9781 14.2128 47.6085C13.9912 48.2428 13.9247 48.2195 14.5579 48.5361C17.4112 49.965 20.4397 50.6679 23.6244 50.7217L23.6233 50.7206Z" fill="#01B040"/>
</svg>
