<svg width="116" height="116" viewBox="0 0 116 116" fill="none" xmlns="http://www.w3.org/2000/svg">
<g id="play_circle">
<mask id="mask0_2350_1802" style="mask-type:alpha" maskUnits="userSpaceOnUse" x="0" y="0" width="116" height="116">
<rect id="Bounding box" width="116" height="116" fill="#D9D9D9"/>
</mask>
<g mask="url(#mask0_2350_1802)">
<path id="play_circle_2" d="M46.2795 78.5415L78.542 57.9998L46.2795 37.4582V78.5415ZM58.0003 106.333C51.3948 106.333 45.1517 105.064 39.2712 102.527C33.3906 99.9894 28.2552 96.5255 23.8649 92.1353C19.4746 87.745 16.0107 82.6096 13.4732 76.729C10.9357 70.8484 9.66699 64.6054 9.66699 57.9998C9.66699 51.3137 10.9357 45.0304 13.4732 39.1498C16.0107 33.2693 19.4746 28.154 23.8649 23.804C28.2552 19.454 33.3906 16.0103 39.2712 13.4728C45.1517 10.9353 51.3948 9.6665 58.0003 9.6665C64.6864 9.6665 70.9698 10.9353 76.8503 13.4728C82.7309 16.0103 87.8462 19.454 92.1962 23.804C96.5462 28.154 99.9899 33.2693 102.527 39.1498C105.065 45.0304 106.334 51.3137 106.334 57.9998C106.334 64.6054 105.065 70.8484 102.527 76.729C99.9899 82.6096 96.5462 87.745 92.1962 92.1353C87.8462 96.5255 82.7309 99.9894 76.8503 102.527C70.9698 105.064 64.6864 106.333 58.0003 106.333Z" fill="white"/>
</g>
</g>
</svg>
