<svg width="410" height="192" viewBox="0 0 410 192" fill="none" xmlns="http://www.w3.org/2000/svg">
<path d="M214.178 26.8518C214.087 26.5579 213.987 26.2682 213.88 25.9743C209.985 15.1383 191.86 14.385 191.86 27.7085C191.86 30.2706 185.705 27.7085 183.4 31.0198C181.094 34.331 183.656 36.4005 180.577 37.4311C177.497 38.4618 177.245 35.8914 173.396 36.148C169.546 36.4047 170.064 39.9932 168.781 41.0197C167.498 42.0462 167.498 41.5329 164.679 41.7896C161.86 42.0462 161.343 44.0991 161.343 44.0991H228.809C228.809 44.0991 231.371 36.4047 226.74 33.586C222.108 30.7673 222.125 34.6083 218.532 33.0727C215.564 31.8227 215.01 29.4097 214.178 26.8518Z" stroke="#BFB8A6" stroke-width="0.5" stroke-linecap="round" stroke-linejoin="round"/>
<path d="M216.512 41.3134C216.512 41.3134 217.907 36.9964 214.48 33.8176C211.053 30.6388 207.493 32.4227 206.479 33.8176C205.465 35.2124 205.461 37.8821 203.809 38.1387C202.158 38.3954 202.543 35.3449 198.983 36.1065C195.424 36.8681 196.827 40.4235 195.175 41.1851C193.524 41.9467 193.52 39.1528 191.235 40.0427C188.95 40.9326 189.078 42.5841 189.078 42.5841" stroke="#BFB8A6" stroke-width="0.5" stroke-linecap="round" stroke-linejoin="round"/>
<path d="M198.271 32.6835C197.335 32.0182 196.238 31.6151 195.094 31.5162C193.95 31.4172 192.801 31.6259 191.764 32.1206C188.089 33.8176 189.786 37.3524 188.089 38.2009C186.392 39.0494 185.543 38.056 183.42 39.0287C181.297 40.0013 181.442 41.4293 181.442 41.4293" stroke="#BFB8A6" stroke-width="0.5" stroke-linecap="round" stroke-linejoin="round"/>
<path d="M165.552 50.9119C165.51 50.7877 165.465 50.6594 165.419 50.5311C163.726 45.8168 155.841 45.4939 155.841 51.2844C155.841 52.402 153.164 51.2844 152.158 52.7331C151.152 54.1818 152.269 55.0799 150.916 55.5228C149.563 55.9657 149.463 54.8564 147.791 54.9682C146.119 55.0799 146.338 56.6238 145.784 57.0874C145.229 57.5509 145.225 57.3109 143.996 57.4226C142.766 57.5344 142.547 58.4243 142.547 58.4243H171.889C171.889 58.4243 173.006 55.0799 170.994 53.8713C168.983 52.6627 168.987 54.3183 167.427 53.6478C166.152 53.0725 165.912 52.0253 165.552 50.9119Z" stroke="#BFB8A6" stroke-width="0.5" stroke-linecap="round" stroke-linejoin="round"/>
<path d="M166.565 57.2032C166.728 56.6311 166.731 56.0254 166.575 55.4514C166.419 54.8774 166.11 54.3568 165.68 53.9458C164.19 52.5634 162.642 53.3374 162.199 53.9458C161.756 54.5542 161.756 55.7132 161.04 55.8249C160.324 55.9367 160.485 54.6081 158.937 54.9392C157.389 55.2703 157.998 56.8183 157.282 57.1494C156.566 57.4805 156.561 56.2637 155.568 56.6527C154.575 57.0418 154.628 57.7579 154.628 57.7579" stroke="#BFB8A6" stroke-width="0.5" stroke-linecap="round" stroke-linejoin="round"/>
<path d="M158.627 53.4491C158.221 53.1593 157.744 52.9837 157.247 52.9408C156.75 52.8978 156.25 52.989 155.8 53.2049C154.199 53.9417 154.935 55.4814 154.199 55.8498C153.462 56.2182 153.093 55.7877 152.17 56.2182C151.247 56.6486 151.309 57.2653 151.309 57.2653" stroke="#BFB8A6" stroke-width="0.5" stroke-linecap="round" stroke-linejoin="round"/>
<path d="M320.791 50.9119C320.75 50.7877 320.709 50.6594 320.663 50.5311C318.966 45.8168 311.081 45.4939 311.081 51.2844C311.081 52.402 308.403 51.2844 307.402 52.7331C306.4 54.1818 307.513 55.0799 306.16 55.5228C304.806 55.9657 304.711 54.8564 303.039 54.9682C301.367 55.0799 301.586 56.6238 301.028 57.0874C300.469 57.5509 300.473 57.3109 299.244 57.4226C298.014 57.5344 297.795 58.4243 297.795 58.4243H327.137C327.137 58.4243 328.25 55.0799 326.243 53.8713C324.235 52.6627 324.235 54.3183 322.675 53.6478C321.396 53.0725 321.156 52.0253 320.791 50.9119Z" stroke="#BFB8A6" stroke-width="0.5" stroke-linecap="round" stroke-linejoin="round"/>
<path d="M321.805 57.2032C321.968 56.6314 321.972 56.0261 321.817 55.4522C321.661 54.8783 321.353 54.3576 320.924 53.9458C319.43 52.5634 317.886 53.3374 317.443 53.9458C317 54.5542 317 55.7132 316.28 55.8249C315.56 55.9367 315.729 54.6081 314.181 54.9392C312.633 55.2703 313.242 56.8183 312.526 57.1494C311.81 57.4805 311.806 56.2637 310.812 56.6527C309.819 57.0418 309.873 57.7579 309.873 57.7579" stroke="#BFB8A6" stroke-width="0.5" stroke-linecap="round" stroke-linejoin="round"/>
<path d="M313.871 53.4492C313.464 53.159 312.986 52.9832 312.488 52.9403C311.991 52.8973 311.49 52.9887 311.04 53.205C309.442 53.9417 310.179 55.4815 309.442 55.8498C308.705 56.2182 308.333 55.7877 307.41 56.2182C306.487 56.6487 306.549 57.2654 306.549 57.2654" stroke="#BFB8A6" stroke-width="0.5" stroke-linecap="round" stroke-linejoin="round"/>
<path d="M85.2301 160.729C85.5974 160.825 85.9766 160.866 86.3559 160.853C86.3559 160.853 86.1862 160.332 86.1697 160.299C85.9959 159.934 85.4412 159.326 84.9901 159.388C84.9168 159.402 84.8472 159.431 84.7858 159.473C84.7244 159.515 84.6725 159.57 84.6335 159.634C84.5945 159.697 84.5693 159.768 84.5594 159.842C84.5495 159.916 84.5552 159.991 84.5762 160.063C84.6316 160.214 84.7186 160.351 84.8314 160.466C84.9441 160.581 85.0801 160.671 85.2301 160.729Z" fill="#01B040"/>
<path d="M110.892 169.049C110.947 168.938 110.978 168.817 110.983 168.694C110.988 168.571 110.966 168.449 110.921 168.334C110.875 168.22 110.806 168.116 110.717 168.03C110.629 167.945 110.524 167.878 110.408 167.836C109.709 167.604 108.637 168.399 108.248 168.928C108.248 168.953 108.099 169.177 107.979 169.384H110.648C110.748 169.287 110.831 169.174 110.892 169.049Z" fill="#01B040"/>
<path d="M98.1365 155.307C98.733 155.464 99.3495 155.532 99.9659 155.51C99.9659 155.51 99.6886 154.661 99.6638 154.612C99.3782 154.016 98.48 153.03 97.7474 153.13C97.6259 153.149 97.5099 153.194 97.4069 153.261C97.304 153.329 97.2164 153.417 97.15 153.521C97.0835 153.624 97.0397 153.741 97.0214 153.862C97.0031 153.984 97.0107 154.108 97.0438 154.227C97.1354 154.476 97.2809 154.702 97.4697 154.889C97.6586 155.075 97.8862 155.218 98.1365 155.307Z" fill="#01B040"/>
<path d="M106.928 165.601C107.407 165.922 107.934 166.166 108.488 166.325C108.434 166.582 108.381 166.834 108.314 167.083C108.269 167.248 108.236 167.41 108.178 167.575C108.12 167.741 108.074 167.898 108.02 168.06C107.909 168.366 107.797 168.68 107.681 168.974C107.627 169.119 107.573 169.252 107.52 169.388H107.954C107.987 169.301 108.02 169.214 108.054 169.119C108.165 168.813 108.269 168.507 108.381 168.175L108.53 167.687C108.579 167.526 108.617 167.348 108.658 167.174C108.753 166.76 108.832 166.367 108.902 165.932C109.448 166.158 110.026 166.297 110.616 166.346C110.882 166.344 111.144 166.285 111.385 166.172C111.626 166.059 111.839 165.895 112.011 165.692C112.081 165.591 112.13 165.477 112.153 165.356C112.176 165.235 112.174 165.111 112.146 164.991C112.119 164.871 112.066 164.759 111.992 164.661C111.918 164.562 111.824 164.481 111.717 164.421C111.059 164.086 109.879 164.707 109.411 165.175C109.382 165.204 109.084 165.589 108.927 165.783C108.964 165.535 109.006 165.282 109.035 165.03C109.126 164.297 109.196 163.552 109.27 162.811C109.27 162.584 109.316 162.356 109.341 162.128C109.907 162.355 110.504 162.494 111.112 162.542C111.378 162.541 111.641 162.481 111.882 162.368C112.122 162.256 112.336 162.092 112.507 161.888C112.578 161.787 112.626 161.673 112.65 161.552C112.673 161.432 112.671 161.307 112.643 161.187C112.615 161.068 112.563 160.955 112.489 160.857C112.415 160.759 112.321 160.677 112.213 160.618C111.555 160.282 110.376 160.903 109.908 161.371C109.875 161.404 109.444 161.942 109.345 162.083C109.395 161.582 109.453 161.085 109.531 160.597C109.627 159.939 109.765 159.288 109.945 158.647C110.516 158.874 111.117 159.014 111.729 159.061C111.995 159.06 112.257 159.001 112.497 158.888C112.737 158.775 112.95 158.611 113.12 158.407C113.191 158.307 113.24 158.193 113.264 158.072C113.287 157.952 113.285 157.828 113.258 157.708C113.23 157.588 113.177 157.476 113.103 157.378C113.028 157.28 112.934 157.199 112.826 157.141C112.168 156.801 110.992 157.426 110.525 157.894C110.487 157.927 110.028 158.507 109.949 158.614C109.961 158.578 109.971 158.54 109.978 158.502C110.18 157.865 110.439 157.247 110.752 156.656C110.922 156.325 111.1 156.019 111.282 155.729C111.812 156.01 112.381 156.21 112.971 156.321C113.235 156.35 113.503 156.321 113.754 156.235C114.006 156.149 114.236 156.009 114.428 155.825C114.509 155.732 114.57 155.624 114.606 155.507C114.642 155.39 114.654 155.266 114.639 155.145C114.625 155.023 114.585 154.905 114.522 154.8C114.459 154.695 114.375 154.604 114.275 154.533C113.658 154.119 112.42 154.616 111.903 155.026C111.874 155.051 111.613 155.307 111.427 155.498L111.679 155.108C111.986 154.641 112.3 154.235 112.578 153.867C112.739 153.664 112.888 153.486 113.029 153.316C113.626 153.325 114.221 153.241 114.792 153.068C115.04 152.971 115.263 152.821 115.447 152.629C115.631 152.437 115.77 152.206 115.856 151.955C115.885 151.836 115.89 151.712 115.868 151.591C115.847 151.47 115.8 151.356 115.731 151.254C115.663 151.152 115.573 151.067 115.469 151.002C115.365 150.937 115.249 150.895 115.127 150.878C114.39 150.8 113.517 151.806 113.248 152.41C113.223 152.464 112.954 153.32 112.971 153.32C112.834 153.478 112.685 153.647 112.528 153.838C112.242 154.19 111.919 154.591 111.601 155.055C111.249 155.547 110.927 156.06 110.636 156.59C110.303 157.181 110.026 157.802 109.809 158.445C109.809 158.445 109.809 158.445 109.809 158.465C109.809 158.25 109.809 157.637 109.809 157.596C109.726 156.942 109.175 155.729 108.447 155.593C108.325 155.574 108.201 155.581 108.083 155.614C107.964 155.646 107.854 155.703 107.759 155.782C107.664 155.86 107.586 155.957 107.532 156.067C107.477 156.177 107.446 156.298 107.441 156.421C107.451 156.686 107.519 156.946 107.64 157.183C107.761 157.419 107.931 157.627 108.141 157.791C108.652 158.123 109.21 158.378 109.796 158.548C109.589 159.206 109.426 159.876 109.308 160.555C109.237 160.969 109.179 161.35 109.126 161.756C109.126 161.565 109.126 161.4 109.126 161.375C109.039 160.721 108.492 159.508 107.764 159.372C107.642 159.353 107.518 159.36 107.399 159.393C107.28 159.425 107.17 159.482 107.074 159.56C106.979 159.638 106.901 159.736 106.846 159.846C106.791 159.956 106.759 160.076 106.754 160.199C106.765 160.465 106.834 160.725 106.955 160.962C107.077 161.198 107.248 161.406 107.458 161.57C107.952 161.896 108.494 162.146 109.064 162.31C109.064 162.464 109.026 162.617 109.006 162.774C108.919 163.515 108.832 164.256 108.728 164.98C108.691 165.237 108.645 165.485 108.6 165.733C108.6 165.568 108.6 165.427 108.6 165.406C108.517 164.752 107.967 163.54 107.242 163.403C107.121 163.384 106.996 163.392 106.877 163.424C106.759 163.457 106.648 163.514 106.553 163.592C106.457 163.67 106.38 163.767 106.325 163.877C106.269 163.987 106.238 164.108 106.232 164.231C106.243 164.496 106.31 164.756 106.43 164.992C106.55 165.229 106.72 165.436 106.928 165.601Z" fill="#01B040"/>
<path d="M98.5864 159.069C99.1975 159.065 99.8045 158.969 100.387 158.784C100.577 159.447 100.811 160.097 101.086 160.729C101.248 161.097 101.417 161.462 101.595 161.83C101.492 161.673 101.397 161.536 101.38 161.52C100.966 161.019 99.8198 160.307 99.1369 160.597C99.0259 160.648 98.9269 160.723 98.8464 160.815C98.7659 160.907 98.7055 161.015 98.6693 161.132C98.633 161.249 98.6216 161.372 98.6359 161.494C98.6501 161.616 98.6896 161.733 98.7519 161.838C98.9076 162.053 99.1081 162.232 99.3396 162.362C99.5712 162.492 99.8282 162.571 100.093 162.592C100.687 162.591 101.277 162.5 101.844 162.323C101.91 162.463 101.98 162.604 102.051 162.736C102.386 163.403 102.721 164.069 103.032 164.731C103.143 164.967 103.243 165.199 103.342 165.431C103.251 165.294 103.168 165.183 103.156 165.166C102.742 164.665 101.595 163.953 100.912 164.243C100.801 164.294 100.702 164.368 100.621 164.461C100.54 164.553 100.479 164.661 100.443 164.778C100.407 164.895 100.395 165.019 100.41 165.14C100.425 165.262 100.465 165.38 100.528 165.485C100.682 165.701 100.883 165.881 101.114 166.012C101.346 166.143 101.603 166.221 101.869 166.242C102.445 166.244 103.019 166.158 103.57 165.986C103.665 166.23 103.764 166.47 103.843 166.71C103.897 166.875 103.959 167.029 104 167.198L104.137 167.691C104.215 168.005 104.294 168.332 104.36 168.639C104.41 168.854 104.451 169.053 104.493 169.268C104.385 169.036 104.166 168.581 104.145 168.548C103.793 167.989 102.787 167.116 102.076 167.306C101.957 167.339 101.847 167.398 101.753 167.476C101.658 167.555 101.581 167.653 101.527 167.763C101.473 167.874 101.442 167.995 101.438 168.118C101.433 168.241 101.454 168.363 101.5 168.477C101.61 168.696 101.764 168.89 101.953 169.046C102.142 169.202 102.361 169.317 102.597 169.384H104.944C104.944 169.334 104.919 169.284 104.911 169.231C105.257 169.093 105.594 168.934 105.921 168.755C106.181 169.002 106.474 169.213 106.79 169.384H107.477C107.514 169.127 107.556 168.813 107.556 168.779C107.55 168.197 107.393 167.627 107.1 167.124C107.109 167.059 107.109 166.994 107.1 166.929C107.086 166.807 107.045 166.69 106.982 166.584C106.919 166.479 106.834 166.388 106.733 166.318C106.632 166.248 106.518 166.199 106.397 166.176C106.276 166.153 106.152 166.156 106.032 166.184C105.316 166.375 104.865 167.629 104.828 168.291C104.828 168.328 104.853 168.755 104.874 169.02C104.836 168.866 104.803 168.713 104.766 168.556C104.691 168.237 104.605 167.927 104.518 167.587L104.369 167.099C104.323 166.933 104.253 166.768 104.199 166.598C104.054 166.213 103.893 165.828 103.723 165.443C104.303 165.325 104.862 165.117 105.379 164.827C105.6 164.679 105.786 164.486 105.925 164.259C106.063 164.033 106.151 163.778 106.181 163.515C106.184 163.392 106.161 163.269 106.114 163.156C106.066 163.043 105.996 162.94 105.906 162.856C105.817 162.771 105.711 162.706 105.595 162.665C105.479 162.624 105.356 162.607 105.234 162.616C104.501 162.699 103.864 163.858 103.731 164.516C103.731 164.558 103.677 165.029 103.657 165.29C103.553 165.063 103.45 164.831 103.338 164.603C103.007 163.941 102.655 163.283 102.303 162.621L101.989 162.016C102.587 161.891 103.163 161.678 103.698 161.383C103.919 161.235 104.104 161.041 104.243 160.815C104.382 160.588 104.47 160.335 104.501 160.071C104.504 159.948 104.481 159.826 104.433 159.713C104.386 159.6 104.315 159.497 104.226 159.413C104.137 159.329 104.03 159.264 103.915 159.224C103.799 159.183 103.676 159.167 103.553 159.177C102.821 159.256 102.183 160.419 102.047 161.073C102.047 161.122 101.976 161.805 101.968 161.979C101.736 161.532 101.513 161.085 101.306 160.638C101.024 160.034 100.784 159.412 100.586 158.775C101.186 158.649 101.764 158.435 102.303 158.142C102.524 157.994 102.71 157.799 102.849 157.572C102.987 157.345 103.075 157.09 103.106 156.826C103.109 156.703 103.086 156.581 103.038 156.468C102.991 156.355 102.92 156.252 102.831 156.168C102.742 156.084 102.636 156.019 102.52 155.979C102.404 155.938 102.281 155.922 102.158 155.932C101.426 156.011 100.788 157.174 100.656 157.828C100.656 157.877 100.577 158.614 100.573 158.746C100.573 158.713 100.548 158.676 100.536 158.639C100.344 157.996 100.208 157.339 100.13 156.673C100.089 156.309 100.068 155.953 100.06 155.609C100.657 155.553 101.241 155.406 101.794 155.174C102.03 155.052 102.237 154.88 102.4 154.67C102.562 154.46 102.678 154.217 102.738 153.958C102.754 153.837 102.745 153.714 102.711 153.597C102.678 153.48 102.62 153.371 102.542 153.277C102.465 153.184 102.368 153.107 102.259 153.053C102.151 152.998 102.032 152.966 101.91 152.96C101.169 152.96 100.408 154.053 100.205 154.682C100.205 154.715 100.118 155.075 100.068 155.34C100.068 155.183 100.068 155.021 100.068 154.872C100.068 154.314 100.105 153.804 100.138 153.349C100.163 153.092 100.188 152.861 100.213 152.641C100.715 152.319 101.165 151.921 101.546 151.462C101.698 151.244 101.801 150.996 101.849 150.734C101.896 150.473 101.886 150.204 101.819 149.947C101.778 149.831 101.713 149.725 101.628 149.637C101.543 149.548 101.441 149.478 101.327 149.431C101.214 149.384 101.092 149.361 100.969 149.365C100.846 149.368 100.725 149.397 100.614 149.45C99.9564 149.79 99.7867 151.106 99.8943 151.764C99.8943 151.822 100.151 152.683 100.163 152.674C100.134 152.886 100.105 153.109 100.081 153.353C100.035 153.809 99.9895 154.318 99.9729 154.881C99.9539 155.485 99.9691 156.09 100.018 156.693C100.071 157.368 100.183 158.038 100.354 158.693V158.717C100.238 158.535 99.8943 158.035 99.8653 157.997C99.4514 157.501 98.3049 156.789 97.622 157.078C97.5105 157.13 97.4111 157.204 97.3302 157.296C97.2493 157.388 97.1888 157.496 97.1524 157.613C97.1161 157.73 97.1049 157.854 97.1195 157.976C97.134 158.098 97.1741 158.215 97.237 158.32C97.3938 158.536 97.5958 158.715 97.8288 158.844C98.0619 158.973 98.3204 159.05 98.5864 159.069Z" fill="#01B040"/>
<path d="M111.265 155.592C111.265 155.592 111.501 154.732 111.509 154.674C111.6 154.02 111.389 152.703 110.723 152.381C110.611 152.33 110.489 152.305 110.367 152.304C110.244 152.304 110.123 152.33 110.01 152.38C109.898 152.43 109.798 152.503 109.716 152.595C109.634 152.686 109.572 152.794 109.535 152.91C109.475 153.169 109.472 153.438 109.526 153.698C109.58 153.959 109.691 154.204 109.849 154.417C110.261 154.876 110.738 155.272 111.265 155.592Z" fill="#01B040"/>
<path d="M93.0576 169.177C93.0914 169.109 93.1106 169.035 93.1139 168.96C93.1172 168.884 93.1046 168.809 93.0769 168.739C93.0492 168.668 93.0069 168.605 92.953 168.552C92.899 168.499 92.8345 168.458 92.7637 168.432C92.3498 168.287 91.671 168.779 91.431 169.106C91.431 169.106 91.3399 169.255 91.2695 169.384H92.9251C92.9827 169.324 93.0278 169.254 93.0576 169.177Z" fill="#01B040"/>
<path d="M90.6118 167.058C90.9072 167.255 91.231 167.406 91.572 167.505C91.5389 167.662 91.5058 167.819 91.4644 167.968C91.423 168.117 91.4148 168.171 91.3816 168.27C91.3485 168.37 91.3154 168.473 91.2864 168.569C91.2161 168.759 91.1457 168.953 91.0754 169.131L90.976 169.384H91.2451L91.3071 169.218C91.3734 169.032 91.4354 168.842 91.5058 168.639C91.5348 168.54 91.5638 168.44 91.5969 168.337C91.63 168.233 91.6507 168.13 91.6755 168.022C91.7376 167.778 91.7831 167.525 91.8245 167.269C92.1616 167.404 92.5176 167.487 92.88 167.513C93.0444 167.511 93.2064 167.473 93.3544 167.401C93.5025 167.33 93.633 167.227 93.7368 167.099C93.7804 167.037 93.8105 166.967 93.825 166.892C93.8396 166.818 93.8382 166.741 93.821 166.667C93.8038 166.593 93.7712 166.524 93.7253 166.464C93.6794 166.403 93.6212 166.353 93.5546 166.317C93.1407 166.11 92.4288 166.495 92.1391 166.78L91.8411 167.153C91.8659 167 91.8907 166.847 91.9073 166.694C91.9652 166.242 92.0066 165.783 92.0522 165.328C92.0522 165.187 92.0811 165.046 92.0936 164.914C92.4433 165.052 92.8115 165.137 93.1863 165.166C93.3507 165.164 93.5127 165.126 93.6607 165.055C93.8088 164.983 93.9393 164.88 94.043 164.752C94.0867 164.691 94.1167 164.62 94.1312 164.546C94.1457 164.472 94.1443 164.396 94.127 164.322C94.1098 164.249 94.0772 164.18 94.0313 164.12C93.9855 164.06 93.9274 164.01 93.8609 163.974C93.447 163.767 92.7351 164.148 92.4454 164.438C92.4454 164.458 92.1598 164.785 92.0977 164.872C92.1308 164.566 92.1639 164.26 92.2136 163.962C92.2733 163.556 92.3604 163.155 92.4743 162.761C92.8256 162.9 93.1951 162.986 93.5712 163.018C93.7356 163.016 93.8976 162.978 94.0456 162.906C94.1937 162.835 94.3242 162.732 94.428 162.604C94.4716 162.542 94.5016 162.472 94.5161 162.398C94.5306 162.324 94.5292 162.248 94.512 162.174C94.4948 162.101 94.4621 162.032 94.4163 161.972C94.3704 161.912 94.3123 161.862 94.2459 161.826C93.832 161.615 93.12 162 92.8303 162.285C92.8096 162.31 92.524 162.662 92.4785 162.732C92.48 162.709 92.48 162.686 92.4785 162.662C92.6047 162.27 92.7639 161.889 92.9545 161.524C93.058 161.325 93.1697 161.135 93.2815 160.957C93.6074 161.13 93.9577 161.253 94.3204 161.321C94.4827 161.338 94.6468 161.32 94.8012 161.267C94.9556 161.214 95.0966 161.128 95.2144 161.015C95.2641 160.958 95.3014 160.891 95.3237 160.819C95.346 160.747 95.3529 160.671 95.3439 160.596C95.3349 160.521 95.3103 160.449 95.2716 160.384C95.2329 160.319 95.1809 160.263 95.1192 160.22C94.7425 159.968 93.981 160.27 93.6623 160.526C93.6623 160.526 93.4843 160.696 93.3725 160.816C93.4222 160.733 93.4719 160.651 93.5257 160.576C93.7161 160.286 93.9065 160.038 94.0762 159.819L94.3535 159.479C94.7206 159.484 95.0863 159.432 95.4379 159.326C95.5905 159.267 95.7284 159.175 95.8421 159.057C95.9557 158.939 96.0424 158.798 96.096 158.643C96.1141 158.57 96.1166 158.493 96.1032 158.419C96.0898 158.344 96.0609 158.274 96.0183 158.211C95.9757 158.149 95.9205 158.096 95.8561 158.056C95.7918 158.017 95.7198 157.991 95.6449 157.981C95.1937 157.931 94.6556 158.548 94.4901 158.92C94.4901 158.954 94.3079 159.479 94.3204 159.479C94.2334 159.574 94.1424 159.682 94.0472 159.798C93.8692 160.017 93.6705 160.261 93.476 160.547C93.2595 160.849 93.0618 161.164 92.8841 161.491C92.6807 161.854 92.5104 162.235 92.375 162.629C92.375 162.497 92.375 162.124 92.375 162.095C92.3253 161.681 91.9859 160.944 91.5472 160.853C91.4727 160.842 91.3968 160.847 91.3242 160.867C91.2516 160.887 91.1839 160.922 91.1255 160.969C91.0671 161.017 91.0192 161.076 90.985 161.143C90.9507 161.21 90.9307 161.283 90.9263 161.358C90.933 161.518 90.9733 161.674 91.0447 161.817C91.116 161.959 91.2167 162.085 91.3403 162.186C91.6538 162.392 91.9972 162.548 92.3585 162.65C92.2323 163.057 92.1327 163.471 92.0604 163.891C92.0149 164.131 91.9818 164.38 91.9487 164.628C91.9487 164.512 91.9487 164.409 91.9487 164.396C91.8949 163.982 91.5596 163.246 91.1209 163.155C91.0462 163.142 90.9698 163.146 90.8967 163.165C90.8235 163.185 90.7553 163.219 90.6966 163.267C90.6379 163.315 90.59 163.375 90.5561 163.442C90.5222 163.51 90.5031 163.584 90.5 163.66C90.5067 163.819 90.547 163.975 90.6183 164.118C90.6897 164.261 90.7904 164.386 90.9139 164.487C91.219 164.689 91.5524 164.844 91.9032 164.947C91.9032 165.042 91.8783 165.137 91.87 165.232C91.8121 165.688 91.7624 166.143 91.6962 166.586C91.6714 166.743 91.6465 166.896 91.6176 167.054C91.6176 166.95 91.6176 166.863 91.6176 166.851C91.5638 166.437 91.2244 165.7 90.7898 165.609C90.7153 165.598 90.6393 165.603 90.5667 165.623C90.4941 165.642 90.4265 165.677 90.3681 165.725C90.3097 165.772 90.2618 165.831 90.2275 165.898C90.1932 165.965 90.1733 166.039 90.1689 166.114C90.1615 166.295 90.1979 166.476 90.275 166.64C90.3521 166.804 90.4676 166.948 90.6118 167.058Z" fill="#01B040"/>
<path d="M85.487 163.039C85.862 163.037 86.2346 162.978 86.5921 162.865C86.7019 163.273 86.8402 163.672 87.006 164.061C87.1012 164.289 87.2088 164.512 87.3164 164.74L87.184 164.549C86.9191 164.239 86.2237 163.804 85.8057 163.982C85.7372 164.014 85.6761 164.059 85.6263 164.115C85.5765 164.172 85.5391 164.238 85.5165 164.31C85.4938 164.381 85.4865 164.457 85.495 164.532C85.5035 164.607 85.5275 164.679 85.5656 164.744C85.6613 164.877 85.7851 164.987 85.9281 165.067C86.0711 165.148 86.2299 165.195 86.3934 165.207C86.7583 165.209 87.1213 165.155 87.4696 165.046L87.5937 165.303C87.8007 165.716 88.0076 166.13 88.2022 166.544C88.2684 166.689 88.3305 166.834 88.3926 166.958L88.2767 166.793C88.0118 166.486 87.3164 166.052 86.8984 166.23C86.8299 166.261 86.7689 166.306 86.719 166.363C86.6692 166.419 86.6318 166.485 86.6092 166.557C86.5866 166.629 86.5792 166.705 86.5877 166.779C86.5962 166.854 86.6202 166.926 86.6583 166.991C86.754 167.124 86.8778 167.235 87.0208 167.315C87.1638 167.395 87.3226 167.443 87.4861 167.455C87.8413 167.459 88.1949 167.406 88.5333 167.298C88.5954 167.447 88.6533 167.596 88.703 167.745C88.7527 167.894 88.7734 167.939 88.7982 168.043L88.8851 168.349C88.9306 168.539 88.9803 168.763 89.0217 168.933C89.0631 169.102 89.0755 169.189 89.1003 169.317C89.0382 169.177 88.9017 168.904 88.8892 168.875C88.674 168.531 88.0614 167.993 87.6103 168.105C87.5379 168.126 87.4707 168.162 87.4132 168.211C87.3556 168.259 87.3089 168.319 87.2761 168.387C87.2433 168.455 87.2252 168.529 87.2229 168.605C87.2205 168.68 87.2341 168.755 87.2626 168.825C87.3283 168.96 87.422 169.08 87.5377 169.177C87.6533 169.273 87.7881 169.343 87.9331 169.384H89.3776C89.3757 169.353 89.3757 169.323 89.3776 169.293C89.4315 169.268 89.7295 169.148 89.9985 168.999C90.1579 169.151 90.3376 169.281 90.5324 169.384H90.9463C90.9712 169.226 90.996 169.032 90.996 169.011C90.9911 168.655 90.8942 168.305 90.7146 167.997C90.7188 167.957 90.7188 167.917 90.7146 167.877C90.705 167.802 90.6798 167.73 90.6406 167.666C90.6014 167.601 90.549 167.546 90.487 167.503C90.4249 167.46 90.3545 167.43 90.2803 167.416C90.2062 167.403 90.1299 167.404 90.0565 167.422C89.6136 167.538 89.3363 168.308 89.3156 168.713C89.3156 168.738 89.3156 168.999 89.3445 169.164C89.3197 169.069 89.299 168.974 89.2783 168.875L89.1252 168.283C89.0921 168.183 89.0631 168.084 89.0341 167.981C89.0051 167.877 88.9637 167.778 88.9265 167.674C88.8396 167.438 88.7402 167.198 88.6326 166.962C88.9888 166.893 89.3313 166.765 89.6467 166.586C89.7824 166.495 89.897 166.375 89.9827 166.236C90.0684 166.097 90.1232 165.941 90.1434 165.779C90.1454 165.703 90.1314 165.628 90.1024 165.558C90.0733 165.488 90.0298 165.425 89.9747 165.373C89.9196 165.321 89.8542 165.281 89.7827 165.256C89.7112 165.231 89.6352 165.222 89.5598 165.228C89.1086 165.274 88.732 165.994 88.6326 166.391C88.6326 166.416 88.6037 166.71 88.5912 166.871C88.525 166.731 88.4629 166.586 88.3926 166.457C88.1897 166.043 87.9787 165.63 87.7593 165.24C87.6931 165.116 87.6268 164.992 87.5648 164.868C87.9326 164.791 88.2869 164.66 88.6161 164.479C88.752 164.388 88.8665 164.269 88.9515 164.13C89.0366 163.99 89.0902 163.834 89.1086 163.672C89.1122 163.597 89.1 163.521 89.0727 163.451C89.0454 163.381 89.0037 163.317 88.9502 163.264C88.8968 163.211 88.8328 163.17 88.7624 163.143C88.692 163.116 88.6168 163.105 88.5416 163.109C88.0904 163.159 87.7138 163.879 87.6186 164.276C87.6186 164.305 87.573 164.727 87.5689 164.831C87.424 164.558 87.2874 164.284 87.155 164.003C86.9801 163.639 86.8281 163.264 86.6997 162.881C87.071 162.799 87.4272 162.66 87.7551 162.467C87.8922 162.378 88.0078 162.259 88.0937 162.119C88.1795 161.98 88.2335 161.823 88.2518 161.66C88.2539 161.585 88.2399 161.509 88.2108 161.439C88.1817 161.369 88.1382 161.306 88.0832 161.254C88.0281 161.202 87.9626 161.163 87.8911 161.138C87.8196 161.113 87.7437 161.103 87.6682 161.11C87.2171 161.159 86.8404 161.88 86.7411 162.277C86.7411 162.306 86.6956 162.761 86.6956 162.844L86.6707 162.774C86.5596 162.378 86.482 161.974 86.4389 161.565C86.4141 161.337 86.4058 161.122 86.3975 160.911C86.7646 160.873 87.1243 160.783 87.4654 160.642C87.6106 160.567 87.7377 160.461 87.8378 160.331C87.9378 160.202 88.0085 160.052 88.0449 159.893C88.0554 159.818 88.05 159.742 88.029 159.669C88.008 159.596 87.9719 159.529 87.9231 159.471C87.8743 159.413 87.8138 159.366 87.7456 159.333C87.6775 159.301 87.6031 159.282 87.5275 159.28C87.0722 159.28 86.6045 159.951 86.4762 160.34L86.3934 160.754C86.3934 160.659 86.3934 160.559 86.3934 160.468C86.3934 160.125 86.4182 159.81 86.4389 159.533C86.4389 159.375 86.4679 159.231 86.4845 159.098C86.7944 158.897 87.0733 158.652 87.3123 158.37C87.4063 158.236 87.4698 158.083 87.4984 157.922C87.527 157.762 87.52 157.596 87.4778 157.438C87.4528 157.367 87.413 157.302 87.3608 157.247C87.3087 157.192 87.2455 157.149 87.1755 157.12C87.1054 157.092 87.0301 157.078 86.9545 157.081C86.8789 157.084 86.8047 157.103 86.7369 157.136C86.323 157.343 86.2278 158.159 86.2941 158.556C86.2941 158.593 86.4555 159.123 86.4596 159.119C86.4596 159.247 86.4265 159.388 86.41 159.533C86.381 159.81 86.352 160.129 86.3437 160.472C86.3313 160.844 86.3409 161.215 86.3727 161.586C86.4028 162.005 86.4721 162.421 86.5797 162.827L86.2775 162.385C86.0126 162.078 85.3173 161.644 84.8992 161.817C84.8307 161.849 84.7695 161.895 84.7197 161.952C84.6698 162.009 84.6324 162.075 84.6098 162.147C84.5872 162.219 84.5799 162.295 84.5884 162.37C84.5969 162.446 84.621 162.518 84.6591 162.583C84.7557 162.715 84.8798 162.824 85.0228 162.902C85.1658 162.981 85.3242 163.027 85.487 163.039Z" fill="#01B040"/>
<path d="M93.2809 160.903C93.2809 160.903 93.4257 160.373 93.434 160.34C93.4878 159.926 93.3595 159.127 92.9498 158.929C92.8808 158.898 92.8063 158.883 92.731 158.883C92.6557 158.883 92.5812 158.898 92.5123 158.929C92.4434 158.959 92.3815 159.003 92.3307 159.059C92.2799 159.115 92.2412 159.18 92.2171 159.252C92.1805 159.411 92.179 159.576 92.2126 159.736C92.2461 159.897 92.3141 160.047 92.4117 160.179C92.6647 160.461 92.9575 160.705 93.2809 160.903Z" fill="#01B040"/>
<path d="M301.652 160.729C302.019 160.825 302.398 160.867 302.778 160.853C302.778 160.853 302.604 160.332 302.591 160.299C302.413 159.934 301.859 159.326 301.412 159.388C301.339 159.403 301.27 159.433 301.209 159.475C301.149 159.518 301.097 159.572 301.059 159.636C301.02 159.699 300.994 159.769 300.984 159.843C300.973 159.916 300.978 159.991 300.998 160.063C301.054 160.213 301.141 160.351 301.254 160.466C301.366 160.581 301.502 160.67 301.652 160.729Z" fill="#01B040"/>
<path d="M309.499 169.177C309.532 169.109 309.551 169.035 309.553 168.959C309.556 168.884 309.543 168.809 309.515 168.738C309.487 168.668 309.445 168.605 309.391 168.552C309.336 168.499 309.272 168.458 309.201 168.432C308.787 168.287 308.113 168.779 307.873 169.106C307.873 169.106 307.782 169.255 307.707 169.384H309.363C309.42 169.324 309.467 169.254 309.499 169.177Z" fill="#01B040"/>
<path d="M307.057 167.058C307.352 167.256 307.676 167.407 308.017 167.505C307.98 167.662 307.951 167.819 307.91 167.968C307.868 168.117 307.86 168.171 307.827 168.27C307.794 168.37 307.761 168.473 307.728 168.569C307.662 168.759 307.591 168.953 307.521 169.131L307.421 169.384H307.686L307.748 169.218C307.819 169.032 307.881 168.842 307.951 168.639C307.98 168.54 308.009 168.44 308.042 168.337C308.075 168.233 308.092 168.13 308.121 168.022C308.179 167.778 308.229 167.525 308.27 167.269C308.607 167.405 308.963 167.487 309.325 167.513C309.49 167.511 309.652 167.473 309.8 167.401C309.948 167.33 310.078 167.227 310.182 167.099C310.225 167.037 310.255 166.966 310.269 166.892C310.283 166.818 310.282 166.741 310.264 166.668C310.247 166.594 310.215 166.525 310.169 166.464C310.124 166.404 310.066 166.354 310 166.317C309.586 166.11 308.87 166.495 308.585 166.78C308.585 166.78 308.382 167.029 308.286 167.153C308.307 167 308.332 166.847 308.353 166.694C308.411 166.242 308.452 165.783 308.498 165.328C308.498 165.187 308.527 165.046 308.539 164.914C308.889 165.052 309.257 165.137 309.632 165.166C309.796 165.164 309.958 165.126 310.106 165.054C310.254 164.983 310.385 164.88 310.488 164.752C310.531 164.69 310.561 164.62 310.575 164.546C310.589 164.472 310.588 164.396 310.57 164.323C310.553 164.249 310.521 164.18 310.475 164.12C310.43 164.06 310.372 164.011 310.306 163.974C309.892 163.767 309.176 164.148 308.891 164.438C308.891 164.458 308.605 164.785 308.543 164.872C308.576 164.566 308.609 164.26 308.655 163.962C308.718 163.556 308.806 163.156 308.92 162.761C309.271 162.901 309.64 162.987 310.017 163.018C310.181 163.016 310.343 162.978 310.491 162.906C310.639 162.835 310.769 162.732 310.873 162.604C310.916 162.542 310.946 162.472 310.96 162.398C310.974 162.324 310.973 162.248 310.955 162.175C310.938 162.101 310.906 162.032 310.86 161.972C310.815 161.912 310.757 161.862 310.691 161.826C310.277 161.615 309.561 162 309.276 162.285C309.251 162.31 308.969 162.662 308.924 162.732C308.922 162.709 308.922 162.686 308.924 162.662C309.048 162.269 309.208 161.888 309.4 161.524C309.503 161.325 309.615 161.135 309.727 160.957C310.052 161.129 310.4 161.252 310.762 161.321C310.925 161.339 311.09 161.32 311.245 161.268C311.4 161.215 311.542 161.128 311.66 161.015C311.71 160.958 311.747 160.891 311.769 160.819C311.791 160.747 311.798 160.671 311.789 160.596C311.78 160.521 311.756 160.449 311.717 160.384C311.678 160.319 311.626 160.263 311.565 160.22C311.188 159.968 310.426 160.27 310.108 160.526C310.108 160.526 309.93 160.696 309.814 160.816L309.967 160.576C310.157 160.286 310.352 160.038 310.522 159.819L310.799 159.479C311.166 159.484 311.532 159.432 311.883 159.326C312.035 159.266 312.172 159.174 312.285 159.056C312.398 158.938 312.484 158.797 312.537 158.643C312.556 158.57 312.559 158.494 312.546 158.419C312.533 158.345 312.505 158.274 312.463 158.211C312.42 158.149 312.365 158.096 312.301 158.056C312.237 158.016 312.165 157.991 312.09 157.981C311.635 157.931 311.101 158.548 310.935 158.92C310.935 158.954 310.753 159.479 310.762 159.479C310.675 159.574 310.584 159.682 310.488 159.798C310.31 160.017 310.112 160.261 309.913 160.547C309.7 160.851 309.502 161.166 309.321 161.491C309.121 161.855 308.952 162.236 308.816 162.629C308.816 162.497 308.816 162.124 308.816 162.095C308.767 161.681 308.427 160.944 307.988 160.853C307.914 160.842 307.838 160.846 307.765 160.865C307.692 160.885 307.624 160.92 307.566 160.967C307.507 161.015 307.459 161.075 307.425 161.142C307.391 161.209 307.371 161.283 307.368 161.358C307.375 161.518 307.415 161.674 307.487 161.816C307.558 161.959 307.658 162.085 307.782 162.186C308.097 162.391 308.442 162.548 308.804 162.65C308.676 163.057 308.575 163.471 308.502 163.891C308.46 164.131 308.423 164.38 308.39 164.628C308.39 164.512 308.39 164.409 308.39 164.396C308.336 163.982 308.001 163.246 307.562 163.155C307.488 163.142 307.411 163.146 307.338 163.165C307.265 163.185 307.197 163.219 307.138 163.267C307.079 163.315 307.031 163.375 306.997 163.442C306.964 163.51 306.944 163.584 306.941 163.66C306.946 163.819 306.986 163.976 307.057 164.119C307.129 164.262 307.23 164.388 307.355 164.487C307.659 164.69 307.993 164.845 308.344 164.947L308.307 165.232C308.253 165.688 308.2 166.143 308.137 166.586C308.113 166.743 308.084 166.896 308.059 167.054C308.059 166.95 308.059 166.863 308.059 166.851C308.009 166.437 307.67 165.7 307.231 165.609C307.156 165.597 307.08 165.602 307.007 165.621C306.935 165.641 306.867 165.676 306.808 165.723C306.75 165.771 306.702 165.83 306.668 165.898C306.633 165.965 306.614 166.039 306.61 166.114C306.603 166.296 306.64 166.476 306.718 166.641C306.796 166.805 306.912 166.948 307.057 167.058Z" fill="#01B040"/>
<path d="M301.925 163.039C302.301 163.037 302.675 162.978 303.034 162.865C303.146 163.272 303.284 163.672 303.448 164.061C303.547 164.289 303.651 164.512 303.763 164.74L303.63 164.549C303.361 164.239 302.67 163.804 302.252 163.982C302.183 164.014 302.122 164.059 302.073 164.115C302.023 164.172 301.985 164.238 301.963 164.31C301.94 164.382 301.933 164.457 301.941 164.532C301.95 164.607 301.974 164.679 302.012 164.744C302.107 164.877 302.231 164.988 302.374 165.068C302.517 165.148 302.676 165.196 302.84 165.207C303.205 165.21 303.568 165.155 303.916 165.046C303.961 165.129 304.003 165.216 304.044 165.303C304.251 165.717 304.458 166.13 304.648 166.544C304.719 166.689 304.777 166.834 304.839 166.958L304.723 166.793C304.458 166.486 303.767 166.052 303.345 166.23C303.277 166.262 303.216 166.307 303.166 166.364C303.117 166.42 303.08 166.487 303.058 166.558C303.036 166.63 303.029 166.706 303.037 166.78C303.046 166.855 303.07 166.927 303.109 166.991C303.204 167.125 303.328 167.236 303.471 167.316C303.614 167.396 303.773 167.443 303.937 167.455C304.292 167.459 304.645 167.406 304.984 167.298C305.042 167.447 305.104 167.596 305.153 167.745C305.203 167.894 305.224 167.939 305.249 168.043L305.336 168.349C305.381 168.539 305.431 168.763 305.472 168.933C305.513 169.102 305.526 169.189 305.551 169.318C305.484 169.177 305.352 168.904 305.336 168.875C305.12 168.531 304.508 167.993 304.061 168.105C303.988 168.125 303.92 168.161 303.862 168.21C303.804 168.258 303.757 168.318 303.724 168.386C303.691 168.454 303.672 168.528 303.67 168.604C303.667 168.68 303.68 168.755 303.709 168.825C303.776 168.96 303.871 169.08 303.987 169.176C304.103 169.272 304.238 169.343 304.384 169.384H305.84C305.836 169.353 305.829 169.323 305.82 169.293C305.874 169.268 306.176 169.148 306.445 168.999C306.604 169.151 306.784 169.281 306.979 169.384H307.393C307.393 169.226 307.442 169.032 307.442 169.011C307.436 168.655 307.339 168.306 307.161 167.997C307.165 167.957 307.165 167.917 307.161 167.877C307.152 167.802 307.127 167.73 307.088 167.665C307.049 167.6 306.997 167.544 306.934 167.501C306.872 167.458 306.802 167.429 306.727 167.415C306.653 167.401 306.576 167.404 306.503 167.422C306.064 167.538 305.787 168.308 305.766 168.713C305.766 168.738 305.766 168.999 305.791 169.164C305.77 169.069 305.749 168.974 305.725 168.875C305.679 168.684 305.629 168.49 305.571 168.283C305.542 168.183 305.513 168.084 305.48 167.981C305.447 167.877 305.41 167.778 305.377 167.674C305.29 167.438 305.191 167.198 305.083 166.962C305.439 166.892 305.781 166.765 306.097 166.586C306.233 166.495 306.347 166.376 306.432 166.236C306.517 166.097 306.571 165.941 306.59 165.779C306.592 165.703 306.579 165.628 306.55 165.558C306.522 165.488 306.479 165.425 306.424 165.373C306.369 165.321 306.304 165.281 306.233 165.256C306.161 165.231 306.085 165.222 306.01 165.228C305.559 165.274 305.182 165.994 305.083 166.391C305.083 166.416 305.05 166.71 305.042 166.871C304.975 166.731 304.913 166.586 304.843 166.457C304.64 166.044 304.429 165.63 304.206 165.241C304.143 165.116 304.077 164.992 304.011 164.868C304.379 164.793 304.734 164.661 305.062 164.479C305.199 164.389 305.314 164.27 305.399 164.131C305.484 163.991 305.537 163.834 305.555 163.672C305.557 163.596 305.544 163.521 305.515 163.451C305.487 163.381 305.444 163.318 305.389 163.266C305.334 163.214 305.269 163.174 305.198 163.149C305.126 163.124 305.051 163.115 304.975 163.121C304.524 163.171 304.148 163.891 304.048 164.289C304.048 164.318 304.007 164.74 304.003 164.843C303.858 164.57 303.717 164.297 303.589 164.015C303.415 163.644 303.267 163.261 303.146 162.869C303.511 162.789 303.861 162.654 304.185 162.467C304.321 162.377 304.436 162.259 304.521 162.119C304.607 161.979 304.66 161.823 304.677 161.66C304.68 161.585 304.667 161.51 304.638 161.44C304.609 161.37 304.566 161.307 304.512 161.255C304.457 161.203 304.392 161.163 304.32 161.138C304.249 161.113 304.173 161.103 304.098 161.11C303.647 161.159 303.27 161.88 303.171 162.277C303.171 162.306 303.125 162.761 303.121 162.844C303.121 162.819 303.121 162.799 303.1 162.774C302.987 162.379 302.91 161.974 302.869 161.565C302.844 161.337 302.831 161.122 302.827 160.911C303.194 160.873 303.554 160.782 303.895 160.642C304.04 160.566 304.166 160.46 304.266 160.331C304.366 160.201 304.437 160.052 304.475 159.893C304.484 159.818 304.479 159.742 304.457 159.67C304.436 159.597 304.4 159.53 304.351 159.472C304.303 159.415 304.242 159.368 304.174 159.335C304.107 159.302 304.033 159.283 303.957 159.28C303.502 159.28 303.03 159.951 302.906 160.34L302.823 160.754C302.823 160.659 302.823 160.559 302.823 160.468C302.823 160.125 302.823 159.81 302.869 159.533C302.869 159.376 302.898 159.231 302.91 159.098C303.222 158.899 303.501 158.654 303.738 158.37C303.833 158.236 303.897 158.084 303.926 157.923C303.955 157.762 303.949 157.597 303.908 157.438C303.882 157.367 303.842 157.303 303.79 157.248C303.737 157.194 303.674 157.151 303.604 157.122C303.535 157.094 303.459 157.08 303.384 157.083C303.309 157.085 303.235 157.103 303.167 157.136C302.753 157.343 302.658 158.159 302.724 158.556C302.724 158.593 302.881 159.123 302.889 159.119C302.889 159.247 302.852 159.388 302.836 159.533C302.811 159.81 302.782 160.129 302.773 160.472C302.762 160.844 302.77 161.215 302.798 161.586C302.832 162.005 302.902 162.42 303.005 162.828C302.935 162.716 302.724 162.414 302.707 162.385C302.438 162.078 301.747 161.644 301.329 161.818C301.26 161.849 301.199 161.895 301.149 161.952C301.1 162.009 301.062 162.075 301.039 162.147C301.017 162.219 301.01 162.295 301.018 162.371C301.027 162.446 301.051 162.518 301.089 162.583C301.186 162.716 301.311 162.826 301.456 162.905C301.6 162.984 301.761 163.029 301.925 163.039Z" fill="#01B040"/>
<path d="M309.723 160.903C309.723 160.903 309.868 160.373 309.872 160.34C309.93 159.926 309.802 159.127 309.392 158.929C309.323 158.898 309.249 158.883 309.173 158.883C309.098 158.883 309.024 158.898 308.955 158.929C308.886 158.959 308.824 159.003 308.773 159.059C308.722 159.115 308.684 159.18 308.66 159.252C308.623 159.411 308.621 159.576 308.655 159.736C308.689 159.897 308.756 160.047 308.854 160.179C309.107 160.461 309.4 160.705 309.723 160.903Z" fill="#01B040"/>
<path d="M53.063 59.513C53.063 59.513 71.577 61.3424 80.956 72.82C80.956 72.82 90.869 59.5254 108.688 59.7985C113.039 54.55 115.809 48.1734 116.677 41.4113C117.545 34.6491 116.473 27.7796 113.588 21.6026C110.703 15.4257 106.122 10.1954 100.379 6.52098C94.6367 2.84652 87.9684 0.879008 81.1509 0.847551C74.3333 0.816094 67.6471 2.72198 61.8708 6.34329C56.0945 9.9646 51.4657 15.1523 48.5235 21.3024C45.5813 27.4524 44.4467 34.3118 45.2518 41.0817C46.057 47.8516 48.7687 54.2535 53.0713 59.5419L53.063 59.513Z" fill="#4AF387"/>
<path d="M98.7828 38.7104C98.7828 38.7104 87.715 41.3345 81.6058 50.2335L81.2581 37.2907L81.2829 37.4604C81.2829 37.4604 87.5329 26.2146 98.7828 22.7751C98.7828 22.7751 87.1935 25.5234 81.196 34.9273L80.3434 17.502L80.0826 42.4769C74.1969 33.5324 63.4727 30.8876 63.4727 30.8876C72.9469 33.8884 78.7416 42.837 80.0661 45.0638L79.9791 57.9362C74.0727 49.1159 63.4727 46.5125 63.4727 46.5125C72.7193 49.4388 78.4643 58.0356 79.9626 60.5148L79.7184 169.595H82.8434L82.0859 68.0272C84.1016 64.9767 89.8714 57.3568 98.7828 54.6333C98.7828 54.6333 88.1993 57.1457 82.0197 65.5769L81.6761 52.7459C83.1952 50.2997 89.1554 41.6408 98.7828 38.7104Z" fill="#76694A"/>
<path d="M20.5627 118.863C20.5627 118.863 35.6537 120.357 43.3275 129.715C43.3275 129.715 51.411 118.875 65.9266 119.099C69.4728 114.819 71.7306 109.621 72.437 104.108C73.1435 98.5958 72.2696 92.996 69.9172 87.9608C67.5647 82.9256 63.8304 78.6622 59.149 75.6669C54.4676 72.6716 49.0317 71.0677 43.4741 71.0418C37.9165 71.016 32.4659 72.5692 27.7568 75.5208C23.0477 78.4724 19.2739 82.7008 16.8746 87.7139C14.4754 92.727 13.5494 98.3184 14.2046 103.837C14.8597 109.356 17.069 114.575 20.5752 118.887L20.5627 118.863Z" fill="#4AF387"/>
<path d="M29.0479 108.246C36.5892 110.634 41.2704 117.642 42.4915 119.666L42.3838 169.537H44.5527L44.2257 125.808C45.8813 123.325 50.575 117.116 57.839 114.889C57.839 114.889 49.2091 116.934 44.1802 123.809L43.8987 113.337C45.1404 111.346 49.9997 104.293 57.8473 101.893C57.8473 101.893 48.8242 104.033 43.8449 111.288L43.5593 100.734V100.875C43.5593 100.875 48.6545 91.69 57.839 88.9003C57.839 88.9003 48.3937 91.1437 43.4972 98.8092L42.806 84.604L42.5908 104.964C37.7936 97.6709 29.0479 95.5228 29.0479 95.5228C36.7713 97.969 41.4981 105.266 42.5784 107.083L42.508 117.58C37.6902 110.39 29.0479 108.246 29.0479 108.246Z" fill="#76694A"/>
<path d="M317.585 118.863C317.585 118.863 332.681 120.357 340.329 129.715C340.329 129.715 348.413 118.875 362.929 119.099C366.477 114.819 368.737 109.62 369.445 104.106C370.152 98.5921 369.279 92.9906 366.927 87.9538C364.574 82.9169 360.84 78.6519 356.157 75.6555C351.475 72.6591 346.037 71.0545 340.478 71.0286C334.919 71.0028 329.467 72.5566 324.757 75.5093C320.047 78.462 316.272 82.692 313.873 87.7068C311.474 92.7215 310.549 98.3147 311.205 103.835C311.862 109.355 314.073 114.575 317.581 118.887L317.585 118.863Z" fill="#4AF387"/>
<path d="M326.074 108.246C333.611 110.635 338.297 117.642 339.518 119.666L339.406 169.537H341.575L341.252 125.792C342.908 123.308 347.597 117.1 354.861 114.873C354.861 114.873 346.235 116.918 341.202 123.793L340.917 113.321C342.159 111.33 347.018 104.277 354.865 101.876C354.865 101.876 345.842 104.016 340.863 111.272L340.577 100.717L340.598 100.858C340.598 100.858 345.693 91.6861 354.865 88.884C354.865 88.884 345.424 91.1273 340.528 98.7928L339.837 84.5876L339.621 104.948C334.82 97.6546 326.078 95.5064 326.078 95.5064C333.802 97.9526 338.529 105.25 339.605 107.067L339.534 117.563C334.717 110.39 326.074 108.246 326.074 108.246Z" fill="#76694A"/>
<path d="M262.274 52.05L247.356 66.9671" stroke="#262833" stroke-width="0.5" stroke-linecap="round" stroke-linejoin="round"/>
<path d="M245.291 69.0324L247.013 64.9307L247.514 66.8098L249.393 67.3106L245.291 69.0324Z" fill="#262833"/>
<path d="M270.088 55.0178L262.932 67.3149" stroke="#262833" stroke-width="0.5" stroke-linecap="round" stroke-linejoin="round"/>
<path d="M261.462 69.8395L262.079 65.4355L263.043 67.1284H264.988L261.462 69.8395Z" fill="#262833"/>
<path d="M265.506 38.3042L219.198 67.2154" stroke="#262833" stroke-width="0.5" stroke-linecap="round" stroke-linejoin="round"/>
<path d="M216.719 68.7635L219.322 65.1543L219.384 67.0996L221.102 68.0102L216.719 68.7635Z" fill="#262833"/>
<path d="M284.693 43.9377C291.98 42.422 296.659 35.2859 295.143 27.9989C293.627 20.7119 286.491 16.0333 279.204 17.549C271.917 19.0647 267.238 26.2008 268.754 33.4878C270.27 40.7748 277.406 45.4534 284.693 43.9377Z" fill="#FFE897"/>
<path d="M281.949 7.30737V13.7767" stroke="#262833" stroke-width="0.5" stroke-miterlimit="10"/>
<path d="M281.949 47.7375V54.2069" stroke="#262833" stroke-width="0.5" stroke-miterlimit="10"/>
<path d="M305.397 30.7593H298.928" stroke="#262833" stroke-width="0.5" stroke-miterlimit="10"/>
<path d="M264.967 30.7593H258.498" stroke="#262833" stroke-width="0.5" stroke-miterlimit="10"/>
<path d="M298.531 14.1738L293.957 18.7516" stroke="#262833" stroke-width="0.5" stroke-miterlimit="10"/>
<path d="M269.942 42.7664L265.364 47.34" stroke="#262833" stroke-width="0.5" stroke-miterlimit="10"/>
<path d="M265.364 14.1738L269.942 18.7516" stroke="#262833" stroke-width="0.5" stroke-miterlimit="10"/>
<path d="M293.957 42.7664L298.531 47.34" stroke="#262833" stroke-width="0.5" stroke-miterlimit="10"/>
<path d="M291.313 125.055H119.062V169.372H291.313V125.055Z" fill="#F8F6F1"/>
<path opacity="0.31" d="M291.313 125.055H119.062V132.944H291.313V125.055Z" fill="#12131A"/>
<path d="M291 124.847H119V169.847H291V124.847Z" stroke="#262833" stroke-width="0.5" stroke-linecap="round" stroke-linejoin="round"/>
<path d="M293.08 125.055H117.299V127.083H293.08V125.055Z" fill="white" stroke="#262833" stroke-width="0.5" stroke-linecap="round" stroke-linejoin="round"/>
<path d="M293.544 125.088H115.416L130.259 74.1943H278.697L293.544 125.088Z" fill="#262833" stroke="#262833" stroke-width="0.5" stroke-linecap="round" stroke-linejoin="round"/>
<path d="M151.202 117.046H124.418L134.612 79.2358L158.118 79.3352L151.202 117.046Z" fill="white" fill-opacity="0.1" stroke="white" stroke-width="0.5" stroke-miterlimit="10"/>
<path d="M140.399 79.3103L131.045 116.98" stroke="white" stroke-width="0.5" stroke-miterlimit="10"/>
<path d="M146.476 79.335L137.966 116.98" stroke="white" stroke-width="0.5" stroke-miterlimit="10"/>
<path d="M152.543 79.3599L144.873 116.98" stroke="white" stroke-width="0.5" stroke-miterlimit="10"/>
<path d="M133.238 84.4797L157.336 84.5667" stroke="white" stroke-width="0.5" stroke-miterlimit="10"/>
<path d="M131.62 90.4856L156.239 90.556" stroke="white" stroke-width="0.5" stroke-miterlimit="10"/>
<path d="M129.928 96.7563L155.097 96.8102" stroke="white" stroke-width="0.5" stroke-miterlimit="10"/>
<path d="M128.164 103.308L153.905 103.35" stroke="white" stroke-width="0.5" stroke-miterlimit="10"/>
<path d="M126.314 110.167L152.655 110.187" stroke="white" stroke-width="0.5" stroke-miterlimit="10"/>
<path d="M182.489 117.046H155.892L162.237 79.3516L185.597 79.4468L182.489 117.046Z" fill="white" fill-opacity="0.1" stroke="white" stroke-width="0.5" stroke-miterlimit="10"/>
<path d="M167.995 79.426L162.465 116.98" stroke="white" stroke-width="0.5" stroke-miterlimit="10"/>
<path d="M174.033 79.4509L169.339 116.98" stroke="white" stroke-width="0.5" stroke-miterlimit="10"/>
<path d="M180.064 79.4758L176.202 116.98" stroke="white" stroke-width="0.5" stroke-miterlimit="10"/>
<path d="M161.393 84.5793L185.345 84.6663" stroke="white" stroke-width="0.5" stroke-miterlimit="10"/>
<path d="M160.387 90.5684L184.853 90.6387" stroke="white" stroke-width="0.5" stroke-miterlimit="10"/>
<path d="M159.335 96.8225L184.339 96.8763" stroke="white" stroke-width="0.5" stroke-miterlimit="10"/>
<path d="M158.238 103.354L183.805 103.395" stroke="white" stroke-width="0.5" stroke-miterlimit="10"/>
<path d="M157.088 110.191L183.247 110.212" stroke="white" stroke-width="0.5" stroke-miterlimit="10"/>
<path d="M257.319 117.046H284.098L273.904 79.2358L250.402 79.3352L257.319 117.046Z" fill="white" fill-opacity="0.1" stroke="white" stroke-width="0.5" stroke-miterlimit="10"/>
<path d="M268.117 79.3103L277.471 116.98" stroke="white" stroke-width="0.5" stroke-miterlimit="10"/>
<path d="M262.041 79.335L270.551 116.98" stroke="white" stroke-width="0.5" stroke-miterlimit="10"/>
<path d="M255.978 79.3599L263.643 116.98" stroke="white" stroke-width="0.5" stroke-miterlimit="10"/>
<path d="M275.282 84.4797L251.181 84.5667" stroke="white" stroke-width="0.5" stroke-miterlimit="10"/>
<path d="M276.9 90.4856L252.277 90.556" stroke="white" stroke-width="0.5" stroke-miterlimit="10"/>
<path d="M278.589 96.7563L253.42 96.8102" stroke="white" stroke-width="0.5" stroke-miterlimit="10"/>
<path d="M280.357 103.308L254.616 103.35" stroke="white" stroke-width="0.5" stroke-miterlimit="10"/>
<path d="M282.203 110.167L255.866 110.187" stroke="white" stroke-width="0.5" stroke-miterlimit="10"/>
<path d="M226.027 117.046H252.625L246.28 79.3516L222.919 79.4468L226.027 117.046Z" fill="white" fill-opacity="0.1" stroke="white" stroke-width="0.5" stroke-miterlimit="10"/>
<path d="M240.526 79.426L246.052 116.98" stroke="white" stroke-width="0.5" stroke-miterlimit="10"/>
<path d="M234.488 79.4509L239.182 116.98" stroke="white" stroke-width="0.5" stroke-miterlimit="10"/>
<path d="M228.457 79.4758L232.319 116.98" stroke="white" stroke-width="0.5" stroke-miterlimit="10"/>
<path d="M247.124 84.5793L223.176 84.6663" stroke="white" stroke-width="0.5" stroke-miterlimit="10"/>
<path d="M248.13 90.5684L223.664 90.6387" stroke="white" stroke-width="0.5" stroke-miterlimit="10"/>
<path d="M249.182 96.8225L224.178 96.8763" stroke="white" stroke-width="0.5" stroke-miterlimit="10"/>
<path d="M250.283 103.354L224.712 103.395" stroke="white" stroke-width="0.5" stroke-miterlimit="10"/>
<path d="M251.429 110.191L225.271 110.212" stroke="white" stroke-width="0.5" stroke-miterlimit="10"/>
<path opacity="0.2" d="M213.689 132.658H196.408V165.762H213.689V132.658Z" fill="#262833" stroke="#262833" stroke-width="0.5" stroke-linecap="round" stroke-linejoin="round"/>
<path opacity="0.2" d="M211.458 134.612H198.917V150.779H211.458V134.612Z" stroke="#262833" stroke-width="0.5" stroke-linecap="round" stroke-linejoin="round"/>
<path opacity="0.2" d="M211.458 156.909H198.917V163.598H211.458V156.909Z" stroke="#262833" stroke-width="0.5" stroke-linecap="round" stroke-linejoin="round"/>
<path opacity="0.2" d="M211.458 152.728H198.917V155.237H211.458V152.728Z" stroke="#262833" stroke-width="0.5" stroke-linecap="round" stroke-linejoin="round"/>
<path d="M198.416 148.78H196.848V154.078H198.416V148.78Z" fill="#262833"/>
<path d="M228.875 165.473H180.084V169.376H228.875V165.473Z" fill="#262833" stroke="#262833" stroke-width="0.5" stroke-linecap="round" stroke-linejoin="round"/>
<path d="M189.969 165.87V168.924" stroke="#6F717B" stroke-width="0.5" stroke-linecap="round" stroke-linejoin="round"/>
<path d="M192.493 165.87V168.924" stroke="#6F717B" stroke-width="0.5" stroke-linecap="round" stroke-linejoin="round"/>
<path d="M195.014 165.87V168.924" stroke="#6F717B" stroke-width="0.5" stroke-linecap="round" stroke-linejoin="round"/>
<path d="M197.539 165.87V168.924" stroke="#6F717B" stroke-width="0.5" stroke-linecap="round" stroke-linejoin="round"/>
<path d="M200.063 165.87V168.924" stroke="#6F717B" stroke-width="0.5" stroke-linecap="round" stroke-linejoin="round"/>
<path d="M202.588 165.87V168.924" stroke="#6F717B" stroke-width="0.5" stroke-linecap="round" stroke-linejoin="round"/>
<path d="M205.108 165.87V168.924" stroke="#6F717B" stroke-width="0.5" stroke-linecap="round" stroke-linejoin="round"/>
<path d="M207.634 165.87V168.924" stroke="#6F717B" stroke-width="0.5" stroke-linecap="round" stroke-linejoin="round"/>
<path d="M210.158 165.87V168.924" stroke="#6F717B" stroke-width="0.5" stroke-linecap="round" stroke-linejoin="round"/>
<path d="M212.684 165.87V168.924" stroke="#6F717B" stroke-width="0.5" stroke-linecap="round" stroke-linejoin="round"/>
<path d="M215.208 165.87V168.924" stroke="#6F717B" stroke-width="0.5" stroke-linecap="round" stroke-linejoin="round"/>
<path d="M217.729 165.87V168.924" stroke="#6F717B" stroke-width="0.5" stroke-linecap="round" stroke-linejoin="round"/>
<path d="M220.254 165.87V168.924" stroke="#6F717B" stroke-width="0.5" stroke-linecap="round" stroke-linejoin="round"/>
<path d="M137.485 146.288H133.388V151.45H137.485V146.288Z" fill="#D3D3D7"/>
<path d="M132.539 132.94H129.207V138.705H132.539V132.94Z" fill="#D3D3D7"/>
<path d="M132.539 139.918H129.207V145.08H132.539V139.918Z" fill="#D3D3D7"/>
<path d="M137.485 139.918H133.388V145.08H137.485V139.918Z" fill="#D3D3D7"/>
<path d="M132.539 146.288H129.207V151.45H132.539V146.288Z" fill="#D3D3D7"/>
<path d="M137.485 132.94H133.388V138.705H137.485V132.94Z" fill="#D3D3D7"/>
<path d="M132.539 152.662H129.207V159.281H132.539V152.662Z" fill="#D3D3D7"/>
<path d="M137.485 152.662H133.388V159.281H137.485V152.662Z" fill="#D3D3D7"/>
<path d="M128.354 152.662H124.344V159.281H128.354V152.662Z" fill="#D3D3D7"/>
<path d="M128.354 146.288H124.344V151.45H128.354V146.288Z" fill="#D3D3D7"/>
<path d="M128.354 139.918H124.344V145.08H128.354V139.918Z" fill="#D3D3D7"/>
<path d="M128.354 132.94H124.344V138.705H128.354V132.94Z" fill="#D3D3D7"/>
<path d="M153.226 146.288H149.128V151.45H153.226V146.288Z" fill="#D3D3D7"/>
<path d="M148.28 132.94H144.948V138.705H148.28V132.94Z" fill="#D3D3D7"/>
<path d="M148.28 139.918H144.948V145.08H148.28V139.918Z" fill="#D3D3D7"/>
<path d="M153.226 139.918H149.128V145.08H153.226V139.918Z" fill="#D3D3D7"/>
<path d="M148.28 146.288H144.948V151.45H148.28V146.288Z" fill="#D3D3D7"/>
<path d="M153.226 132.94H149.128V138.705H153.226V132.94Z" fill="#D3D3D7"/>
<path d="M148.28 152.662H144.948V159.281H148.28V152.662Z" fill="#D3D3D7"/>
<path d="M153.226 152.662H149.128V159.281H153.226V152.662Z" fill="#D3D3D7"/>
<path d="M144.1 152.662H140.089V159.281H144.1V152.662Z" fill="#D3D3D7"/>
<path d="M144.1 146.288H140.089V151.45H144.1V146.288Z" fill="#D3D3D7"/>
<path d="M144.1 139.918H140.089V145.08H144.1V139.918Z" fill="#D3D3D7"/>
<path d="M144.1 132.94H140.089V138.705H144.1V132.94Z" fill="#D3D3D7"/>
<path d="M168.971 146.288H164.873V151.45H168.971V146.288Z" fill="#D3D3D7"/>
<path d="M164.02 132.94H160.688V138.705H164.02V132.94Z" fill="#D3D3D7"/>
<path d="M164.02 139.918H160.688V145.08H164.02V139.918Z" fill="#D3D3D7"/>
<path d="M168.971 139.918H164.873V145.08H168.971V139.918Z" fill="#D3D3D7"/>
<path d="M164.02 146.288H160.688V151.45H164.02V146.288Z" fill="#D3D3D7"/>
<path d="M168.971 132.94H164.873V138.705H168.971V132.94Z" fill="#D3D3D7"/>
<path d="M164.02 152.662H160.688V159.281H164.02V152.662Z" fill="#D3D3D7"/>
<path d="M168.971 152.662H164.873V159.281H168.971V152.662Z" fill="#D3D3D7"/>
<path d="M159.84 152.662H155.829V159.281H159.84V152.662Z" fill="#D3D3D7"/>
<path d="M159.84 146.288H155.829V151.45H159.84V146.288Z" fill="#D3D3D7"/>
<path d="M159.84 139.918H155.829V145.08H159.84V139.918Z" fill="#D3D3D7"/>
<path d="M159.84 132.94H155.829V138.705H159.84V132.94Z" fill="#D3D3D7"/>
<path opacity="0.2" d="M170.768 130.15H122.271V161.367H170.768V130.15Z" stroke="#262833" stroke-width="0.5" stroke-linecap="round" stroke-linejoin="round"/>
<path d="M254.687 146.288H250.589V151.45H254.687V146.288Z" fill="#D3D3D7"/>
<path d="M249.74 132.94H246.408V138.705H249.74V132.94Z" fill="#D3D3D7"/>
<path d="M249.74 139.918H246.408V145.08H249.74V139.918Z" fill="#D3D3D7"/>
<path d="M254.687 139.918H250.589V145.08H254.687V139.918Z" fill="#D3D3D7"/>
<path d="M249.74 146.288H246.408V151.45H249.74V146.288Z" fill="#D3D3D7"/>
<path d="M254.687 132.94H250.589V138.705H254.687V132.94Z" fill="#D3D3D7"/>
<path d="M249.74 152.662H246.408V159.281H249.74V152.662Z" fill="#D3D3D7"/>
<path d="M254.687 152.662H250.589V159.281H254.687V152.662Z" fill="#D3D3D7"/>
<path d="M245.56 152.662H241.549V159.281H245.56V152.662Z" fill="#D3D3D7"/>
<path d="M245.56 146.288H241.549V151.45H245.56V146.288Z" fill="#D3D3D7"/>
<path d="M245.56 139.918H241.549V145.08H245.56V139.918Z" fill="#D3D3D7"/>
<path d="M245.56 132.94H241.549V138.705H245.56V132.94Z" fill="#D3D3D7"/>
<path d="M270.427 146.288H266.329V151.45H270.427V146.288Z" fill="#D3D3D7"/>
<path d="M265.481 132.94H262.149V138.705H265.481V132.94Z" fill="#D3D3D7"/>
<path d="M265.481 139.918H262.149V145.08H265.481V139.918Z" fill="#D3D3D7"/>
<path d="M270.427 139.918H266.329V145.08H270.427V139.918Z" fill="#D3D3D7"/>
<path d="M265.481 146.288H262.149V151.45H265.481V146.288Z" fill="#D3D3D7"/>
<path d="M270.427 132.94H266.329V138.705H270.427V132.94Z" fill="#D3D3D7"/>
<path d="M265.481 152.662H262.149V159.281H265.481V152.662Z" fill="#D3D3D7"/>
<path d="M270.427 152.662H266.329V159.281H270.427V152.662Z" fill="#D3D3D7"/>
<path d="M261.301 152.662H257.29V159.281H261.301V152.662Z" fill="#D3D3D7"/>
<path d="M261.301 146.288H257.29V151.45H261.301V146.288Z" fill="#D3D3D7"/>
<path d="M261.301 139.918H257.29V145.08H261.301V139.918Z" fill="#D3D3D7"/>
<path d="M261.301 132.94H257.29V138.705H261.301V132.94Z" fill="#D3D3D7"/>
<path d="M286.172 146.288H282.074V151.45H286.172V146.288Z" fill="#D3D3D7"/>
<path d="M281.221 132.94H277.894V138.705H281.221V132.94Z" fill="#D3D3D7"/>
<path d="M281.221 139.918H277.894V145.08H281.221V139.918Z" fill="#D3D3D7"/>
<path d="M286.172 139.918H282.074V145.08H286.172V139.918Z" fill="#D3D3D7"/>
<path d="M281.221 146.288H277.894V151.45H281.221V146.288Z" fill="#D3D3D7"/>
<path d="M286.172 132.94H282.074V138.705H286.172V132.94Z" fill="#D3D3D7"/>
<path d="M281.221 152.662H277.894V159.281H281.221V152.662Z" fill="#D3D3D7"/>
<path d="M286.172 152.662H282.074V159.281H286.172V152.662Z" fill="#D3D3D7"/>
<path d="M277.046 152.662H273.035V159.281H277.046V152.662Z" fill="#D3D3D7"/>
<path d="M277.046 146.288H273.035V151.45H277.046V146.288Z" fill="#D3D3D7"/>
<path d="M277.046 139.918H273.035V145.08H277.046V139.918Z" fill="#D3D3D7"/>
<path d="M277.046 132.94H273.035V138.705H277.046V132.94Z" fill="#D3D3D7"/>
<path opacity="0.2" d="M287.968 130.15H239.471V161.367H287.968V130.15Z" stroke="#262833" stroke-width="0.5" stroke-linecap="round" stroke-linejoin="round"/>
<path d="M1 169.847L409 169.847" stroke="#262833" stroke-width="0.5" stroke-linecap="round" stroke-linejoin="round"/>
<path d="M314.155 131.416C314.155 131.416 313.464 147.392 313.551 156.465C313.637 165.538 314.759 180.679 314.759 180.679L313.985 182.148L314.068 184.309L319.08 185.778L319.424 183.965C319.424 183.965 320.289 183.274 320.289 182.839C320.289 182.405 320.202 180.074 320.202 179.383C320.202 178.692 323.054 146.561 323.054 146.561L324.262 146.474L329.792 181.804L328.641 182.496L330.198 185.517L332.789 184.652L335.554 184.826C335.866 184.098 336.126 183.348 336.332 182.583C336.332 182.235 335.38 181.804 335.38 181.2C335.38 180.596 334.436 144.284 334.436 144.284L332.781 131.416H314.155Z" fill="#262833" stroke="#262833" stroke-width="0.5" stroke-miterlimit="10"/>
<path d="M314.055 184.309L311.208 186.556C311.208 186.556 307.578 187.939 307.665 188.543C307.752 189.147 308.443 189.234 308.96 189.234H319.242L319.068 185.778L314.055 184.309Z" fill="#262833" stroke="#262833" stroke-width="0.5" stroke-miterlimit="10"/>
<path d="M330.21 185.505C330.21 185.505 331.332 189.135 331.679 189.565C332.027 189.995 335.222 191.378 336.083 191.121C336.944 190.865 337.9 189.652 337.553 188.443C337.205 187.235 335.566 184.813 335.566 184.813L332.801 184.64L330.21 185.505Z" fill="#262833" stroke="#262833" stroke-width="0.5" stroke-miterlimit="10"/>
<path d="M323.302 100.145L318.981 100.75C318.981 100.75 317.081 105.584 316.39 113.618C315.699 121.652 316.303 131.672 316.303 131.672H330.988C330.988 131.672 334.788 110.249 333.579 106.71C332.897 104.644 331.811 102.735 330.384 101.093L323.302 100.145Z" fill="white" stroke="#262833" stroke-width="0.5" stroke-miterlimit="10"/>
<path d="M319.672 103.428C319.672 103.428 317.685 109.992 317.685 115.692C317.685 121.391 318.55 142.123 318.55 142.123L310.603 140.468L312.499 126.921L311.634 112.409L304.982 119.408L300.016 116.586C300.016 116.586 311.03 101.611 311.377 101.528C311.725 101.445 321.191 99.6196 321.191 99.6196L319.672 103.428Z" fill="#262833" stroke="#262833" stroke-width="0.5" stroke-miterlimit="10"/>
<path d="M311.158 107.467L311.638 112.409L309.912 107.053" stroke="#262833" stroke-width="0.5" stroke-miterlimit="10"/>
<path d="M310.947 105.327L311.051 106.391" stroke="#262833" stroke-width="0.5" stroke-miterlimit="10"/>
<path d="M329.689 99.8513C329.689 99.8513 339.465 102.335 339.813 102.401C340.161 102.467 350.769 121.912 350.769 121.912L346.017 123.982L337.214 113.129L335.393 128.816L337.727 140.82L327.446 141.598L326.572 129.342L328.385 102.823L329.689 99.8513Z" fill="#262833" stroke="#262833" stroke-width="0.5" stroke-miterlimit="10"/>
<path d="M335.877 109.127L337.214 113.134L335.099 110.571" stroke="#262833" stroke-width="0.5" stroke-miterlimit="10"/>
<path d="M320.665 84.3839C320.665 84.3839 319.059 83.2374 319.212 82.6993C319.366 82.1612 322.884 80.1 323.418 79.8723C323.952 79.6447 330.375 81.0188 331.447 81.7059C332.519 82.393 333.662 86.4493 333.815 88.3574C333.968 90.2655 329.229 94.032 329.229 94.032L326.17 94.1065L326.551 91.8135L323.418 91.2009L323.952 88.6016L321.125 85.4642L321.886 83.7051L320.665 84.3839Z" fill="#262833" stroke="#262833" stroke-width="0.5" stroke-miterlimit="10"/>
<path d="M321.68 98.0965L319.085 101.482C319.085 101.482 317.756 104.98 318.058 104.793C318.361 104.607 319.987 103.043 319.987 103.043L323.878 105.406L328.377 103.163L330.608 105.576C330.608 105.576 331.092 98.7587 330.732 98.2165C330.372 97.6743 328.439 97.248 327.955 97.19C327.471 97.1321 321.68 98.0965 321.68 98.0965Z" fill="white" stroke="#262833" stroke-width="0.5" stroke-miterlimit="10"/>
<path d="M321.58 82.6995C321.58 82.6995 318.219 86.2963 318.6 87.0579C318.814 87.4669 318.969 87.9046 319.059 88.3575C319.059 88.3575 316.381 90.7292 316.766 91.1886C317.203 91.6058 317.692 91.966 318.219 92.2606C318.219 92.2606 317.76 95.4725 318.219 96.2341C318.679 96.9957 321.199 96.5404 321.199 96.5404C321.199 96.5404 322.958 106.023 323.877 105.41C324.796 104.798 329.15 99.1397 329.076 98.4526C329.001 97.7656 329.229 94.2474 329.229 94.0197C329.229 93.7921 327.698 93.9411 327.698 93.9411C327.698 93.9411 329.688 91.0438 328.939 90.1953C328.19 89.3468 326.646 89.5827 326.108 89.9635C325.79 90.1941 325.511 90.4734 325.28 90.7913L324.453 90.5595C324.715 89.9868 324.944 89.3995 325.14 88.8004C325.218 88.4196 323.381 86.586 323.459 86.2797C323.531 86.1398 323.623 86.0114 323.732 85.8989C324.341 85.1912 325.752 83.8294 325.752 83.8294L321.58 82.6995Z" fill="white" stroke="#262833" stroke-width="0.5" stroke-miterlimit="10"/>
<path d="M320.562 89.0112C320.529 89.3878 320.372 89.6776 320.215 89.6652C320.057 89.6527 319.958 89.334 319.995 88.9574C320.032 88.5807 320.186 88.291 320.343 88.3076C320.5 88.3241 320.599 88.6511 320.562 89.0112Z" fill="#262833"/>
<path d="M319.685 87.1858C319.685 87.1858 320.653 86.4822 321.311 87.4052" stroke="#262833" stroke-width="0.5" stroke-miterlimit="10"/>
<path d="M318.708 92.9434C318.708 92.9434 320.554 93.0717 321.477 91.9749" stroke="#262833" stroke-width="0.5" stroke-miterlimit="10"/>
<path d="M321.199 96.5402L323.993 96.1511L321.663 98.8291L321.199 96.5402Z" fill="#262833" stroke="#262833" stroke-width="0.5" stroke-miterlimit="10"/>
<path d="M305.285 129.11L307.284 127.202L305.14 125.725L305.285 129.11Z" fill="white" stroke="#262833" stroke-width="0.5" stroke-miterlimit="10"/>
<path d="M306.237 122.008L307.814 123.829L306.618 128.013L304.59 126.362L306.237 122.008Z" fill="white" stroke="#262833" stroke-width="0.5" stroke-miterlimit="10"/>
<path d="M301.916 113.899C301.916 113.899 299.432 116.966 299.018 117.943C298.605 118.92 305.293 129.094 305.293 129.094L306.912 122.657L305.72 119.081L306.266 117.012L303.576 115.977" fill="#262833"/>
<path d="M301.916 113.899C301.916 113.899 299.432 116.966 299.018 117.943C298.605 118.92 305.293 129.094 305.293 129.094L306.912 122.657L305.72 119.081L306.266 117.012L303.576 115.977" stroke="#262833" stroke-width="0.5" stroke-miterlimit="10"/>
<path d="M307.619 123.721L310.98 123.254C310.98 123.254 313.393 125.439 313.509 125.737C313.603 126.04 313.582 126.367 313.451 126.656C313.362 126.923 313.203 127.161 312.991 127.347C312.991 127.347 312.072 129.59 311.899 129.88C311.725 130.17 310.69 130.054 310.289 129.996C309.887 129.938 306.617 128.022 306.617 128.022L307.619 123.721Z" fill="white" stroke="#262833" stroke-width="0.5" stroke-miterlimit="10"/>
<path d="M340.595 124.061L339.729 125.153L341.116 128.742L342.954 127.686L340.595 124.061Z" fill="white" stroke="#262833" stroke-width="0.5" stroke-miterlimit="10"/>
<path d="M345.446 118.767L340.02 124.003L343.699 128.663C343.699 128.663 351.083 122.62 350.682 121.627C350.28 120.634 348.55 118.233 348.55 118.233" fill="#262833"/>
<path d="M345.446 118.767L340.02 124.003L343.699 128.663C343.699 128.663 351.083 122.62 350.682 121.627C350.28 120.634 348.55 118.233 348.55 118.233" stroke="#262833" stroke-width="0.5" stroke-miterlimit="10"/>
<path d="M339.73 125.153L336.568 124.578C336.568 124.578 334.151 126.763 334.035 127.061C333.941 127.364 333.961 127.691 334.093 127.98C334.183 128.247 334.342 128.485 334.552 128.671C334.552 128.671 335.471 130.915 335.645 131.204C335.819 131.494 336.853 131.374 337.255 131.316C337.656 131.258 340.79 127.959 340.79 127.959L339.73 125.153Z" fill="white" stroke="#262833" stroke-width="0.5" stroke-miterlimit="10"/>
</svg>
