<svg width="37" height="36" viewBox="0 0 37 36" fill="none" xmlns="http://www.w3.org/2000/svg">
<g clip-path="url(#clip0_2550_22623)">
<path d="M19.8835 36.0001H17.0744C17.0068 35.9818 16.94 35.9621 16.8724 35.9445C15.0429 35.4575 13.9346 34.2929 13.5757 32.4281C13.5025 32.046 13.5462 31.6583 13.5363 31.2727C13.53 31.0405 13.4934 30.8181 13.2534 30.7147C13.0071 30.6091 12.8017 30.6971 12.6243 30.8864C12.4724 31.0482 12.3126 31.203 12.1487 31.3536C10.4669 32.8982 7.99909 32.8954 6.32646 31.3402C5.91551 30.9581 5.51653 30.5613 5.13654 30.1482C3.61238 28.4917 3.61027 26.0422 5.12317 24.3779C5.30402 24.1788 5.49682 23.9909 5.68541 23.7988C5.83177 23.6489 5.85992 23.4709 5.7994 23.2795C5.73396 23.0733 5.56367 22.991 5.36805 22.9748C5.1471 22.9572 4.92403 22.9614 4.70167 22.9649C3.88189 22.9776 3.13036 22.7496 2.44287 22.3133C1.3747 21.6357 0.768129 20.6435 0.500732 19.4254C0.500732 18.4888 0.500732 17.5529 0.500732 16.6163C0.528176 16.5149 0.554915 16.4129 0.583766 16.3123C1.09815 14.5165 2.27329 13.4412 4.11129 13.1168C4.48705 13.0507 4.88111 13.088 5.26672 13.076C5.48838 13.069 5.69385 13.0169 5.78744 12.791C5.88244 12.5602 5.81277 12.3611 5.63474 12.1872C5.4342 11.9909 5.23506 11.7918 5.05069 11.58C3.62857 9.94811 3.64334 7.53798 5.09784 5.93779C5.51441 5.47898 5.95421 5.03848 6.41441 4.624C7.82317 3.35455 9.84342 3.18215 11.4654 4.1659C11.9319 4.44878 12.3049 4.83652 12.6877 5.2144C12.8467 5.37202 13.0332 5.40791 13.2372 5.33473C13.4392 5.26225 13.5159 5.08773 13.5279 4.89211C13.5426 4.65919 13.5349 4.42416 13.537 4.18983C13.5525 2.17446 15.0112 0.441278 16.9991 0.0816936C17.7429 -0.0527109 18.4937 0.0190653 19.241 0.019769C21.2584 0.0211764 22.9909 1.48977 23.3589 3.46925C23.4433 3.92454 23.4039 4.37912 23.4257 4.8337C23.4363 5.05607 23.5003 5.25591 23.734 5.33754C23.9556 5.41565 24.1435 5.34951 24.3068 5.18203C24.4862 4.99766 24.6691 4.81541 24.8605 4.64371C26.5275 3.14978 28.9602 3.16033 30.6068 4.67748C31.0451 5.0814 31.4702 5.50361 31.8698 5.94623C33.3166 7.54642 33.3257 9.97203 31.9008 11.5898C31.708 11.8094 31.4983 12.0141 31.2921 12.2217C31.1352 12.3801 31.0923 12.5644 31.1627 12.7692C31.2379 12.988 31.4251 13.0598 31.6334 13.0711C31.8551 13.083 32.0781 13.076 32.3005 13.0774C34.3193 13.0915 36.0588 14.5495 36.417 16.5297C36.5535 17.2848 36.481 18.0476 36.4796 18.8068C36.4768 20.7983 35.0005 22.5329 33.0401 22.8981C32.5855 22.9825 32.1302 22.9466 31.6756 22.9656C31.454 22.9748 31.252 23.0339 31.1655 23.2654C31.0838 23.4843 31.1415 23.6771 31.3111 23.8396C31.4462 23.9691 31.5771 24.1028 31.7073 24.2379C33.3877 25.9873 33.3898 28.5248 31.7108 30.2699C31.3942 30.5986 31.0712 30.9215 30.7426 31.2389C28.9883 32.9348 26.4445 32.9334 24.6853 31.2375C24.5418 31.0996 24.4017 30.9588 24.2603 30.8188C24.1118 30.671 23.9338 30.6408 23.7417 30.7006C23.5355 30.7646 23.449 30.9335 23.4335 31.1291C23.4152 31.3621 23.4208 31.5971 23.4229 31.8307C23.43 32.6132 23.2154 33.3324 22.8093 33.996C22.1345 35.1 21.1283 35.7249 19.8842 36.0001H19.8835ZM27.7062 29.5909C28.108 29.6183 28.4324 29.4494 28.7111 29.1764C29.0207 28.8731 29.3317 28.5712 29.6293 28.2574C30.2211 27.6318 30.2162 26.8831 29.6244 26.2505C29.4323 26.0457 29.229 25.8508 29.0446 25.6397C27.3691 23.7193 28.3634 20.7181 30.8516 20.1671C31.2703 20.0742 31.6904 20.1171 32.1105 20.1002C32.9732 20.0664 33.4862 19.6393 33.5938 18.809C33.6614 18.2875 33.6614 17.7548 33.5938 17.2334C33.4876 16.4143 32.988 15.9858 32.1457 15.9449C31.9121 15.9337 31.6777 15.9428 31.4434 15.9393C28.9644 15.902 27.3888 13.0774 28.6519 10.9403C28.9179 10.4907 29.2965 10.1416 29.6476 9.76515C30.2092 9.16209 30.2106 8.41055 29.6519 7.8103C29.3493 7.4852 29.0326 7.17135 28.7096 6.86595C28.0953 6.28611 27.3487 6.28612 26.7288 6.85681C26.505 7.06299 26.2953 7.28465 26.0652 7.48309C24.1702 9.11776 21.1796 8.11922 20.6301 5.67531C20.5358 5.25732 20.5723 4.83722 20.5597 4.41712C20.5308 3.44673 19.989 2.90278 19.0165 2.88097C18.6422 2.87252 18.2671 2.8683 17.8928 2.88237C16.9738 2.91756 16.4453 3.44532 16.4038 4.36293C16.3939 4.5846 16.4052 4.80767 16.3982 5.03003C16.358 6.28049 15.7909 7.23328 14.7079 7.83845C13.5926 8.46192 12.4519 8.4584 11.3338 7.80467C10.9137 7.55909 10.5928 7.1988 10.2438 6.87018C9.61473 6.27908 8.86391 6.28049 8.23764 6.87651C7.9238 7.17487 7.61629 7.48027 7.31934 7.79553C6.74373 8.40844 6.74796 9.15857 7.32075 9.77782C7.51918 9.99244 7.7324 10.1944 7.9238 10.4154C9.57954 12.3259 8.58807 15.3215 6.1245 15.8725C5.70581 15.9661 5.28572 15.9281 4.86633 15.9414C3.98603 15.9703 3.46602 16.403 3.36117 17.2496C3.29784 17.7598 3.29854 18.2805 3.36117 18.7914C3.46109 19.6147 3.95578 20.0489 4.79456 20.0974C5.00425 20.1094 5.21606 20.1002 5.42646 20.1023C7.65007 20.1213 9.21856 22.2317 8.61481 24.3772C8.4023 25.1323 7.90409 25.6784 7.37282 26.2146C6.72051 26.8732 6.72403 27.6325 7.36438 28.2954C7.64866 28.5902 7.93717 28.8816 8.23412 29.1637C8.86109 29.7598 9.6098 29.7612 10.241 29.1757C10.4725 28.9611 10.6928 28.7324 10.9355 28.5311C12.8601 26.9344 15.7895 27.9464 16.332 30.3881C16.4249 30.8068 16.3841 31.2269 16.3996 31.647C16.4319 32.5365 16.8872 33.0657 17.7534 33.1459C18.2291 33.1902 18.7146 33.1888 19.191 33.148C20.0467 33.0748 20.5097 32.5618 20.5548 31.6949C20.5667 31.4613 20.5569 31.2269 20.5604 30.9926C20.5899 28.9758 22.5222 27.4221 24.5045 27.8049C25.3503 27.9682 26.0033 28.4326 26.5782 29.0392C26.8843 29.3622 27.2256 29.6183 27.7062 29.5916V29.5909Z" fill="black"/>
<path d="M10.3254 18.0102C10.3078 13.9091 13.3146 10.4773 17.3973 9.91571C21.834 9.30562 25.9934 12.468 26.5802 16.8956C26.728 18.0102 26.6738 19.1122 26.3684 20.1973C26.1327 21.0368 25.396 21.5048 24.6135 21.3169C23.8247 21.1269 23.3715 20.3845 23.5713 19.526C23.933 17.9751 23.7944 16.5079 22.9183 15.1476C21.727 13.2969 19.5041 12.3857 17.3375 12.855C15.2265 13.3124 13.5609 15.0885 13.247 17.2165C12.796 20.2775 14.9745 23.0184 18.0644 23.2851C18.7385 23.3435 19.388 23.2386 20.0396 23.0824C20.8432 22.8896 21.511 23.1838 21.8128 23.8347C22.1886 24.6439 21.7875 25.5503 20.9114 25.8331C19.6751 26.2314 18.4085 26.3159 17.1334 26.0865C13.4187 25.4187 10.7616 22.5737 10.3296 18.8167C10.2993 18.5514 10.3254 18.2791 10.3254 18.0102Z" fill="black"/>
</g>
<defs>
<clipPath id="clip0_2550_22623">
<rect width="36" height="36" fill="white" transform="translate(0.5)"/>
</clipPath>
</defs>
</svg>
