<svg width="37" height="23" viewBox="0 0 37 23" fill="none" xmlns="http://www.w3.org/2000/svg">
<g clip-path="url(#clip0_2550_22636)">
<path d="M-0.5 13.638C-0.5 13.4788 -0.5 13.3188 -0.5 13.1596C-0.48692 13.1876 -0.474657 13.2156 -0.454219 13.258C-0.423153 13.0019 -0.314423 12.7891 -0.213868 12.5763C0.533346 10.9896 1.28383 9.40371 2.03431 7.81863C2.81832 6.16074 3.60232 4.50205 4.38877 2.84577C4.64793 2.30087 4.88501 1.74478 5.17605 1.21508C5.5145 0.598176 6.09085 0.369336 6.77593 0.56457C7.78312 0.85182 8.78131 1.16868 9.78277 1.47593C10.4049 1.66716 11.0344 1.83359 11.65 2.04563C12.3171 2.27607 12.6703 2.86817 12.5321 3.53629C12.5117 3.6347 12.5272 3.64991 12.6466 3.64991C14.0233 3.64991 15.4 3.64831 16.7767 3.64991C16.8666 3.64991 16.9271 3.6227 16.9876 3.55709C17.2672 3.25304 17.5435 2.94658 17.8378 2.65613C18.1877 2.31127 18.6153 2.18805 19.0992 2.32168C19.5824 2.4553 20.0615 2.60492 20.5422 2.74895C21.3343 2.98739 22.1282 3.22103 22.9171 3.46747C23.3732 3.6099 23.8368 3.72912 24.2913 3.87715C24.3404 3.89315 24.3886 3.90995 24.418 3.84274C24.5586 3.52588 24.8113 3.32025 25.1113 3.15222C26.116 2.58812 27.1052 1.99842 28.114 1.43992C28.8564 1.02865 29.5839 0.594175 30.3222 0.176503C30.829 -0.110747 31.4405 -0.045136 31.8681 0.326129C32.0676 0.499759 32.182 0.722998 32.2752 0.961439C32.5311 1.61595 32.787 2.27047 33.0461 2.92338C33.5334 4.15239 34.0247 5.37981 34.512 6.60962C34.9035 7.59699 35.2878 8.58757 35.6818 9.57414C36.259 11.0184 36.8378 12.4626 37.3978 13.9133C37.4567 14.0669 37.4967 14.2245 37.5 14.3886C37.5098 14.9303 37.1534 15.4096 36.6032 15.6072C35.3115 16.0713 34.0214 16.5369 32.7298 17.0018C32.2131 17.1875 31.6989 17.3803 31.1797 17.5579C30.7309 17.7116 30.3156 17.6299 29.9412 17.3459C29.7597 17.2083 29.6338 17.0274 29.5455 16.8226C29.5095 16.7386 29.467 16.7218 29.3828 16.7698C29.2275 16.8586 29.0673 16.9386 28.9062 17.0186C28.2735 17.3339 27.6407 17.6483 27.0071 17.962C26.9376 17.9964 26.891 18.046 26.8534 18.1132C26.4471 18.8333 25.874 19.3662 25.0761 19.6647C24.0199 20.06 22.9702 20.472 21.9172 20.8769C20.368 21.4722 18.8188 22.0675 17.2704 22.6644C16.8715 22.818 16.4685 22.9621 16.036 22.9893C15.0893 23.0493 14.2391 22.7932 13.536 22.1675C12.4438 21.1938 11.3884 20.1808 10.3387 19.1638C9.36094 18.2172 8.39054 17.2627 7.41851 16.3089C7.3482 16.2401 7.32286 16.2553 7.28934 16.3345C7.22966 16.4753 7.16834 16.6162 7.09885 16.753C6.92718 17.0874 6.6623 17.3131 6.28706 17.4131C5.91181 17.5123 5.56437 17.4603 5.22755 17.2739C4.34871 16.7898 3.47152 16.3009 2.58287 15.8336C1.80214 15.4224 1.03367 14.9895 0.254572 14.575C-0.0299256 14.4238 -0.241663 14.2077 -0.372467 13.9173C-0.419883 13.8117 -0.441139 13.6997 -0.459124 13.574C-0.477927 13.6028 -0.489372 13.6196 -0.5 13.6356L-0.5 13.638ZM12.949 6.22795C12.4937 6.22795 12.0383 6.22875 11.583 6.22795C11.5086 6.22795 11.4554 6.24156 11.4244 6.31917C11.3173 6.58802 11.2036 6.85526 11.0933 7.12331C10.5096 8.54036 9.92584 9.9574 9.34131 11.3736C9.04128 12.1002 8.73798 12.8259 8.43468 13.5508C8.40852 13.6132 8.4167 13.6548 8.46575 13.7005C8.57938 13.8053 8.69057 13.9133 8.80093 14.0213C9.86126 15.0567 10.9191 16.0945 11.9811 17.129C12.6024 17.734 13.2196 18.3421 13.854 18.9342C14.2914 19.3422 14.7337 19.7463 15.1596 20.1656C15.4335 20.436 15.7319 20.496 16.0867 20.3664C17.2255 19.9495 18.3528 19.5039 19.4843 19.0686C20.3345 18.7413 21.1839 18.4109 22.0341 18.0852C22.7299 17.8188 23.4215 17.5419 24.1172 17.2747C24.2488 17.2243 24.3682 17.1571 24.4548 17.0434C24.6805 16.7474 24.6625 16.3537 24.3984 16.0865C24.2022 15.888 23.9937 15.7024 23.7934 15.508C22.7936 14.535 21.7807 13.5764 20.7629 12.6219C20.1939 12.0882 19.6372 11.5425 19.078 10.9992C19.0191 10.9424 18.9815 10.9312 18.9088 10.9848C18.3798 11.3752 17.846 11.7585 17.3154 12.1466C16.587 12.6795 15.7793 12.9035 14.8718 12.7699C13.4837 12.5651 12.3563 11.4017 12.2476 10.0238C12.1814 9.18287 12.4258 8.42514 12.9973 7.78342C13.4387 7.28734 13.8916 6.80005 14.3617 6.33037C14.3854 6.30637 14.4337 6.28396 14.4124 6.24316C14.396 6.21195 14.3503 6.22795 14.3176 6.22795C13.8622 6.22715 13.4068 6.22795 12.9515 6.22795H12.949ZM14.862 9.80298C14.862 9.98381 15.0026 10.1638 15.2226 10.2238C15.4024 10.2727 15.5635 10.2359 15.7123 10.1262C16.4497 9.58134 17.2042 9.05885 17.9326 8.50275C18.0585 8.40673 18.1869 8.31392 18.3177 8.2235C18.8703 7.84344 19.5644 7.89785 20.0541 8.35392C20.5266 8.794 20.9812 9.25088 21.4537 9.69176C22.223 10.4095 22.9808 11.1392 23.7428 11.8649C24.4973 12.5835 25.2511 13.3028 26.0057 14.0213C26.3335 14.3334 26.6384 14.6622 26.8477 15.0647C26.8845 15.1359 26.9229 15.1375 26.9916 15.1015C27.4363 14.8719 27.8827 14.6462 28.3291 14.4198C28.4688 14.3486 28.4705 14.3486 28.4108 14.2077C27.9783 13.1964 27.545 12.1858 27.1134 11.1744C26.5395 9.82938 25.9615 8.48515 25.3991 7.13531C25.3148 6.93368 25.2029 6.83046 24.9911 6.76725C23.0773 6.19755 21.1676 5.61665 19.2562 5.03735C19.1965 5.01894 19.154 5.02615 19.1123 5.07335C19.0101 5.18937 18.9071 5.30379 18.8008 5.41581C18.2637 5.97991 17.7201 6.53761 17.1879 7.10651C16.5502 7.78823 15.9101 8.46674 15.261 9.13726C15.1604 9.24128 15.0631 9.3477 14.9683 9.45572C14.8923 9.54213 14.8604 9.64615 14.862 9.80218V9.80298ZM34.4654 13.5964C34.4605 13.582 34.4539 13.5628 34.4457 13.5452C34.149 12.8571 33.8874 12.1546 33.6102 11.4585C32.8687 9.59574 32.1289 7.73222 31.3907 5.86789C31.0489 5.00374 30.7121 4.13799 30.3729 3.27304C30.3222 3.14342 30.3164 3.14342 30.1938 3.21463C29.8366 3.42027 29.4793 3.6259 29.1212 3.82994C28.549 4.15639 27.9767 4.48205 27.4036 4.80771C27.2655 4.88612 27.263 4.88692 27.3309 5.03095C27.4077 5.19417 27.4935 5.3526 27.5663 5.51663C27.8704 6.20235 28.1574 6.89447 28.45 7.58419C29.046 8.98923 29.651 10.3903 30.2486 11.7937C30.6484 12.7315 31.0588 13.6652 31.4299 14.6142C31.4642 14.7022 31.5018 14.7198 31.595 14.6854C32.2425 14.4446 32.8916 14.2077 33.5416 13.9733C33.8187 13.8733 34.0983 13.7805 34.3771 13.6828C34.4163 13.6692 34.4662 13.6596 34.4637 13.5956L34.4654 13.5964ZM7.1242 3.34905C7.03918 3.33465 7.02855 3.39306 7.00893 3.43547C6.5503 4.40604 6.09249 5.37661 5.63386 6.34718C4.99129 7.70661 4.34872 9.06605 3.70614 10.4247C3.33417 11.2112 2.9622 11.9978 2.58941 12.7843C2.55998 12.8467 2.55099 12.8883 2.62702 12.9291C3.04967 13.1564 3.46825 13.3908 3.89009 13.6188C4.31847 13.8501 4.75584 14.0645 5.17441 14.3126C5.24063 14.3518 5.27905 14.3422 5.30521 14.2702C5.3281 14.2077 5.35672 14.1469 5.38206 14.0853C6.06633 12.425 6.74896 10.7655 7.43404 9.10526C8.10849 7.47057 8.78458 5.83589 9.45986 4.2012C9.504 4.09318 9.4991 4.07878 9.3871 4.04357C8.79848 3.85954 8.20905 3.67711 7.62043 3.49468C7.45202 3.44267 7.2828 3.39386 7.12583 3.34745L7.1242 3.34905Z" fill="black"/>
</g>
<defs>
<clipPath id="clip0_2550_22636">
<rect width="38" height="23" fill="white" transform="translate(-0.5)"/>
</clipPath>
</defs>
</svg>
