<svg width="37" height="36" viewBox="0 0 37 36" fill="none" xmlns="http://www.w3.org/2000/svg">
<g clip-path="url(#clip0_2550_22607)">
<path d="M0.5 19.8083C0.721653 18.7097 1.31062 17.8391 2.11842 17.0797C2.91074 16.3351 3.65873 15.5426 4.43276 14.7769C6.65844 12.5754 10.074 13.175 11.4145 16.0092C11.5221 16.2366 11.6636 16.2774 11.8803 16.2739C12.9914 16.2577 14.0975 16.2675 15.1917 16.5336C19.1512 17.4964 22.1615 20.8704 22.6541 24.9158C22.6956 25.2543 22.7153 25.5908 22.7153 25.93C22.7167 27.8844 22.7209 29.8389 22.7153 31.7933C22.709 33.9723 20.9505 35.8514 18.8613 35.9894C16.4379 36.1498 14.5472 34.4417 14.2587 32.2761C14.2326 32.0805 14.2411 31.8792 14.2411 31.68C14.2397 29.9128 14.2418 28.1455 14.2397 26.3783C14.2383 25.3008 13.6887 24.7976 12.6185 24.7342C11.8979 24.6913 11.4954 24.8757 11.0943 25.5535C9.71092 27.8894 6.54937 28.2624 4.58757 26.3868C3.58978 25.4331 2.62787 24.4408 1.65541 23.4611C1.03408 22.8354 0.696321 22.0591 0.500704 21.2124V19.8076L0.5 19.8083ZM17.098 28.6959H17.0994C17.0994 29.6791 17.0881 30.6623 17.1022 31.6455C17.117 32.647 17.9205 33.2981 18.8233 33.0623C19.4784 32.8913 19.8549 32.3585 19.857 31.5737C19.8612 29.8417 19.8598 28.1097 19.857 26.3776C19.8563 25.8505 19.8106 25.3261 19.7149 24.8074C19.1562 21.767 16.5224 19.417 13.4403 19.1784C12.4693 19.1031 11.4996 19.1454 10.5293 19.1327C9.49771 19.12 9.01571 18.6949 8.89538 17.6653C8.82783 17.0882 8.56818 16.6413 8.00032 16.4301C7.42121 16.2155 6.92443 16.3696 6.4973 16.7982C5.58817 17.7096 4.67201 18.614 3.76921 19.5318C3.21965 20.0899 3.18658 20.883 3.71362 21.425C4.66778 22.4068 5.64024 23.371 6.61693 24.3303C6.91528 24.623 7.29737 24.7413 7.71534 24.6639C8.46052 24.5252 8.8419 24.0558 8.90312 23.2295C8.96012 22.461 9.53923 21.9007 10.3048 21.8937C11.1942 21.8853 12.0837 21.8867 12.9724 21.893C15.1995 21.9085 17.0811 23.7947 17.0958 26.0271C17.1015 26.9167 17.0965 27.8063 17.0965 28.6952L17.098 28.6959Z" fill="black"/>
<path d="M19.1809 0C20.2786 0.221697 21.1504 0.809368 21.9097 1.61803C22.6464 2.40277 23.4296 3.14387 24.1881 3.90819C26.4117 6.1505 25.8249 9.56603 22.9779 10.9187C22.7731 11.0159 22.7083 11.1369 22.714 11.3502C22.7252 11.795 22.7231 12.2398 22.7147 12.6846C22.6999 13.4714 22.0821 14.071 21.2933 14.0725C20.5017 14.0739 19.8712 13.4791 19.8627 12.6958C19.8522 11.7246 19.8522 10.7526 19.8627 9.78139C19.8705 9.03959 20.4397 8.46177 21.1891 8.40617C22.0223 8.34494 22.4867 7.96911 22.6295 7.2252C22.7105 6.80573 22.5937 6.42216 22.3016 6.12516C21.3348 5.13914 20.363 4.15663 19.3709 3.19665C18.865 2.70751 18.0656 2.7244 17.5576 3.21988C16.5858 4.16789 15.626 5.12858 14.6782 6.10053C14.2855 6.5031 14.1997 7.00068 14.4101 7.53064C14.6282 8.07961 15.0673 8.33086 15.6295 8.39772C16.6653 8.52089 17.0974 8.99806 17.0988 10.0277C17.0995 10.9757 17.1016 11.9238 17.0981 12.8725C17.0945 13.7452 16.4999 14.3547 15.664 14.3533C14.8316 14.3519 14.2468 13.7396 14.2419 12.8605C14.2391 12.3573 14.2342 11.8534 14.2447 11.3509C14.2489 11.139 14.1877 11.0159 13.9822 10.9187C11.1345 9.56955 10.5463 6.14979 12.7712 3.9103C13.5305 3.14668 14.313 2.40558 15.0497 1.62014C15.8082 0.810776 16.6808 0.224512 17.7778 0.000703798H19.1823L19.1809 0Z" fill="black"/>
<path d="M26.2002 21.8918C26.3409 21.8918 26.481 21.8904 26.6217 21.8918C27.4133 21.903 27.9987 22.4499 28.0522 23.2353C28.0944 23.8554 28.3316 24.3487 28.9417 24.5845C29.5651 24.8259 30.0738 24.6197 30.5249 24.1615C31.3784 23.2937 32.246 22.4407 33.1038 21.5772C33.785 20.891 33.7871 20.133 33.1108 19.4524C32.2362 18.5727 31.3545 17.6999 30.4806 16.8195C30.045 16.381 29.544 16.2086 28.9501 16.4331C28.3534 16.6583 28.1036 17.1348 28.0543 17.7408C27.9847 18.6036 27.4267 19.1174 26.5605 19.1322C25.5437 19.1491 24.5262 19.1019 23.5087 19.1737C22.6861 19.2321 22.0014 18.5994 21.9684 17.8182C21.9325 16.9814 22.5123 16.3289 23.3658 16.2867C23.9499 16.2579 24.536 16.2663 25.1208 16.2762C25.3403 16.2797 25.4501 16.1994 25.5444 16.0003C26.8652 13.1914 30.2969 12.5805 32.5057 14.7588C33.4057 15.6463 34.2986 16.5408 35.1866 17.4402C36.9345 19.2117 36.9381 21.8045 35.1944 23.5738C34.2909 24.4909 33.3839 25.4044 32.4635 26.3039C30.2709 28.4462 26.7962 27.7896 25.5331 24.9997C25.4571 24.8322 25.3642 24.7154 25.189 24.6324C24.5269 24.3192 24.2138 23.6717 24.3672 22.9827C24.5107 22.3359 25.0912 21.8981 25.8146 21.8918C25.9434 21.8904 26.0721 21.8918 26.2009 21.8918H26.2002Z" fill="black"/>
<path d="M8.66358 30.3209C9.14277 30.3209 9.62196 30.3132 10.1005 30.3223C10.8836 30.3371 11.4789 30.9586 11.4789 31.7482C11.4789 32.5379 10.8843 33.1657 10.1019 33.1748C9.13221 33.1861 8.16257 33.1861 7.19293 33.1748C6.40975 33.1664 5.81445 32.5393 5.81445 31.7496C5.81445 30.9593 6.40905 30.3378 7.19152 30.3223C7.68197 30.3132 8.17313 30.3209 8.66358 30.3209Z" fill="black"/>
<path d="M28.2788 33.1779C27.7996 33.1779 27.3204 33.1863 26.842 33.1758C26.063 33.1582 25.474 32.5297 25.4776 31.7358C25.4811 30.9637 26.0721 30.3345 26.8342 30.3247C27.8158 30.312 28.7974 30.312 29.7783 30.3247C30.5566 30.3345 31.1462 30.9694 31.1427 31.7633C31.1392 32.5353 30.5481 33.1575 29.7861 33.1758C29.2837 33.1877 28.7812 33.1779 28.2788 33.1779Z" fill="black"/>
</g>
<defs>
<clipPath id="clip0_2550_22607">
<rect width="36" height="36" fill="white" transform="translate(0.5)"/>
</clipPath>
</defs>
</svg>
