<svg width="140" height="238" viewBox="0 0 140 238" fill="none" xmlns="http://www.w3.org/2000/svg">
<path d="M0 10C0 4.47716 4.47715 0 10 0H130C135.523 0 140 4.47715 140 10V140H0V10Z" fill="#E50000"/>
<path d="M0 140H140V201.86L70 237.674L0 201.86V140Z" fill="#002070"/>
<path d="M21.7488 37.6052C19.4806 37.6052 17.4392 37.1755 15.6246 36.3159C13.8101 35.4325 12.3775 34.0477 11.327 32.1615C10.2764 30.2753 9.75115 27.8161 9.75115 24.7838V24.0676C9.75115 21.8948 10.0615 20.0325 10.6823 18.4806C11.3031 16.9048 12.1507 15.6155 13.2251 14.6127C14.3234 13.586 15.5769 12.8339 16.9856 12.3564C18.4181 11.855 19.9462 11.6043 21.5698 11.6043C23.0023 11.6043 24.3394 11.7714 25.5809 12.1057C26.8225 12.44 27.9208 12.9652 28.8758 13.6815C29.8547 14.3739 30.6546 15.2693 31.2753 16.3676C31.92 17.4658 32.3259 18.779 32.493 20.3071H25.7958C25.6048 19.3998 25.2705 18.7074 24.793 18.2299C24.3394 17.7524 23.826 17.43 23.253 17.2629C22.7039 17.0719 22.1428 16.9764 21.5698 16.9764C20.567 16.9764 19.6716 17.2032 18.8837 17.6569C18.1197 18.0866 17.5108 18.8148 17.0572 19.8415C16.6274 20.8682 16.4125 22.2769 16.4125 24.0676V24.7838C16.4125 26.1209 16.5439 27.2669 16.8065 28.222C17.0691 29.1531 17.4273 29.9172 17.8809 30.5141C18.3584 31.111 18.9195 31.5527 19.5642 31.8392C20.2327 32.1018 20.9609 32.2331 21.7488 32.2331C22.6322 32.2331 23.4679 32.0899 24.2558 31.8034C25.0437 31.493 25.7003 31.0155 26.2256 30.3708C26.7508 29.7262 27.0254 28.9024 27.0493 27.8996H22.4651V23.8169H33.0302V25.5001C33.0302 27.649 32.7437 29.4874 32.1707 31.0155C31.6215 32.5435 30.8456 33.797 29.8428 34.7759C28.84 35.7548 27.6462 36.4711 26.2614 36.9248C24.9005 37.3784 23.3963 37.6052 21.7488 37.6052ZM36.2661 37.1396V18.1583H41.3517V20.7369C41.5427 20.3071 41.865 19.8534 42.3186 19.3759C42.7723 18.8984 43.3214 18.5045 43.9661 18.1941C44.6107 17.8598 45.327 17.6927 46.1149 17.6927C46.5208 17.6927 46.8431 17.7165 47.0819 17.7643C47.3206 17.8121 47.5355 17.8598 47.7265 17.9076V22.6708C47.6072 22.5992 47.3326 22.5156 46.9028 22.4201C46.473 22.3246 45.9717 22.2769 45.3986 22.2769C44.563 22.2769 43.8706 22.444 43.3214 22.7783C42.7961 23.1125 42.4022 23.5662 42.1396 24.1392C41.9008 24.7122 41.7814 25.3569 41.7814 26.0731V37.1396H36.2661ZM58.8289 37.6052C56.9665 37.6052 55.2952 37.259 53.8149 36.5666C52.3346 35.8503 51.1527 34.764 50.2693 33.3076C49.4098 31.8511 48.98 30.0246 48.98 27.828V27.1117C48.98 25.0107 49.3979 23.2677 50.2335 21.8829C51.0692 20.4981 52.2033 19.4595 53.6358 18.7671C55.0923 18.0508 56.7039 17.6927 58.4707 17.6927C61.5985 17.6927 63.9622 18.5045 65.5619 20.128C67.1616 21.7277 67.9614 24.0556 67.9614 27.1117V29.1173H54.6386C54.6864 30.0485 54.9013 30.8245 55.2833 31.4452C55.6892 32.066 56.2025 32.5196 56.8233 32.8062C57.4441 33.0688 58.1126 33.2001 58.8289 33.2001C59.8794 33.2001 60.7031 33.0449 61.3 32.7345C61.9208 32.4003 62.3267 31.9586 62.5177 31.4094H67.6033C67.2213 33.4866 66.2782 35.0386 64.774 36.0652C63.2698 37.0919 61.2881 37.6052 58.8289 37.6052ZM58.6498 22.0978C57.9813 22.0978 57.3486 22.2052 56.7517 22.4201C56.1548 22.635 55.6653 22.9931 55.2833 23.4945C54.9251 23.9721 54.7222 24.6286 54.6744 25.4643H62.5535C62.5535 24.5809 62.3744 23.9004 62.0163 23.4229C61.6582 22.9215 61.1806 22.5753 60.5837 22.3843C60.0107 22.1933 59.3661 22.0978 58.6498 22.0978ZM76.7302 37.6052C75.3693 37.6052 74.1994 37.3426 73.2205 36.8173C72.2654 36.2921 71.5372 35.5758 71.0358 34.6685C70.5344 33.7373 70.2837 32.7107 70.2837 31.5885C70.2837 29.7023 70.8568 28.2578 72.0028 27.255C73.1727 26.2522 74.9276 25.7508 77.2675 25.7508H82.6395V24.9629C82.6395 23.8169 82.365 23.029 81.8158 22.5992C81.2906 22.1694 80.5504 21.9545 79.5954 21.9545C78.6881 21.9545 78.0195 22.0978 77.5898 22.3843C77.16 22.6469 76.9213 23.0886 76.8735 23.7094H71.3582C71.4298 22.5634 71.7879 21.5367 72.4326 20.6294C73.1011 19.7221 74.0442 19.0058 75.2619 18.4806C76.5034 17.9553 78.0076 17.6927 79.7744 17.6927C81.4457 17.6927 82.9141 17.9434 84.1795 18.4448C85.445 18.9462 86.4239 19.7579 87.1163 20.8801C87.8326 21.9784 88.1907 23.4587 88.1907 25.321V32.3048C88.1907 33.3076 88.2146 34.191 88.2623 34.955C88.3101 35.6952 88.3817 36.4234 88.4772 37.1396H83.2126C83.1887 36.7338 83.1529 36.3756 83.1051 36.0652C83.0813 35.7548 83.0693 35.3728 83.0693 34.9192C82.4963 35.6832 81.6964 36.3279 80.6698 36.8531C79.667 37.3545 78.3538 37.6052 76.7302 37.6052ZM78.5209 33.7015C79.3088 33.7015 80.0132 33.5583 80.634 33.2717C81.2547 32.9852 81.7442 32.5555 82.1023 31.9824C82.4605 31.3855 82.6395 30.717 82.6395 29.9769V29.189H78.3419C77.5301 29.189 76.9213 29.4038 76.5154 29.8336C76.1333 30.2634 75.9423 30.7528 75.9423 31.302C75.9423 32.0183 76.1333 32.6032 76.5154 33.0569C76.9213 33.4866 77.5898 33.7015 78.5209 33.7015ZM99.654 37.3545C98.0782 37.3545 96.7889 37.1516 95.7861 36.7457C94.7833 36.3159 94.0431 35.6235 93.5656 34.6685C93.0881 33.6896 92.8493 32.3645 92.8493 30.6931V22.6708H90.5214V18.1583H92.8493V13.8606H98.3647V18.1583H102.698V22.6708H98.3647V29.7978C98.3647 30.8722 98.5318 31.6362 98.8661 32.0899C99.2242 32.5435 99.9047 32.7703 100.907 32.7703C101.624 32.7703 102.34 32.7345 103.056 32.6629V37.1396C102.603 37.2113 102.125 37.259 101.624 37.2829C101.122 37.3307 100.466 37.3545 99.654 37.3545ZM10.6465 67.1396V42.0699H20.8535C23.1933 42.0699 25.1153 42.4161 26.6195 43.1085C28.1237 43.777 29.2339 44.7559 29.9502 46.0452C30.6904 47.3107 31.0605 48.8387 31.0605 50.6294C31.0605 52.3962 30.6904 53.9243 29.9502 55.2136C29.2339 56.5029 28.1237 57.4938 26.6195 58.1862C25.1153 58.8547 23.1933 59.189 20.8535 59.189H17.093V67.1396H10.6465ZM17.093 53.8885H20.1372C21.7846 53.8885 22.9426 53.6139 23.6112 53.0648C24.2797 52.5156 24.6139 51.7038 24.6139 50.6294C24.6139 49.555 24.2797 48.7432 23.6112 48.1941C22.9426 47.6449 21.7846 47.3703 20.1372 47.3703H17.093V53.8885ZM40.7274 67.3545C39.1994 67.3545 37.9459 67.1755 36.967 66.8173C35.988 66.4353 35.2598 65.7548 34.7823 64.7759C34.3287 63.7731 34.1018 62.3286 34.1018 60.4424V42.0699H39.6172V59.6187C39.6172 60.7886 39.7724 61.6124 40.0828 62.0899C40.417 62.5435 41.0975 62.7703 42.1242 62.7703C42.4107 62.7703 42.6494 62.7703 42.8404 62.7703C43.0315 62.7465 43.2225 62.7226 43.4135 62.6987V67.2471C43.1747 67.271 42.9121 67.2829 42.6256 67.2829C42.3629 67.3068 42.0645 67.3187 41.7302 67.3187C41.4198 67.3426 41.0856 67.3545 40.7274 67.3545ZM51.8283 67.6052C50.4674 67.6052 49.2975 67.3426 48.3186 66.8173C47.3635 66.2921 46.6353 65.5758 46.1339 64.6685C45.6325 63.7373 45.3818 62.7107 45.3818 61.5885C45.3818 59.7023 45.9549 58.2578 47.1009 57.255C48.2708 56.2522 50.0257 55.7508 52.3656 55.7508H57.7377V54.9629C57.7377 53.8169 57.4631 53.029 56.9139 52.5992C56.3887 52.1694 55.6485 51.9545 54.6935 51.9545C53.7862 51.9545 53.1177 52.0978 52.6879 52.3843C52.2581 52.6469 52.0194 53.0886 51.9716 53.7094H46.4563C46.5279 52.5634 46.886 51.5367 47.5307 50.6294C48.1992 49.7221 49.1423 49.0058 50.36 48.4806C51.6015 47.9553 53.1057 47.6927 54.8725 47.6927C56.5439 47.6927 58.0122 47.9434 59.2777 48.4448C60.5431 48.9462 61.522 49.7579 62.2144 50.8801C62.9307 51.9784 63.2888 53.4587 63.2888 55.321V62.3048C63.2888 63.3076 63.3127 64.191 63.3604 64.955C63.4082 65.6952 63.4798 66.4234 63.5753 67.1396H58.3107C58.2868 66.7338 58.251 66.3756 58.2032 66.0652C58.1794 65.7548 58.1674 65.3728 58.1674 64.9192C57.5944 65.6832 56.7946 66.3279 55.7679 66.8531C54.7651 67.3545 53.4519 67.6052 51.8283 67.6052ZM53.619 63.7015C54.407 63.7015 55.1113 63.5583 55.7321 63.2717C56.3528 62.9852 56.8423 62.5555 57.2004 61.9824C57.5586 61.3855 57.7377 60.717 57.7377 59.9769V59.189H53.44C52.6282 59.189 52.0194 59.4038 51.6135 59.8336C51.2315 60.2634 51.0404 60.7528 51.0404 61.302C51.0404 62.0183 51.2315 62.6032 51.6135 63.0569C52.0194 63.4866 52.6879 63.7015 53.619 63.7015ZM75.6474 67.6052C73.7851 67.6052 72.1257 67.2471 70.6693 66.5308C69.2129 65.8145 68.0668 64.7282 67.2312 63.2717C66.3955 61.8153 65.9777 60.0007 65.9777 57.828V57.1117C65.9777 55.1062 66.4074 53.399 67.267 51.9903C68.1504 50.5817 69.3203 49.5192 70.7767 48.8029C72.257 48.0627 73.8806 47.6927 75.6474 47.6927C77.5575 47.6927 79.1572 48.0269 80.4465 48.6955C81.7358 49.3401 82.7267 50.2116 83.4191 51.3099C84.1115 52.4082 84.5054 53.6258 84.6009 54.9629H78.9065C78.7394 54.1034 78.3932 53.4468 77.8679 52.9931C77.3665 52.5156 76.6263 52.2769 75.6474 52.2769C74.8834 52.2769 74.191 52.4559 73.5702 52.8141C72.9733 53.1722 72.4958 53.7094 72.1377 54.4257C71.8034 55.1181 71.6363 56.0134 71.6363 57.1117V57.828C71.6363 58.9979 71.8034 59.9649 72.1377 60.729C72.4719 61.493 72.9375 62.066 73.5344 62.448C74.1313 62.8062 74.8356 62.9852 75.6474 62.9852C76.4831 62.9852 77.1874 62.7703 77.7605 62.3406C78.3574 61.8869 78.7394 61.2184 78.9065 60.335H84.6009C84.5054 61.8153 84.0756 63.1046 83.3116 64.2029C82.5476 65.3012 81.509 66.1488 80.1958 66.7457C78.9065 67.3187 77.3904 67.6052 75.6474 67.6052ZM96.4265 67.6052C94.5642 67.6052 92.8929 67.259 91.4126 66.5666C89.9323 65.8503 88.7504 64.764 87.867 63.3076C87.0074 61.8511 86.5777 60.0246 86.5777 57.828V57.1117C86.5777 55.0107 86.9955 53.2677 87.8312 51.8829C88.6668 50.4981 89.8009 49.4595 91.2335 48.7671C92.6899 48.0508 94.3016 47.6927 96.0684 47.6927C99.1961 47.6927 101.56 48.5045 103.16 50.128C104.759 51.7277 105.559 54.0556 105.559 57.1117V59.1173H92.2363C92.284 60.0485 92.4989 60.8245 92.8809 61.4452C93.2868 62.066 93.8002 62.5196 94.4209 62.8062C95.0417 63.0688 95.7102 63.2001 96.4265 63.2001C97.4771 63.2001 98.3008 63.0449 98.8977 62.7345C99.5185 62.4003 99.9243 61.9586 100.115 61.4094H105.201C104.819 63.4866 103.876 65.0386 102.372 66.0652C100.867 67.0919 98.8857 67.6052 96.4265 67.6052ZM96.2474 52.0978C95.5789 52.0978 94.9462 52.2052 94.3493 52.4201C93.7524 52.635 93.2629 52.9931 92.8809 53.4945C92.5228 53.9721 92.3198 54.6286 92.2721 55.4643H100.151C100.151 54.5809 99.9721 53.9004 99.614 53.4229C99.2558 52.9215 98.7783 52.5753 98.1814 52.3843C97.6084 52.1933 96.9637 52.0978 96.2474 52.0978ZM16.5558 97.1396V77.3703H8.85581V72.0699H30.7023V77.3703H23.0023V97.1396H16.5558ZM39.3089 97.6052C37.542 97.6052 35.9185 97.259 34.4382 96.5666C32.9817 95.8742 31.8118 94.7998 30.9284 93.3434C30.0689 91.8631 29.6391 90.0246 29.6391 87.828V87.1117C29.6391 85.0584 30.0689 83.3393 30.9284 81.9545C31.8118 80.5458 32.9817 79.4834 34.4382 78.7671C35.9185 78.0508 37.542 77.6927 39.3089 77.6927C41.0996 77.6927 42.7231 78.0508 44.1796 78.7671C45.636 79.4834 46.794 80.5458 47.6535 81.9545C48.5369 83.3393 48.9786 85.0584 48.9786 87.1117V87.828C48.9786 90.0007 48.5369 91.8153 47.6535 93.2717C46.794 94.7043 45.636 95.7907 44.1796 96.5308C42.7231 97.2471 41.0996 97.6052 39.3089 97.6052ZM39.3089 93.021C40.1684 93.021 40.8966 92.8181 41.4935 92.4122C42.0904 91.9824 42.5441 91.3736 42.8544 90.5857C43.1648 89.7978 43.32 88.8786 43.32 87.828V87.1117C43.32 86.1567 43.1648 85.321 42.8544 84.6048C42.5441 83.8885 42.0904 83.3274 41.4935 82.9215C40.8966 82.4917 40.1684 82.2769 39.3089 82.2769C38.4493 82.2769 37.7211 82.4917 37.1242 82.9215C36.5273 83.3274 36.0737 83.8885 35.7633 84.6048C35.4529 85.321 35.2977 86.1567 35.2977 87.1117V87.828C35.2977 88.9263 35.4529 89.8694 35.7633 90.6573C36.0737 91.4214 36.5273 92.0063 37.1242 92.4122C37.7211 92.8181 38.4493 93.021 39.3089 93.021ZM15.3023 127.14L8.81999 102.07H15.6605L19.0628 117.613L23.0023 102.07H29.0907L33.4958 117.685L37.1488 102.07H43.2372L36.7907 127.14H30.3442L25.8674 110.952L21.7488 127.14H15.3023ZM52.914 127.605C51.1471 127.605 49.5236 127.259 48.0433 126.567C46.5868 125.874 45.4169 124.8 44.5335 123.343C43.674 121.863 43.2442 120.025 43.2442 117.828V117.112C43.2442 115.058 43.674 113.339 44.5335 111.955C45.4169 110.546 46.5868 109.483 48.0433 108.767C49.5236 108.051 51.1471 107.693 52.914 107.693C54.7047 107.693 56.3282 108.051 57.7847 108.767C59.2411 109.483 60.3991 110.546 61.2586 111.955C62.142 113.339 62.5837 115.058 62.5837 117.112V117.828C62.5837 120.001 62.142 121.815 61.2586 123.272C60.3991 124.704 59.2411 125.791 57.7847 126.531C56.3282 127.247 54.7047 127.605 52.914 127.605ZM52.914 123.021C53.7735 123.021 54.5017 122.818 55.0986 122.412C55.6955 121.982 56.1492 121.374 56.4595 120.586C56.7699 119.798 56.9251 118.879 56.9251 117.828V117.112C56.9251 116.157 56.7699 115.321 56.4595 114.605C56.1492 113.888 55.6955 113.327 55.0986 112.922C54.5017 112.492 53.7735 112.277 52.914 112.277C52.0544 112.277 51.3262 112.492 50.7293 112.922C50.1324 113.327 49.6788 113.888 49.3684 114.605C49.058 115.321 48.9028 116.157 48.9028 117.112V117.828C48.9028 118.926 49.058 119.869 49.3684 120.657C49.6788 121.421 50.1324 122.006 50.7293 122.412C51.3262 122.818 52.0544 123.021 52.914 123.021ZM65.4349 127.14V108.158H70.5204V110.737C70.7114 110.307 71.0338 109.853 71.4874 109.376C71.9411 108.898 72.4902 108.504 73.1349 108.194C73.7795 107.86 74.4958 107.693 75.2837 107.693C75.6896 107.693 76.0119 107.717 76.2507 107.764C76.4894 107.812 76.7043 107.86 76.8953 107.908V112.671C76.7759 112.599 76.5014 112.516 76.0716 112.42C75.6418 112.325 75.1404 112.277 74.5674 112.277C73.7318 112.277 73.0394 112.444 72.4902 112.778C71.9649 113.113 71.571 113.566 71.3083 114.139C71.0696 114.712 70.9502 115.357 70.9502 116.073V127.14H65.4349ZM79.3897 127.14V102.07H84.9051V115.464L91.0292 108.158H97.2609L90.5995 116.145L98.013 127.14H91.6381L86.8748 119.977L84.9051 122.269V127.14H79.3897Z" fill="white"/>
<path d="M16.5721 184.343C15.1135 184.343 13.822 184.077 12.6977 183.545C11.5885 182.999 10.7225 182.125 10.0995 180.925C9.47658 179.724 9.16511 178.136 9.16511 176.161V175.728C9.16511 174.33 9.35503 173.13 9.73488 172.127C10.1147 171.125 10.6389 170.304 11.3074 169.666C11.9912 169.028 12.7812 168.557 13.6777 168.253C14.5741 167.949 15.5389 167.797 16.5721 167.797C17.4989 167.797 18.3726 167.903 19.193 168.116C20.0135 168.329 20.7276 168.663 21.3353 169.119C21.9583 169.575 22.4597 170.167 22.8395 170.897C23.2194 171.626 23.4473 172.515 23.5232 173.563H19.2614C19.1246 172.727 18.8056 172.127 18.3042 171.763C17.8028 171.398 17.2254 171.216 16.5721 171.216C15.9643 171.216 15.4174 171.368 14.9312 171.672C14.4601 171.96 14.0879 172.431 13.8144 173.085C13.5409 173.738 13.4042 174.619 13.4042 175.728V176.207C13.4042 177.088 13.4877 177.833 13.6549 178.44C13.822 179.048 14.0499 179.534 14.3386 179.899C14.6425 180.264 14.9843 180.53 15.3642 180.697C15.744 180.849 16.1467 180.925 16.5721 180.925C17.347 180.925 17.9623 180.742 18.4181 180.378C18.8891 179.998 19.1702 179.398 19.2614 178.577H23.5232C23.4625 179.641 23.2422 180.545 22.8623 181.289C22.4977 182.019 22.0039 182.611 21.3809 183.067C20.7732 183.507 20.0591 183.834 19.2386 184.047C18.4181 184.244 17.5293 184.343 16.5721 184.343ZM31.2712 184.343C30.0861 184.343 29.0225 184.123 28.0805 183.682C27.1385 183.226 26.3864 182.535 25.8242 181.608C25.2772 180.681 25.0038 179.519 25.0038 178.121V177.665C25.0038 176.328 25.2696 175.219 25.8014 174.338C26.3332 173.457 27.0549 172.796 27.9665 172.355C28.8934 171.899 29.9189 171.672 31.0433 171.672C33.0337 171.672 34.5379 172.188 35.5558 173.221C36.5738 174.239 37.0828 175.721 37.0828 177.665V178.942H28.6047C28.6351 179.534 28.7718 180.028 29.0149 180.423C29.2732 180.818 29.5999 181.107 29.9949 181.289C30.39 181.456 30.8154 181.54 31.2712 181.54C31.9397 181.54 32.4639 181.441 32.8438 181.244C33.2388 181.031 33.4971 180.75 33.6186 180.4H36.8549C36.6118 181.722 36.0117 182.71 35.0545 183.363C34.0972 184.016 32.8362 184.343 31.2712 184.343ZM31.1572 174.475C30.7318 174.475 30.3292 174.543 29.9493 174.68C29.5695 174.817 29.258 175.045 29.0149 175.364C28.787 175.667 28.6579 176.085 28.6275 176.617H33.6414C33.6414 176.055 33.5275 175.622 33.2996 175.318C33.0717 174.999 32.7678 174.779 32.3879 174.657C32.0233 174.536 31.6131 174.475 31.1572 174.475ZM38.9025 184.047V171.968H42.1388V173.609C42.2603 173.335 42.4655 173.047 42.7541 172.743C43.0428 172.439 43.3923 172.188 43.8025 171.991C44.2128 171.778 44.6686 171.672 45.17 171.672C45.4283 171.672 45.6334 171.687 45.7853 171.717C45.9372 171.747 46.074 171.778 46.1955 171.808V174.839C46.1196 174.794 45.9448 174.741 45.6714 174.68C45.3979 174.619 45.0788 174.589 44.7141 174.589C44.1824 174.589 43.7417 174.695 43.3923 174.908C43.058 175.121 42.8073 175.409 42.6402 175.774C42.4883 176.139 42.4123 176.549 42.4123 177.005V184.047H38.9025ZM53.3559 184.184C52.3531 184.184 51.5327 184.054 50.8945 183.796C50.2564 183.523 49.7854 183.082 49.4815 182.474C49.1776 181.851 49.0257 181.008 49.0257 179.945V174.839H47.5443V171.968H49.0257V169.233H52.5355V171.968H55.2931V174.839H52.5355V179.375C52.5355 180.059 52.6418 180.545 52.8545 180.833C53.0824 181.122 53.5155 181.266 54.1536 181.266C54.6094 181.266 55.0652 181.244 55.521 181.198V184.047C55.2324 184.092 54.9285 184.123 54.6094 184.138C54.2903 184.168 53.8725 184.184 53.3559 184.184ZM57.5811 184.047V171.968H61.0909V184.047H57.5811ZM59.336 170.828C58.6826 170.828 58.1737 170.661 57.809 170.327C57.4595 169.977 57.2848 169.537 57.2848 169.005C57.2848 168.473 57.4595 168.04 57.809 167.706C58.1737 167.356 58.6826 167.182 59.336 167.182C59.9893 167.182 60.4907 167.356 60.8402 167.706C61.2048 168.04 61.3871 168.473 61.3871 169.005C61.3871 169.537 61.2048 169.977 60.8402 170.327C60.4907 170.661 59.9893 170.828 59.336 170.828ZM64.291 184.047V174.839H62.9236V171.968H64.291V171.398C64.291 170.669 64.4277 170.053 64.7012 169.552C64.9899 169.035 65.4761 168.64 66.1598 168.367C66.8436 168.093 67.778 167.957 68.9631 167.957C69.191 167.957 69.4721 167.964 69.8063 167.979C70.1558 167.979 70.4445 168.002 70.6724 168.048V170.942C70.4445 170.912 70.1938 170.897 69.9203 170.897C69.662 170.881 69.4189 170.874 69.191 170.874C68.6592 170.874 68.2946 170.957 68.097 171.125C67.8995 171.276 67.8008 171.482 67.8008 171.74V171.968H70.4445V174.839H67.8008V184.047H64.291ZM72.1591 184.047V171.968H75.6689V184.047H72.1591ZM73.914 170.828C73.2607 170.828 72.7517 170.661 72.387 170.327C72.0376 169.977 71.8629 169.537 71.8629 169.005C71.8629 168.473 72.0376 168.04 72.387 167.706C72.7517 167.356 73.2607 167.182 73.914 167.182C74.5674 167.182 75.0687 167.356 75.4182 167.706C75.7829 168.04 75.9652 168.473 75.9652 169.005C75.9652 169.537 75.7829 169.977 75.4182 170.327C75.0687 170.661 74.5674 170.828 73.914 170.828ZM83.883 184.343C82.6979 184.343 81.6419 184.115 80.7151 183.659C79.7883 183.204 79.059 182.512 78.5272 181.585C77.9954 180.659 77.7295 179.504 77.7295 178.121V177.665C77.7295 176.389 78.003 175.303 78.55 174.406C79.1121 173.51 79.8566 172.834 80.7835 172.378C81.7255 171.907 82.7586 171.672 83.883 171.672C85.0985 171.672 86.1165 171.884 86.9369 172.31C87.7574 172.72 88.3879 173.274 88.8286 173.973C89.2692 174.672 89.5199 175.447 89.5807 176.298H85.9569C85.8506 175.751 85.6303 175.333 85.296 175.045C84.9769 174.741 84.5059 174.589 83.883 174.589C83.3968 174.589 82.9562 174.703 82.5611 174.931C82.1813 175.159 81.8774 175.5 81.6495 175.956C81.4368 176.397 81.3304 176.967 81.3304 177.665V178.121C81.3304 178.866 81.4368 179.481 81.6495 179.967C81.8622 180.454 82.1585 180.818 82.5383 181.061C82.9182 181.289 83.3664 181.403 83.883 181.403C84.4148 181.403 84.863 181.266 85.2276 180.993C85.6075 180.704 85.8506 180.279 85.9569 179.717H89.5807C89.5199 180.659 89.2464 181.479 88.7602 182.178C88.274 182.877 87.6131 183.416 86.7774 183.796C85.9569 184.161 84.9921 184.343 83.883 184.343ZM95.0549 184.343C94.1888 184.343 93.4443 184.176 92.8214 183.842C92.2136 183.507 91.7502 183.052 91.4312 182.474C91.1121 181.882 90.9526 181.228 90.9526 180.514C90.9526 179.314 91.3172 178.395 92.0465 177.757C92.791 177.119 93.9078 176.799 95.3967 176.799H98.8154V176.298C98.8154 175.569 98.6406 175.067 98.2912 174.794C97.9569 174.52 97.4859 174.384 96.8781 174.384C96.3008 174.384 95.8753 174.475 95.6019 174.657C95.3284 174.824 95.1764 175.105 95.146 175.5H91.6363C91.6819 174.771 91.9098 174.118 92.32 173.54C92.7454 172.963 93.3456 172.507 94.1205 172.173C94.9105 171.839 95.8678 171.672 96.9921 171.672C98.0557 171.672 98.9901 171.831 99.7954 172.15C100.601 172.469 101.224 172.986 101.664 173.7C102.12 174.399 102.348 175.341 102.348 176.526V180.97C102.348 181.608 102.363 182.17 102.393 182.657C102.424 183.128 102.469 183.591 102.53 184.047H99.18C99.1648 183.789 99.142 183.561 99.1116 183.363C99.0964 183.166 99.0888 182.923 99.0888 182.634C98.7242 183.12 98.2152 183.53 97.5619 183.865C96.9237 184.184 96.0881 184.343 95.0549 184.343ZM96.1944 181.859C96.6958 181.859 97.144 181.768 97.5391 181.585C97.9341 181.403 98.2456 181.13 98.4735 180.765C98.7014 180.385 98.8154 179.96 98.8154 179.489V178.987H96.0805C95.5639 178.987 95.1764 179.124 94.9181 179.398C94.675 179.671 94.5535 179.983 94.5535 180.332C94.5535 180.788 94.675 181.16 94.9181 181.449C95.1764 181.722 95.6019 181.859 96.1944 181.859ZM109.255 184.343C108.207 184.343 107.288 184.108 106.498 183.637C105.723 183.166 105.123 182.474 104.697 181.563C104.272 180.636 104.059 179.489 104.059 178.121V177.665C104.059 176.359 104.264 175.265 104.674 174.384C105.085 173.487 105.677 172.811 106.452 172.355C107.227 171.899 108.161 171.672 109.255 171.672C109.939 171.672 110.585 171.831 111.192 172.15C111.815 172.454 112.332 172.902 112.742 173.495V168.093H116.252V184.047H113.016V182.406C112.712 182.892 112.233 183.34 111.58 183.751C110.942 184.146 110.167 184.343 109.255 184.343ZM110.099 181.449C110.6 181.449 111.048 181.335 111.443 181.107C111.838 180.864 112.15 180.522 112.378 180.081C112.621 179.625 112.742 179.086 112.742 178.463V177.324C112.742 176.716 112.621 176.207 112.378 175.797C112.15 175.386 111.838 175.083 111.443 174.885C111.048 174.672 110.6 174.566 110.099 174.566C109.384 174.566 108.799 174.824 108.344 175.341C107.888 175.842 107.66 176.617 107.66 177.665V178.121C107.66 179.215 107.888 180.043 108.344 180.605C108.815 181.168 109.4 181.449 110.099 181.449ZM124.234 184.343C123.11 184.343 122.077 184.123 121.135 183.682C120.208 183.242 119.463 182.558 118.901 181.631C118.354 180.689 118.081 179.519 118.081 178.121V177.665C118.081 176.359 118.354 175.265 118.901 174.384C119.463 173.487 120.208 172.811 121.135 172.355C122.077 171.899 123.11 171.672 124.234 171.672C125.374 171.672 126.407 171.899 127.334 172.355C128.26 172.811 128.997 173.487 129.544 174.384C130.107 175.265 130.388 176.359 130.388 177.665V178.121C130.388 179.504 130.107 180.659 129.544 181.585C128.997 182.497 128.26 183.188 127.334 183.659C126.407 184.115 125.374 184.343 124.234 184.343ZM124.234 181.426C124.781 181.426 125.244 181.297 125.624 181.039C126.004 180.765 126.293 180.378 126.49 179.876C126.688 179.375 126.787 178.79 126.787 178.121V177.665C126.787 177.058 126.688 176.526 126.49 176.07C126.293 175.614 126.004 175.257 125.624 174.999C125.244 174.725 124.781 174.589 124.234 174.589C123.687 174.589 123.224 174.725 122.844 174.999C122.464 175.257 122.175 175.614 121.978 176.07C121.78 176.526 121.682 177.058 121.682 177.665V178.121C121.682 178.82 121.78 179.42 121.978 179.922C122.175 180.408 122.464 180.78 122.844 181.039C123.224 181.297 123.687 181.426 124.234 181.426Z" fill="white"/>
</svg>
