<svg width="37" height="33" viewBox="0 0 37 33" fill="none" xmlns="http://www.w3.org/2000/svg">
<g clip-path="url(#clip0_2550_22589)">
<path d="M15.2495 32.9998C14.6161 32.7099 14.2101 32.2747 14.2417 31.5414C14.272 30.8479 14.8582 30.2385 15.5675 30.2337C17.5091 30.2213 19.45 30.2234 21.3916 30.233C21.9792 30.2358 22.5077 30.671 22.6724 31.2363C22.842 31.8182 22.621 32.429 22.1059 32.7795C21.982 32.8635 21.8427 32.9268 21.7104 32.9998H15.2488H15.2495Z" fill="black"/>
<path d="M0.5 2.35217C1.0475 1.33717 1.76179 1.11337 2.81597 1.62845C3.66327 2.0423 4.52041 2.43825 5.35151 2.88033C6.30647 3.38852 6.43033 4.58738 5.61612 5.22985C5.15306 5.59481 4.62456 5.65197 4.09958 5.4082C3.13828 4.96267 2.19317 4.48409 1.24384 4.01584C0.880718 3.83681 0.66608 3.52556 0.5 3.17643V2.35149L0.5 2.35217Z" fill="black"/>
<path d="M0.5 18.8442C0.699859 18.3759 1.05735 18.0736 1.52041 17.8567C2.37403 17.4559 3.20795 17.0139 4.0665 16.6248C5.13476 16.1414 6.22695 16.8954 6.13688 18.0357C6.10099 18.4902 5.87227 18.8593 5.47115 19.0673C4.46904 19.5858 3.46341 20.1016 2.43103 20.5567C1.66256 20.8955 0.971499 20.5416 0.5 19.6684V18.8435L0.5 18.8442Z" fill="black"/>
<path d="M0.5 10.5983C0.820197 9.88968 1.36066 9.56879 2.16643 9.60391C3.00669 9.64041 3.84975 9.60873 4.69212 9.61355C5.53519 9.61837 6.14251 10.2078 6.14251 11.01C6.14251 11.8123 5.53519 12.4017 4.69282 12.4072C3.85116 12.4127 3.00739 12.3804 2.16714 12.4169C1.36207 12.452 0.820901 12.1311 0.5 11.4225V10.5976L0.5 10.5983Z" fill="black"/>
<path d="M18.4515 27.5261C17.5387 27.5261 16.626 27.5295 15.7133 27.5254C14.8329 27.5212 14.2446 26.9435 14.2425 26.0786C14.239 24.5788 14.2354 23.0791 14.2467 21.5793C14.2488 21.3052 14.1714 21.1599 13.9005 21.0346C10.2755 19.3537 8.00039 16.6124 7.35788 12.7176C6.78504 9.24361 7.77379 6.15522 10.1932 3.55092C12.1566 1.43759 14.6366 0.204298 17.5451 0.0280149C22.2122 -0.25569 25.8463 1.59803 28.2418 5.53272C30.854 9.82273 30.0525 15.3068 26.4212 18.8014C25.462 19.7249 24.3734 20.4761 23.1355 20.9974C22.7921 21.142 22.7076 21.3286 22.7119 21.6695C22.7295 23.1231 22.721 24.5775 22.7189 26.0311C22.7175 26.9635 22.1439 27.5233 21.1904 27.5261C20.2777 27.5288 19.3649 27.5261 18.4522 27.5261H18.4515ZM17.0996 22.2279C17.0996 22.9379 17.1102 23.6478 17.0947 24.3571C17.0884 24.6346 17.1693 24.7434 17.4691 24.7351C18.1355 24.7166 18.8033 24.7152 19.4698 24.7351C19.7815 24.7448 19.8702 24.6436 19.8667 24.3433C19.8519 23.0612 19.8603 21.779 19.8603 20.4968C19.8603 19.4391 20.1066 19.0913 21.1256 18.7546C25.2432 17.3953 27.4965 13.4117 26.7112 9.43573C25.8857 5.25934 21.7745 2.20676 17.1292 2.90776C11.0722 3.82223 8.03135 10.9004 11.6401 15.7447C12.7147 17.188 14.1221 18.1845 15.8477 18.756C16.8329 19.0824 17.0996 19.4474 17.0996 20.4754C17.0996 21.0594 17.0996 21.6433 17.0996 22.2273V22.2279Z" fill="black"/>
<path d="M32.2891 5.53639C31.6037 5.5357 31.0597 5.14595 30.8725 4.55582C30.6853 3.965 30.8824 3.30462 31.4355 2.98993C32.4552 2.41013 33.5108 1.88816 34.5981 1.44264C35.2863 1.16031 36.0379 1.51425 36.356 2.17462C36.6762 2.8405 36.4538 3.6145 35.7641 3.98083C34.8 4.49316 33.8071 4.95383 32.8233 5.43104C32.6438 5.5178 32.4461 5.55292 32.2898 5.53708L32.2891 5.53639Z" fill="black"/>
<path d="M32.2791 16.485C32.4797 16.4706 32.6943 16.5229 32.8956 16.6214C33.8259 17.0745 34.7626 17.5173 35.6823 17.991C36.3621 18.3415 36.6422 19.0136 36.4304 19.665C36.1756 20.448 35.3269 20.8928 34.555 20.5671C33.4937 20.1195 32.4571 19.612 31.4564 19.0467C30.8871 18.7251 30.6802 18.0585 30.8759 17.4567C31.068 16.8658 31.6098 16.4837 32.2798 16.485H32.2791Z" fill="black"/>
<path d="M33.6516 12.4078C33.1724 12.4078 32.6931 12.414 32.2146 12.4065C31.4116 12.3934 30.8135 11.7847 30.8184 10.9941C30.8226 10.2257 31.4236 9.62244 32.2125 9.61487C33.1703 9.60592 34.1287 9.60592 35.0872 9.61487C35.8902 9.62244 36.489 10.2367 36.4841 11.0258C36.4799 11.7929 35.8775 12.3934 35.0893 12.4058C34.6101 12.4134 34.1308 12.4072 33.6523 12.4072L33.6516 12.4078Z" fill="black"/>
<path d="M22.7154 10.0625C22.6021 11.4438 21.7956 12.6737 20.2509 13.4064C19.9828 13.5337 19.8913 13.6749 19.9047 13.951C19.9244 14.3621 19.9166 14.7753 19.9068 15.1871C19.8892 15.9521 19.2643 16.5326 18.4719 16.5306C17.6844 16.5285 17.0679 15.9411 17.0532 15.1712C17.0454 14.7705 17.0335 14.369 17.0567 13.9696C17.0743 13.6777 16.9715 13.5344 16.6957 13.3988C15.1024 12.6145 14.2502 11.3522 14.246 9.58666C14.2439 8.84917 14.8589 8.25697 15.6035 8.23906C16.4106 8.21909 17.0391 8.75896 17.0982 9.524C17.1573 10.2883 17.5021 10.7559 18.1256 10.9184C19.0292 11.1532 19.785 10.5548 19.8617 9.54328C19.9187 8.79408 20.5099 8.24457 21.2671 8.23906C22.1475 8.23218 22.7252 8.84366 22.7154 10.0625Z" fill="black"/>
</g>
<defs>
<clipPath id="clip0_2550_22589">
<rect width="36" height="33" fill="white" transform="translate(0.5)"/>
</clipPath>
</defs>
</svg>
