<svg width="112" height="96" viewBox="0 0 112 96" fill="none" xmlns="http://www.w3.org/2000/svg">
<g clip-path="url(#clip0_2843_9084)">
<path d="M112 26.0807H68.501L90.2523 0L112 26.0807Z" fill="#3F8F34"/>
<path d="M90.2523 0L68.501 26.0807H0L21.7513 0H90.2523Z" fill="#338527"/>
<path d="M112.004 26.0806H69.5146V95.9963H112.004V26.0806Z" fill="#3F8F34"/>
<path d="M69.5145 26.0806H0V95.9963H69.5145V26.0806Z" fill="#21343C"/>
<path d="M60.3068 34.7766H57.5186V37.6513H60.3068V34.7766Z" fill="#1D8010"/>
<path d="M60.3068 43.4043H57.5186V46.279H60.3068V43.4043Z" fill="#1D8010"/>
<path d="M60.3068 52.0322H57.5186V54.907H60.3068V52.0322Z" fill="#1D8010"/>
<path d="M60.3068 60.6599H57.5186V63.5346H60.3068V60.6599Z" fill="#1D8010"/>
<path d="M60.3068 69.2876H57.5186V72.1623H60.3068V69.2876Z" fill="#1D8010"/>
<path d="M51.9426 34.7766H49.1543V37.6513H51.9426V34.7766Z" fill="#1D8010"/>
<path d="M51.9426 43.4043H49.1543V46.279H51.9426V43.4043Z" fill="#1D8010"/>
<path d="M51.9426 52.0322H49.1543V54.907H51.9426V52.0322Z" fill="#1D8010"/>
<path d="M51.9426 60.6599H49.1543V63.5346H51.9426V60.6599Z" fill="#1D8010"/>
<path d="M51.9426 69.2876H49.1543V72.1623H51.9426V69.2876Z" fill="#1D8010"/>
<path d="M43.5773 34.7766H40.7891V37.6513H43.5773V34.7766Z" fill="#1D8010"/>
<path d="M43.5773 43.4043H40.7891V46.279H43.5773V43.4043Z" fill="#1D8010"/>
<path d="M43.5773 52.0322H40.7891V54.907H43.5773V52.0322Z" fill="#1D8010"/>
<path d="M43.5773 60.6599H40.7891V63.5346H43.5773V60.6599Z" fill="#1D8010"/>
<path d="M43.5773 69.2876H40.7891V72.1623H43.5773V69.2876Z" fill="#1D8010"/>
<path d="M35.2131 34.7766H32.4248V37.6513H35.2131V34.7766Z" fill="#1D8010"/>
<path d="M35.2131 43.4043H32.4248V46.279H35.2131V43.4043Z" fill="#1D8010"/>
<path d="M35.2131 52.0322H32.4248V54.907H35.2131V52.0322Z" fill="#1D8010"/>
<path d="M35.2131 60.6599H32.4248V63.5346H35.2131V60.6599Z" fill="#1D8010"/>
<path d="M35.2131 69.2876H32.4248V72.1623H35.2131V69.2876Z" fill="#1D8010"/>
<path d="M26.8478 34.7766H24.0596V37.6513H26.8478V34.7766Z" fill="#1D8010"/>
<path d="M26.8478 43.4043H24.0596V46.279H26.8478V43.4043Z" fill="#1D8010"/>
<path d="M26.8478 52.0322H24.0596V54.907H26.8478V52.0322Z" fill="#1D8010"/>
<path d="M26.8478 60.6599H24.0596V63.5346H26.8478V60.6599Z" fill="#1D8010"/>
<path d="M26.8478 69.2876H24.0596V72.1623H26.8478V69.2876Z" fill="#1D8010"/>
<path d="M18.4836 34.7766H15.6953V37.6513H18.4836V34.7766Z" fill="#1D8010"/>
<path d="M18.4836 43.4043H15.6953V46.279H18.4836V43.4043Z" fill="#1D8010"/>
<path d="M18.4836 52.0322H15.6953V54.907H18.4836V52.0322Z" fill="#1D8010"/>
<path d="M18.4836 60.6599H15.6953V63.5346H18.4836V60.6599Z" fill="#1D8010"/>
<path d="M18.4836 69.2876H15.6953V72.1623H18.4836V69.2876Z" fill="#1D8010"/>
<path d="M10.1183 34.7766H7.33008V37.6513H10.1183V34.7766Z" fill="#1D8010"/>
<path d="M10.1183 43.4043H7.33008V46.279H10.1183V43.4043Z" fill="#1D8010"/>
<path d="M10.1183 52.0322H7.33008V54.907H10.1183V52.0322Z" fill="#1D8010"/>
<path d="M10.1183 60.6599H7.33008V63.5346H10.1183V60.6599Z" fill="#1D8010"/>
<path d="M10.1183 69.2876H7.33008V72.1623H10.1183V69.2876Z" fill="#1D8010"/>
<path d="M60.3068 77.9155H57.5186V80.7902H60.3068V77.9155Z" fill="#1D8010"/>
<path d="M51.9426 77.9155H49.1543V80.7902H51.9426V77.9155Z" fill="#1D8010"/>
<path d="M43.5773 77.9155H40.7891V80.7902H43.5773V77.9155Z" fill="#1D8010"/>
<path d="M35.2131 77.9155H32.4248V80.7902H35.2131V77.9155Z" fill="#1D8010"/>
<path d="M26.8478 77.9155H24.0596V80.7902H26.8478V77.9155Z" fill="#1D8010"/>
<path d="M18.4836 77.9155H15.6953V80.7902H18.4836V77.9155Z" fill="#1D8010"/>
<path d="M10.1183 77.9155H7.33008V80.7902H10.1183V77.9155Z" fill="#1D8010"/>
<path d="M29.5395 0L7.78823 26.0807H5.61523L27.3665 0H29.5395Z" fill="#21343C"/>
<path d="M38.7221 0L16.9708 26.0807H14.7979L36.5492 0H38.7221Z" fill="#21343C"/>
<path d="M47.9048 0L26.1535 26.0807H23.9805L45.7318 0H47.9048Z" fill="#21343C"/>
<path d="M57.0874 0L35.3361 26.0807H33.1631L54.9144 0H57.0874Z" fill="#21343C"/>
<path d="M66.271 0L44.5197 26.0807H42.3467L64.098 0H66.271Z" fill="#21343C"/>
<path d="M75.4536 0L53.7023 26.0807H51.5293L73.2806 0H75.4536Z" fill="#21343C"/>
<path d="M84.6362 0L62.8849 26.0807H60.7119L82.4632 0H84.6362Z" fill="#21343C"/>
</g>
<defs>
<clipPath id="clip0_2843_9084">
<rect width="112" height="96" fill="white"/>
</clipPath>
</defs>
</svg>
