<svg width="97" height="29" viewBox="0 0 97 29" fill="none" xmlns="http://www.w3.org/2000/svg">
<g clip-path="url(#clip0_2843_9142)">
<path d="M6.59343 16.4585H4.97754V28.3997H6.59343V16.4585Z" fill="#1D8010"/>
<path d="M24.9479 16.4585H23.332V28.3997H24.9479V16.4585Z" fill="#1D8010"/>
<path d="M7.28439 27.6672H4.28733C3.67433 27.6672 3.17773 28.1646 3.17773 28.7786V29.0001H8.39204V28.7786C8.39204 28.1646 7.89544 27.6672 7.28245 27.6672H7.28439Z" fill="#1D8010"/>
<path d="M25.6389 27.6672H22.6418C22.0288 27.6672 21.5322 28.1646 21.5322 28.7786V29.0001H26.7465V28.7786C26.7465 28.1646 26.2499 27.6672 25.6369 27.6672H25.6389Z" fill="#1D8010"/>
<path d="M0 18.005H28.1782L33.5593 0H5.38113L0 18.005Z" fill="white"/>
<path d="M4.55859 8.17378H11.7923L13.7399 1.65723H6.5062L4.55859 8.17378Z" fill="#D0E3CE"/>
<path d="M2.11426 16.3495H9.34794L11.2955 9.83105H4.0638L2.11426 16.3495Z" fill="#D0E3CE"/>
<path d="M13.4121 8.17378H20.6439L22.5915 1.65723H15.3597L13.4121 8.17378Z" fill="#D0E3CE"/>
<path d="M10.9678 16.3495H18.2015L20.1491 9.83105H12.9154L10.9678 16.3495Z" fill="#D0E3CE"/>
<path d="M22.2637 8.17378H29.4974L31.445 1.65723H24.2132L22.2637 8.17378Z" fill="#D0E3CE"/>
<path d="M19.8213 16.3495H27.053L29.0006 9.83105H21.7689L19.8213 16.3495Z" fill="#D0E3CE"/>
<path d="M0 18.0051L0.857411 19.6061H29.0356L28.1782 18.0051H0Z" fill="#1D8010"/>
<path d="M28.1777 18.005L29.0351 19.606L34.4163 1.60096L33.5589 0L28.1777 18.005Z" fill="#3F8F34"/>
<path d="M37.8268 16.4563H36.2129V28.378H37.8268V16.4563Z" fill="#1D8010"/>
<path d="M56.153 16.4563H54.5391V28.378H56.153V16.4563Z" fill="#1D8010"/>
<path d="M38.5159 27.6477H35.5246C34.9136 27.6477 34.417 28.1451 34.417 28.7571V28.9786H39.6235V28.7571C39.6235 28.1451 39.1269 27.6477 38.5159 27.6477Z" fill="#1D8010"/>
<path d="M56.8411 27.6477H53.8498C53.2388 27.6477 52.7422 28.1451 52.7422 28.7571V28.9786H57.9487V28.7571C57.9487 28.1451 57.4521 27.6477 56.8411 27.6477Z" fill="#1D8010"/>
<path d="M31.2432 17.9991H59.3767L64.7501 0.0231934H36.6165L31.2432 17.9991Z" fill="white"/>
<path d="M35.7939 8.18335H43.016L44.9617 1.67651H37.7396L35.7939 8.18335Z" fill="#D0E3CE"/>
<path d="M33.3555 16.3455H40.5756L42.5212 9.83862H35.3011L33.3555 16.3455Z" fill="#D0E3CE"/>
<path d="M44.6338 8.18335H51.8539L53.7996 1.67651H46.5775L44.6338 8.18335Z" fill="#D0E3CE"/>
<path d="M42.1934 16.3457H49.4154L51.3591 9.83887H44.139L42.1934 16.3457Z" fill="#D0E3CE"/>
<path d="M53.4717 8.18335H60.6937L62.6374 1.67651H55.4173L53.4717 8.18335Z" fill="#D0E3CE"/>
<path d="M51.0312 16.3455H58.2533L60.199 9.83862H52.9769L51.0312 16.3455Z" fill="#D0E3CE"/>
<path d="M31.2432 17.999L32.0986 19.598H60.2322L59.3767 17.999H31.2432Z" fill="#1D8010"/>
<path d="M59.377 17.9991L60.2324 19.5981L65.6058 1.62027L64.7503 0.0231934L59.377 17.9991Z" fill="#3F8F34"/>
<path d="M69.2214 16.4563H67.6074V28.378H69.2214V16.4563Z" fill="#1D8010"/>
<path d="M87.5475 16.4563H85.9336V28.378H87.5475V16.4563Z" fill="#1D8010"/>
<path d="M69.9104 27.6477H66.9192C66.3081 27.6477 65.8115 28.1451 65.8115 28.7571V28.9786H71.0181V28.7571C71.0181 28.1451 70.5215 27.6477 69.9104 27.6477Z" fill="#1D8010"/>
<path d="M88.2356 27.6477H85.2444C84.6333 27.6477 84.1367 28.1451 84.1367 28.7571V28.9786H89.3433V28.7571C89.3433 28.1451 88.8467 27.6477 88.2356 27.6477Z" fill="#1D8010"/>
<path d="M62.6377 17.9991H90.7713L96.1446 0.0231934H68.0111L62.6377 17.9991Z" fill="white"/>
<path d="M67.1885 8.18335H74.4105L76.3562 1.67651H69.1341L67.1885 8.18335Z" fill="#D0E3CE"/>
<path d="M64.75 16.3455H71.9701L73.9158 9.83862H66.6957L64.75 16.3455Z" fill="#D0E3CE"/>
<path d="M76.0283 8.18335H83.2484L85.1941 1.67651H77.972L76.0283 8.18335Z" fill="#D0E3CE"/>
<path d="M73.5879 16.3457H80.8099L82.7537 9.83887H75.5336L73.5879 16.3457Z" fill="#D0E3CE"/>
<path d="M84.8662 8.18335H92.0883L94.032 1.67651H86.8119L84.8662 8.18335Z" fill="#D0E3CE"/>
<path d="M82.4277 16.3455H89.6478L91.5935 9.83862H84.3715L82.4277 16.3455Z" fill="#D0E3CE"/>
<path d="M62.6377 17.999L63.4932 19.598H91.6267L90.7713 17.999H62.6377Z" fill="#1D8010"/>
<path d="M90.7715 17.9991L91.627 19.5981L97.0003 1.62027L96.1449 0.0231934L90.7715 17.9991Z" fill="#3F8F34"/>
</g>
<defs>
<clipPath id="clip0_2843_9142">
<rect width="97" height="29" fill="white"/>
</clipPath>
</defs>
</svg>
