<svg width="52" height="133" viewBox="0 0 52 133" fill="none" xmlns="http://www.w3.org/2000/svg">
<g clip-path="url(#clip0_2843_9194)">
<path d="M34 61.9587C34 73.1021 43 82.1341 43 82.1341C43 82.1341 52 73.1021 52 61.9587C52 50.8154 43 24 43 24C43 24 34 50.8154 34 61.9587Z" fill="#3F8F34"/>
<path d="M42.9996 58.0479C42.794 58.0479 42.6289 58.2079 42.6289 58.4072V108.641C42.6289 108.84 42.794 109 42.9996 109C43.2052 109 43.3702 108.84 43.3702 108.641V58.4072C43.3702 58.2079 43.2052 58.0479 42.9996 58.0479Z" fill="#4AF387"/>
</g>
<g clip-path="url(#clip1_2843_9194)">
<path d="M0 59.3942C0 76.8303 14 90.9628 14 90.9628C14 90.9628 28 76.8303 28 59.3942C28 41.9582 14 0 14 0C14 0 0 41.9582 0 59.3942Z" fill="#3F8F34"/>
<path d="M14.0004 53.2747C13.6806 53.2747 13.4238 53.5251 13.4238 53.837V132.438C13.4238 132.75 13.6806 133 14.0004 133C14.3202 133 14.577 132.75 14.577 132.438V53.837C14.577 53.5251 14.3202 53.2747 14.0004 53.2747Z" fill="#4AF387"/>
</g>
<defs>
<clipPath id="clip0_2843_9194">
<rect width="18" height="85" fill="white" transform="translate(34 24)"/>
</clipPath>
<clipPath id="clip1_2843_9194">
<rect width="28" height="133" fill="white"/>
</clipPath>
</defs>
</svg>
